<svg xmlns="http://www.w3.org/2000/svg" xmlns:xlink="http://www.w3.org/1999/xlink" contentStyleType="text/css" data-diagram-type="DESCRIPTION" height="1013px" preserveAspectRatio="none" style="width:2254px;height:1013px;background:#FFFFFF;" version="1.1" viewBox="0 0 2254 1013" width="2254px" zoomAndPan="magnify"><title>HTTPZ Components Overview</title><defs/><g><text fill="#000000" font-family="sans-serif" font-size="14" font-weight="bold" lengthAdjust="spacing" textLength="215.5098" x="1012.2451" y="23.5352">HTTPZ Components Overview</text><!--cluster zws--><g id="cluster_zws"><rect fill="#D3D3D3" height="154.49" rx="2.5" ry="2.5" style="stroke:#FFFFFF;stroke-width:1;" width="502" x="1111" y="384.4583"/><text fill="#000000" font-family="sans-serif" font-size="14" font-weight="bold" lengthAdjust="spacing" textLength="29.6748" x="1347.1626" y="399.9934">ZWS</text></g><!--cluster relayer--><g id="cluster_relayer"><rect fill="#D3D3D3" height="87.49" rx="2.5" ry="2.5" style="stroke:#FFFFFF;stroke-width:1;" width="230" x="1359" y="427.4583"/><text fill="#000000" font-family="sans-serif" font-size="14" font-weight="bold" lengthAdjust="spacing" textLength="205.4609" x="1371.2695" y="442.9934">ZWS HTTP Relayer (optional)</text></g><!--cluster l1_relayer--><g id="cluster_l1_relayer"><rect fill="#D3D3D3" height="87.49" rx="2.5" ry="2.5" style="stroke:#FFFFFF;stroke-width:1;" width="200" x="1135" y="427.4583"/><text fill="#000000" font-family="sans-serif" font-size="14" font-weight="bold" lengthAdjust="spacing" textLength="184.0098" x="1142.9951" y="442.9934">ZWS L1 Relayer (optional)</text></g><!--cluster fhevmBc--><g id="cluster_fhevmBc"><rect fill="#D3D3D3" height="184.98" rx="2.5" ry="2.5" style="stroke:#FFFFFF;stroke-width:1;" width="518" x="732" y="166.4783"/><text fill="#000000" font-family="sans-serif" font-size="14" font-weight="bold" lengthAdjust="spacing" textLength="55.4463" x="963.2769" y="182.0134">Host L1</text></g><!--cluster httpzRollup--><g id="cluster_httpzRollup"><rect fill="#D3D3D3" height="247.97" rx="2.5" ry="2.5" style="stroke:#FFFFFF;stroke-width:1;" width="693" x="1016" y="614.9483"/><text fill="#000000" font-family="sans-serif" font-size="14" font-weight="bold" lengthAdjust="spacing" textLength="83.0088" x="1320.9956" y="630.4834">Gateway L2</text></g><!--cluster ciphertextDa--><g id="cluster_ciphertextDa"><rect fill="#D3D3D3" height="87.49" rx="2.5" ry="2.5" style="stroke:#FFFFFF;stroke-width:1;" width="180" x="1733" y="775.4283"/><text fill="#000000" font-family="sans-serif" font-size="14" font-weight="bold" lengthAdjust="spacing" textLength="101.4111" x="1772.2944" y="790.9634">Ciphertext DA</text></g><!--cluster keychainDA--><g id="cluster_keychainDA"><rect fill="#D3D3D3" height="87.49" rx="2.5" ry="2.5" style="stroke:#FFFFFF;stroke-width:1;" width="140" x="2076" y="919.9183"/><text fill="#000000" font-family="sans-serif" font-size="14" font-weight="bold" lengthAdjust="spacing" textLength="93.4746" x="2099.2627" y="935.4534">KeyChain DA</text></g><!--cluster kms_party--><g id="cluster_kms_party"><rect fill="#D3D3D3" height="314.97" rx="2.5" ry="2.5" style="stroke:#FFFFFF;stroke-width:1;" width="311" x="1937" y="571.9483"/><text fill="#000000" font-family="sans-serif" font-size="14" font-weight="bold" lengthAdjust="spacing" textLength="73.0625" x="2055.9688" y="587.4834">Kms Party</text></g><!--cluster kmsCore--><g id="cluster_kmsCore"><rect fill="#D3D3D3" height="87.49" rx="2.5" ry="2.5" style="stroke:#FFFFFF;stroke-width:1;" width="263" x="1961" y="775.4283"/><text fill="#000000" font-family="sans-serif" font-size="14" font-weight="bold" lengthAdjust="spacing" textLength="69.5283" x="2057.7358" y="790.9634">Kms Core</text></g><!--cluster kmsConnector--><g id="cluster_kmsConnector"><rect fill="#D3D3D3" height="87.48" rx="2.5" ry="2.5" style="stroke:#FFFFFF;stroke-width:1;" width="263" x="1961" y="614.9483"/><text fill="#000000" font-family="sans-serif" font-size="14" font-weight="bold" lengthAdjust="spacing" textLength="106.6748" x="2039.1626" y="630.4834">KMS connector</text></g><!--cluster copro_party--><g id="cluster_copro_party"><rect fill="#D3D3D3" height="341.97" rx="2.5" ry="2.5" style="stroke:#FFFFFF;stroke-width:1;" width="985" x="7" y="384.4583"/><text fill="#000000" font-family="sans-serif" font-size="14" font-weight="bold" lengthAdjust="spacing" textLength="132.6104" x="433.1948" y="399.9934">Coprocessor party</text></g><!--cluster coprocessor--><g id="cluster_coprocessor"><rect fill="#D3D3D3" height="87.49" rx="2.5" ry="2.5" style="stroke:#FFFFFF;stroke-width:1;" width="459" x="31" y="427.4583"/><text fill="#000000" font-family="sans-serif" font-size="14" font-weight="bold" lengthAdjust="spacing" textLength="90.2891" x="215.3555" y="442.9934">Coprocessor</text></g><!--cluster coprocessor_zkpokService--><g id="cluster_coprocessor_zkpokService"><rect fill="#D3D3D3" height="87.48" rx="2.5" ry="2.5" style="stroke:#FFFFFF;stroke-width:1;" width="148" x="235" y="614.9483"/><text fill="#000000" font-family="sans-serif" font-size="14" font-weight="bold" lengthAdjust="spacing" textLength="101.042" x="258.479" y="630.4834">ZkPoK Service</text></g><!--cluster coprocessorDa--><g id="cluster_coprocessorDa"><rect fill="#D3D3D3" height="87.48" rx="2.5" ry="2.5" style="stroke:#FFFFFF;stroke-width:1;" width="180" x="31" y="614.9483"/><text fill="#000000" font-family="sans-serif" font-size="14" font-weight="bold" lengthAdjust="spacing" textLength="116.3135" x="62.8433" y="630.4834">Coprocessor DA</text></g><!--cluster coprocessorId--><g id="cluster_coprocessorId"><rect fill="#D3D3D3" height="87.49" rx="2.5" ry="2.5" style="stroke:#FFFFFF;stroke-width:1;" width="228" x="514" y="427.4583"/><text fill="#000000" font-family="sans-serif" font-size="14" font-weight="bold" lengthAdjust="spacing" textLength="150.2813" x="552.8594" y="442.9934">Coprocessor Identity</text></g><!--cluster coprocessorKeys--><g id="cluster_coprocessorKeys"><rect fill="#D3D3D3" height="87.49" rx="2.5" ry="2.5" style="stroke:#FFFFFF;stroke-width:1;" width="202" x="766" y="427.4583"/><text fill="#000000" font-family="sans-serif" font-size="14" font-weight="bold" lengthAdjust="spacing" textLength="129.124" x="802.438" y="442.9934">Coprocessor Keys</text></g><!--entity decrypt_relayer--><g id="elem_decrypt_relayer"><rect fill="#F1F1F1" height="36.4883" rx="2.5" ry="2.5" style="stroke:#181818;stroke-width:0.5;" width="107.3428" x="1465.33" y="462.4583"/><text fill="#000000" font-family="sans-serif" font-size="14" lengthAdjust="spacing" textLength="87.3428" x="1475.33" y="485.9934">User Decrypt</text></g><!--entity input_relayer--><g id="elem_input_relayer"><rect fill="#F1F1F1" height="36.4883" rx="2.5" ry="2.5" style="stroke:#181818;stroke-width:0.5;" width="55.458" x="1375.27" y="462.4583"/><text fill="#000000" font-family="sans-serif" font-size="14" lengthAdjust="spacing" textLength="35.458" x="1385.27" y="485.9934">Input</text></g><!--entity l1_relayer_decrypt--><g id="elem_l1_relayer_decrypt"><rect fill="#F1F1F1" height="36.4883" rx="2.5" ry="2.5" style="stroke:#181818;stroke-width:0.5;" width="63.3535" x="1255.32" y="462.4583"/><text fill="#000000" font-family="sans-serif" font-size="14" lengthAdjust="spacing" textLength="43.3535" x="1265.32" y="485.9934">Oracle</text></g><!--entity fhevm_dappContract--><g id="elem_fhevm_dappContract"><rect fill="#F1F1F1" height="36.4883" rx="2.5" ry="2.5" style="stroke:#181818;stroke-width:0.5;" width="118.3486" x="1115.83" y="201.4783"/><text fill="#000000" font-family="sans-serif" font-size="14" lengthAdjust="spacing" textLength="98.3486" x="1125.83" y="225.0134">Dapp Contract</text></g><!--entity fhevm_OracleContract--><g id="elem_fhevm_OracleContract"><rect fill="#F1F1F1" height="36.4883" rx="2.5" ry="2.5" style="stroke:#181818;stroke-width:0.5;" width="125.8613" x="963.07" y="298.9683"/><text fill="#000000" font-family="sans-serif" font-size="14" lengthAdjust="spacing" textLength="105.8613" x="973.07" y="322.5034">Oracle Contract</text></g><!--entity fhevm_aclContract--><g id="elem_fhevm_aclContract"><rect fill="#F1F1F1" height="36.4883" rx="2.5" ry="2.5" style="stroke:#181818;stroke-width:0.5;" width="109.3184" x="748.34" y="201.4783"/><text fill="#000000" font-family="sans-serif" font-size="14" lengthAdjust="spacing" textLength="89.3184" x="758.34" y="225.0134">ACL Contract</text></g><!--entity fhevm_tfheExecutorContract--><g id="elem_fhevm_tfheExecutorContract"><rect fill="#F1F1F1" height="36.4883" rx="2.5" ry="2.5" style="stroke:#181818;stroke-width:0.5;" width="180.5693" x="747.72" y="298.9683"/><text fill="#000000" font-family="sans-serif" font-size="14" lengthAdjust="spacing" textLength="160.5693" x="757.72" y="322.5034">TFHE Executor Contract</text></g><!--entity fhevm_inputVerifierContract--><g id="elem_fhevm_inputVerifierContract"><rect fill="#F1F1F1" height="36.4883" rx="2.5" ry="2.5" style="stroke:#181818;stroke-width:0.5;" width="109.3389" x="1124.33" y="298.9683"/><text fill="#000000" font-family="sans-serif" font-size="14" lengthAdjust="spacing" textLength="89.3389" x="1134.33" y="322.5034">Input Verifier</text></g><!--entity httpzRollup_aclContract--><g id="elem_httpzRollup_aclContract"><rect fill="#F1F1F1" height="36.4883" rx="2.5" ry="2.5" style="stroke:#181818;stroke-width:0.5;" width="107.958" x="1394.02" y="649.9483"/><text fill="#000000" font-family="sans-serif" font-size="14" lengthAdjust="spacing" textLength="87.958" x="1404.02" y="673.4834">Gateway ACL</text></g><!--entity httpzRollup_ZkPoKManagerContract--><g id="elem_httpzRollup_ZkPoKManagerContract"><rect fill="#F1F1F1" height="36.4883" rx="2.5" ry="2.5" style="stroke:#181818;stroke-width:0.5;" width="125.0205" x="1234.49" y="649.9483"/><text fill="#000000" font-family="sans-serif" font-size="14" lengthAdjust="spacing" textLength="105.0205" x="1244.49" y="673.4834">ZkPoK Manager</text></g><!--entity httpzRollup_decryptionManagerContract--><g id="elem_httpzRollup_decryptionManagerContract"><rect fill="#F1F1F1" height="36.4883" rx="2.5" ry="2.5" style="stroke:#181818;stroke-width:0.5;" width="156.7803" x="1536.61" y="649.9483"/><text fill="#000000" font-family="sans-serif" font-size="14" lengthAdjust="spacing" textLength="136.7803" x="1546.61" y="673.4834">Decryption Manager</text></g><!--entity httpzRollup_coprocessorManagerContract--><g id="elem_httpzRollup_coprocessorManagerContract"><rect fill="#F1F1F1" height="36.4883" rx="2.5" ry="2.5" style="stroke:#181818;stroke-width:0.5;" width="167.8955" x="1032.05" y="649.9483"/><text fill="#000000" font-family="sans-serif" font-size="14" lengthAdjust="spacing" textLength="147.8955" x="1042.05" y="673.4834">Coprocessor Manager</text></g><!--entity httpzRollup_domainManagerContract--><g id="elem_httpzRollup_domainManagerContract"><rect fill="#F1F1F1" height="36.4883" rx="2.5" ry="2.5" style="stroke:#181818;stroke-width:0.5;" width="135.5205" x="1557.24" y="810.4283"/><text fill="#000000" font-family="sans-serif" font-size="14" lengthAdjust="spacing" textLength="115.5205" x="1567.24" y="833.9634">Domain Manager</text></g><!--entity ciphertextDa_ciphertextStorage--><g id="elem_ciphertextDa_ciphertextStorage"><rect fill="#F1F1F1" height="36.4883" rx="2.5" ry="2.5" style="stroke:#181818;stroke-width:0.5;" width="147.415" x="1749.29" y="810.4283"/><text fill="#000000" font-family="sans-serif" font-size="14" lengthAdjust="spacing" textLength="127.415" x="1759.29" y="833.9634">Ciphertext Storage</text></g><!--entity keychainDA_Api--><g id="elem_keychainDA_Api"><rect fill="#F1F1F1" height="36.4883" rx="2.5" ry="2.5" style="stroke:#181818;stroke-width:0.5;" width="107.1855" x="2092.41" y="954.9183"/><text fill="#000000" font-family="sans-serif" font-size="14" lengthAdjust="spacing" textLength="87.1855" x="2102.41" y="978.4534">Keys Storage</text></g><!--entity kmsCore_decrypt--><g id="elem_kmsCore_decrypt"><rect fill="#F1F1F1" height="36.4883" rx="2.5" ry="2.5" style="stroke:#181818;stroke-width:0.5;" width="72.5479" x="1976.73" y="810.4283"/><text fill="#000000" font-family="sans-serif" font-size="14" lengthAdjust="spacing" textLength="52.5479" x="1986.73" y="833.9634">Decrypt</text></g><!--entity kmsCore_keygen--><g id="elem_kmsCore_keygen"><rect fill="#F1F1F1" height="36.4883" rx="2.5" ry="2.5" style="stroke:#181818;stroke-width:0.5;" width="123.1201" x="2084.44" y="810.4283"/><text fill="#000000" font-family="sans-serif" font-size="14" lengthAdjust="spacing" textLength="103.1201" x="2094.44" y="833.9634">Key Generation</text></g><!--entity kmsConnector_decrypt--><g id="elem_kmsConnector_decrypt"><rect fill="#F1F1F1" height="36.4883" rx="2.5" ry="2.5" style="stroke:#181818;stroke-width:0.5;" width="72.5479" x="1976.73" y="649.9483"/><text fill="#000000" font-family="sans-serif" font-size="14" lengthAdjust="spacing" textLength="52.5479" x="1986.73" y="673.4834">Decrypt</text></g><!--entity kmsConnector_keygen--><g id="elem_kmsConnector_keygen"><rect fill="#F1F1F1" height="36.4883" rx="2.5" ry="2.5" style="stroke:#181818;stroke-width:0.5;" width="123.1201" x="2084.44" y="649.9483"/><text fill="#000000" font-family="sans-serif" font-size="14" lengthAdjust="spacing" textLength="103.1201" x="2094.44" y="673.4834">Key Generation</text></g><!--entity coprocessor_computeHandler--><g id="elem_coprocessor_computeHandler"><rect fill="#F1F1F1" height="36.4883" rx="2.5" ry="2.5" style="stroke:#181818;stroke-width:0.5;" width="139.417" x="47.29" y="462.4583"/><text fill="#000000" font-family="sans-serif" font-size="14" lengthAdjust="spacing" textLength="119.417" x="57.29" y="485.9934">Compute Handler</text></g><!--entity coprocessor_inputHandler--><g id="elem_coprocessor_inputHandler"><rect fill="#F1F1F1" height="36.4883" rx="2.5" ry="2.5" style="stroke:#181818;stroke-width:0.5;" width="112.9824" x="221.51" y="462.4583"/><text fill="#000000" font-family="sans-serif" font-size="14" lengthAdjust="spacing" textLength="92.9824" x="231.51" y="485.9934">Input Handler</text></g><!--entity coprocessor_aclHandler--><g id="elem_coprocessor_aclHandler"><rect fill="#F1F1F1" height="36.4883" rx="2.5" ry="2.5" style="stroke:#181818;stroke-width:0.5;" width="104.335" x="369.83" y="462.4583"/><text fill="#000000" font-family="sans-serif" font-size="14" lengthAdjust="spacing" textLength="84.335" x="379.83" y="485.9934">ACL Handler</text></g><!--entity zkpokService_zkpokVerifier--><g id="elem_zkpokService_zkpokVerifier"><rect fill="#F1F1F1" height="36.4883" rx="2.5" ry="2.5" style="stroke:#181818;stroke-width:0.5;" width="115.0469" x="251.48" y="649.9483"/><text fill="#000000" font-family="sans-serif" font-size="14" lengthAdjust="spacing" textLength="95.0469" x="261.48" y="673.4834">ZkPok Verifier</text></g><!--entity coprocessorDa_ciphertextStorage--><g id="elem_coprocessorDa_ciphertextStorage"><rect fill="#F1F1F1" height="36.4883" rx="2.5" ry="2.5" style="stroke:#181818;stroke-width:0.5;" width="147.415" x="47.29" y="649.9483"/><text fill="#000000" font-family="sans-serif" font-size="14" lengthAdjust="spacing" textLength="127.415" x="57.29" y="673.4834">Ciphertext Storage</text></g><!--entity coprocessorId_keys--><g id="elem_coprocessorId_keys"><rect fill="#F1F1F1" height="36.4883" rx="2.5" ry="2.5" style="stroke:#181818;stroke-width:0.5;" width="196.415" x="529.79" y="462.4583"/><text fill="#000000" font-family="sans-serif" font-size="14" lengthAdjust="spacing" textLength="176.415" x="539.79" y="485.9934">Coprocessor Identity Keys</text></g><!--entity coprocessorKeys_keys--><g id="elem_coprocessorKeys_keys"><rect fill="#F1F1F1" height="36.4883" rx="2.5" ry="2.5" style="stroke:#181818;stroke-width:0.5;" width="170.6299" x="781.69" y="462.4583"/><text fill="#000000" font-family="sans-serif" font-size="14" lengthAdjust="spacing" textLength="150.6299" x="791.69" y="485.9934">Coprocessor FHE Keys</text></g><!--entity User--><g id="elem_User"><ellipse cx="1403.0026" cy="51.4883" fill="#F1F1F1" rx="8" ry="8" style="stroke:#181818;stroke-width:0.5;"/><path d="M1403.0026,59.4883 L1403.0026,86.4883 M1390.0026,67.4883 L1416.0026,67.4883 M1403.0026,86.4883 L1390.0026,101.4883 M1403.0026,86.4883 L1416.0026,101.4883 " fill="transparent" style="stroke:#181818;stroke-width:0.5;"/><text fill="#000000" font-family="sans-serif" font-size="14" lengthAdjust="spacing" textLength="30.3652" x="1387.82" y="116.5234">User</text></g><!--link coprocessorId_keys to httpzRollup_coprocessorManagerContract--><g id="link_coprocessorId_keys_httpzRollup_coprocessorManagerContract"><path d="M662.69,499.4083 C690.31,513.1983 730.16,532.3683 766,546.9483 C867.18,588.0883 982.5941,625.8256 1052.5741,647.7356 " fill="transparent" id="coprocessorId_keys-to-httpzRollup_coprocessorManagerContract" style="stroke:#FFC0CB;stroke-width:1;"/><polygon fill="#FFC0CB" points="1058.3,649.5283,1050.9063,643.0219,1053.5284,648.0343,1048.516,650.6565,1058.3,649.5283" style="stroke:#FFC0CB;stroke-width:1;"/><text fill="#000000" font-family="sans-serif" font-size="13" lengthAdjust="spacing" textLength="8.2202" x="1031.4388" y="639.1314">1</text></g><!--link httpzRollup_coprocessorManagerContract to httpzRollup_domainManagerContract--><g id="link_httpzRollup_coprocessorManagerContract_httpzRollup_domainManagerContract"><path d="M1138.38,686.9283 C1158.04,701.6883 1187.96,722.1783 1217,734.4283 C1331.15,782.5783 1468.2878,807.1176 1551.1278,818.6976 " fill="transparent" id="httpzRollup_coprocessorManagerContract-to-httpzRollup_domainManagerContract" style="stroke:#FFC0CB;stroke-width:1;"/><polygon fill="#FFC0CB" points="1557.07,819.5283,1548.7104,814.3208,1552.1181,818.8361,1547.6029,822.2438,1557.07,819.5283" style="stroke:#FFC0CB;stroke-width:1;"/><text fill="#000000" font-family="sans-serif" font-size="13" lengthAdjust="spacing" textLength="8.2202" x="1541.2147" y="815.2932">2</text></g><!--link fhevm_dappContract to fhevm_tfheExecutorContract--><g id="link_fhevm_dappContract_fhevm_tfheExecutorContract"><path d="M1115.53,237.5783 C1055.16,254.6783 967.8327,279.4224 906.3627,296.8424 " fill="transparent" id="fhevm_dappContract-to-fhevm_tfheExecutorContract" style="stroke:#800080;stroke-width:1;"/><polygon fill="#800080" points="900.59,298.4783,910.3396,299.8729,905.4006,297.115,908.1584,292.176,900.59,298.4783" style="stroke:#800080;stroke-width:1;"/><text fill="#000000" font-family="sans-serif" font-size="13" lengthAdjust="spacing" textLength="8.2202" x="909.8318" y="288.386">1</text></g><!--link fhevm_tfheExecutorContract to coprocessor_computeHandler--><g id="link_fhevm_tfheExecutorContract_coprocessor_computeHandler"><path d="M747.37,318.1783 C595.25,319.4883 296.17,328.3383 204,376.4583 C167.01,395.7583 142.3214,432.8976 128.9314,456.9176 " fill="transparent" id="fhevm_tfheExecutorContract-to-coprocessor_computeHandler" style="stroke:#800080;stroke-width:1;"/><polygon fill="#800080" points="126.01,462.1583,133.886,456.2448,128.4445,457.791,126.8984,452.3496,126.01,462.1583" style="stroke:#800080;stroke-width:1;"/><text fill="#000000" font-family="sans-serif" font-size="13" lengthAdjust="spacing" textLength="8.2202" x="119.5785" y="451.7982">2</text></g><!--link coprocessor_computeHandler to coprocessorDa_ciphertextStorage--><g id="link_coprocessor_computeHandler_coprocessorDa_ciphertextStorage"><path d="M117.38,499.1483 C118.14,534.4983 119.7313,608.2197 120.4913,643.6497 " fill="transparent" id="coprocessor_computeHandler-to-coprocessorDa_ciphertextStorage" style="stroke:#800080;stroke-width:1;"/><polygon fill="#800080" points="120.62,649.6483,124.4261,640.5646,120.5128,644.6494,116.4279,640.7361,120.62,649.6483" style="stroke:#800080;stroke-width:1;"/><text fill="#000000" font-family="sans-serif" font-size="13" lengthAdjust="spacing" textLength="8.2202" x="111.3131" y="639.2882">3</text></g><!--link fhevm_aclContract to coprocessor_aclHandler--><g id="link_fhevm_aclContract_coprocessor_aclHandler"><path d="M759.54,238.4083 C700.4,263.6983 592.94,314.0983 514,376.4583 C481.41,402.1983 454.4346,435.4868 438.0446,457.4868 " fill="transparent" id="fhevm_aclContract-to-coprocessor_aclHandler" style="stroke:#FFB243;stroke-width:1;"/><polygon fill="#FFB243" points="434.46,462.2983,443.0446,457.4707,437.4472,458.2887,436.6292,452.6913,434.46,462.2983" style="stroke:#FFB243;stroke-width:1;"/><text fill="#000000" font-family="sans-serif" font-size="13" lengthAdjust="spacing" textLength="8.2202" x="429.1925" y="451.6592">1</text></g><!--link coprocessor_aclHandler to httpzRollup_aclContract--><g id="link_coprocessor_aclHandler_httpzRollup_aclContract"><path d="M439.52,499.1483 C456.79,515.0383 484.77,537.4183 514,546.9483 C559.6,561.7983 1334.98,540.8483 1377,563.9483 C1410.93,582.5983 1429.7736,619.6466 1439.4636,643.8966 " fill="transparent" id="coprocessor_aclHandler-to-httpzRollup_aclContract" style="stroke:#FFB243;stroke-width:1;"/><polygon fill="#FFB243" points="1441.69,649.4683,1442.0649,639.6266,1439.8347,644.8252,1434.636,642.595,1441.69,649.4683" style="stroke:#FFB243;stroke-width:1;"/><text fill="#000000" font-family="sans-serif" font-size="13" lengthAdjust="spacing" textLength="8.2202" x="1430.5666" y="639.0531">2</text></g><!--link httpzRollup_aclContract to ciphertextDa_ciphertextStorage--><g id="link_httpzRollup_aclContract_ciphertextDa_ciphertextStorage"><path d="M1464.27,686.8483 C1477.92,700.9583 1498.44,720.6083 1519,734.4283 C1540.61,748.9683 1546.76,752.9983 1572,759.4283 C1631.1,774.4983 1650.25,751.0283 1709,767.4283 C1741.56,776.5183 1770.324,792.6021 1792.584,806.9221 " fill="transparent" id="httpzRollup_aclContract-to-ciphertextDa_ciphertextStorage" style="stroke:#FFB243;stroke-width:1;"/><polygon fill="#FFB243" points="1797.63,810.1683,1792.225,801.935,1793.425,807.4632,1787.8968,808.6631,1797.63,810.1683" style="stroke:#FFB243;stroke-width:1;"/><text fill="#000000" font-family="sans-serif" font-size="13" lengthAdjust="spacing" textLength="8.2202" x="1780.6699" y="799.8204">3</text></g><!--link User to input_relayer--><g id="link_User_input_relayer"><path d="M1403,119.6283 C1403,203.1083 1403,396.0583 1403,456.1883 " fill="transparent" id="User-to-input_relayer" style="stroke:#008000;stroke-width:1;"/><polygon fill="#008000" points="1403,462.1883,1407,453.1883,1403,457.1883,1399,453.1883,1403,462.1883" style="stroke:#008000;stroke-width:1;"/><text fill="#000000" font-family="sans-serif" font-size="13" lengthAdjust="spacing" textLength="8.2202" x="1393.809" y="451.8374">1</text></g><!--link input_relayer to httpzRollup_ZkPoKManagerContract--><g id="link_input_relayer_httpzRollup_ZkPoKManagerContract"><path d="M1393.03,499.1483 C1372.83,534.4983 1330.2473,609.0091 1309.9973,644.4391 " fill="transparent" id="input_relayer-to-httpzRollup_ZkPoKManagerContract" style="stroke:#008000;stroke-width:1;"/><polygon fill="#008000" points="1307.02,649.6483,1314.9588,643.8194,1309.5011,645.3073,1308.0132,639.8496,1307.02,649.6483" style="stroke:#008000;stroke-width:1;"/><text fill="#000000" font-family="sans-serif" font-size="13" lengthAdjust="spacing" textLength="8.2202" x="1300.8973" y="639.2882">2</text></g><!--link httpzRollup_ZkPoKManagerContract to coprocessor_inputHandler--><g id="link_httpzRollup_ZkPoKManagerContract_coprocessor_inputHandler"><path d="M1289.48,649.7283 C1277.93,625.3783 1253.27,582.1683 1217,563.9483 C1174.05,542.3683 396.79,564.3783 352,546.9483 C327.1,537.2583 308.9542,519.7213 295.5342,503.9213 " fill="transparent" id="httpzRollup_ZkPoKManagerContract-to-coprocessor_inputHandler" style="stroke:#008000;stroke-width:1;"/><polygon fill="#008000" points="291.65,499.3483,294.4276,508.7974,294.8868,503.1592,300.525,503.6184,291.65,499.3483" style="stroke:#008000;stroke-width:1;"/><text fill="#000000" font-family="sans-serif" font-size="13" lengthAdjust="spacing" textLength="8.2202" x="286.5167" y="519.6426">3</text></g><!--link coprocessor_inputHandler to zkpokService_zkpokVerifier--><g id="link_coprocessor_inputHandler_zkpokService_zkpokVerifier"><path d="M280.92,499.1483 C286.82,534.4983 299.1612,608.3003 305.0812,643.7303 " fill="transparent" id="coprocessor_inputHandler-to-zkpokService_zkpokVerifier" style="stroke:#008000;stroke-width:1;"/><polygon fill="#008000" points="306.07,649.6483,308.5321,640.1121,305.246,644.7167,300.6414,641.4306,306.07,649.6483" style="stroke:#008000;stroke-width:1;"/><text fill="#000000" font-family="sans-serif" font-size="13" lengthAdjust="spacing" textLength="8.2202" x="295.9804" y="639.2882">4</text></g><!--link coprocessor_inputHandler to coprocessorDa_ciphertextStorage--><g id="link_coprocessor_inputHandler_coprocessorDa_ciphertextStorage"><path d="M263.23,499.1483 C233.31,534.4983 169.7057,609.638 139.7257,645.068 " fill="transparent" id="coprocessor_inputHandler-to-coprocessorDa_ciphertextStorage" style="stroke:#008000;stroke-width:1;"/><polygon fill="#008000" points="135.85,649.6483,144.7171,645.3617,139.0798,645.8314,138.6101,640.1941,135.85,649.6483" style="stroke:#008000;stroke-width:1;"/><text fill="#000000" font-family="sans-serif" font-size="13" lengthAdjust="spacing" textLength="8.2202" x="131.2073" y="639.2882">5</text></g><!--link User to fhevm_dappContract--><g id="link_User_fhevm_dappContract"><path d="M1387.33,91.6183 C1349.6,114.1983 1258.3883,168.8069 1209.5183,198.0569 " fill="transparent" id="User-to-fhevm_dappContract" style="stroke:#008000;stroke-width:1;"/><polygon fill="#008000" points="1204.37,201.1383,1214.1467,199.9484,1208.6603,198.5705,1210.0382,193.084,1204.37,201.1383" style="stroke:#008000;stroke-width:1;"/><text fill="#000000" font-family="sans-serif" font-size="13" lengthAdjust="spacing" textLength="8.2202" x="1204.172" y="190.7659">6</text></g><!--link fhevm_dappContract to fhevm_inputVerifierContract--><g id="link_fhevm_dappContract_fhevm_inputVerifierContract"><path d="M1175.73,238.2383 C1176.45,255.3583 1177.2891,275.2935 1178.0091,292.4935 " fill="transparent" id="fhevm_dappContract-to-fhevm_inputVerifierContract" style="stroke:#008000;stroke-width:1;"/><polygon fill="#008000" points="1178.26,298.4883,1181.8801,289.3289,1178.0509,293.4927,1173.8871,289.6635,1178.26,298.4883" style="stroke:#008000;stroke-width:1;"/><text fill="#000000" font-family="sans-serif" font-size="13" lengthAdjust="spacing" textLength="8.2202" x="1168.8423" y="288.0731">7</text></g><!--link User to decrypt_relayer--><g id="link_User_decrypt_relayer"><path d="M1418.27,119.6883 C1421.98,129.3283 1425.8,139.7283 1429,149.4783 C1467.68,267.1783 1501.6658,406.3601 1513.4658,456.1301 " fill="transparent" id="User-to-decrypt_relayer" style="stroke:#0000FF;stroke-width:1;"/><polygon fill="#0000FF" points="1514.85,461.9683,1516.6658,452.2883,1513.6965,457.1032,1508.8816,454.1338,1514.85,461.9683" style="stroke:#0000FF;stroke-width:1;"/><text fill="#000000" font-family="sans-serif" font-size="13" lengthAdjust="spacing" textLength="8.2202" x="1504.4879" y="451.876">1</text></g><!--link decrypt_relayer to httpzRollup_decryptionManagerContract--><g id="link_decrypt_relayer_httpzRollup_decryptionManagerContract"><path d="M1528.03,499.1483 C1546.33,534.4983 1584.833,608.8892 1603.163,644.3192 " fill="transparent" id="decrypt_relayer-to-httpzRollup_decryptionManagerContract" style="stroke:#0000FF;stroke-width:1;"/><polygon fill="#0000FF" points="1605.92,649.6483,1605.3372,639.8167,1603.6225,645.2074,1598.2318,643.4927,1605.92,649.6483" style="stroke:#0000FF;stroke-width:1;"/><text fill="#000000" font-family="sans-serif" font-size="13" lengthAdjust="spacing" textLength="8.2202" x="1604.3979" y="639.2882">2</text></g><!--link httpzRollup_decryptionManagerContract to kmsConnector_decrypt--><g id="link_httpzRollup_decryptionManagerContract_kmsConnector_decrypt"><path d="M1693.51,676.8583 C1787.84,684.7083 1876.2075,684.0077 1970.5375,673.4177 " fill="transparent" id="httpzRollup_decryptionManagerContract-to-kmsConnector_decrypt" style="stroke:#0000FF;stroke-width:1;"/><polygon fill="#0000FF" points="1976.5,672.7483,1967.1099,669.7773,1971.5312,673.3061,1968.0024,677.7274,1976.5,672.7483" style="stroke:#0000FF;stroke-width:1;"/><text fill="#000000" font-family="sans-serif" font-size="13" lengthAdjust="spacing" textLength="8.2202" x="1960.5475" y="669.7676">3</text></g><!--link httpzRollup_decryptionManagerContract to kmsConnector_decrypt--><g id="link_httpzRollup_decryptionManagerContract_kmsConnector_decrypt"><path d="M1693.51,659.5183 C1787.84,651.6683 1876.2075,652.3689 1970.5375,662.9589 " fill="transparent" id="httpzRollup_decryptionManagerContract-to-kmsConnector_decrypt-1" style="stroke:#00FFFF;stroke-width:1;"/><polygon fill="#00FFFF" points="1976.5,663.6283,1968.0024,658.6492,1971.5312,663.0705,1967.1099,666.5992,1976.5,663.6283" style="stroke:#00FFFF;stroke-width:1;"/><text fill="#000000" font-family="sans-serif" font-size="13" lengthAdjust="spacing" textLength="8.2202" x="1960.5475" y="658.8521">4</text></g><!--link kmsConnector_decrypt to ciphertextDa_ciphertextStorage--><g id="link_kmsConnector_decrypt_ciphertextDa_ciphertextStorage"><path d="M1978.4424,690.2524 C1935.9224,720.7124 1870.3575,775.2705 1839.7675,805.7905 " fill="transparent" id="kmsConnector_decrypt-ciphertextDa_ciphertextStorage" style="stroke:#0000FF;stroke-width:1;"/><polygon fill="#0000FF" points="1983.32,686.7583,1973.6742,688.7478,1979.2553,689.6701,1978.333,695.2512,1983.32,686.7583" style="stroke:#0000FF;stroke-width:1;"/><polygon fill="#0000FF" points="1835.52,810.0283,1844.7164,806.5033,1839.0596,806.4968,1839.0661,800.8399,1835.52,810.0283" style="stroke:#0000FF;stroke-width:1;"/><text fill="#000000" font-family="sans-serif" font-size="13" lengthAdjust="spacing" textLength="8.2202" x="1830.1637" y="799.6376">4</text></g><!--link kmsConnector_decrypt to ciphertextDa_ciphertextStorage--><g id="link_kmsConnector_decrypt_ciphertextDa_ciphertextStorage"><path d="M1996.3132,690.9967 C1965.7932,721.4567 1900.2467,776.0128 1857.6667,806.5328 " fill="transparent" id="kmsConnector_decrypt-ciphertextDa_ciphertextStorage-1" style="stroke:#00FFFF;stroke-width:1;"/><polygon fill="#00FFFF" points="2000.56,686.7583,1991.3641,690.2848,1997.021,690.2903,1997.0154,695.9472,2000.56,686.7583" style="stroke:#00FFFF;stroke-width:1;"/><polygon fill="#00FFFF" points="1852.79,810.0283,1862.4353,808.0362,1856.8539,807.1154,1857.7747,801.534,1852.79,810.0283" style="stroke:#00FFFF;stroke-width:1;"/><text fill="#000000" font-family="sans-serif" font-size="13" lengthAdjust="spacing" textLength="8.2202" x="1852.7227" y="799.6376">5</text></g><!--link kmsConnector_decrypt to kmsCore_decrypt--><g id="link_kmsConnector_decrypt_kmsCore_decrypt"><path d="M2004.38,686.7583 C1998.38,717.2183 1997.2126,773.621 2003.2126,804.141 " fill="transparent" id="kmsConnector_decrypt-to-kmsCore_decrypt" style="stroke:#0000FF;stroke-width:1;"/><polygon fill="#0000FF" points="2004.37,810.0283,2006.5588,800.4257,2003.4055,805.1222,1998.709,801.9689,2004.37,810.0283" style="stroke:#0000FF;stroke-width:1;"/><text fill="#000000" font-family="sans-serif" font-size="13" lengthAdjust="spacing" textLength="8.2202" x="1992.5346" y="799.6376">5</text></g><!--link kmsConnector_decrypt to kmsCore_decrypt--><g id="link_kmsConnector_decrypt_kmsCore_decrypt"><path d="M2021.62,686.7583 C2027.62,717.2183 2028.7874,773.621 2022.7874,804.141 " fill="transparent" id="kmsConnector_decrypt-to-kmsCore_decrypt-1" style="stroke:#00FFFF;stroke-width:1;"/><polygon fill="#00FFFF" points="2021.63,810.0283,2027.291,801.9689,2022.5945,805.1222,2019.4412,800.4257,2021.63,810.0283" style="stroke:#00FFFF;stroke-width:1;"/><text fill="#000000" font-family="sans-serif" font-size="13" lengthAdjust="spacing" textLength="8.2202" x="2015.0805" y="799.6376">6</text></g><!--link kmsCore_decrypt to httpzRollup_decryptionManagerContract--><g id="link_kmsCore_decrypt_httpzRollup_decryptionManagerContract"><path d="M1977.23,809.9683 C1954.36,795.5183 1924.84,776.1283 1895.5,767.4283 C1870.24,759.9483 1681.56,772.1783 1658.5,759.4283 C1630.03,743.6883 1613.1826,714.3 1609.9126,692.81 " fill="transparent" id="kmsCore_decrypt-to-httpzRollup_decryptionManagerContract" style="stroke:#0000FF;stroke-width:1;"/><polygon fill="#0000FF" points="1609.01,686.8783,1606.4094,696.3776,1609.7622,691.8214,1614.3184,695.1741,1609.01,686.8783" style="stroke:#0000FF;stroke-width:1;"/><text fill="#000000" font-family="sans-serif" font-size="13" lengthAdjust="spacing" textLength="8.2202" x="1598.2312" y="706.8551">6</text></g><!--link kmsCore_decrypt to httpzRollup_decryptionManagerContract--><g id="link_kmsCore_decrypt_httpzRollup_decryptionManagerContract"><path d="M2005.05,809.9683 C1989.36,795.5183 1959.84,776.1283 1930.5,767.4283 C1905.24,759.9483 1716.56,772.1783 1693.5,759.4283 C1665.03,743.6883 1650.537,713.4073 1636.647,691.9173 " fill="transparent" id="kmsCore_decrypt-to-httpzRollup_decryptionManagerContract-1" style="stroke:#00FFFF;stroke-width:1;"/><polygon fill="#00FFFF" points="1633.39,686.8783,1634.9161,696.6082,1636.1041,691.0775,1641.6348,692.2655,1633.39,686.8783" style="stroke:#00FFFF;stroke-width:1;"/><text fill="#000000" font-family="sans-serif" font-size="13" lengthAdjust="spacing" textLength="8.2202" x="1629.4681" y="706.8551">7</text></g><!--link fhevm_dappContract to fhevm_OracleContract--><g id="link_fhevm_dappContract_fhevm_OracleContract"><path d="M1147.32,238.4583 C1120.56,255.6083 1085.2914,278.2105 1058.5814,295.3305 " fill="transparent" id="fhevm_dappContract-to-fhevm_OracleContract" style="stroke:#00FFFF;stroke-width:1;"/><polygon fill="#00FFFF" points="1053.53,298.5683,1063.2656,297.0793,1057.7395,295.8702,1058.9486,290.344,1053.53,298.5683" style="stroke:#00FFFF;stroke-width:1;"/><text fill="#000000" font-family="sans-serif" font-size="13" lengthAdjust="spacing" textLength="8.2202" x="1052.7696" y="288.1776">1</text></g><!--link fhevm_OracleContract to l1_relayer_decrypt--><g id="link_fhevm_OracleContract_l1_relayer_decrypt"><path d="M1054.68,335.9583 C1105,367.0883 1203.4977,428.0313 1253.5677,459.0113 " fill="transparent" id="fhevm_OracleContract-to-l1_relayer_decrypt" style="stroke:#00FFFF;stroke-width:1;"/><polygon fill="#00FFFF" points="1258.67,462.1683,1253.1212,454.0313,1254.4181,459.5375,1248.9119,460.8344,1258.67,462.1683" style="stroke:#00FFFF;stroke-width:1;"/><text fill="#000000" font-family="sans-serif" font-size="13" lengthAdjust="spacing" textLength="8.2202" x="1240.8037" y="451.8112">2</text></g><!--link l1_relayer_decrypt to httpzRollup_decryptionManagerContract--><g id="link_l1_relayer_decrypt_httpzRollup_decryptionManagerContract"><path d="M1300.26,499.1383 C1313.29,514.7883 1334.72,536.7983 1359,546.9483 C1388.57,559.2983 1472.23,545.9683 1503,554.9483 C1510.83,557.2283 1512.59,558.8983 1519,563.9483 C1552.07,589.9883 1580.306,622.9418 1597.726,644.8518 " fill="transparent" id="l1_relayer_decrypt-to-httpzRollup_decryptionManagerContract" style="stroke:#00FFFF;stroke-width:1;"/><polygon fill="#00FFFF" points="1601.46,649.5483,1598.9899,640.0142,1598.3483,645.6345,1592.728,644.9929,1601.46,649.5483" style="stroke:#00FFFF;stroke-width:1;"/><text fill="#000000" font-family="sans-serif" font-size="13" lengthAdjust="spacing" textLength="8.2202" x="1588.1221" y="639.1576">3</text></g><!--link httpzRollup_decryptionManagerContract to l1_relayer_decrypt--><g id="link_httpzRollup_decryptionManagerContract_l1_relayer_decrypt"><path d="M1604.55,649.6983 C1589.16,625.7383 1557.96,583.4283 1519,563.9483 C1455.04,531.9483 1424.27,576.1683 1359,546.9483 C1335.14,536.2583 1317.6686,519.1676 1304.5286,503.7276 " fill="transparent" id="httpzRollup_decryptionManagerContract-to-l1_relayer_decrypt" style="stroke:#00FFFF;stroke-width:1;"/><polygon fill="#00FFFF" points="1300.64,499.1583,1303.4268,508.6047,1303.8805,502.966,1309.5192,503.4198,1300.64,499.1583" style="stroke:#00FFFF;stroke-width:1;"/><text fill="#000000" font-family="sans-serif" font-size="13" lengthAdjust="spacing" textLength="8.2202" x="1295.505" y="519.3968">8</text></g><!--link l1_relayer_decrypt to fhevm_dappContract--><g id="link_l1_relayer_decrypt_fhevm_dappContract"><path d="M1286.75,462.1783 C1285.6,428.5983 1279.72,353.6283 1251,298.9683 C1238.23,274.6583 1220.1482,256.6307 1202.8782,242.2307 " fill="transparent" id="l1_relayer_decrypt-to-fhevm_dappContract" style="stroke:#00FFFF;stroke-width:1;"/><polygon fill="#00FFFF" points="1198.27,238.3883,1202.6207,247.2241,1202.1102,241.5903,1207.744,241.0798,1198.27,238.3883" style="stroke:#00FFFF;stroke-width:1;"/><text fill="#000000" font-family="sans-serif" font-size="13" lengthAdjust="spacing" textLength="8.2202" x="1195.9616" y="258.6885">9</text></g><!--link httpzRollup_domainManagerContract to kmsConnector_keygen--><g id="link_httpzRollup_domainManagerContract_kmsConnector_keygen"><path d="M1649.41,810.1983 C1670.47,796.0883 1702.27,777.0583 1733,767.4283 C1875.34,722.8283 1929.28,791.7483 2067,734.4283 C2092.45,723.8383 2111.923,706.5135 2126.573,691.0535 " fill="transparent" id="httpzRollup_domainManagerContract-to-kmsConnector_keygen" style="stroke:#FF0000;stroke-width:1;"/><polygon fill="#FF0000" points="2130.7,686.6983,2121.606,690.4797,2127.2608,690.3276,2127.4129,695.9824,2130.7,686.6983" style="stroke:#FF0000;stroke-width:1;"/><text fill="#000000" font-family="sans-serif" font-size="13" lengthAdjust="spacing" textLength="34.144" x="2044.08" y="755.9966">event</text><text fill="#000000" font-family="sans-serif" font-size="13" lengthAdjust="spacing" textLength="8.2202" x="2117.063" y="706.9515">1</text></g><!--link kmsConnector_keygen to kmsCore_keygen--><g id="link_kmsConnector_keygen_kmsCore_keygen"><path d="M2146,686.7583 C2146,717.2183 2146,773.5083 2146,804.0283 " fill="transparent" id="kmsConnector_keygen-to-kmsCore_keygen" style="stroke:#FF0000;stroke-width:1;"/><polygon fill="#FF0000" points="2146,810.0283,2150,801.0283,2146,805.0283,2142,801.0283,2146,810.0283" style="stroke:#FF0000;stroke-width:1;"/><text fill="#000000" font-family="sans-serif" font-size="13" lengthAdjust="spacing" textLength="8.2202" x="2136.8087" y="799.6376">2</text></g><!--link kmsCore_keygen to httpzRollup_domainManagerContract--><g id="link_kmsCore_keygen_httpzRollup_domainManagerContract"><path d="M2130.14,809.9683 C2112.65,790.9283 2082.57,762.5983 2049.5,750.9283 C1986.84,728.8283 1814.41,732.7383 1750.5,750.9283 C1710.07,762.4383 1674.6043,787.3342 1650.9743,806.4542 " fill="transparent" id="kmsCore_keygen-to-httpzRollup_domainManagerContract" style="stroke:#FF0000;stroke-width:1;"/><polygon fill="#FF0000" points="1646.31,810.2283,1655.8226,807.6767,1650.197,807.0832,1650.7904,801.4576,1646.31,810.2283" style="stroke:#FF0000;stroke-width:1;"/><text fill="#000000" font-family="sans-serif" font-size="13" lengthAdjust="spacing" textLength="8.2202" x="1643.8626" y="799.5764">3</text></g><!--link kmsCore_keygen to keychainDA_Api--><g id="link_kmsCore_keygen_keychainDA_Api"><path d="M2146,847.1483 C2146,874.4983 2146,921.1183 2146,948.5483 " fill="transparent" id="kmsCore_keygen-to-keychainDA_Api" style="stroke:#FF0000;stroke-width:1;"/><polygon fill="#FF0000" points="2146,954.5483,2150,945.5483,2146,949.5483,2142,945.5483,2146,954.5483" style="stroke:#FF0000;stroke-width:1;"/><text fill="#000000" font-family="sans-serif" font-size="13" lengthAdjust="spacing" textLength="8.2202" x="2136.8079" y="944.1667">3</text></g><!--SRC=[jLTjRzis4FwkNt5JFgJz4A1rNjeLmm3NxfgWAHhKMGSaA0n6Ejk2PKcWwBXAiF- -8_L6KfJb3biG8D7nUPuxtP77qp5CSH4b244QfnnYze1nxXt3E0UE2-IO10WlxjY67USb9d_f_HAMd0BZEDt1qM8HZbwzRSmfPyaIfVbXT7RQc1zY5gpXw9NwyHfpY04lCW573_4M6-iQYoKcSCGnR6nHacq9j-I8IMCCqWrPoLksvLdS2h0WxaGGf1bFvnkMi2LkC26jB4hMUjn1J4f1mHBF4v6W1__ozlRc3YRa9Ks8aiENH-IF4UvypylN51BZR0Ctz6ea-Zxb8VA9IkLk5GbqGEZFagVR92nXSRHS2NgbeWkTYO8Yu1W8ocUiQpNXs13FOu4WrJzpv9wNbJhWt_qryu7byBJBdmqhoDU3hnYp0ZcyI3CHfGcBNoeqhypF7gWqAu_WIstQDQfg2bTLS5xXJVILB9g2gV8reB_DyE3wTLyOyUjvJoHVLC4iqBmAXpoGZzR9PPeBygBGYnK-Rju7Ikz-ohACCfe8KXFVc-LvIFRQJ3X2blvSs7B5G1D-FBbsWGbg8Gbx-yVb1_Zm0uEjh9-39UXFlTwXau1AD7n37YqYv1fHvRssDqmz_n-Pm1qhu7gaihCI8dlwciRnDhCpNYFfpMnevxKqsjtw9lq4dzN1unsYMgqM-nIg_KRRebScR203MXFP1WBCSqfqdrZGOeOYIpSisXELMhOrzEnFeco5NE0F0TEnuWUDPSgi0cZW6Mq44kWmvkr31J7SVS9Yif8HLyweqmRoUJgsN14mDvoqoFauYqpHJKvTYukY16xoUIQVuDc4J5AEDKB-RsyllQjKaEOusx71HqoGCrbl0r_U76PqdsT4JXAKlR45LuR182hSpqLIavfmZ6QaRy6ioLjvFtKofu5RM4MsjqTr6rwo98on0vzNjsMrxEZKlKpLHPmysUNwMDGJQexHy5K_cCcBDC0EwMcTfUjgqNv1oLmtNQwyr3HuoQsNoQSpu_KnQqq7dpETCd3GT8zN8Qb6UfdBXQkmKy0k2UH9x3BbrifxFReuqhR7dxo1-cYDC_ez1ftLZbDUDpmukRU7hkydluDFr_21tVOmM9-VaNz0CoxVI1qChtlrAscrM4U-vpxkNm9BXoBRSp3xbooPKtzmJyffVdBjTMOFKgAd-gLwJgtRh56j3Ej3G8zT8ylezzzS5BpgIvwQEa_kLHkgOpOdIkF9W5enEkUD8O0XQ6RTx8rz2uR0cR-lRHqaSJvS-KxEBdpNRElSyotfZRztaAGAwLy4jTFgignBPNyZMCyMmJwslPFTGIXBd8hdljTTHlZD95FXXhQiKyPKEQz3qEORwzbYN1oQ4LcFycl4NTVo8zTiPTRNYyjeCga-ZW-khibadVxNLTMqptwsg1ht_5_NL1EvEAYa6k7D_vYDjwxw00nMw5TNVo2Ut5Hoq5qsWwutUAsISZdxrdlDCHR3Ey17EJcurWp-oBS7VFFHH9yUSkqF25XVE_y0]--></g></svg>