<svg width="41" height="8" viewBox="0 0 41 8" fill="none" xmlns="http://www.w3.org/2000/svg">
<path d="M15.2985 4.1436H12.0679L13.6839 0.0542632H12.1479L9.08252 7.46626H10.7452L11.4879 5.33426H15.8932L16.6359 7.46626H18.3119L15.3012 0.0542632H13.6839L15.2985 4.1436Z" fill="black"/>
<path d="M25.0147 6.07774L22.9987 0.0550796H21.5254L24.0707 7.46574H25.9321L28.4121 0.0550796H26.9787L25.0147 6.07774Z" fill="black"/>
<path d="M28.4326 7.46626H30.0019V0.0542632H28.4326V7.46626Z" fill="black"/>
<path d="M19.9351 7.46626H21.5177V0.0542632H19.9351V7.46626Z" fill="black"/>
<path d="M37.7873 4.1436H34.5566L36.1726 0.0542632H34.6366L31.5713 7.46626H33.234L33.9766 5.33426H38.382L39.1246 7.46626H40.8006L37.79 0.0542632H36.1726L37.7873 4.1436Z" fill="black"/>
<path d="M7.92667 2.68853V1.22853L0 6.32053V7.46587H8.06V6.2872H2.248L7.92667 2.68853Z" fill="black"/>
<path d="M0.133301 1.26134V2.61831e-06H7.92663V1.228L0.133301 1.26134Z" fill="black"/>
</svg>
