<?xml version="1.0" encoding="us-ascii" standalone="no"?><svg xmlns="http://www.w3.org/2000/svg" xmlns:xlink="http://www.w3.org/1999/xlink" contentStyleType="text/css" height="1163px" preserveAspectRatio="none" style="width:2773px;height:1163px;background:#FFFFFF;" version="1.1" viewBox="0 0 2773 1163" width="2773px" zoomAndPan="magnify"><defs/><g><!--cluster Gateway Core--><g id="cluster_Gateway Core"><path d="M8.5,6.602 L105.5,6.602 A3.75,3.75 0 0 1 108,9.102 L115,31.6699 L2763.5,31.6699 A2.5,2.5 0 0 1 2766,34.1699 L2766,1154.102 A2.5,2.5 0 0 1 2763.5,1156.602 L8.5,1156.602 A2.5,2.5 0 0 1 6,1154.102 L6,9.102 A2.5,2.5 0 0 1 8.5,6.602 " fill="none" style="stroke:#000000;stroke-width:1.5;"/><line style="stroke:#000000;stroke-width:1.5;" x1="6" x2="115" y1="31.6699" y2="31.6699"/><text fill="#000000" font-family="sans-serif" font-size="14" font-weight="bold" lengthAdjust="spacing" textLength="96" x="10" y="23.5679">Gateway Core</text></g><!--class Operation--><g id="elem_Operation"><rect codeLine="4" fill="#F1F1F1" height="86.1358" id="Operation" rx="2.5" ry="2.5" style="stroke:#181818;stroke-width:0.5;" width="100" x="1839" y="92.102"/><ellipse cx="1854" cy="108.102" fill="#EB937F" rx="11" ry="11" style="stroke:#181818;stroke-width:1.0;"/><path d="M1858.1094,114.102 L1850.3906,114.102 L1850.3906,101.7114 L1858.1094,101.7114 L1858.1094,103.8676 L1852.8438,103.8676 L1852.8438,106.5395 L1857.6094,106.5395 L1857.6094,108.6957 L1852.8438,108.6957 L1852.8438,111.9457 L1858.1094,111.9457 L1858.1094,114.102 Z " fill="#000000"/><text fill="#000000" font-family="sans-serif" font-size="14" lengthAdjust="spacing" textLength="68" x="1868" y="113.534">Operation</text><line style="stroke:#181818;stroke-width:0.5;" x1="1840" x2="1938" y1="124.102" y2="124.102"/><text fill="#000000" font-family="sans-serif" font-size="14" lengthAdjust="spacing" textLength="52" x="1845" y="143.0679">Decrypt</text><text fill="#000000" font-family="sans-serif" font-size="14" lengthAdjust="spacing" textLength="68" x="1845" y="162.1358">Reencrypt</text><line style="stroke:#181818;stroke-width:0.5;" x1="1840" x2="1938" y1="170.2378" y2="170.2378"/></g><!--class Request--><g id="elem_Request"><rect codeLine="9" fill="#F1F1F1" height="86.1358" id="Request" rx="2.5" ry="2.5" style="stroke:#181818;stroke-width:0.5;" width="145" x="1974.5" y="92.102"/><ellipse cx="2015.6" cy="108.102" fill="#EB937F" rx="11" ry="11" style="stroke:#181818;stroke-width:1.0;"/><path d="M2019.7094,114.102 L2011.9906,114.102 L2011.9906,101.7114 L2019.7094,101.7114 L2019.7094,103.8676 L2014.4438,103.8676 L2014.4438,106.5395 L2019.2094,106.5395 L2019.2094,108.6957 L2014.4438,108.6957 L2014.4438,111.9457 L2019.7094,111.9457 L2019.7094,114.102 Z " fill="#000000"/><text fill="#000000" font-family="sans-serif" font-size="14" lengthAdjust="spacing" textLength="55" x="2035.4" y="113.534">Request</text><line style="stroke:#181818;stroke-width:0.5;" x1="1975.5" x2="2118.5" y1="124.102" y2="124.102"/><text fill="#000000" font-family="sans-serif" font-size="14" lengthAdjust="spacing" textLength="107" x="1980.5" y="143.0679">DecryptRequest</text><text fill="#000000" font-family="sans-serif" font-size="14" lengthAdjust="spacing" textLength="133" x="1980.5" y="162.1358">ReencryptResponse</text><line style="stroke:#181818;stroke-width:0.5;" x1="1975.5" x2="2118.5" y1="170.2378" y2="170.2378"/></g><!--class RequestStatus--><g id="elem_RequestStatus"><rect codeLine="14" fill="#F1F1F1" height="181.4754" id="RequestStatus" rx="2.5" ry="2.5" style="stroke:#181818;stroke-width:0.5;" width="167" x="2154.5" y="44.602"/><ellipse cx="2186.6" cy="60.602" fill="#EB937F" rx="11" ry="11" style="stroke:#181818;stroke-width:1.0;"/><path d="M2190.7094,66.602 L2182.9906,66.602 L2182.9906,54.2114 L2190.7094,54.2114 L2190.7094,56.3676 L2185.4438,56.3676 L2185.4438,59.0395 L2190.2094,59.0395 L2190.2094,61.1957 L2185.4438,61.1957 L2185.4438,64.4457 L2190.7094,64.4457 L2190.7094,66.602 Z " fill="#000000"/><text fill="#000000" font-family="sans-serif" font-size="14" lengthAdjust="spacing" textLength="97" x="2204.4" y="66.034">RequestStatus</text><line style="stroke:#181818;stroke-width:0.5;" x1="2155.5" x2="2320.5" y1="76.602" y2="76.602"/><text fill="#000000" font-family="sans-serif" font-size="14" lengthAdjust="spacing" textLength="60" x="2160.5" y="95.5679">Received</text><text fill="#000000" font-family="sans-serif" font-size="14" lengthAdjust="spacing" textLength="151" x="2160.5" y="114.6358">InsufficientPermission</text><text fill="#000000" font-family="sans-serif" font-size="14" lengthAdjust="spacing" textLength="102" x="2160.5" y="133.7038">SendingToKMS</text><text fill="#000000" font-family="sans-serif" font-size="14" lengthAdjust="spacing" textLength="76" x="2160.5" y="152.7717">SentToKMS</text><text fill="#000000" font-family="sans-serif" font-size="14" lengthAdjust="spacing" textLength="155" x="2160.5" y="171.8396">KMSResponseReceived</text><text fill="#000000" font-family="sans-serif" font-size="14" lengthAdjust="spacing" textLength="121" x="2160.5" y="190.9075">SendingResponse</text><text fill="#000000" font-family="sans-serif" font-size="14" lengthAdjust="spacing" textLength="95" x="2160.5" y="209.9754">SentResponse</text><line style="stroke:#181818;stroke-width:0.5;" x1="2155.5" x2="2320.5" y1="218.0774" y2="218.0774"/></g><!--class KMSDecryptRequest--><g id="elem_KMSDecryptRequest"><rect codeLine="24" fill="#F1F1F1" height="86.1358" id="KMSDecryptRequest" rx="2.5" ry="2.5" style="stroke:#181818;stroke-width:0.5;" width="169" x="1804.5" y="409.602"/><ellipse cx="1819.5" cy="425.602" fill="#ADD1B2" rx="11" ry="11" style="stroke:#181818;stroke-width:1.0;"/><path d="M1822.4688,431.2426 Q1821.8906,431.5395 1821.25,431.6801 Q1820.6094,431.8364 1819.9063,431.8364 Q1817.4063,431.8364 1816.0781,430.1957 Q1814.7656,428.5395 1814.7656,425.4145 Q1814.7656,422.2895 1816.0781,420.6332 Q1817.4063,418.977 1819.9063,418.977 Q1820.6094,418.977 1821.25,419.1332 Q1821.9063,419.2895 1822.4688,419.5864 L1822.4688,422.3051 Q1821.8438,421.727 1821.25,421.4614 Q1820.6563,421.1801 1820.0313,421.1801 Q1818.6875,421.1801 1818,422.2582 Q1817.3125,423.3207 1817.3125,425.4145 Q1817.3125,427.5082 1818,428.5864 Q1818.6875,429.6489 1820.0313,429.6489 Q1820.6563,429.6489 1821.25,429.3832 Q1821.8438,429.102 1822.4688,428.5239 L1822.4688,431.2426 Z " fill="#000000"/><text fill="#000000" font-family="sans-serif" font-size="14" lengthAdjust="spacing" textLength="137" x="1833.5" y="431.034">KMSDecryptRequest</text><line style="stroke:#181818;stroke-width:0.5;" x1="1805.5" x2="1972.5" y1="441.602" y2="441.602"/><ellipse cx="1815.5" cy="456.6359" fill="none" rx="3" ry="3" style="stroke:#038048;stroke-width:1.0;"/><text fill="#000000" font-family="sans-serif" font-size="14" lengthAdjust="spacing" textLength="109" x="1824.5" y="460.5679">ct_handle: Bytes</text><ellipse cx="1815.5" cy="475.7039" fill="none" rx="3" ry="3" style="stroke:#038048;stroke-width:1.0;"/><text fill="#000000" font-family="sans-serif" font-size="14" lengthAdjust="spacing" textLength="143" x="1824.5" y="479.6358">block_height: Integer</text><line style="stroke:#181818;stroke-width:0.5;" x1="1805.5" x2="1972.5" y1="487.7378" y2="487.7378"/></g><!--class DecryptRequest--><g id="elem_DecryptRequest"><rect codeLine="29" fill="#F1F1F1" height="334.0188" id="DecryptRequest" rx="2.5" ry="2.5" style="stroke:#181818;stroke-width:0.5;" width="481" x="2008.5" y="285.602"/><ellipse cx="2191.25" cy="301.602" fill="#ADD1B2" rx="11" ry="11" style="stroke:#181818;stroke-width:1.0;"/><path d="M2194.2188,307.2426 Q2193.6406,307.5395 2193,307.6801 Q2192.3594,307.8364 2191.6563,307.8364 Q2189.1563,307.8364 2187.8281,306.1957 Q2186.5156,304.5395 2186.5156,301.4145 Q2186.5156,298.2895 2187.8281,296.6332 Q2189.1563,294.977 2191.6563,294.977 Q2192.3594,294.977 2193,295.1332 Q2193.6563,295.2895 2194.2188,295.5864 L2194.2188,298.3051 Q2193.5938,297.727 2193,297.4614 Q2192.4063,297.1801 2191.7813,297.1801 Q2190.4375,297.1801 2189.75,298.2582 Q2189.0625,299.3207 2189.0625,301.4145 Q2189.0625,303.5082 2189.75,304.5864 Q2190.4375,305.6489 2191.7813,305.6489 Q2192.4063,305.6489 2193,305.3832 Q2193.5938,305.102 2194.2188,304.5239 L2194.2188,307.2426 Z " fill="#000000"/><text fill="#000000" font-family="sans-serif" font-size="14" lengthAdjust="spacing" textLength="107" x="2211.75" y="307.034">DecryptRequest</text><line style="stroke:#181818;stroke-width:0.5;" x1="2009.5" x2="2488.5" y1="317.602" y2="317.602"/><ellipse cx="2019.5" cy="332.6359" fill="none" rx="3" ry="3" style="stroke:#038048;stroke-width:1.0;"/><text fill="#000000" font-family="sans-serif" font-size="14" lengthAdjust="spacing" textLength="109" x="2028.5" y="336.5679">ct_handle: Bytes</text><ellipse cx="2019.5" cy="351.7039" fill="none" rx="3" ry="3" style="stroke:#038048;stroke-width:1.0;"/><text fill="#000000" font-family="sans-serif" font-size="14" lengthAdjust="spacing" textLength="143" x="2028.5" y="355.6358">block_height: Integer</text><text fill="#000000" font-family="sans-serif" font-size="14" lengthAdjust="spacing" textLength="4" x="2028.5" y="374.7038">&#160;</text><ellipse cx="2019.5" cy="389.8397" fill="none" rx="3" ry="3" style="stroke:#038048;stroke-width:1.0;"/><text fill="#000000" font-family="sans-serif" font-size="14" lengthAdjust="spacing" textLength="146" x="2028.5" y="393.7717">status: RequestStatus</text><text fill="#000000" font-family="sans-serif" font-size="14" lengthAdjust="spacing" textLength="4" x="2028.5" y="412.8396">&#160;</text><ellipse cx="2019.5" cy="427.9755" fill="none" rx="3" ry="3" style="stroke:#038048;stroke-width:1.0;"/><text fill="#000000" font-family="sans-serif" font-size="14" lengthAdjust="spacing" textLength="142" x="2028.5" y="431.9075">has_permission: bool</text><text fill="#000000" font-family="sans-serif" font-size="14" lengthAdjust="spacing" textLength="4" x="2028.5" y="450.9754">&#160;</text><ellipse cx="2019.5" cy="466.1114" fill="none" rx="3" ry="3" style="stroke:#038048;stroke-width:1.0;"/><text fill="#000000" font-family="sans-serif" font-size="14" lengthAdjust="spacing" textLength="187" x="2028.5" y="470.0433">response: DecryptResponse</text><ellipse cx="2019.5" cy="485.1793" fill="none" rx="3" ry="3" style="stroke:#038048;stroke-width:1.0;"/><text fill="#000000" font-family="sans-serif" font-size="14" lengthAdjust="spacing" textLength="151" x="2028.5" y="489.1113">response_error: String</text><line style="stroke:#181818;stroke-width:0.5;" x1="2009.5" x2="2488.5" y1="497.2132" y2="497.2132"/><ellipse cx="2019.5" cy="512.2472" fill="#84BE84" rx="3" ry="3" style="stroke:#038048;stroke-width:1.0;"/><text fill="#000000" font-family="sans-serif" font-size="14" lengthAdjust="spacing" textLength="147" x="2028.5" y="516.1792">new() DecryptRequest</text><ellipse cx="2019.5" cy="531.3151" fill="#84BE84" rx="3" ry="3" style="stroke:#038048;stroke-width:1.0;"/><text fill="#000000" font-family="sans-serif" font-size="14" lengthAdjust="spacing" textLength="321" x="2028.5" y="535.2471">update_permission(has_permission: bool): error</text><ellipse cx="2019.5" cy="550.383" fill="#84BE84" rx="3" ry="3" style="stroke:#038048;stroke-width:1.0;"/><text fill="#000000" font-family="sans-serif" font-size="14" lengthAdjust="spacing" textLength="340" x="2028.5" y="554.315">prepare_kms_request(): KMSDecryptRequest, error</text><ellipse cx="2019.5" cy="569.4509" fill="#84BE84" rx="3" ry="3" style="stroke:#038048;stroke-width:1.0;"/><text fill="#000000" font-family="sans-serif" font-size="14" lengthAdjust="spacing" textLength="455" x="2028.5" y="573.3829">add_kms_response(response: DecryptResponse, error: String): error</text><ellipse cx="2019.5" cy="588.5189" fill="#84BE84" rx="3" ry="3" style="stroke:#038048;stroke-width:1.0;"/><text fill="#000000" font-family="sans-serif" font-size="14" lengthAdjust="spacing" textLength="450" x="2028.5" y="592.4508">prepare_response(response: DecryptResponse, error: String): error</text><ellipse cx="2019.5" cy="607.5868" fill="#84BE84" rx="3" ry="3" style="stroke:#038048;stroke-width:1.0;"/><text fill="#000000" font-family="sans-serif" font-size="14" lengthAdjust="spacing" textLength="112" x="2028.5" y="611.5188">complete(): error</text></g><!--class DecryptResponse--><g id="elem_DecryptResponse"><rect codeLine="48" fill="#F1F1F1" height="67.0679" id="DecryptResponse" rx="2.5" ry="2.5" style="stroke:#181818;stroke-width:0.5;" width="149" x="2524.5" y="419.102"/><ellipse cx="2539.5" cy="435.102" fill="#ADD1B2" rx="11" ry="11" style="stroke:#181818;stroke-width:1.0;"/><path d="M2542.4688,440.7426 Q2541.8906,441.0395 2541.25,441.1801 Q2540.6094,441.3364 2539.9063,441.3364 Q2537.4063,441.3364 2536.0781,439.6957 Q2534.7656,438.0395 2534.7656,434.9145 Q2534.7656,431.7895 2536.0781,430.1332 Q2537.4063,428.477 2539.9063,428.477 Q2540.6094,428.477 2541.25,428.6332 Q2541.9063,428.7895 2542.4688,429.0864 L2542.4688,431.8051 Q2541.8438,431.227 2541.25,430.9614 Q2540.6563,430.6801 2540.0313,430.6801 Q2538.6875,430.6801 2538,431.7582 Q2537.3125,432.8207 2537.3125,434.9145 Q2537.3125,437.0082 2538,438.0864 Q2538.6875,439.1489 2540.0313,439.1489 Q2540.6563,439.1489 2541.25,438.8832 Q2541.8438,438.602 2542.4688,438.0239 L2542.4688,440.7426 Z " fill="#000000"/><text fill="#000000" font-family="sans-serif" font-size="14" lengthAdjust="spacing" textLength="117" x="2553.5" y="440.534">DecryptResponse</text><line style="stroke:#181818;stroke-width:0.5;" x1="2525.5" x2="2672.5" y1="451.102" y2="451.102"/><ellipse cx="2535.5" cy="466.1359" fill="none" rx="3" ry="3" style="stroke:#038048;stroke-width:1.0;"/><text fill="#000000" font-family="sans-serif" font-size="14" lengthAdjust="spacing" textLength="109" x="2544.5" y="470.0679">plain_text: Bytes</text><line style="stroke:#181818;stroke-width:0.5;" x1="2525.5" x2="2672.5" y1="478.1699" y2="478.1699"/></g><!--class KMSReencryptRequest--><g id="elem_KMSReencryptRequest"><rect codeLine="52" fill="#F1F1F1" height="105.2038" id="KMSReencryptRequest" rx="2.5" ry="2.5" style="stroke:#181818;stroke-width:0.5;" width="185" x="1796.5" y="803.602"/><ellipse cx="1811.5" cy="819.602" fill="#ADD1B2" rx="11" ry="11" style="stroke:#181818;stroke-width:1.0;"/><path d="M1814.4688,825.2426 Q1813.8906,825.5395 1813.25,825.6801 Q1812.6094,825.8364 1811.9063,825.8364 Q1809.4063,825.8364 1808.0781,824.1957 Q1806.7656,822.5395 1806.7656,819.4145 Q1806.7656,816.2895 1808.0781,814.6332 Q1809.4063,812.977 1811.9063,812.977 Q1812.6094,812.977 1813.25,813.1332 Q1813.9063,813.2895 1814.4688,813.5864 L1814.4688,816.3051 Q1813.8438,815.727 1813.25,815.4614 Q1812.6563,815.1801 1812.0313,815.1801 Q1810.6875,815.1801 1810,816.2582 Q1809.3125,817.3207 1809.3125,819.4145 Q1809.3125,821.5082 1810,822.5864 Q1810.6875,823.6489 1812.0313,823.6489 Q1812.6563,823.6489 1813.25,823.3832 Q1813.8438,823.102 1814.4688,822.5239 L1814.4688,825.2426 Z " fill="#000000"/><text fill="#000000" font-family="sans-serif" font-size="14" lengthAdjust="spacing" textLength="153" x="1825.5" y="825.034">KMSReencryptRequest</text><line style="stroke:#181818;stroke-width:0.5;" x1="1797.5" x2="1980.5" y1="835.602" y2="835.602"/><ellipse cx="1807.5" cy="850.6359" fill="none" rx="3" ry="3" style="stroke:#038048;stroke-width:1.0;"/><text fill="#000000" font-family="sans-serif" font-size="14" lengthAdjust="spacing" textLength="109" x="1816.5" y="854.5679">ct_handle: Bytes</text><ellipse cx="1807.5" cy="869.7039" fill="none" rx="3" ry="3" style="stroke:#038048;stroke-width:1.0;"/><text fill="#000000" font-family="sans-serif" font-size="14" lengthAdjust="spacing" textLength="143" x="1816.5" y="873.6358">block_height: Integer</text><ellipse cx="1807.5" cy="888.7718" fill="none" rx="3" ry="3" style="stroke:#038048;stroke-width:1.0;"/><text fill="#000000" font-family="sans-serif" font-size="14" lengthAdjust="spacing" textLength="150" x="1816.5" y="892.7038">user_public_key: Bytes</text><line style="stroke:#181818;stroke-width:0.5;" x1="1797.5" x2="1980.5" y1="900.8057" y2="900.8057"/></g><!--class ReencryptRequest--><g id="elem_ReencryptRequest"><rect codeLine="58" fill="#F1F1F1" height="353.0867" id="ReencryptRequest" rx="2.5" ry="2.5" style="stroke:#181818;stroke-width:0.5;" width="489" x="2016.5" y="679.602"/><ellipse cx="2195.25" cy="695.602" fill="#ADD1B2" rx="11" ry="11" style="stroke:#181818;stroke-width:1.0;"/><path d="M2198.2188,701.2426 Q2197.6406,701.5395 2197,701.6801 Q2196.3594,701.8364 2195.6563,701.8364 Q2193.1563,701.8364 2191.8281,700.1957 Q2190.5156,698.5395 2190.5156,695.4145 Q2190.5156,692.2895 2191.8281,690.6332 Q2193.1563,688.977 2195.6563,688.977 Q2196.3594,688.977 2197,689.1332 Q2197.6563,689.2895 2198.2188,689.5864 L2198.2188,692.3051 Q2197.5938,691.727 2197,691.4614 Q2196.4063,691.1801 2195.7813,691.1801 Q2194.4375,691.1801 2193.75,692.2582 Q2193.0625,693.3207 2193.0625,695.4145 Q2193.0625,697.5082 2193.75,698.5864 Q2194.4375,699.6489 2195.7813,699.6489 Q2196.4063,699.6489 2197,699.3832 Q2197.5938,699.102 2198.2188,698.5239 L2198.2188,701.2426 Z " fill="#000000"/><text fill="#000000" font-family="sans-serif" font-size="14" lengthAdjust="spacing" textLength="123" x="2215.75" y="701.034">ReencryptRequest</text><line style="stroke:#181818;stroke-width:0.5;" x1="2017.5" x2="2504.5" y1="711.602" y2="711.602"/><ellipse cx="2027.5" cy="726.6359" fill="none" rx="3" ry="3" style="stroke:#038048;stroke-width:1.0;"/><text fill="#000000" font-family="sans-serif" font-size="14" lengthAdjust="spacing" textLength="109" x="2036.5" y="730.5679">ct_handle: Bytes</text><ellipse cx="2027.5" cy="745.7039" fill="none" rx="3" ry="3" style="stroke:#038048;stroke-width:1.0;"/><text fill="#000000" font-family="sans-serif" font-size="14" lengthAdjust="spacing" textLength="143" x="2036.5" y="749.6358">block_height: Integer</text><ellipse cx="2027.5" cy="764.7718" fill="none" rx="3" ry="3" style="stroke:#038048;stroke-width:1.0;"/><text fill="#000000" font-family="sans-serif" font-size="14" lengthAdjust="spacing" textLength="150" x="2036.5" y="768.7038">user_public_key: Bytes</text><text fill="#000000" font-family="sans-serif" font-size="14" lengthAdjust="spacing" textLength="4" x="2036.5" y="787.7717">&#160;</text><ellipse cx="2027.5" cy="802.9076" fill="none" rx="3" ry="3" style="stroke:#038048;stroke-width:1.0;"/><text fill="#000000" font-family="sans-serif" font-size="14" lengthAdjust="spacing" textLength="146" x="2036.5" y="806.8396">status: RequestStatus</text><text fill="#000000" font-family="sans-serif" font-size="14" lengthAdjust="spacing" textLength="4" x="2036.5" y="825.9075">&#160;</text><ellipse cx="2027.5" cy="841.0434" fill="none" rx="3" ry="3" style="stroke:#038048;stroke-width:1.0;"/><text fill="#000000" font-family="sans-serif" font-size="14" lengthAdjust="spacing" textLength="142" x="2036.5" y="844.9754">has_permission: bool</text><text fill="#000000" font-family="sans-serif" font-size="14" lengthAdjust="spacing" textLength="4" x="2036.5" y="864.0433">&#160;</text><ellipse cx="2027.5" cy="879.1793" fill="none" rx="3" ry="3" style="stroke:#038048;stroke-width:1.0;"/><text fill="#000000" font-family="sans-serif" font-size="14" lengthAdjust="spacing" textLength="203" x="2036.5" y="883.1113">response: ReencryptResponse</text><ellipse cx="2027.5" cy="898.2472" fill="none" rx="3" ry="3" style="stroke:#038048;stroke-width:1.0;"/><text fill="#000000" font-family="sans-serif" font-size="14" lengthAdjust="spacing" textLength="151" x="2036.5" y="902.1792">response_error: String</text><line style="stroke:#181818;stroke-width:0.5;" x1="2017.5" x2="2504.5" y1="910.2812" y2="910.2812"/><ellipse cx="2027.5" cy="925.3151" fill="#84BE84" rx="3" ry="3" style="stroke:#038048;stroke-width:1.0;"/><text fill="#000000" font-family="sans-serif" font-size="14" lengthAdjust="spacing" textLength="163" x="2036.5" y="929.2471">new() ReencryptRequest</text><ellipse cx="2027.5" cy="944.383" fill="#84BE84" rx="3" ry="3" style="stroke:#038048;stroke-width:1.0;"/><text fill="#000000" font-family="sans-serif" font-size="14" lengthAdjust="spacing" textLength="321" x="2036.5" y="948.315">update_permission(has_permission: bool): error</text><ellipse cx="2027.5" cy="963.4509" fill="#84BE84" rx="3" ry="3" style="stroke:#038048;stroke-width:1.0;"/><text fill="#000000" font-family="sans-serif" font-size="14" lengthAdjust="spacing" textLength="348" x="2036.5" y="967.3829">prepare_kms_request(): KMSRencryptRequest, error</text><ellipse cx="2027.5" cy="982.5189" fill="#84BE84" rx="3" ry="3" style="stroke:#038048;stroke-width:1.0;"/><text fill="#000000" font-family="sans-serif" font-size="14" lengthAdjust="spacing" textLength="463" x="2036.5" y="986.4508">add_kms_response(response: RencryptResponse, error: String): error</text><ellipse cx="2027.5" cy="1001.5868" fill="#84BE84" rx="3" ry="3" style="stroke:#038048;stroke-width:1.0;"/><text fill="#000000" font-family="sans-serif" font-size="14" lengthAdjust="spacing" textLength="458" x="2036.5" y="1005.5188">prepare_response(response: RencryptResponse, error: String): error</text><ellipse cx="2027.5" cy="1020.6547" fill="#84BE84" rx="3" ry="3" style="stroke:#038048;stroke-width:1.0;"/><text fill="#000000" font-family="sans-serif" font-size="14" lengthAdjust="spacing" textLength="112" x="2036.5" y="1024.5867">complete(): error</text></g><!--class ReencryptResponse--><g id="elem_ReencryptResponse"><rect codeLine="78" fill="#F1F1F1" height="67.0679" id="ReencryptResponse" rx="2.5" ry="2.5" style="stroke:#181818;stroke-width:0.5;" width="209" x="2540.5" y="822.602"/><ellipse cx="2575.3" cy="838.602" fill="#ADD1B2" rx="11" ry="11" style="stroke:#181818;stroke-width:1.0;"/><path d="M2578.2688,844.2426 Q2577.6906,844.5395 2577.05,844.6801 Q2576.4094,844.8364 2575.7063,844.8364 Q2573.2063,844.8364 2571.8781,843.1957 Q2570.5656,841.5395 2570.5656,838.4145 Q2570.5656,835.2895 2571.8781,833.6332 Q2573.2063,831.977 2575.7063,831.977 Q2576.4094,831.977 2577.05,832.1332 Q2577.7063,832.2895 2578.2688,832.5864 L2578.2688,835.3051 Q2577.6438,834.727 2577.05,834.4614 Q2576.4563,834.1801 2575.8313,834.1801 Q2574.4875,834.1801 2573.8,835.2582 Q2573.1125,836.3207 2573.1125,838.4145 Q2573.1125,840.5082 2573.8,841.5864 Q2574.4875,842.6489 2575.8313,842.6489 Q2576.4563,842.6489 2577.05,842.3832 Q2577.6438,842.102 2578.2688,841.5239 L2578.2688,844.2426 Z " fill="#000000"/><text fill="#000000" font-family="sans-serif" font-size="14" lengthAdjust="spacing" textLength="133" x="2593.7" y="844.034">ReencryptResponse</text><line style="stroke:#181818;stroke-width:0.5;" x1="2541.5" x2="2748.5" y1="854.602" y2="854.602"/><ellipse cx="2551.5" cy="869.6359" fill="none" rx="3" ry="3" style="stroke:#038048;stroke-width:1.0;"/><text fill="#000000" font-family="sans-serif" font-size="14" lengthAdjust="spacing" textLength="183" x="2560.5" y="873.5679">encrypted_plain_text: Bytes</text><line style="stroke:#181818;stroke-width:0.5;" x1="2541.5" x2="2748.5" y1="881.6699" y2="881.6699"/></g><!--class GatewayCore--><g id="elem_GatewayCore"><rect codeLine="82" fill="#F1F1F1" height="257.7471" id="GatewayCore" rx="2.5" ry="2.5" style="stroke:#181818;stroke-width:0.5;" width="406" x="702" y="323.602"/><ellipse cx="856.75" cy="339.602" fill="#ADD1B2" rx="11" ry="11" style="stroke:#181818;stroke-width:1.0;"/><path d="M859.7188,345.2426 Q859.1406,345.5395 858.5,345.6801 Q857.8594,345.8364 857.1563,345.8364 Q854.6563,345.8364 853.3281,344.1957 Q852.0156,342.5395 852.0156,339.4145 Q852.0156,336.2895 853.3281,334.6332 Q854.6563,332.977 857.1563,332.977 Q857.8594,332.977 858.5,333.1332 Q859.1563,333.2895 859.7188,333.5864 L859.7188,336.3051 Q859.0938,335.727 858.5,335.4614 Q857.9063,335.1801 857.2813,335.1801 Q855.9375,335.1801 855.25,336.2582 Q854.5625,337.3207 854.5625,339.4145 Q854.5625,341.5082 855.25,342.5864 Q855.9375,343.6489 857.2813,343.6489 Q857.9063,343.6489 858.5,343.3832 Q859.0938,343.102 859.7188,342.5239 L859.7188,345.2426 Z " fill="#000000"/><text fill="#000000" font-family="sans-serif" font-size="14" lengthAdjust="spacing" textLength="88" x="877.25" y="345.034">GatewayCore</text><line style="stroke:#181818;stroke-width:0.5;" x1="703" x2="1107" y1="355.602" y2="355.602"/><ellipse cx="713" cy="370.6359" fill="none" rx="3" ry="3" style="stroke:#038048;stroke-width:1.0;"/><text fill="#000000" font-family="sans-serif" font-size="14" lengthAdjust="spacing" textLength="182" x="722" y="374.5679">config: GatewayCoreConfig</text><text fill="#000000" font-family="sans-serif" font-size="14" lengthAdjust="spacing" textLength="4" x="722" y="393.6358">&#160;</text><ellipse cx="713" cy="408.7718" fill="none" rx="3" ry="3" style="stroke:#038048;stroke-width:1.0;"/><text fill="#000000" font-family="sans-serif" font-size="14" lengthAdjust="spacing" textLength="350" x="722" y="412.7038">decrypt_requests: map&lt;ct_handle, DecryptRequest&gt;</text><ellipse cx="713" cy="427.8397" fill="none" rx="3" ry="3" style="stroke:#038048;stroke-width:1.0;"/><text fill="#000000" font-family="sans-serif" font-size="14" lengthAdjust="spacing" textLength="380" x="722" y="431.7717">reencrypt_requests: map&lt;ct_handle, ReencryptRequest&gt;</text><text fill="#000000" font-family="sans-serif" font-size="14" lengthAdjust="spacing" textLength="4" x="722" y="450.8396">&#160;</text><ellipse cx="713" cy="465.9755" fill="none" rx="3" ry="3" style="stroke:#038048;stroke-width:1.0;"/><text fill="#000000" font-family="sans-serif" font-size="14" lengthAdjust="spacing" textLength="217" x="722" y="469.9075">host_blockchain: HostBlockchain</text><ellipse cx="713" cy="485.0434" fill="none" rx="3" ry="3" style="stroke:#038048;stroke-width:1.0;"/><text fill="#000000" font-family="sans-serif" font-size="14" lengthAdjust="spacing" textLength="163" x="722" y="488.9754">persistence: Persistence</text><ellipse cx="713" cy="504.1114" fill="none" rx="3" ry="3" style="stroke:#038048;stroke-width:1.0;"/><text fill="#000000" font-family="sans-serif" font-size="14" lengthAdjust="spacing" textLength="65" x="722" y="508.0433">kms: KMS</text><line style="stroke:#181818;stroke-width:0.5;" x1="703" x2="1107" y1="516.1453" y2="516.1453"/><ellipse cx="713" cy="531.1793" fill="#84BE84" rx="3" ry="3" style="stroke:#038048;stroke-width:1.0;"/><text fill="#000000" font-family="sans-serif" font-size="14" lengthAdjust="spacing" textLength="314" x="722" y="535.1113">new(config: GatewayCoreConfig): GatewayCore</text><ellipse cx="713" cy="550.2472" fill="#84BE84" rx="3" ry="3" style="stroke:#038048;stroke-width:1.0;"/><text fill="#000000" font-family="sans-serif" font-size="14" lengthAdjust="spacing" textLength="74" x="722" y="554.1792">run(): error</text><ellipse cx="713" cy="569.3151" fill="#84BE84" rx="3" ry="3" style="stroke:#038048;stroke-width:1.0;"/><text fill="#000000" font-family="sans-serif" font-size="14" lengthAdjust="spacing" textLength="117" x="722" y="573.2471">shutdown(): error</text></g><!--class GatewayCoreConfig--><g id="elem_GatewayCoreConfig"><rect codeLine="97" fill="#F1F1F1" height="48" id="GatewayCoreConfig" rx="2.5" ry="2.5" style="stroke:#181818;stroke-width:0.5;" width="164" x="823" y="111.102"/><ellipse cx="838" cy="127.102" fill="#ADD1B2" rx="11" ry="11" style="stroke:#181818;stroke-width:1.0;"/><path d="M840.9688,132.7426 Q840.3906,133.0395 839.75,133.1801 Q839.1094,133.3364 838.4063,133.3364 Q835.9063,133.3364 834.5781,131.6957 Q833.2656,130.0395 833.2656,126.9145 Q833.2656,123.7895 834.5781,122.1332 Q835.9063,120.477 838.4063,120.477 Q839.1094,120.477 839.75,120.6332 Q840.4063,120.7895 840.9688,121.0864 L840.9688,123.8051 Q840.3438,123.227 839.75,122.9614 Q839.1563,122.6801 838.5313,122.6801 Q837.1875,122.6801 836.5,123.7582 Q835.8125,124.8207 835.8125,126.9145 Q835.8125,129.0082 836.5,130.0864 Q837.1875,131.1489 838.5313,131.1489 Q839.1563,131.1489 839.75,130.8832 Q840.3438,130.602 840.9688,130.0239 L840.9688,132.7426 Z " fill="#000000"/><text fill="#000000" font-family="sans-serif" font-size="14" lengthAdjust="spacing" textLength="132" x="852" y="132.534">GatewayCoreConfig</text><line style="stroke:#181818;stroke-width:0.5;" x1="824" x2="986" y1="143.102" y2="143.102"/><line style="stroke:#181818;stroke-width:0.5;" x1="824" x2="986" y1="151.102" y2="151.102"/></g><!--class HostBlockchain--><g id="elem_HostBlockchain"><rect codeLine="100" fill="#F1F1F1" height="238.6792" id="HostBlockchain" rx="2.5" ry="2.5" style="stroke:#181818;stroke-width:0.5;" width="627" x="21.5" y="736.602"/><ellipse cx="282.75" cy="752.602" fill="#B4A7E5" rx="11" ry="11" style="stroke:#181818;stroke-width:1.0;"/><path d="M278.6719,748.3676 L278.6719,746.2114 L286.0625,746.2114 L286.0625,748.3676 L283.5938,748.3676 L283.5938,756.4457 L286.0625,756.4457 L286.0625,758.602 L278.6719,758.602 L278.6719,756.4457 L281.1406,756.4457 L281.1406,748.3676 L278.6719,748.3676 Z " fill="#000000"/><text fill="#000000" font-family="sans-serif" font-size="14" font-style="italic" lengthAdjust="spacing" textLength="96" x="303.25" y="758.034">HostBlockchain</text><line style="stroke:#181818;stroke-width:0.5;" x1="22.5" x2="647.5" y1="768.602" y2="768.602"/><line style="stroke:#181818;stroke-width:0.5;" x1="22.5" x2="647.5" y1="776.602" y2="776.602"/><ellipse cx="32.5" cy="791.6359" fill="#84BE84" rx="3" ry="3" style="stroke:#038048;stroke-width:1.0;"/><text fill="#000000" font-family="sans-serif" font-size="14" lengthAdjust="spacing" textLength="342" x="41.5" y="795.5679">new(config: HostBlockchainConfig): BlockchainHost</text><text fill="#000000" font-family="sans-serif" font-size="14" lengthAdjust="spacing" textLength="4" x="41.5" y="814.6358">&#160;</text><ellipse cx="32.5" cy="829.7718" fill="#84BE84" rx="3" ry="3" style="stroke:#038048;stroke-width:1.0;"/><text fill="#000000" font-family="sans-serif" font-size="14" lengthAdjust="spacing" textLength="386" x="41.5" y="833.7038">listen_for_decrypt_requests(): chan DecryptRequest, error</text><ellipse cx="32.5" cy="848.8397" fill="#84BE84" rx="3" ry="3" style="stroke:#038048;stroke-width:1.0;"/><text fill="#000000" font-family="sans-serif" font-size="14" lengthAdjust="spacing" textLength="395" x="41.5" y="852.7717">send_decrypt_response(response: DecryptResponse): error</text><text fill="#000000" font-family="sans-serif" font-size="14" lengthAdjust="spacing" textLength="4" x="41.5" y="871.8396">&#160;</text><ellipse cx="32.5" cy="886.9755" fill="#84BE84" rx="3" ry="3" style="stroke:#038048;stroke-width:1.0;"/><text fill="#000000" font-family="sans-serif" font-size="14" lengthAdjust="spacing" textLength="416" x="41.5" y="890.9075">listen_for_reencrypt_requests(): chan ReencryptRequest, error</text><ellipse cx="32.5" cy="906.0434" fill="#84BE84" rx="3" ry="3" style="stroke:#038048;stroke-width:1.0;"/><text fill="#000000" font-family="sans-serif" font-size="14" lengthAdjust="spacing" textLength="428" x="41.5" y="909.9754">send_encrypted_response(response: ReencryptResponse): error</text><text fill="#000000" font-family="sans-serif" font-size="14" lengthAdjust="spacing" textLength="4" x="41.5" y="929.0433">&#160;</text><ellipse cx="32.5" cy="944.1793" fill="#84BE84" rx="3" ry="3" style="stroke:#038048;stroke-width:1.0;"/><text fill="#000000" font-family="sans-serif" font-size="14" lengthAdjust="spacing" textLength="601" x="41.5" y="948.1113">has_permission(ct_handle: Bytes, block_height: Integer, operation: Operation): bool, error</text><ellipse cx="32.5" cy="963.2472" fill="#84BE84" rx="3" ry="3" style="stroke:#038048;stroke-width:1.0;"/><text fill="#000000" font-family="sans-serif" font-size="14" lengthAdjust="spacing" textLength="202" x="41.5" y="967.1792">was_request_sent() bool, error</text></g><!--class HostBlockchainConfig--><g id="elem_HostBlockchainConfig"><rect codeLine="113" fill="#F1F1F1" height="48" id="HostBlockchainConfig" rx="2.5" ry="2.5" style="stroke:#181818;stroke-width:0.5;" width="178" x="246" y="1092.602"/><ellipse cx="261" cy="1108.602" fill="#ADD1B2" rx="11" ry="11" style="stroke:#181818;stroke-width:1.0;"/><path d="M263.9688,1114.2426 Q263.3906,1114.5395 262.75,1114.6801 Q262.1094,1114.8364 261.4063,1114.8364 Q258.9063,1114.8364 257.5781,1113.1957 Q256.2656,1111.5395 256.2656,1108.4145 Q256.2656,1105.2895 257.5781,1103.6332 Q258.9063,1101.977 261.4063,1101.977 Q262.1094,1101.977 262.75,1102.1332 Q263.4063,1102.2895 263.9688,1102.5864 L263.9688,1105.3051 Q263.3438,1104.727 262.75,1104.4614 Q262.1563,1104.1801 261.5313,1104.1801 Q260.1875,1104.1801 259.5,1105.2582 Q258.8125,1106.3207 258.8125,1108.4145 Q258.8125,1110.5082 259.5,1111.5864 Q260.1875,1112.6489 261.5313,1112.6489 Q262.1563,1112.6489 262.75,1112.3832 Q263.3438,1112.102 263.9688,1111.5239 L263.9688,1114.2426 Z " fill="#000000"/><text fill="#000000" font-family="sans-serif" font-size="14" lengthAdjust="spacing" textLength="146" x="275" y="1114.034">HostBlockchainConfig</text><line style="stroke:#181818;stroke-width:0.5;" x1="247" x2="423" y1="1124.602" y2="1124.602"/><line style="stroke:#181818;stroke-width:0.5;" x1="247" x2="423" y1="1132.602" y2="1132.602"/></g><!--class Persistence--><g id="elem_Persistence"><rect codeLine="116" fill="#F1F1F1" height="162.4075" id="Persistence" rx="2.5" ry="2.5" style="stroke:#181818;stroke-width:0.5;" width="444" x="683" y="775.102"/><ellipse cx="865.75" cy="791.102" fill="#B4A7E5" rx="11" ry="11" style="stroke:#181818;stroke-width:1.0;"/><path d="M861.6719,786.8676 L861.6719,784.7114 L869.0625,784.7114 L869.0625,786.8676 L866.5938,786.8676 L866.5938,794.9457 L869.0625,794.9457 L869.0625,797.102 L861.6719,797.102 L861.6719,794.9457 L864.1406,794.9457 L864.1406,786.8676 L861.6719,786.8676 Z " fill="#000000"/><text fill="#000000" font-family="sans-serif" font-size="14" font-style="italic" lengthAdjust="spacing" textLength="70" x="886.25" y="796.534">Persistence</text><line style="stroke:#181818;stroke-width:0.5;" x1="684" x2="1126" y1="807.102" y2="807.102"/><line style="stroke:#181818;stroke-width:0.5;" x1="684" x2="1126" y1="815.102" y2="815.102"/><ellipse cx="694" cy="830.1359" fill="#84BE84" rx="3" ry="3" style="stroke:#038048;stroke-width:1.0;"/><text fill="#000000" font-family="sans-serif" font-size="14" lengthAdjust="spacing" textLength="292" x="703" y="834.0679">new(config: PersistenceConfig): Persistence</text><text fill="#000000" font-family="sans-serif" font-size="14" lengthAdjust="spacing" textLength="4" x="703" y="853.1358">&#160;</text><ellipse cx="694" cy="868.2718" fill="#84BE84" rx="3" ry="3" style="stroke:#038048;stroke-width:1.0;"/><text fill="#000000" font-family="sans-serif" font-size="14" lengthAdjust="spacing" textLength="389" x="703" y="872.2038">update_decrypt_reqquest(request: DecryptRequest): error</text><ellipse cx="694" cy="887.3397" fill="#84BE84" rx="3" ry="3" style="stroke:#038048;stroke-width:1.0;"/><text fill="#000000" font-family="sans-serif" font-size="14" lengthAdjust="spacing" textLength="410" x="703" y="891.2717">update_reencrypt_request(request: ReencryptRequest): error</text><text fill="#000000" font-family="sans-serif" font-size="14" lengthAdjust="spacing" textLength="4" x="703" y="910.3396">&#160;</text><ellipse cx="694" cy="925.4755" fill="#84BE84" rx="3" ry="3" style="stroke:#038048;stroke-width:1.0;"/><text fill="#000000" font-family="sans-serif" font-size="14" lengthAdjust="spacing" textLength="418" x="703" y="929.4075">restore(): chan DecryptRequest, chan ReencryptRequest, error</text></g><!--class PersistenceConfig--><g id="elem_PersistenceConfig"><rect codeLine="125" fill="#F1F1F1" height="48" id="PersistenceConfig" rx="2.5" ry="2.5" style="stroke:#181818;stroke-width:0.5;" width="153" x="828.5" y="1092.602"/><ellipse cx="843.5" cy="1108.602" fill="#ADD1B2" rx="11" ry="11" style="stroke:#181818;stroke-width:1.0;"/><path d="M846.4688,1114.2426 Q845.8906,1114.5395 845.25,1114.6801 Q844.6094,1114.8364 843.9063,1114.8364 Q841.4063,1114.8364 840.0781,1113.1957 Q838.7656,1111.5395 838.7656,1108.4145 Q838.7656,1105.2895 840.0781,1103.6332 Q841.4063,1101.977 843.9063,1101.977 Q844.6094,1101.977 845.25,1102.1332 Q845.9063,1102.2895 846.4688,1102.5864 L846.4688,1105.3051 Q845.8438,1104.727 845.25,1104.4614 Q844.6563,1104.1801 844.0313,1104.1801 Q842.6875,1104.1801 842,1105.2582 Q841.3125,1106.3207 841.3125,1108.4145 Q841.3125,1110.5082 842,1111.5864 Q842.6875,1112.6489 844.0313,1112.6489 Q844.6563,1112.6489 845.25,1112.3832 Q845.8438,1112.102 846.4688,1111.5239 L846.4688,1114.2426 Z " fill="#000000"/><text fill="#000000" font-family="sans-serif" font-size="14" lengthAdjust="spacing" textLength="121" x="857.5" y="1114.034">PersistenceConfig</text><line style="stroke:#181818;stroke-width:0.5;" x1="829.5" x2="980.5" y1="1124.602" y2="1124.602"/><line style="stroke:#181818;stroke-width:0.5;" x1="829.5" x2="980.5" y1="1132.602" y2="1132.602"/></g><!--class KMS--><g id="elem_KMS"><rect codeLine="129" fill="#F1F1F1" height="200.5433" id="KMS" rx="2.5" ry="2.5" style="stroke:#181818;stroke-width:0.5;" width="599" x="1162.5" y="755.602"/><ellipse cx="1444.25" cy="771.602" fill="#B4A7E5" rx="11" ry="11" style="stroke:#181818;stroke-width:1.0;"/><path d="M1440.1719,767.3676 L1440.1719,765.2114 L1447.5625,765.2114 L1447.5625,767.3676 L1445.0938,767.3676 L1445.0938,775.4457 L1447.5625,775.4457 L1447.5625,777.602 L1440.1719,777.602 L1440.1719,775.4457 L1442.6406,775.4457 L1442.6406,767.3676 L1440.1719,767.3676 Z " fill="#000000"/><text fill="#000000" font-family="sans-serif" font-size="14" font-style="italic" lengthAdjust="spacing" textLength="27" x="1464.75" y="777.034">KMS</text><line style="stroke:#181818;stroke-width:0.5;" x1="1163.5" x2="1760.5" y1="787.602" y2="787.602"/><line style="stroke:#181818;stroke-width:0.5;" x1="1163.5" x2="1760.5" y1="795.602" y2="795.602"/><ellipse cx="1173.5" cy="810.6359" fill="#84BE84" rx="3" ry="3" style="stroke:#038048;stroke-width:1.0;"/><text fill="#000000" font-family="sans-serif" font-size="14" lengthAdjust="spacing" textLength="198" x="1182.5" y="814.5679">new(config: KMSConfig): KMS</text><text fill="#000000" font-family="sans-serif" font-size="14" lengthAdjust="spacing" textLength="4" x="1182.5" y="833.6358">&#160;</text><ellipse cx="1173.5" cy="848.7718" fill="#84BE84" rx="3" ry="3" style="stroke:#038048;stroke-width:1.0;"/><text fill="#000000" font-family="sans-serif" font-size="14" lengthAdjust="spacing" textLength="395" x="1182.5" y="852.7038">send_decrypt_request(request: KMSDecryptRequest): error</text><ellipse cx="1173.5" cy="867.8397" fill="#84BE84" rx="3" ry="3" style="stroke:#038048;stroke-width:1.0;"/><text fill="#000000" font-family="sans-serif" font-size="14" lengthAdjust="spacing" textLength="406" x="1182.5" y="871.7717">listen_for_decrypt_responses(): chan DecryptResponse, error</text><ellipse cx="1173.5" cy="886.9076" fill="#84BE84" rx="3" ry="3" style="stroke:#038048;stroke-width:1.0;"/><text fill="#000000" font-family="sans-serif" font-size="14" lengthAdjust="spacing" textLength="559" x="1182.5" y="890.8396">check_if_decrypt_request_exists(ct_handle: Bytes, block_height: Integer): bool, error</text><ellipse cx="1173.5" cy="905.9755" fill="#84BE84" rx="3" ry="3" style="stroke:#038048;stroke-width:1.0;"/><text fill="#000000" font-family="sans-serif" font-size="14" lengthAdjust="spacing" textLength="425" x="1182.5" y="909.9075">send_reencrypt_request(request: KMSReencryptRequest): error</text><ellipse cx="1173.5" cy="925.0434" fill="#84BE84" rx="3" ry="3" style="stroke:#038048;stroke-width:1.0;"/><text fill="#000000" font-family="sans-serif" font-size="14" lengthAdjust="spacing" textLength="436" x="1182.5" y="928.9754">listen_for_reencrypt_responses(): chan ReencryptResponse, error</text><ellipse cx="1173.5" cy="944.1114" fill="#84BE84" rx="3" ry="3" style="stroke:#038048;stroke-width:1.0;"/><text fill="#000000" font-family="sans-serif" font-size="14" lengthAdjust="spacing" textLength="573" x="1182.5" y="948.0433">check_if_reencrypt_request_exists(ct_handle: Bytes, block_height: Integer): bool, error</text></g><!--class KMSConfig--><g id="elem_KMSConfig"><rect codeLine="142" fill="#F1F1F1" height="48" id="KMSConfig" rx="2.5" ry="2.5" style="stroke:#181818;stroke-width:0.5;" width="106" x="1409" y="1092.602"/><ellipse cx="1424" cy="1108.602" fill="#ADD1B2" rx="11" ry="11" style="stroke:#181818;stroke-width:1.0;"/><path d="M1426.9688,1114.2426 Q1426.3906,1114.5395 1425.75,1114.6801 Q1425.1094,1114.8364 1424.4063,1114.8364 Q1421.9063,1114.8364 1420.5781,1113.1957 Q1419.2656,1111.5395 1419.2656,1108.4145 Q1419.2656,1105.2895 1420.5781,1103.6332 Q1421.9063,1101.977 1424.4063,1101.977 Q1425.1094,1101.977 1425.75,1102.1332 Q1426.4063,1102.2895 1426.9688,1102.5864 L1426.9688,1105.3051 Q1426.3438,1104.727 1425.75,1104.4614 Q1425.1563,1104.1801 1424.5313,1104.1801 Q1423.1875,1104.1801 1422.5,1105.2582 Q1421.8125,1106.3207 1421.8125,1108.4145 Q1421.8125,1110.5082 1422.5,1111.5864 Q1423.1875,1112.6489 1424.5313,1112.6489 Q1425.1563,1112.6489 1425.75,1112.3832 Q1426.3438,1112.102 1426.9688,1111.5239 L1426.9688,1114.2426 Z " fill="#000000"/><text fill="#000000" font-family="sans-serif" font-size="14" lengthAdjust="spacing" textLength="74" x="1438" y="1114.034">KMSConfig</text><line style="stroke:#181818;stroke-width:0.5;" x1="1410" x2="1514" y1="1124.602" y2="1124.602"/><line style="stroke:#181818;stroke-width:0.5;" x1="1410" x2="1514" y1="1132.602" y2="1132.602"/></g><!--reverse link GatewayCoreConfig to GatewayCore--><!--link HostBlockchain to HostBlockchainConfig--><!--link Persistence to PersistenceConfig--><!--link KMS to KMSConfig--><!--link GatewayCore to HostBlockchain--><g id="link_GatewayCore_HostBlockchain"><path codeLine="150" d="M723.08,581.742 C652.71,631.312 587.3563,677.3471 518.2963,725.9871 " fill="none" id="GatewayCore-to-HostBlockchain" style="stroke:#181818;stroke-width:1.0;"/><polygon fill="none" points="503.58,736.352,521.7512,730.8925,514.8413,721.0817,503.58,736.352" style="stroke:#181818;stroke-width:1.0;"/></g><!--link GatewayCore to Persistence--><g id="link_GatewayCore_Persistence"><path codeLine="151" d="M905,581.742 C905,645.202 905,701.842 905,757.082 " fill="none" id="GatewayCore-to-Persistence" style="stroke:#181818;stroke-width:1.0;"/><polygon fill="none" points="905,775.082,911,757.082,899,757.082,905,775.082" style="stroke:#181818;stroke-width:1.0;"/></g><!--link GatewayCore to KMS--><g id="link_GatewayCore_KMS"><path codeLine="152" d="M1082.77,581.742 C1160.77,637.972 1236.3579,692.4568 1309.2079,744.9668 " fill="none" id="GatewayCore-to-KMS" style="stroke:#181818;stroke-width:1.0;"/><polygon fill="none" points="1323.81,755.492,1312.7163,740.0995,1305.6995,749.8342,1323.81,755.492" style="stroke:#181818;stroke-width:1.0;"/></g><!--SRC=[jLTDRzim3BtdLmWzEMZw1umXXtR0EWp3YcItOH1Kcuc5E98doKk3hVzziYtB-ahJBMjEYIXIV7oFbDAGOaUsWAu-40K7SaHtNC0L-ZMR8GIitQCl3GYYA6Tw3UdFUoZ4iL7zznK06tyzMuyL_6X1Ad-_MVJTLY0RpYIatDUAg5QQ82ieWFw44WMVtlYHoNQpeGK5fXv0xAcKNRg3SGsif6pxbN_wl8uyjL55bj6ebyVylEFTiEE6E6m8hQY9b5rClnu6ttMXS4LOMKEEReyAvB3wMFDYXokWsqhb6gU2BGW_ukNX1fliovtxrJUsYaZSsCBcw97psfY4WPbFYLZSZXc345paQAs4hfhnPN38vYbzNBTDgTNed9cbKfZdg0yx-3G26Y80x_OIYo5OfdT45L-uJgGiZSEGPtOIZt4R8QJFlZ1CmVTD3GeoPpb5jT6SuRgf2MLOmPEQoFObv_JR1QBhU94WSDC-rhJ0EpWcptlhm_wJN5Cpw7M23G6-XMHN_X6lrUmgmFIlelshE6TK6nLw58HPXXAVKR2vcRgBoOg9imtTvgxfhbyoJ9L3gunLrKBPa-QTbU0Yc3hBaNoJqsc_aFpbg3ak5Ux5N5GQJ8xkzSAj_Mqg3a9IgNG4NUE7wSTWrPpst3jYEmbpxgsPx5kM-Sp8gbKbFx0Jp4HH- -hs6wXkHB4X1GGunlgxoVaxR7xJKhV1WAfxn7Z31GufwfBKsnbwOLnBVUiwZkU6hOKT7HupROyF6OuJc8IRR9r0xa4I_bJ8mgcuGCc9k41yV8RbqujiFWmLByC3iRC4wsprG0dsE098CPVIW2FLb00SisNVLRSt81tQXu5daiq3tdqb6-U8jiaxf2qekoP8QPsV5DaPwfsYHMY7Yg6PNxFkKPcebLwsDPfwFT1r02rwmlYrIVRKeBr4Kta3tGpJ2hJYw2RC0CCJxJhZbHeDrEX2Uu6tnFFa93mtJ0Wmwhiqn2YJoq26BwsmXzohw-PRHSiIsFUskLacRYuKpbhhqCrmxP9gL-tbTcVe4ebrrl-lYVRPr6VzNnWlxPlVo_WsYtRurrbaxhJ-FFi3]--></g></svg>