<?xml version="1.0" encoding="us-ascii" standalone="no"?><svg xmlns="http://www.w3.org/2000/svg" xmlns:xlink="http://www.w3.org/1999/xlink" contentStyleType="text/css" height="646px" preserveAspectRatio="none" style="width:978px;height:646px;background:#FFFFFF;" version="1.1" viewBox="0 0 978 646" width="978px" zoomAndPan="magnify"><defs/><g><text fill="#000000" font-family="sans-serif" font-size="14" font-weight="bold" lengthAdjust="spacing" textLength="528" x="224.25" y="27.9951">Gateway Interactions: Decrypt, Rencrypt, Verify Proven Ciphertext</text><rect fill="none" height="471.1953" style="stroke:#000000;stroke-width:1.5;" width="521.5" x="10" y="106.8906"/><rect fill="#FA8072" height="309.3984" style="stroke:#000000;stroke-width:1.5;" width="501.5" x="20" y="261.6875"/><rect fill="#7FFFD4" height="234" style="stroke:none;stroke-width:1.0;" width="501.5" x="20" y="337.0859"/><line style="stroke:#181818;stroke-width:0.5;stroke-dasharray:5.0,5.0;" x1="55" x2="55" y1="89.8906" y2="595.0859"/><line style="stroke:#181818;stroke-width:0.5;stroke-dasharray:5.0,5.0;" x1="162" x2="162" y1="89.8906" y2="595.0859"/><line style="stroke:#181818;stroke-width:0.5;stroke-dasharray:5.0,5.0;" x1="309" x2="309" y1="89.8906" y2="595.0859"/><line style="stroke:#181818;stroke-width:0.5;stroke-dasharray:5.0,5.0;" x1="474.5" x2="474.5" y1="89.8906" y2="595.0859"/><line style="stroke:#181818;stroke-width:0.5;stroke-dasharray:5.0,5.0;" x1="569.5" x2="569.5" y1="89.8906" y2="595.0859"/><line style="stroke:#181818;stroke-width:0.5;stroke-dasharray:5.0,5.0;" x1="688.5" x2="688.5" y1="89.8906" y2="595.0859"/><line style="stroke:#181818;stroke-width:0.5;stroke-dasharray:5.0,5.0;" x1="820.5" x2="820.5" y1="89.8906" y2="595.0859"/><line style="stroke:#181818;stroke-width:0.5;stroke-dasharray:5.0,5.0;" x1="931.5" x2="931.5" y1="89.8906" y2="595.0859"/><rect fill="#E2E2F0" height="30.2969" rx="2.5" ry="2.5" style="stroke:#181818;stroke-width:0.5;" width="51" x="30" y="58.5938"/><text fill="#000000" font-family="sans-serif" font-size="14" lengthAdjust="spacing" textLength="37" x="37" y="78.5889">Dapp</text><rect fill="#E2E2F0" height="30.2969" rx="2.5" ry="2.5" style="stroke:#181818;stroke-width:0.5;" width="51" x="30" y="594.0859"/><text fill="#000000" font-family="sans-serif" font-size="14" lengthAdjust="spacing" textLength="37" x="37" y="614.0811">Dapp</text><rect fill="#E2E2F0" height="30.2969" rx="2.5" ry="2.5" style="stroke:#181818;stroke-width:0.5;" width="142" x="91" y="58.5938"/><text fill="#000000" font-family="sans-serif" font-size="14" lengthAdjust="spacing" textLength="128" x="98" y="78.5889">FHE Enabled Node</text><rect fill="#E2E2F0" height="30.2969" rx="2.5" ry="2.5" style="stroke:#181818;stroke-width:0.5;" width="142" x="91" y="594.0859"/><text fill="#000000" font-family="sans-serif" font-size="14" lengthAdjust="spacing" textLength="128" x="98" y="614.0811">FHE Enabled Node</text><rect fill="#E2E2F0" height="46.5938" rx="2.5" ry="2.5" style="stroke:#181818;stroke-width:0.5;" width="132" x="243" y="42.2969"/><text fill="#000000" font-family="sans-serif" font-size="14" lengthAdjust="spacing" textLength="110" x="254" y="62.292">ZK Proof Verifier</text><text fill="#000000" font-family="sans-serif" font-size="14" lengthAdjust="spacing" textLength="118" x="250" y="78.5889">(Trusted Service)</text><rect fill="#E2E2F0" height="46.5938" rx="2.5" ry="2.5" style="stroke:#181818;stroke-width:0.5;" width="132" x="243" y="594.0859"/><text fill="#000000" font-family="sans-serif" font-size="14" lengthAdjust="spacing" textLength="110" x="254" y="614.0811">ZK Proof Verifier</text><text fill="#000000" font-family="sans-serif" font-size="14" lengthAdjust="spacing" textLength="118" x="250" y="630.3779">(Trusted Service)</text><rect fill="#E2E2F0" height="30.2969" rx="2.5" ry="2.5" style="stroke:#181818;stroke-width:0.5;" width="73" x="438.5" y="58.5938"/><text fill="#000000" font-family="sans-serif" font-size="14" lengthAdjust="spacing" textLength="59" x="445.5" y="78.5889">Gateway</text><rect fill="#E2E2F0" height="30.2969" rx="2.5" ry="2.5" style="stroke:#181818;stroke-width:0.5;" width="73" x="438.5" y="594.0859"/><text fill="#000000" font-family="sans-serif" font-size="14" lengthAdjust="spacing" textLength="59" x="445.5" y="614.0811">Gateway</text><rect fill="#E2E2F0" height="30.2969" rx="2.5" ry="2.5" style="stroke:#181818;stroke-width:0.5;" width="96" x="521.5" y="58.5938"/><text fill="#000000" font-family="sans-serif" font-size="14" lengthAdjust="spacing" textLength="82" x="528.5" y="78.5889">Persistence</text><rect fill="#E2E2F0" height="30.2969" rx="2.5" ry="2.5" style="stroke:#181818;stroke-width:0.5;" width="96" x="521.5" y="594.0859"/><text fill="#000000" font-family="sans-serif" font-size="14" lengthAdjust="spacing" textLength="82" x="528.5" y="614.0811">Persistence</text><rect fill="#E2E2F0" height="30.2969" rx="2.5" ry="2.5" style="stroke:#181818;stroke-width:0.5;" width="123" x="627.5" y="58.5938"/><text fill="#000000" font-family="sans-serif" font-size="14" lengthAdjust="spacing" textLength="109" x="634.5" y="78.5889">KMS Blockchain</text><rect fill="#E2E2F0" height="30.2969" rx="2.5" ry="2.5" style="stroke:#181818;stroke-width:0.5;" width="123" x="627.5" y="594.0859"/><text fill="#000000" font-family="sans-serif" font-size="14" lengthAdjust="spacing" textLength="109" x="634.5" y="614.0811">KMS Blockchain</text><rect fill="#E2E2F0" height="30.2969" rx="2.5" ry="2.5" style="stroke:#181818;stroke-width:0.5;" width="121" x="760.5" y="58.5938"/><text fill="#000000" font-family="sans-serif" font-size="14" lengthAdjust="spacing" textLength="107" x="767.5" y="78.5889">KMS Connector</text><rect fill="#E2E2F0" height="30.2969" rx="2.5" ry="2.5" style="stroke:#181818;stroke-width:0.5;" width="121" x="760.5" y="594.0859"/><text fill="#000000" font-family="sans-serif" font-size="14" lengthAdjust="spacing" textLength="107" x="767.5" y="614.0811">KMS Connector</text><rect fill="#E2E2F0" height="30.2969" rx="2.5" ry="2.5" style="stroke:#181818;stroke-width:0.5;" width="81" x="891.5" y="58.5938"/><text fill="#000000" font-family="sans-serif" font-size="14" lengthAdjust="spacing" textLength="67" x="898.5" y="78.5889">KMS Core</text><rect fill="#E2E2F0" height="30.2969" rx="2.5" ry="2.5" style="stroke:#181818;stroke-width:0.5;" width="81" x="891.5" y="594.0859"/><text fill="#000000" font-family="sans-serif" font-size="14" lengthAdjust="spacing" textLength="67" x="898.5" y="614.0811">KMS Core</text><path d="M10,106.8906 L236,106.8906 L236,114.0234 L226,124.0234 L10,124.0234 L10,106.8906 " fill="#EEEEEE" style="stroke:#000000;stroke-width:1.5;"/><rect fill="none" height="471.1953" style="stroke:#000000;stroke-width:1.5;" width="521.5" x="10" y="106.8906"/><text fill="#000000" font-family="sans-serif" font-size="13" font-weight="bold" lengthAdjust="spacing" textLength="181" x="25" y="119.9575">Verify Proven Ciphertext</text><polygon fill="#181818" points="463,156.2891,473,160.2891,463,164.2891,467,160.2891" style="stroke:#181818;stroke-width:1.0;"/><line style="stroke:#181818;stroke-width:1.0;" x1="55.5" x2="469" y1="160.2891" y2="160.2891"/><text fill="#000000" font-family="sans-serif" font-size="13" lengthAdjust="spacing" textLength="102" x="214.25" y="140.0903">Verify Proven Ct</text><text fill="#000000" font-family="sans-serif" font-size="13" lengthAdjust="spacing" textLength="81" x="224.75" y="155.2231">(ct, zk proof)</text><polygon fill="#181818" points="320,200.5547,310,204.5547,320,208.5547,316,204.5547" style="stroke:#181818;stroke-width:1.0;"/><line style="stroke:#181818;stroke-width:1.0;" x1="314" x2="474" y1="204.5547" y2="204.5547"/><text fill="#000000" font-family="sans-serif" font-size="13" lengthAdjust="spacing" textLength="61" x="359.5" y="184.356">Attest ZK</text><text fill="#000000" font-family="sans-serif" font-size="13" lengthAdjust="spacing" textLength="81" x="351.5" y="199.4888">(ct, zk proof)</text><line style="stroke:#181818;stroke-width:1.0;" x1="309" x2="351" y1="233.6875" y2="233.6875"/><line style="stroke:#181818;stroke-width:1.0;" x1="351" x2="351" y1="233.6875" y2="246.6875"/><line style="stroke:#181818;stroke-width:1.0;" x1="310" x2="351" y1="246.6875" y2="246.6875"/><polygon fill="#181818" points="320,242.6875,310,246.6875,320,250.6875,316,246.6875" style="stroke:#181818;stroke-width:1.0;"/><text fill="#000000" font-family="sans-serif" font-size="13" lengthAdjust="spacing" textLength="91" x="316" y="228.6216">Verify zk proof</text><path d="M20,261.6875 L84,261.6875 L84,268.8203 L74,278.8203 L20,278.8203 L20,261.6875 " fill="#EEEEEE" style="stroke:#000000;stroke-width:1.5;"/><rect fill="none" height="309.3984" style="stroke:#000000;stroke-width:1.5;" width="501.5" x="20" y="261.6875"/><text fill="#000000" font-family="sans-serif" font-size="13" font-weight="bold" lengthAdjust="spacing" textLength="19" x="35" y="274.7544">alt</text><text fill="#000000" font-family="sans-serif" font-size="11" font-weight="bold" lengthAdjust="spacing" textLength="119" x="99" y="273.8979">[if proof is invalid]</text><polygon fill="#181818" points="463,295.9531,473,299.9531,463,303.9531,467,299.9531" style="stroke:#181818;stroke-width:1.0;"/><line style="stroke:#181818;stroke-width:1.0;" x1="309" x2="469" y1="299.9531" y2="299.9531"/><text fill="#000000" font-family="sans-serif" font-size="13" lengthAdjust="spacing" textLength="130" x="327" y="294.8872">Error: Proof is invalid</text><polygon fill="#181818" points="66.5,325.0859,56.5,329.0859,66.5,333.0859,62.5,329.0859" style="stroke:#181818;stroke-width:1.0;"/><line style="stroke:#181818;stroke-width:1.0;" x1="60.5" x2="474" y1="329.0859" y2="329.0859"/><text fill="#000000" font-family="sans-serif" font-size="13" lengthAdjust="spacing" textLength="130" x="200.25" y="324.02">Error: Proof is invalid</text><line style="stroke:#000000;stroke-width:1.0;stroke-dasharray:2.0,2.0;" x1="20" x2="521.5" y1="338.0859" y2="338.0859"/><text fill="#000000" font-family="sans-serif" font-size="11" font-weight="bold" lengthAdjust="spacing" textLength="107" x="25" y="348.2964">[if proof is valid]</text><line style="stroke:#181818;stroke-width:1.0;" x1="309" x2="351" y1="373.0234" y2="373.0234"/><line style="stroke:#181818;stroke-width:1.0;" x1="351" x2="351" y1="373.0234" y2="386.0234"/><line style="stroke:#181818;stroke-width:1.0;" x1="310" x2="351" y1="386.0234" y2="386.0234"/><polygon fill="#181818" points="320,382.0234,310,386.0234,320,390.0234,316,386.0234" style="stroke:#181818;stroke-width:1.0;"/><text fill="#000000" font-family="sans-serif" font-size="13" lengthAdjust="spacing" textLength="76" x="316" y="367.9575">Attest proof</text><polygon fill="#181818" points="463,411.1563,473,415.1563,463,419.1563,467,415.1563" style="stroke:#181818;stroke-width:1.0;"/><line style="stroke:#181818;stroke-width:1.0;" x1="309" x2="469" y1="415.1563" y2="415.1563"/><text fill="#000000" font-family="sans-serif" font-size="13" lengthAdjust="spacing" textLength="142" x="321" y="410.0903">Attestation of zk proof</text><polygon fill="#181818" points="173,455.4219,163,459.4219,173,463.4219,169,459.4219" style="stroke:#181818;stroke-width:1.0;"/><line style="stroke:#181818;stroke-width:1.0;" x1="167" x2="474" y1="459.4219" y2="459.4219"/><text fill="#000000" font-family="sans-serif" font-size="13" lengthAdjust="spacing" textLength="103" x="267" y="439.2231">Store ciphertext</text><text fill="#000000" font-family="sans-serif" font-size="13" lengthAdjust="spacing" textLength="22" x="307.5" y="454.356">(ct)</text><polygon fill="#181818" points="463,499.6875,473,503.6875,463,507.6875,467,503.6875" style="stroke:#181818;stroke-width:1.0;"/><line style="stroke:#181818;stroke-width:1.0;" x1="162" x2="469" y1="503.6875" y2="503.6875"/><text fill="#000000" font-family="sans-serif" font-size="13" lengthAdjust="spacing" textLength="39" x="299" y="483.4888">Result</text><text fill="#000000" font-family="sans-serif" font-size="13" lengthAdjust="spacing" textLength="219" x="209" y="498.6216">(ct_handle, attestation of storage)</text><polygon fill="#181818" points="66.5,559.0859,56.5,563.0859,66.5,567.0859,62.5,563.0859" style="stroke:#181818;stroke-width:1.0;"/><line style="stroke:#181818;stroke-width:1.0;" x1="60.5" x2="474" y1="563.0859" y2="563.0859"/><text fill="#000000" font-family="sans-serif" font-size="13" lengthAdjust="spacing" textLength="39" x="245.75" y="527.7544">Result</text><text fill="#000000" font-family="sans-serif" font-size="13" lengthAdjust="spacing" textLength="219" x="155.75" y="542.8872">(ct_handle, Attestation of storage,</text><text fill="#000000" font-family="sans-serif" font-size="13" lengthAdjust="spacing" textLength="147" x="191.75" y="558.02">Attestation of zk proof)</text><!--SRC=[TPFFRjim3CRlUWf2lSn0zW8v3CZQT2sA3a4px30K65YPSGGhaYl9oTAd7nKbDVmdEXW6zUF7ZwGTQcqRzBY3GEyjMKNF509Mj32wig38Hl92H1qDWVo1aGvuXCSKHHMris4ETwJyiOapUE7y_FQRlDuSOUNTdYpSwcPBFjA_A8NWQb4htQ2Da8wymwQHq3iOeEJecBr_MCBIufkX4dwwacI6jszgGlZFKpBWDjcD9lzgl_poROYSl2Q_rueAcT8_wlsP6AjSMXxOgmxZUYloGRCw3r5sPDD5OSBaq_CQlXkdQhL5RUKvgTu5RcaIldNMaehEI-XWnS5hk2VPitx2FOdJgRnhcwlh4YAj0Rv-utxdGohoE1Nl-gE69esv4DKXeTqqvx28aK84tiG8xh1XqhdE1HK2JOIRDPgTiw0tEGewWBPxDBeSI2MhI-yTAws6P7QOchhEa0a4Dult5dVejQLUoQc24mrdusDV-HhJZmCi-DbYziMVyHpMl5e2zRc3q-0AmNSNaHSAhSdnlrkqfQ4PO5yui0Z_n4MluQcynMJUxDLUSLe8igN83_4V]--></g></svg>