<?xml version="1.0" encoding="us-ascii" standalone="no"?><svg xmlns="http://www.w3.org/2000/svg" xmlns:xlink="http://www.w3.org/1999/xlink" contentStyleType="text/css" height="1378px" preserveAspectRatio="none" style="width:1388px;height:1378px;background:#FFFFFF;" version="1.1" viewBox="0 0 1388 1378" width="1388px" zoomAndPan="magnify"><defs/><g><text fill="#000000" font-family="sans-serif" font-size="14" font-weight="bold" lengthAdjust="spacing" textLength="528" x="431.75" y="27.9951">Gateway Interactions: Decrypt, Rencrypt, Verify Proven Ciphertext</text><rect fill="none" height="1202.9922" style="stroke:#000000;stroke-width:1.5;" width="1372.5" x="10" y="106.8906"/><rect fill="#FA8072" height="755.5313" style="stroke:#000000;stroke-width:1.5;" width="1352.5" x="20" y="263.8203"/><rect fill="#7FFFD4" height="709.2656" style="stroke:none;stroke-width:1.0;" width="1352.5" x="20" y="310.0859"/><rect fill="#FA8072" height="503.3984" style="stroke:#000000;stroke-width:1.5;" width="1281.5" x="81" y="508.9531"/><rect fill="#7FFFD4" height="406.8672" style="stroke:none;stroke-width:1.0;" width="1281.5" x="81" y="605.4844"/><rect fill="#FA8072" height="274.3984" style="stroke:#000000;stroke-width:1.5;" width="708" x="644.5" y="730.9531"/><rect fill="#7FFFD4" height="177.8672" style="stroke:none;stroke-width:1.0;" width="708" x="644.5" y="827.4844"/><rect fill="#FA8072" height="269.5313" style="stroke:#000000;stroke-width:1.5;" width="767.5" x="20" y="1033.3516"/><rect fill="#7FFFD4" height="194.1328" style="stroke:none;stroke-width:1.0;" width="767.5" x="20" y="1108.75"/><line style="stroke:#181818;stroke-width:0.5;stroke-dasharray:5.0,5.0;" x1="55" x2="55" y1="89.8906" y2="1326.8828"/><line style="stroke:#181818;stroke-width:0.5;stroke-dasharray:5.0,5.0;" x1="162" x2="162" y1="89.8906" y2="1326.8828"/><line style="stroke:#181818;stroke-width:0.5;stroke-dasharray:5.0,5.0;" x1="309" x2="309" y1="89.8906" y2="1326.8828"/><line style="stroke:#181818;stroke-width:0.5;stroke-dasharray:5.0,5.0;" x1="422.5" x2="422.5" y1="89.8906" y2="1326.8828"/><line style="stroke:#181818;stroke-width:0.5;stroke-dasharray:5.0,5.0;" x1="517.5" x2="517.5" y1="89.8906" y2="1326.8828"/><line style="stroke:#181818;stroke-width:0.5;stroke-dasharray:5.0,5.0;" x1="715.5" x2="715.5" y1="89.8906" y2="1326.8828"/><line style="stroke:#181818;stroke-width:0.5;stroke-dasharray:5.0,5.0;" x1="1008.5" x2="1008.5" y1="89.8906" y2="1326.8828"/><line style="stroke:#181818;stroke-width:0.5;stroke-dasharray:5.0,5.0;" x1="1301.5" x2="1301.5" y1="89.8906" y2="1326.8828"/><rect fill="#E2E2F0" height="30.2969" rx="2.5" ry="2.5" style="stroke:#181818;stroke-width:0.5;" width="51" x="30" y="58.5938"/><text fill="#000000" font-family="sans-serif" font-size="14" lengthAdjust="spacing" textLength="37" x="37" y="78.5889">Dapp</text><rect fill="#E2E2F0" height="30.2969" rx="2.5" ry="2.5" style="stroke:#181818;stroke-width:0.5;" width="51" x="30" y="1325.8828"/><text fill="#000000" font-family="sans-serif" font-size="14" lengthAdjust="spacing" textLength="37" x="37" y="1345.8779">Dapp</text><rect fill="#E2E2F0" height="30.2969" rx="2.5" ry="2.5" style="stroke:#181818;stroke-width:0.5;" width="142" x="91" y="58.5938"/><text fill="#000000" font-family="sans-serif" font-size="14" lengthAdjust="spacing" textLength="128" x="98" y="78.5889">FHE Enabled Node</text><rect fill="#E2E2F0" height="30.2969" rx="2.5" ry="2.5" style="stroke:#181818;stroke-width:0.5;" width="142" x="91" y="1325.8828"/><text fill="#000000" font-family="sans-serif" font-size="14" lengthAdjust="spacing" textLength="128" x="98" y="1345.8779">FHE Enabled Node</text><rect fill="#E2E2F0" height="46.5938" rx="2.5" ry="2.5" style="stroke:#181818;stroke-width:0.5;" width="132" x="243" y="42.2969"/><text fill="#000000" font-family="sans-serif" font-size="14" lengthAdjust="spacing" textLength="110" x="254" y="62.292">ZK Proof Verifier</text><text fill="#000000" font-family="sans-serif" font-size="14" lengthAdjust="spacing" textLength="118" x="250" y="78.5889">(Trusted Service)</text><rect fill="#E2E2F0" height="46.5938" rx="2.5" ry="2.5" style="stroke:#181818;stroke-width:0.5;" width="132" x="243" y="1325.8828"/><text fill="#000000" font-family="sans-serif" font-size="14" lengthAdjust="spacing" textLength="110" x="254" y="1345.8779">ZK Proof Verifier</text><text fill="#000000" font-family="sans-serif" font-size="14" lengthAdjust="spacing" textLength="118" x="250" y="1362.1748">(Trusted Service)</text><rect fill="#E2E2F0" height="30.2969" rx="2.5" ry="2.5" style="stroke:#181818;stroke-width:0.5;" width="73" x="386.5" y="58.5938"/><text fill="#000000" font-family="sans-serif" font-size="14" lengthAdjust="spacing" textLength="59" x="393.5" y="78.5889">Gateway</text><rect fill="#E2E2F0" height="30.2969" rx="2.5" ry="2.5" style="stroke:#181818;stroke-width:0.5;" width="73" x="386.5" y="1325.8828"/><text fill="#000000" font-family="sans-serif" font-size="14" lengthAdjust="spacing" textLength="59" x="393.5" y="1345.8779">Gateway</text><rect fill="#E2E2F0" height="30.2969" rx="2.5" ry="2.5" style="stroke:#181818;stroke-width:0.5;" width="96" x="469.5" y="58.5938"/><text fill="#000000" font-family="sans-serif" font-size="14" lengthAdjust="spacing" textLength="82" x="476.5" y="78.5889">Persistence</text><rect fill="#E2E2F0" height="30.2969" rx="2.5" ry="2.5" style="stroke:#181818;stroke-width:0.5;" width="96" x="469.5" y="1325.8828"/><text fill="#000000" font-family="sans-serif" font-size="14" lengthAdjust="spacing" textLength="82" x="476.5" y="1345.8779">Persistence</text><rect fill="#E2E2F0" height="30.2969" rx="2.5" ry="2.5" style="stroke:#181818;stroke-width:0.5;" width="123" x="654.5" y="58.5938"/><text fill="#000000" font-family="sans-serif" font-size="14" lengthAdjust="spacing" textLength="109" x="661.5" y="78.5889">KMS Blockchain</text><rect fill="#E2E2F0" height="30.2969" rx="2.5" ry="2.5" style="stroke:#181818;stroke-width:0.5;" width="123" x="654.5" y="1325.8828"/><text fill="#000000" font-family="sans-serif" font-size="14" lengthAdjust="spacing" textLength="109" x="661.5" y="1345.8779">KMS Blockchain</text><rect fill="#E2E2F0" height="30.2969" rx="2.5" ry="2.5" style="stroke:#181818;stroke-width:0.5;" width="121" x="948.5" y="58.5938"/><text fill="#000000" font-family="sans-serif" font-size="14" lengthAdjust="spacing" textLength="107" x="955.5" y="78.5889">KMS Connector</text><rect fill="#E2E2F0" height="30.2969" rx="2.5" ry="2.5" style="stroke:#181818;stroke-width:0.5;" width="121" x="948.5" y="1325.8828"/><text fill="#000000" font-family="sans-serif" font-size="14" lengthAdjust="spacing" textLength="107" x="955.5" y="1345.8779">KMS Connector</text><rect fill="#E2E2F0" height="30.2969" rx="2.5" ry="2.5" style="stroke:#181818;stroke-width:0.5;" width="81" x="1261.5" y="58.5938"/><text fill="#000000" font-family="sans-serif" font-size="14" lengthAdjust="spacing" textLength="67" x="1268.5" y="78.5889">KMS Core</text><rect fill="#E2E2F0" height="30.2969" rx="2.5" ry="2.5" style="stroke:#181818;stroke-width:0.5;" width="81" x="1261.5" y="1325.8828"/><text fill="#000000" font-family="sans-serif" font-size="14" lengthAdjust="spacing" textLength="67" x="1268.5" y="1345.8779">KMS Core</text><path d="M10,106.8906 L121,106.8906 L121,114.0234 L111,124.0234 L10,124.0234 L10,106.8906 " fill="#EEEEEE" style="stroke:#000000;stroke-width:1.5;"/><rect fill="none" height="1202.9922" style="stroke:#000000;stroke-width:1.5;" width="1372.5" x="10" y="106.8906"/><text fill="#000000" font-family="sans-serif" font-size="13" font-weight="bold" lengthAdjust="spacing" textLength="66" x="25" y="119.9575">Rencrypt</text><polygon fill="#181818" points="411,156.2891,421,160.2891,411,164.2891,415,160.2891" style="stroke:#181818;stroke-width:1.0;"/><line style="stroke:#181818;stroke-width:1.0;" x1="55.5" x2="417" y1="160.2891" y2="160.2891"/><text fill="#000000" font-family="sans-serif" font-size="13" lengthAdjust="spacing" textLength="56" x="211.25" y="140.0903">Rencrypt</text><text fill="#000000" font-family="sans-serif" font-size="13" lengthAdjust="spacing" textLength="260" x="109.25" y="155.2231">(ct_handle, block height, user public key)</text><polygon fill="#181818" points="173,200.5547,163,204.5547,173,208.5547,169,204.5547" style="stroke:#181818;stroke-width:1.0;"/><line style="stroke:#181818;stroke-width:1.0;" x1="167" x2="422" y1="204.5547" y2="204.5547"/><text fill="#000000" font-family="sans-serif" font-size="13" lengthAdjust="spacing" textLength="106" x="239.5" y="184.356">Read permission</text><text fill="#000000" font-family="sans-serif" font-size="13" lengthAdjust="spacing" textLength="237" x="174" y="199.4888">(ct_handle, block height, rencryption)</text><polygon fill="#181818" points="411,244.8203,421,248.8203,411,252.8203,415,248.8203" style="stroke:#181818;stroke-width:1.0;"/><line style="stroke:#181818;stroke-width:1.0;" x1="162" x2="417" y1="248.8203" y2="248.8203"/><text fill="#000000" font-family="sans-serif" font-size="13" lengthAdjust="spacing" textLength="176" x="204.5" y="228.6216">Permission value: true/false</text><text fill="#000000" font-family="sans-serif" font-size="13" lengthAdjust="spacing" textLength="157" x="214" y="243.7544">(ct_handle, block height)</text><path d="M20,263.8203 L84,263.8203 L84,270.9531 L74,280.9531 L20,280.9531 L20,263.8203 " fill="#EEEEEE" style="stroke:#000000;stroke-width:1.5;"/><rect fill="none" height="755.5313" style="stroke:#000000;stroke-width:1.5;" width="1352.5" x="20" y="263.8203"/><text fill="#000000" font-family="sans-serif" font-size="13" font-weight="bold" lengthAdjust="spacing" textLength="19" x="35" y="276.8872">alt</text><text fill="#000000" font-family="sans-serif" font-size="11" font-weight="bold" lengthAdjust="spacing" textLength="138" x="99" y="276.0308">[Permission == false]</text><polygon fill="#181818" points="66.5,298.0859,56.5,302.0859,66.5,306.0859,62.5,302.0859" style="stroke:#181818;stroke-width:1.0;"/><line style="stroke:#181818;stroke-width:1.0;" x1="60.5" x2="422" y1="302.0859" y2="302.0859"/><text fill="#000000" font-family="sans-serif" font-size="13" lengthAdjust="spacing" textLength="181" x="148.75" y="297.02">Error: Insufficient permission</text><line style="stroke:#000000;stroke-width:1.0;stroke-dasharray:2.0,2.0;" x1="20" x2="1372.5" y1="311.0859" y2="311.0859"/><text fill="#000000" font-family="sans-serif" font-size="11" font-weight="bold" lengthAdjust="spacing" textLength="132" x="25" y="321.2964">[Permission == true]</text><polygon fill="#181818" points="704,357.1563,714,361.1563,704,365.1563,708,361.1563" style="stroke:#181818;stroke-width:1.0;"/><line style="stroke:#181818;stroke-width:1.0;" x1="423" x2="710" y1="361.1563" y2="361.1563"/><text fill="#000000" font-family="sans-serif" font-size="13" lengthAdjust="spacing" textLength="56" x="541.5" y="340.9575">Rencrypt</text><text fill="#000000" font-family="sans-serif" font-size="13" lengthAdjust="spacing" textLength="157" x="491" y="356.0903">(ct_handle, block height)</text><polygon fill="#181818" points="997,401.4219,1007,405.4219,997,409.4219,1001,405.4219" style="stroke:#181818;stroke-width:1.0;"/><line style="stroke:#181818;stroke-width:1.0;" x1="716" x2="1003" y1="405.4219" y2="405.4219"/><text fill="#000000" font-family="sans-serif" font-size="13" lengthAdjust="spacing" textLength="56" x="834.5" y="385.2231">Rencrypt</text><text fill="#000000" font-family="sans-serif" font-size="13" lengthAdjust="spacing" textLength="157" x="784" y="400.356">(ct_handle, block height)</text><polygon fill="#181818" points="173,445.6875,163,449.6875,173,453.6875,169,449.6875" style="stroke:#181818;stroke-width:1.0;"/><line style="stroke:#181818;stroke-width:1.0;" x1="167" x2="1008" y1="449.6875" y2="449.6875"/><text fill="#000000" font-family="sans-serif" font-size="13" lengthAdjust="spacing" textLength="106" x="532.5" y="429.4888">Read permission</text><text fill="#000000" font-family="sans-serif" font-size="13" lengthAdjust="spacing" textLength="237" x="467" y="444.6216">(ct_handle, block height, rencryption)</text><polygon fill="#181818" points="997,489.9531,1007,493.9531,997,497.9531,1001,493.9531" style="stroke:#181818;stroke-width:1.0;"/><line style="stroke:#181818;stroke-width:1.0;" x1="162" x2="1003" y1="493.9531" y2="493.9531"/><text fill="#000000" font-family="sans-serif" font-size="13" lengthAdjust="spacing" textLength="176" x="497.5" y="473.7544">Permission value: true/false</text><text fill="#000000" font-family="sans-serif" font-size="13" lengthAdjust="spacing" textLength="157" x="507" y="488.8872">(ct_handle, block height)</text><path d="M81,508.9531 L145,508.9531 L145,516.0859 L135,526.0859 L81,526.0859 L81,508.9531 " fill="#EEEEEE" style="stroke:#000000;stroke-width:1.5;"/><rect fill="none" height="503.3984" style="stroke:#000000;stroke-width:1.5;" width="1281.5" x="81" y="508.9531"/><text fill="#000000" font-family="sans-serif" font-size="13" font-weight="bold" lengthAdjust="spacing" textLength="19" x="96" y="522.02">alt</text><text fill="#000000" font-family="sans-serif" font-size="11" font-weight="bold" lengthAdjust="spacing" textLength="138" x="160" y="521.1636">[Permission == false]</text><polygon fill="#181818" points="727,543.2188,717,547.2188,727,551.2188,723,547.2188" style="stroke:#181818;stroke-width:1.0;"/><line style="stroke:#181818;stroke-width:1.0;" x1="721" x2="1008" y1="547.2188" y2="547.2188"/><text fill="#000000" font-family="sans-serif" font-size="13" lengthAdjust="spacing" textLength="142" x="791.5" y="542.1528">Insufficient permission</text><path d="M657,560.2188 L657,600.2188 L1067,600.2188 L1067,570.2188 L1057,560.2188 L657,560.2188 " fill="#FEFFDD" style="stroke:#181818;stroke-width:0.5;"/><path d="M1057,560.2188 L1057,570.2188 L1067,570.2188 L1057,560.2188 " fill="#FEFFDD" style="stroke:#181818;stroke-width:0.5;"/><text fill="#000000" font-family="sans-serif" font-size="13" lengthAdjust="spacing" textLength="333" x="691" y="577.2856">This can only happen if gateway was being malicious</text><text fill="#000000" font-family="sans-serif" font-size="13" lengthAdjust="spacing" textLength="169" x="691" y="592.4185">while checking permission.</text><line style="stroke:#000000;stroke-width:1.0;stroke-dasharray:2.0,2.0;" x1="81" x2="1362.5" y1="606.4844" y2="606.4844"/><text fill="#000000" font-family="sans-serif" font-size="11" font-weight="bold" lengthAdjust="spacing" textLength="132" x="86" y="616.6948">[Permission == true]</text><polygon fill="#181818" points="173,652.5547,163,656.5547,173,660.5547,169,656.5547" style="stroke:#181818;stroke-width:1.0;"/><line style="stroke:#181818;stroke-width:1.0;" x1="167" x2="1008" y1="656.5547" y2="656.5547"/><text fill="#000000" font-family="sans-serif" font-size="13" lengthAdjust="spacing" textLength="103" x="534" y="636.356">Fetch ciphertext</text><text fill="#000000" font-family="sans-serif" font-size="13" lengthAdjust="spacing" textLength="72" x="549.5" y="651.4888">(ct_handle)</text><polygon fill="#181818" points="997,711.9531,1007,715.9531,997,719.9531,1001,715.9531" style="stroke:#181818;stroke-width:1.0;"/><line style="stroke:#181818;stroke-width:1.0;" x1="162" x2="1003" y1="715.9531" y2="715.9531"/><text fill="#000000" font-family="sans-serif" font-size="13" lengthAdjust="spacing" textLength="104" x="533.5" y="680.6216">Ciphertext value</text><text fill="#000000" font-family="sans-serif" font-size="13" lengthAdjust="spacing" textLength="13" x="579" y="695.7544">or</text><text fill="#000000" font-family="sans-serif" font-size="13" lengthAdjust="spacing" textLength="170" x="500.5" y="710.8872">Error: Ciphertext not found</text><path d="M644.5,730.9531 L708.5,730.9531 L708.5,738.0859 L698.5,748.0859 L644.5,748.0859 L644.5,730.9531 " fill="#EEEEEE" style="stroke:#000000;stroke-width:1.5;"/><rect fill="none" height="274.3984" style="stroke:#000000;stroke-width:1.5;" width="708" x="644.5" y="730.9531"/><text fill="#000000" font-family="sans-serif" font-size="13" font-weight="bold" lengthAdjust="spacing" textLength="19" x="659.5" y="744.02">alt</text><text fill="#000000" font-family="sans-serif" font-size="11" font-weight="bold" lengthAdjust="spacing" textLength="153" x="723.5" y="743.1636">[ct_handle is not found]</text><polygon fill="#181818" points="727,765.2188,717,769.2188,727,773.2188,723,769.2188" style="stroke:#181818;stroke-width:1.0;"/><line style="stroke:#181818;stroke-width:1.0;" x1="721" x2="1008" y1="769.2188" y2="769.2188"/><text fill="#000000" font-family="sans-serif" font-size="13" lengthAdjust="spacing" textLength="170" x="777.5" y="764.1528">Error: Ciphertext not found</text><path d="M657,782.2188 L657,822.2188 L1067,822.2188 L1067,792.2188 L1057,782.2188 L657,782.2188 " fill="#FEFFDD" style="stroke:#181818;stroke-width:0.5;"/><path d="M1057,782.2188 L1057,792.2188 L1067,792.2188 L1057,782.2188 " fill="#FEFFDD" style="stroke:#181818;stroke-width:0.5;"/><text fill="#000000" font-family="sans-serif" font-size="13" lengthAdjust="spacing" textLength="382" x="666.5" y="799.2856">Should we check if ct_handle is valid in the gateway to avoid</text><text fill="#000000" font-family="sans-serif" font-size="13" lengthAdjust="spacing" textLength="309" x="666.5" y="814.4185">reaching this point unless gateway is malicious ?</text><line style="stroke:#000000;stroke-width:1.0;stroke-dasharray:2.0,2.0;" x1="644.5" x2="1352.5" y1="828.4844" y2="828.4844"/><text fill="#000000" font-family="sans-serif" font-size="11" font-weight="bold" lengthAdjust="spacing" textLength="128" x="649.5" y="838.6948">[ct_handle is found]</text><polygon fill="#181818" points="1290,874.5547,1300,878.5547,1290,882.5547,1294,878.5547" style="stroke:#181818;stroke-width:1.0;"/><line style="stroke:#181818;stroke-width:1.0;" x1="1009" x2="1296" y1="878.5547" y2="878.5547"/><text fill="#000000" font-family="sans-serif" font-size="13" lengthAdjust="spacing" textLength="56" x="1127.5" y="858.356">Rencrypt</text><text fill="#000000" font-family="sans-serif" font-size="13" lengthAdjust="spacing" textLength="177" x="1067" y="873.4888">(ciphertext, user public key)</text><polygon fill="#181818" points="1020,933.9531,1010,937.9531,1020,941.9531,1016,937.9531" style="stroke:#181818;stroke-width:1.0;"/><line style="stroke:#181818;stroke-width:1.0;" x1="1014" x2="1301" y1="937.9531" y2="937.9531"/><text fill="#000000" font-family="sans-serif" font-size="13" lengthAdjust="spacing" textLength="122" x="1094.5" y="902.6216">Rencrypt Response</text><text fill="#000000" font-family="sans-serif" font-size="13" lengthAdjust="spacing" textLength="269" x="1021" y="917.7544">(ciphertext encrypted with user public key,</text><text fill="#000000" font-family="sans-serif" font-size="13" lengthAdjust="spacing" textLength="112" x="1101.5" y="932.8872">eip712 signature)</text><polygon fill="#181818" points="727,993.3516,717,997.3516,727,1001.3516,723,997.3516" style="stroke:#181818;stroke-width:1.0;"/><line style="stroke:#181818;stroke-width:1.0;" x1="721" x2="1008" y1="997.3516" y2="997.3516"/><text fill="#000000" font-family="sans-serif" font-size="13" lengthAdjust="spacing" textLength="122" x="799.5" y="962.02">Rencrypt Response</text><text fill="#000000" font-family="sans-serif" font-size="13" lengthAdjust="spacing" textLength="269" x="728" y="977.1528">(ciphertext encrypted with user public key,</text><text fill="#000000" font-family="sans-serif" font-size="13" lengthAdjust="spacing" textLength="112" x="808.5" y="992.2856">eip712 signature)</text><path d="M20,1033.3516 L84,1033.3516 L84,1040.4844 L74,1050.4844 L20,1050.4844 L20,1033.3516 " fill="#EEEEEE" style="stroke:#000000;stroke-width:1.5;"/><rect fill="none" height="269.5313" style="stroke:#000000;stroke-width:1.5;" width="767.5" x="20" y="1033.3516"/><text fill="#000000" font-family="sans-serif" font-size="13" font-weight="bold" lengthAdjust="spacing" textLength="19" x="35" y="1046.4185">alt</text><text fill="#000000" font-family="sans-serif" font-size="11" font-weight="bold" lengthAdjust="spacing" textLength="81" x="99" y="1045.562">[if any error]</text><polygon fill="#181818" points="434,1067.6172,424,1071.6172,434,1075.6172,430,1071.6172" style="stroke:#181818;stroke-width:1.0;"/><line style="stroke:#181818;stroke-width:1.0;" x1="428" x2="715" y1="1071.6172" y2="1071.6172"/><text fill="#000000" font-family="sans-serif" font-size="13" lengthAdjust="spacing" textLength="133" x="503" y="1066.5513">Error: Rencrypt failed</text><polygon fill="#181818" points="66.5,1096.75,56.5,1100.75,66.5,1104.75,62.5,1100.75" style="stroke:#181818;stroke-width:1.0;"/><line style="stroke:#181818;stroke-width:1.0;" x1="60.5" x2="422" y1="1100.75" y2="1100.75"/><text fill="#000000" font-family="sans-serif" font-size="13" lengthAdjust="spacing" textLength="133" x="172.75" y="1095.6841">Error: Rencrypt failed</text><line style="stroke:#000000;stroke-width:1.0;stroke-dasharray:2.0,2.0;" x1="20" x2="787.5" y1="1109.75" y2="1109.75"/><text fill="#000000" font-family="sans-serif" font-size="11" font-weight="bold" lengthAdjust="spacing" textLength="74" x="25" y="1119.9604">[if no error]</text><polygon fill="#181818" points="434,1201.2188,424,1205.2188,434,1209.2188,430,1205.2188" style="stroke:#181818;stroke-width:1.0;"/><line style="stroke:#181818;stroke-width:1.0;" x1="428" x2="715" y1="1205.2188" y2="1205.2188"/><text fill="#000000" font-family="sans-serif" font-size="13" lengthAdjust="spacing" textLength="122" x="506.5" y="1139.6216">Rencrypt Response</text><text fill="#000000" font-family="sans-serif" font-size="13" lengthAdjust="spacing" textLength="269" x="435" y="1154.7544">(ciphertext encrypted with user public key,</text><text fill="#000000" font-family="sans-serif" font-size="13" lengthAdjust="spacing" textLength="112" x="515.5" y="1169.8872">eip712 signature)</text><text fill="#000000" font-family="sans-serif" font-size="13" lengthAdjust="spacing" textLength="13" x="563" y="1185.02">or</text><text fill="#000000" font-family="sans-serif" font-size="13" lengthAdjust="spacing" textLength="79" x="530" y="1200.1528">Error (if any)</text><polygon fill="#181818" points="66.5,1290.8828,56.5,1294.8828,66.5,1298.8828,62.5,1294.8828" style="stroke:#181818;stroke-width:1.0;"/><line style="stroke:#181818;stroke-width:1.0;" x1="60.5" x2="422" y1="1294.8828" y2="1294.8828"/><text fill="#000000" font-family="sans-serif" font-size="13" lengthAdjust="spacing" textLength="122" x="176.25" y="1229.2856">Rencrypt Response</text><text fill="#000000" font-family="sans-serif" font-size="13" lengthAdjust="spacing" textLength="269" x="104.75" y="1244.4185">(ciphertext encrypted with user public key,</text><text fill="#000000" font-family="sans-serif" font-size="13" lengthAdjust="spacing" textLength="112" x="185.25" y="1259.5513">eip712 signature)</text><text fill="#000000" font-family="sans-serif" font-size="13" lengthAdjust="spacing" textLength="13" x="232.75" y="1274.6841">or</text><text fill="#000000" font-family="sans-serif" font-size="13" lengthAdjust="spacing" textLength="79" x="199.75" y="1289.8169">Error (if any)</text><!--SRC=[lLLDRzim3BthLn3kfG7I3TjbG81swFgn3KM7OYbs60eCYanRGXp9bUHusQyV5IjE73jTiIyV38D-91yVAShDbIwvvGjm-5YX5dYBpl4SpmkLQn2eFLh6lF85GlAUUwpv2Zu6AnTU6UqcS8d2hae_Xi_attnzGQko5TnPiqGD5wgKQ3r-zmbZbCqheKgkFOGdkUHbcK3duGvIilQnrn-ku4hpMO4fV38f9WrOpiH0uAytWO396ZOAxOC-lhULy-GyHRjK0aT9SFynNqP4Fygcv3rwUTtFTuVMAOfE8YPRPBcrmW39czifl2kCc0l9bKwYqtpXgAH1y8NH6eKtDe4jM93n4DnYqg6-XbjaZENML6NRDSQ2vd1oHiLDMYjf9lmtoNLQu1XcWIb8LBcaBbSEBPJLh502vhWQiRmExjIDuC_JKFj2EKTZybGO6rCHRCJ8UKFXhlM69Iygd82t5RxCUE7mSBmHOxpmS3JbnO8yTuASdiBQbsYUd8LQ9t1bhR4JccTNPHbfH-E-GveXeU7e_B7Y2swLnhreWKwiUTsmvwX6zDROw1GQzpot2FvR0hUvVrlbNygympZASqXdRJm2hGgxeJME9-1UAWU2Qp2wM86adj4wKHdayLJMDCypL3g71QSfLAPoh9QATfMGAERXnpRD2uOwXNMkPtLsN_5hz4A2Q9VPhZfzNRTBhz7rGHjQG77WTduI7yXCfTEke6ra80LQ30o8-cJ8WyfEfQcA5EgeL12rav8ugnIK1Y-nbTiRu4kZKcQH2ndKzQ51fL7KpqeNT7MqMBAtFO6thVIiBtqdRyExMsLOLzr3qjOwi8IYm-01emzNqgM5dI0G_zAzK2ilzqEE7pIWAj-yUWsEBaNkAukZWKRqai2VPo7Prj8rhyw4KCUuNW66zcztIbYSSI9QFXcd4v76JTLPVFkGNcyeYJP3EVv1iJid18wRwaOTqlyhPn2zUVq4]--></g></svg>