<?xml version="1.0" encoding="us-ascii" standalone="no"?><svg xmlns="http://www.w3.org/2000/svg" xmlns:xlink="http://www.w3.org/1999/xlink" contentStyleType="text/css" height="1336px" preserveAspectRatio="none" style="width:4541px;height:1336px;background:#FFFFFF;" version="1.1" viewBox="0 0 4541 1336" width="4541px" zoomAndPan="magnify"><defs/><g><text fill="#000000" font-family="sans-serif" font-size="14" font-weight="bold" lengthAdjust="spacing" textLength="341" x="2093.345" y="22.9951">Gateway: Connections to external systems</text><!--cluster zwsRelayerService--><g id="cluster_zwsRelayerService"><rect fill="#D3D3D3" height="861.48" rx="2.5" ry="2.5" style="stroke:#FFFFFF;stroke-width:1.0;" width="1073" x="77.69" y="135.0969"/><text fill="#000000" font-family="sans-serif" font-size="14" font-weight="bold" lengthAdjust="spacing" textLength="164" x="532.19" y="150.092">ZWS Relayer Service</text></g><!--cluster relayer--><g id="cluster_relayer"><rect fill="#D3D3D3" height="794.48" rx="2.5" ry="2.5" style="stroke:#FFFFFF;stroke-width:1.0;" width="782" x="344.69" y="178.0969"/><text fill="#000000" font-family="sans-serif" font-size="14" font-weight="bold" lengthAdjust="spacing" textLength="96" x="687.69" y="193.092">Relayer SDK</text></g><!--cluster relayerSdk_hostL1Adapter--><g id="cluster_relayerSdk_hostL1Adapter"><rect fill="#D3D3D3" height="103.3" rx="2.5" ry="2.5" style="stroke:#FFFFFF;stroke-width:1.0;" width="475" x="619.69" y="837.2769"/><text fill="#000000" font-family="sans-serif" font-size="14" font-weight="bold" lengthAdjust="spacing" textLength="128" x="793.19" y="852.272">Host L1 Adapter</text></g><!--cluster relayerSdk_userAPI--><g id="cluster_relayerSdk_userAPI"><rect fill="#D3D3D3" height="87.29" rx="2.5" ry="2.5" style="stroke:#FFFFFF;stroke-width:1.0;" width="219" x="883.69" y="237.0969"/><text fill="#000000" font-family="sans-serif" font-size="14" font-weight="bold" lengthAdjust="spacing" textLength="67" x="959.69" y="252.092">User API</text></g><!--cluster relayerSdk_gatewayL2Adapter--><g id="cluster_relayerSdk_gatewayL2Adapter"><rect fill="#D3D3D3" height="103.29" rx="2.5" ry="2.5" style="stroke:#FFFFFF;stroke-width:1.0;" width="475" x="376.69" y="229.0969"/><text fill="#000000" font-family="sans-serif" font-size="14" font-weight="bold" lengthAdjust="spacing" textLength="161" x="533.69" y="244.092">Gateway L2 Adapter</text></g><!--cluster zwsRelayerService_walletManager--><g id="cluster_zwsRelayerService_walletManager"><rect fill="#D3D3D3" height="87.29" rx="2.5" ry="2.5" style="stroke:#FFFFFF;stroke-width:1.0;" width="219" x="101.69" y="237.0969"/><text fill="#000000" font-family="sans-serif" font-size="14" font-weight="bold" lengthAdjust="spacing" textLength="121" x="150.69" y="252.092">Wallet Manager</text></g><!--cluster hostL1--><g id="cluster_hostL1"><rect fill="#D3D3D3" height="383.3" rx="2.5" ry="2.5" style="stroke:#FFFFFF;stroke-width:1.0;" width="472" x="1198.69" y="837.2769"/><text fill="#000000" font-family="sans-serif" font-size="14" font-weight="bold" lengthAdjust="spacing" textLength="60" x="1404.69" y="852.272">Host L1</text></g><!--cluster gatewayL2--><g id="cluster_gatewayL2"><rect fill="#D3D3D3" height="384.74" rx="2.5" ry="2.5" style="stroke:#FFFFFF;stroke-width:1.0;" width="618" x="1710.69" y="566.6869"/><text fill="#000000" font-family="sans-serif" font-size="14" font-weight="bold" lengthAdjust="spacing" textLength="93" x="1973.19" y="581.682">Gateway L2</text></g><!--cluster ciphertextDa--><g id="cluster_ciphertextDa"><rect fill="#D3D3D3" height="87.29" rx="2.5" ry="2.5" style="stroke:#FFFFFF;stroke-width:1.0;" width="233" x="3036.69" y="685.9869"/><text fill="#000000" font-family="sans-serif" font-size="14" font-weight="bold" lengthAdjust="spacing" textLength="110" x="3098.19" y="700.982">Ciphertext DA</text></g><!--cluster keychainDA--><g id="cluster_keychainDA"><rect fill="#D3D3D3" height="87.3" rx="2.5" ry="2.5" style="stroke:#FFFFFF;stroke-width:1.0;" width="197" x="4338.69" y="380.3869"/><text fill="#000000" font-family="sans-serif" font-size="14" font-weight="bold" lengthAdjust="spacing" textLength="101" x="4386.69" y="395.382">KeyChain DA</text></g><!--cluster kmsCore--><g id="cluster_kmsCore"><rect fill="#D3D3D3" height="241.44" rx="2.5" ry="2.5" style="stroke:#FFFFFF;stroke-width:1.0;" width="309" x="4005.69" y="237.0969"/><text fill="#000000" font-family="sans-serif" font-size="14" font-weight="bold" lengthAdjust="spacing" textLength="77" x="4121.69" y="252.092">Kms Core</text></g><!--cluster kmsConnector--><g id="cluster_kmsConnector"><rect fill="#D3D3D3" height="265.59" rx="2.5" ry="2.5" style="stroke:#FFFFFF;stroke-width:1.0;" width="479" x="2533.69" y="531.6869"/><text fill="#000000" font-family="sans-serif" font-size="14" font-weight="bold" lengthAdjust="spacing" textLength="120" x="2713.19" y="546.682">KMS connector</text></g><!--cluster kmsConnector_gatewayL2Adapter--><g id="cluster_kmsConnector_gatewayL2Adapter"><rect fill="#D3D3D3" height="87.29" rx="2.5" ry="2.5" style="stroke:#FFFFFF;stroke-width:1.0;" width="410" x="2557.69" y="685.9869"/><text fill="#000000" font-family="sans-serif" font-size="14" font-weight="bold" lengthAdjust="spacing" textLength="161" x="2682.19" y="700.982">Gateway L2 Adapter</text></g><!--cluster kmsConnector_kmsCoreAdapter--><g id="cluster_kmsConnector_kmsCoreAdapter"><rect fill="#D3D3D3" height="87.3" rx="2.5" ry="2.5" style="stroke:#FFFFFF;stroke-width:1.0;" width="213" x="2557.69" y="574.6869"/><text fill="#000000" font-family="sans-serif" font-size="14" font-weight="bold" lengthAdjust="spacing" textLength="145" x="2591.69" y="589.682">Kms Core Adapter</text></g><!--cluster kmsConnector_ciphertextDaAdapter--><g id="cluster_kmsConnector_ciphertextDaAdapter"><rect fill="#D3D3D3" height="87.3" rx="2.5" ry="2.5" style="stroke:#FFFFFF;stroke-width:1.0;" width="194" x="2794.69" y="574.6869"/><text fill="#000000" font-family="sans-serif" font-size="14" font-weight="bold" lengthAdjust="spacing" textLength="178" x="2802.69" y="589.682">Ciphertext DA Adapter</text></g><!--cluster coprocessorParty--><g id="cluster_coprocessorParty"><rect fill="#D3D3D3" height="329.59" rx="2.5" ry="2.5" style="stroke:#FFFFFF;stroke-width:1.0;" width="1582" x="2399.69" y="178.0969"/><text fill="#000000" font-family="sans-serif" font-size="14" font-weight="bold" lengthAdjust="spacing" textLength="102" x="3139.69" y="193.092">Coprocessor</text></g><!--cluster coprocessorParty_gatewayL2Adapter--><g id="cluster_coprocessorParty_gatewayL2Adapter"><rect fill="#D3D3D3" height="103.29" rx="2.5" ry="2.5" style="stroke:#FFFFFF;stroke-width:1.0;" width="310" x="3295.69" y="229.0969"/><text fill="#000000" font-family="sans-serif" font-size="14" font-weight="bold" lengthAdjust="spacing" textLength="161" x="3370.19" y="244.092">Gateway L2 Adapter</text></g><!--cluster coprocessorParty_hostL1Adapter--><g id="cluster_coprocessorParty_hostL1Adapter"><rect fill="#D3D3D3" height="103.3" rx="2.5" ry="2.5" style="stroke:#FFFFFF;stroke-width:1.0;" width="185" x="3366.69" y="372.3869"/><text fill="#000000" font-family="sans-serif" font-size="14" font-weight="bold" lengthAdjust="spacing" textLength="128" x="3395.19" y="387.382">Host L1 Adapter</text></g><!--cluster coprocessorParty_coprocessor--><g id="cluster_coprocessorParty_coprocessor"><rect fill="#D3D3D3" height="230.59" rx="2.5" ry="2.5" style="stroke:#FFFFFF;stroke-width:1.0;" width="320" x="3637.69" y="237.0969"/><text fill="#000000" font-family="sans-serif" font-size="14" font-weight="bold" lengthAdjust="spacing" textLength="102" x="3746.69" y="252.092">Coprocessor</text></g><!--cluster coprocessorParty_coprocessorIdentity--><g id="cluster_coprocessorParty_coprocessorIdentity"><rect fill="#D3D3D3" height="87.29" rx="2.5" ry="2.5" style="stroke:#FFFFFF;stroke-width:1.0;" width="232" x="3031.69" y="237.0969"/><text fill="#000000" font-family="sans-serif" font-size="14" font-weight="bold" lengthAdjust="spacing" textLength="166" x="3064.69" y="252.092">Coprocessor Identity</text></g><!--cluster coprocessorParty_keys--><g id="cluster_coprocessorParty_keys"><rect fill="#D3D3D3" height="87.29" rx="2.5" ry="2.5" style="stroke:#FFFFFF;stroke-width:1.0;" width="208" x="2799.69" y="237.0969"/><text fill="#000000" font-family="sans-serif" font-size="14" font-weight="bold" lengthAdjust="spacing" textLength="146" x="2830.69" y="252.092">Coprocessor Keys</text></g><!--cluster coprocessorParty_coprocessorDa--><g id="cluster_coprocessorParty_coprocessorDa"><rect fill="#D3D3D3" height="87.29" rx="2.5" ry="2.5" style="stroke:#FFFFFF;stroke-width:1.0;" width="180" x="2595.69" y="237.0969"/><text fill="#000000" font-family="sans-serif" font-size="14" font-weight="bold" lengthAdjust="spacing" textLength="129" x="2621.19" y="252.092">Coprocessor DA</text></g><!--cluster coprocessorParty_zkpokService--><g id="cluster_coprocessorParty_zkpokService"><rect fill="#D3D3D3" height="87.29" rx="2.5" ry="2.5" style="stroke:#FFFFFF;stroke-width:1.0;" width="148" x="2423.69" y="237.0969"/><text fill="#000000" font-family="sans-serif" font-size="14" font-weight="bold" lengthAdjust="spacing" textLength="115" x="2440.19" y="252.092">ZkPoK Service</text></g><!--entity relayerSdk_hostL1Adapter_eventListener--><g id="elem_relayerSdk_hostL1Adapter_eventListener"><rect fill="#F1F1F1" height="36.2969" rx="2.5" ry="2.5" style="stroke:#181818;stroke-width:0.5;" width="118" x="952.69" y="880.2769"/><text fill="#000000" font-family="sans-serif" font-size="14" lengthAdjust="spacing" textLength="98" x="962.69" y="903.272">Event Listener</text></g><!--entity relayerSdk_hostL1Adapter_txSender--><g id="elem_relayerSdk_hostL1Adapter_txSender"><rect fill="#F1F1F1" height="36.2969" rx="2.5" ry="2.5" style="stroke:#181818;stroke-width:0.5;" width="90" x="662.69" y="880.2769"/><text fill="#000000" font-family="sans-serif" font-size="14" lengthAdjust="spacing" textLength="70" x="672.69" y="903.272">Tx Sender</text></g><!--entity relayerSdk_hostL1Adapter_AccountReader--><g id="elem_relayerSdk_hostL1Adapter_AccountReader"><rect fill="#F1F1F1" height="36.2969" rx="2.5" ry="2.5" style="stroke:#181818;stroke-width:0.5;" width="131" x="787.19" y="880.2769"/><text fill="#000000" font-family="sans-serif" font-size="14" lengthAdjust="spacing" textLength="111" x="797.19" y="903.272">Account Reader</text></g><!--entity relayerSdk_userAPI_restAPIForUser--><g id="elem_relayerSdk_userAPI_restAPIForUser"><rect fill="#F1F1F1" height="36.2969" rx="2.5" ry="2.5" style="stroke:#181818;stroke-width:0.5;" width="134" x="899.69" y="272.0969"/><text fill="#000000" font-family="sans-serif" font-size="14" lengthAdjust="spacing" textLength="114" x="909.69" y="295.092">Rest API for user</text></g><!--entity relayerSdk_userAPI_http--><g id="elem_relayerSdk_userAPI_http"><ellipse cx="1077.69" cy="290.2369" fill="#F1F1F1" rx="8" ry="8" style="stroke:#181818;stroke-width:0.5;"/><text fill="#000000" font-family="sans-serif" font-size="14" lengthAdjust="spacing" textLength="37" x="1059.19" y="320.232">HTTP</text></g><!--entity relayerSdk_gatewayL2Adapter_eventListener--><g id="elem_relayerSdk_gatewayL2Adapter_eventListener"><rect fill="#F1F1F1" height="36.2969" rx="2.5" ry="2.5" style="stroke:#181818;stroke-width:0.5;" width="118" x="544.69" y="272.0969"/><text fill="#000000" font-family="sans-serif" font-size="14" lengthAdjust="spacing" textLength="98" x="554.69" y="295.092">Event Listener</text></g><!--entity relayerSdk_gatewayL2Adapter_txSender--><g id="elem_relayerSdk_gatewayL2Adapter_txSender"><rect fill="#F1F1F1" height="36.2969" rx="2.5" ry="2.5" style="stroke:#181818;stroke-width:0.5;" width="90" x="419.69" y="272.0969"/><text fill="#000000" font-family="sans-serif" font-size="14" lengthAdjust="spacing" textLength="70" x="429.69" y="295.092">Tx Sender</text></g><!--entity relayerSdk_gatewayL2Adapter_accountReader--><g id="elem_relayerSdk_gatewayL2Adapter_accountReader"><rect fill="#F1F1F1" height="36.2969" rx="2.5" ry="2.5" style="stroke:#181818;stroke-width:0.5;" width="131" x="697.19" y="272.0969"/><text fill="#000000" font-family="sans-serif" font-size="14" lengthAdjust="spacing" textLength="111" x="707.19" y="295.092">Account Reader</text></g><!--entity walletManager_restApiForUser--><g id="elem_walletManager_restApiForUser"><rect fill="#F1F1F1" height="36.2969" rx="2.5" ry="2.5" style="stroke:#181818;stroke-width:0.5;" width="134" x="117.69" y="272.0969"/><text fill="#000000" font-family="sans-serif" font-size="14" lengthAdjust="spacing" textLength="114" x="127.69" y="295.092">Rest API for user</text></g><!--entity restApiForUser_http--><g id="elem_restApiForUser_http"><ellipse cx="295.69" cy="290.2369" fill="#F1F1F1" rx="8" ry="8" style="stroke:#181818;stroke-width:0.5;"/><text fill="#000000" font-family="sans-serif" font-size="14" lengthAdjust="spacing" textLength="37" x="277.19" y="320.232">HTTP</text></g><!--entity hostL1_dappContract--><g id="elem_hostL1_dappContract"><rect fill="#F1F1F1" height="36.2969" rx="2.5" ry="2.5" style="stroke:#181818;stroke-width:0.5;" width="120" x="1363.69" y="880.2769"/><text fill="#000000" font-family="sans-serif" font-size="14" lengthAdjust="spacing" textLength="100" x="1373.69" y="903.272">Dapp Contract</text></g><!--entity hostL1_OracleContract--><g id="elem_hostL1_OracleContract"><rect fill="#F1F1F1" height="36.2969" rx="2.5" ry="2.5" style="stroke:#181818;stroke-width:0.5;" width="127" x="1519.19" y="880.2769"/><text fill="#000000" font-family="sans-serif" font-size="14" lengthAdjust="spacing" textLength="107" x="1529.19" y="903.272">Oracle Contract</text></g><!--entity hostL1_aclContract--><g id="elem_hostL1_aclContract"><rect fill="#F1F1F1" height="36.2969" rx="2.5" ry="2.5" style="stroke:#181818;stroke-width:0.5;" width="109" x="1397.19" y="1031.4269"/><text fill="#000000" font-family="sans-serif" font-size="14" lengthAdjust="spacing" textLength="89" x="1407.19" y="1054.422">ACL Contract</text></g><!--entity hostL1_Rpc--><g id="elem_hostL1_Rpc"><rect fill="#F1F1F1" height="36.2969" rx="2.5" ry="2.5" style="stroke:#181818;stroke-width:0.5;" width="49" x="1266.19" y="880.2769"/><text fill="#000000" font-family="sans-serif" font-size="14" lengthAdjust="spacing" textLength="29" x="1276.19" y="903.272">RPC</text></g><!--entity hostL1_inputVerifierContract--><g id="elem_hostL1_inputVerifierContract"><rect fill="#F1F1F1" height="36.2969" rx="2.5" ry="2.5" style="stroke:#181818;stroke-width:0.5;" width="106" x="1540.69" y="1031.4269"/><text fill="#000000" font-family="sans-serif" font-size="14" lengthAdjust="spacing" textLength="86" x="1550.69" y="1054.422">Input Verifier</text></g><!--entity hostL1_Rpc_ws--><g id="elem_hostL1_Rpc_ws"><ellipse cx="1277.69" cy="1049.5769" fill="#F1F1F1" rx="8" ry="8" style="stroke:#181818;stroke-width:0.5;"/><text fill="#000000" font-family="sans-serif" font-size="14" lengthAdjust="spacing" textLength="79" x="1238.19" y="1079.572">WebSocket</text></g><!--entity hostL1_Rpc_http--><g id="elem_hostL1_Rpc_http"><ellipse cx="1257.69" cy="1167.5769" fill="#F1F1F1" rx="8" ry="8" style="stroke:#181818;stroke-width:0.5;"/><text fill="#000000" font-family="sans-serif" font-size="14" lengthAdjust="spacing" textLength="37" x="1239.19" y="1197.572">HTTP</text></g><!--entity gatewayL2_aclContract--><g id="elem_gatewayL2_aclContract"><rect fill="#F1F1F1" height="36.2969" rx="2.5" ry="2.5" style="stroke:#181818;stroke-width:0.5;" width="109" x="1838.19" y="609.6869"/><text fill="#000000" font-family="sans-serif" font-size="14" lengthAdjust="spacing" textLength="89" x="1848.19" y="632.682">Gateway ACL</text></g><!--entity gatewayL2_ZkPoKManagerContract--><g id="elem_gatewayL2_ZkPoKManagerContract"><rect fill="#F1F1F1" height="36.2969" rx="2.5" ry="2.5" style="stroke:#181818;stroke-width:0.5;" width="129" x="1982.19" y="609.6869"/><text fill="#000000" font-family="sans-serif" font-size="14" lengthAdjust="spacing" textLength="109" x="1992.19" y="632.682">ZkPoK Manager</text></g><!--entity gatewayL2_decryptionManagerContract--><g id="elem_gatewayL2_decryptionManagerContract"><rect fill="#F1F1F1" height="36.2969" rx="2.5" ry="2.5" style="stroke:#181818;stroke-width:0.5;" width="159" x="2146.19" y="609.6869"/><text fill="#000000" font-family="sans-serif" font-size="14" lengthAdjust="spacing" textLength="139" x="2156.19" y="632.682">Decryption Manager</text></g><!--entity gatewayL2_coprocessorManagerContract--><g id="elem_gatewayL2_coprocessorManagerContract"><rect fill="#F1F1F1" height="36.2969" rx="2.5" ry="2.5" style="stroke:#181818;stroke-width:0.5;" width="173" x="1959.19" y="720.9869"/><text fill="#000000" font-family="sans-serif" font-size="14" lengthAdjust="spacing" textLength="153" x="1969.19" y="743.982">Coprocessor Manager</text></g><!--entity gatewayL2_domainManagerContract--><g id="elem_gatewayL2_domainManagerContract"><rect fill="#F1F1F1" height="36.2969" rx="2.5" ry="2.5" style="stroke:#181818;stroke-width:0.5;" width="137" x="2167.19" y="720.9869"/><text fill="#000000" font-family="sans-serif" font-size="14" lengthAdjust="spacing" textLength="117" x="2177.19" y="743.982">Domain Manager</text></g><!--entity gatewayL2_Rpc--><g id="elem_gatewayL2_Rpc"><rect fill="#F1F1F1" height="36.2969" rx="2.5" ry="2.5" style="stroke:#181818;stroke-width:0.5;" width="49" x="1754.19" y="609.6869"/><text fill="#000000" font-family="sans-serif" font-size="14" lengthAdjust="spacing" textLength="29" x="1764.19" y="632.682">RPC</text></g><!--entity gatewayL2_ws--><g id="elem_gatewayL2_ws"><ellipse cx="1839.69" cy="739.1269" fill="#F1F1F1" rx="8" ry="8" style="stroke:#181818;stroke-width:0.5;"/><text fill="#000000" font-family="sans-serif" font-size="14" lengthAdjust="spacing" textLength="79" x="1800.19" y="769.122">WebSocket</text></g><!--entity gatewayL2_http--><g id="elem_gatewayL2_http"><ellipse cx="2277.69" cy="898.4269" fill="#F1F1F1" rx="8" ry="8" style="stroke:#181818;stroke-width:0.5;"/><text fill="#000000" font-family="sans-serif" font-size="14" lengthAdjust="spacing" textLength="37" x="2259.19" y="928.422">HTTP</text></g><!--entity ciphertextDa_ciphertextStorage--><g id="elem_ciphertextDa_ciphertextStorage"><rect fill="#F1F1F1" height="36.2969" rx="2.5" ry="2.5" style="stroke:#181818;stroke-width:0.5;" width="149" x="3052.19" y="720.9869"/><text fill="#000000" font-family="sans-serif" font-size="14" lengthAdjust="spacing" textLength="129" x="3062.19" y="743.982">Ciphertext Storage</text></g><!--entity ciphertextDa_ciphertextStorage_grpc--><g id="elem_ciphertextDa_ciphertextStorage_grpc"><ellipse cx="3244.69" cy="739.1269" fill="#F1F1F1" rx="8" ry="8" style="stroke:#181818;stroke-width:0.5;"/><text fill="#000000" font-family="sans-serif" font-size="14" lengthAdjust="spacing" textLength="38" x="3225.69" y="769.122">gRPC</text></g><!--entity keychainDA_readApi--><g id="elem_keychainDA_readApi"><rect fill="#F1F1F1" height="36.2969" rx="2.5" ry="2.5" style="stroke:#181818;stroke-width:0.5;" width="111" x="4355.19" y="415.3869"/><text fill="#000000" font-family="sans-serif" font-size="14" lengthAdjust="spacing" textLength="91" x="4365.19" y="438.382">Keys Storage</text></g><!--entity keychainDA_readApi_grpc--><g id="elem_keychainDA_readApi_grpc"><ellipse cx="4510.69" cy="433.5369" fill="#F1F1F1" rx="8" ry="8" style="stroke:#181818;stroke-width:0.5;"/><text fill="#000000" font-family="sans-serif" font-size="14" lengthAdjust="spacing" textLength="38" x="4491.69" y="463.532">gRPC</text></g><!--entity kmsCore_keygen--><g id="elem_kmsCore_keygen"><rect fill="#F1F1F1" height="36.2969" rx="2.5" ry="2.5" style="stroke:#181818;stroke-width:0.5;" width="72" x="4226.69" y="272.0969"/><text fill="#000000" font-family="sans-serif" font-size="14" lengthAdjust="spacing" textLength="52" x="4236.69" y="295.092">Keygen</text></g><!--entity kmsCore_decryption--><g id="elem_kmsCore_decryption"><rect fill="#F1F1F1" height="36.2969" rx="2.5" ry="2.5" style="stroke:#181818;stroke-width:0.5;" width="95" x="4097.19" y="272.0969"/><text fill="#000000" font-family="sans-serif" font-size="14" lengthAdjust="spacing" textLength="75" x="4107.19" y="295.092">Decryption</text></g><!--entity kmsCore_api--><g id="elem_kmsCore_api"><rect fill="#F1F1F1" height="36.2969" rx="2.5" ry="2.5" style="stroke:#181818;stroke-width:0.5;" width="41" x="4021.19" y="272.0969"/><text fill="#000000" font-family="sans-serif" font-size="14" lengthAdjust="spacing" textLength="21" x="4031.19" y="295.092">API</text></g><!--entity kmsCore_grpc--><g id="elem_kmsCore_grpc"><ellipse cx="4048.69" cy="433.5369" fill="#F1F1F1" rx="8" ry="8" style="stroke:#181818;stroke-width:0.5;"/><text fill="#000000" font-family="sans-serif" font-size="14" lengthAdjust="spacing" textLength="38" x="4029.69" y="463.532">gRPC</text></g><!--entity kmsConnector_gatewayL2Adapter_eventListener--><g id="elem_kmsConnector_gatewayL2Adapter_eventListener"><rect fill="#F1F1F1" height="36.2969" rx="2.5" ry="2.5" style="stroke:#181818;stroke-width:0.5;" width="118" x="2708.69" y="720.9869"/><text fill="#000000" font-family="sans-serif" font-size="14" lengthAdjust="spacing" textLength="98" x="2718.69" y="743.982">Event Listener</text></g><!--entity kmsConnector_gatewayL2Adapter_txSender--><g id="elem_kmsConnector_gatewayL2Adapter_txSender"><rect fill="#F1F1F1" height="36.2969" rx="2.5" ry="2.5" style="stroke:#181818;stroke-width:0.5;" width="90" x="2861.69" y="720.9869"/><text fill="#000000" font-family="sans-serif" font-size="14" lengthAdjust="spacing" textLength="70" x="2871.69" y="743.982">Tx Sender</text></g><!--entity kmsConnector_gatewayL2Adapter_aclChecker--><g id="elem_kmsConnector_gatewayL2Adapter_aclChecker"><rect fill="#F1F1F1" height="36.2969" rx="2.5" ry="2.5" style="stroke:#181818;stroke-width:0.5;" width="100" x="2573.69" y="720.9869"/><text fill="#000000" font-family="sans-serif" font-size="14" lengthAdjust="spacing" textLength="80" x="2583.69" y="743.982">ACL Reader</text></g><!--entity kmsConnector_Decrypt--><g id="elem_kmsConnector_Decrypt"><rect fill="#F1F1F1" height="36.2969" rx="2.5" ry="2.5" style="stroke:#181818;stroke-width:0.5;" width="74" x="2573.69" y="609.6869"/><text fill="#000000" font-family="sans-serif" font-size="14" lengthAdjust="spacing" textLength="54" x="2583.69" y="632.682">Decrypt</text></g><!--entity kmsConnector_Keygen--><g id="elem_kmsConnector_Keygen"><rect fill="#F1F1F1" height="36.2969" rx="2.5" ry="2.5" style="stroke:#181818;stroke-width:0.5;" width="72" x="2682.69" y="609.6869"/><text fill="#000000" font-family="sans-serif" font-size="14" lengthAdjust="spacing" textLength="52" x="2692.69" y="632.682">Keygen</text></g><!--entity ciphertextDaAdapter_ciphertextFetcher--><g id="elem_ciphertextDaAdapter_ciphertextFetcher"><rect fill="#F1F1F1" height="36.2969" rx="2.5" ry="2.5" style="stroke:#181818;stroke-width:0.5;" width="144" x="2828.69" y="609.6869"/><text fill="#000000" font-family="sans-serif" font-size="14" lengthAdjust="spacing" textLength="124" x="2838.69" y="632.682">Ciphertext fetcher</text></g><!--entity coprocessorParty_gatewayL2Adapter_eventListener--><g id="elem_coprocessorParty_gatewayL2Adapter_eventListener"><rect fill="#F1F1F1" height="36.2969" rx="2.5" ry="2.5" style="stroke:#181818;stroke-width:0.5;" width="118" x="3319.69" y="272.0969"/><text fill="#000000" font-family="sans-serif" font-size="14" lengthAdjust="spacing" textLength="98" x="3329.69" y="295.092">Event Listener</text></g><!--entity coprocessorParty_gatewayL2Adapter_txSender--><g id="elem_coprocessorParty_gatewayL2Adapter_txSender"><rect fill="#F1F1F1" height="36.2969" rx="2.5" ry="2.5" style="stroke:#181818;stroke-width:0.5;" width="90" x="3472.69" y="272.0969"/><text fill="#000000" font-family="sans-serif" font-size="14" lengthAdjust="spacing" textLength="70" x="3482.69" y="295.092">Tx Sender</text></g><!--entity coprocessorParty_hostL1Adapter_eventListener--><g id="elem_coprocessorParty_hostL1Adapter_eventListener"><rect fill="#F1F1F1" height="36.2969" rx="2.5" ry="2.5" style="stroke:#181818;stroke-width:0.5;" width="118" x="3409.69" y="415.3869"/><text fill="#000000" font-family="sans-serif" font-size="14" lengthAdjust="spacing" textLength="98" x="3419.69" y="438.382">Event Listener</text></g><!--entity coprocessor_computeHandler--><g id="elem_coprocessor_computeHandler"><rect fill="#F1F1F1" height="36.2969" rx="2.5" ry="2.5" style="stroke:#181818;stroke-width:0.5;" width="141" x="3653.19" y="272.0969"/><text fill="#000000" font-family="sans-serif" font-size="14" lengthAdjust="spacing" textLength="121" x="3663.19" y="295.092">Compute Handler</text></g><!--entity coprocessor_inputHandler--><g id="elem_coprocessor_inputHandler"><rect fill="#F1F1F1" height="36.2969" rx="2.5" ry="2.5" style="stroke:#181818;stroke-width:0.5;" width="112" x="3829.69" y="272.0969"/><text fill="#000000" font-family="sans-serif" font-size="14" lengthAdjust="spacing" textLength="92" x="3839.69" y="295.092">Input Handler</text></g><!--entity coprocessor_aclHandler--><g id="elem_coprocessor_aclHandler"><rect fill="#F1F1F1" height="36.2969" rx="2.5" ry="2.5" style="stroke:#181818;stroke-width:0.5;" width="103" x="3672.19" y="415.3869"/><text fill="#000000" font-family="sans-serif" font-size="14" lengthAdjust="spacing" textLength="83" x="3682.19" y="438.382">ACL Handler</text></g><!--entity coprocessorIdentity_coprocessorIdentityKeys--><g id="elem_coprocessorIdentity_coprocessorIdentityKeys"><rect fill="#F1F1F1" height="36.2969" rx="2.5" ry="2.5" style="stroke:#181818;stroke-width:0.5;" width="200" x="3047.69" y="272.0969"/><text fill="#000000" font-family="sans-serif" font-size="14" lengthAdjust="spacing" textLength="180" x="3057.69" y="295.092">Coprocessor Identity Keys</text></g><!--entity coprocessorKeys_coprocessorFHEKeys--><g id="elem_coprocessorKeys_coprocessorFHEKeys"><rect fill="#F1F1F1" height="36.2969" rx="2.5" ry="2.5" style="stroke:#181818;stroke-width:0.5;" width="177" x="2815.19" y="272.0969"/><text fill="#000000" font-family="sans-serif" font-size="14" lengthAdjust="spacing" textLength="157" x="2825.19" y="295.092">Coprocessor FHE Keys</text></g><!--entity coprocessorDa_ciphertextStorage--><g id="elem_coprocessorDa_ciphertextStorage"><rect fill="#F1F1F1" height="36.2969" rx="2.5" ry="2.5" style="stroke:#181818;stroke-width:0.5;" width="149" x="2611.19" y="272.0969"/><text fill="#000000" font-family="sans-serif" font-size="14" lengthAdjust="spacing" textLength="129" x="2621.19" y="295.092">Ciphertext Storage</text></g><!--entity zkpokService_zkpokVerifier--><g id="elem_zkpokService_zkpokVerifier"><rect fill="#F1F1F1" height="36.2969" rx="2.5" ry="2.5" style="stroke:#181818;stroke-width:0.5;" width="116" x="2439.69" y="272.0969"/><text fill="#000000" font-family="sans-serif" font-size="14" lengthAdjust="spacing" textLength="96" x="2449.69" y="295.092">ZkPoK Verifier</text></g><!--entity User--><g id="elem_User"><ellipse cx="295.69" cy="51.2969" fill="#F1F1F1" rx="8" ry="8" style="stroke:#181818;stroke-width:0.5;"/><path d="M295.69,59.2969 L295.69,86.2969 M282.69,67.2969 L308.69,67.2969 M295.69,86.2969 L282.69,101.2969 M295.69,86.2969 L308.69,101.2969 " fill="none" style="stroke:#181818;stroke-width:0.5;"/><text fill="#000000" font-family="sans-serif" font-size="14" lengthAdjust="spacing" textLength="32" x="279.69" y="115.792">User</text></g><!--link ciphertextDa_ciphertextStorage to ciphertextDa_ciphertextStorage_grpc--><g id="link_ciphertextDa_ciphertextStorage_ciphertextDa_ciphertextStorage_grpc"><path d="M3201.36,739.1269 C3212.64,739.1269 3223.92,739.1269 3235.21,739.1269 " fill="none" id="ciphertextDa_ciphertextStorage-ciphertextDa_ciphertextStorage_grpc" style="stroke:#181818;stroke-width:1.0;"/></g><!--link kmsCore_api to kmsCore_grpc--><g id="link_kmsCore_api_kmsCore_grpc"><path d="M4042.56,308.8469 C4044.09,339.7769 4047.21,402.6469 4048.3,424.6869 " fill="none" id="kmsCore_api-kmsCore_grpc" style="stroke:#181818;stroke-width:1.0;"/></g><!--link kmsCore_keygen to keychainDA_readApi_grpc--><g id="link_kmsCore_keygen_keychainDA_readApi_grpc"><path d="M4298.97,292.1669 C4347.29,295.3369 4432.58,307.9769 4483.69,356.3869 C4503.24,374.9069 4508.0844,402.5136 4509.5644,418.1436 " fill="none" id="kmsCore_keygen-to-keychainDA_readApi_grpc" style="stroke:#181818;stroke-width:1.0;"/><polygon fill="#181818" points="4510.13,424.1169,4513.2638,414.7799,4509.6587,419.1391,4505.2994,415.534,4510.13,424.1169" style="stroke:#181818;stroke-width:1.0;"/></g><!--link keychainDA_readApi to keychainDA_readApi_grpc--><g id="link_keychainDA_readApi_keychainDA_readApi_grpc"><path d="M4466.55,433.5369 C4478.16,433.5369 4489.77,433.5369 4501.38,433.5369 " fill="none" id="keychainDA_readApi-keychainDA_readApi_grpc" style="stroke:#181818;stroke-width:1.0;"/></g><!--reverse link gatewayL2_ws to ciphertextDa_ciphertextStorage--><g id="link_gatewayL2_ws_ciphertextDa_ciphertextStorage"><path d="M1852.9684,726.8227 C1870.9684,710.6927 1909.5,680.2669 1953.35,675.3169 C1981.03,672.1969 2928.34,672.1969 2956.02,675.3169 C3005.53,680.9069 3058.72,703.7669 3092.32,720.5369 " fill="none" id="gatewayL2_ws-backto-ciphertextDa_ciphertextStorage" style="stroke:#008000;stroke-width:1.0;stroke-dasharray:7.0,7.0;"/><polygon fill="#008000" points="1848.5,730.8269,1857.872,727.7995,1852.2237,727.4901,1852.5331,721.8417,1848.5,730.8269" style="stroke:#008000;stroke-width:1.0;"/></g><!--link ciphertextDaAdapter_ciphertextFetcher to ciphertextDa_ciphertextStorage_grpc--><g id="link_ciphertextDaAdapter_ciphertextFetcher_ciphertextDa_ciphertextStorage_grpc"><path d="M2972.96,632.0069 C3054.72,636.9369 3181.34,649.1169 3218.69,677.9869 C3235.43,690.9269 3240.6266,710.8915 3242.7266,724.0815 " fill="none" id="ciphertextDaAdapter_ciphertextFetcher-to-ciphertextDa_ciphertextStorage_grpc" style="stroke:#181818;stroke-width:1.0;"/><polygon fill="#181818" points="3243.67,730.0069,3246.2052,720.4899,3242.8838,725.0691,3238.3047,721.7477,3243.67,730.0069" style="stroke:#181818;stroke-width:1.0;"/></g><!--reverse link kmsCore_grpc to kmsConnector_Decrypt--><g id="link_kmsCore_grpc_kmsConnector_Decrypt"><path d="M4039.6397,447.1364 C4026.9597,464.3364 3997.2,500.4869 3957.69,515.6869 C3924.19,528.5669 2696.4,505.1269 2665.69,523.6869 C2634.6,542.4769 2620.09,585.4169 2614.18,609.5569 " fill="none" id="kmsCore_grpc-backto-kmsConnector_Decrypt" style="stroke:#181818;stroke-width:1.0;"/><polygon fill="#181818" points="4043.2,442.3069,4034.6398,447.1775,4040.233,446.3314,4041.0791,451.9247,4043.2,442.3069" style="stroke:#181818;stroke-width:1.0;"/></g><!--reverse link kmsCore_grpc to kmsConnector_Keygen--><g id="link_kmsCore_grpc_kmsConnector_Keygen"><path d="M4039.6365,447.134 C4026.9465,464.324 3997.19,500.4669 3957.69,515.6869 C3928.01,527.1169 2841.74,510.7369 2812.69,523.6869 C2773.08,541.3469 2742.9,584.7369 2728.33,609.2469 " fill="none" id="kmsCore_grpc-backto-kmsConnector_Keygen" style="stroke:#181818;stroke-width:1.0;"/><polygon fill="#181818" points="4043.2,442.3069,4034.6366,447.1719,4040.2304,446.3295,4041.0728,451.9233,4043.2,442.3069" style="stroke:#181818;stroke-width:1.0;"/></g><!--link coprocessorParty_gatewayL2Adapter to coprocessorParty_hostL1Adapter--><!--link kmsConnector_Keygen to kmsConnector_gatewayL2Adapter_txSender--><!--link gatewayL2_Rpc to gatewayL2_http--><g id="link_gatewayL2_Rpc_gatewayL2_http"><path d="M1791.51,646.1169 C1798.99,654.8269 1809.21,664.6469 1820.69,669.9869 C1837.69,677.8869 1890.34,665.9169 1904.69,677.9869 C1952.39,718.1169 1897.13,769.6769 1941.69,813.2769 C1990.9,861.4369 2220.93,890.7769 2268.9,896.4269 " fill="none" id="gatewayL2_Rpc-gatewayL2_http" style="stroke:#181818;stroke-width:1.0;"/></g><!--link gatewayL2_Rpc to gatewayL2_ws--><g id="link_gatewayL2_Rpc_gatewayL2_ws"><path d="M1788.49,646.3969 C1801.96,670.5369 1825.63,712.9469 1835.34,730.3469 " fill="none" id="gatewayL2_Rpc-gatewayL2_ws" style="stroke:#181818;stroke-width:1.0;"/></g><!--link hostL1_Rpc to hostL1_Rpc_ws--><g id="link_hostL1_Rpc_hostL1_Rpc_ws"><path d="M1289.17,916.8269 C1286.34,949.2569 1280.37,1017.7269 1278.36,1040.7969 " fill="none" id="hostL1_Rpc-hostL1_Rpc_ws" style="stroke:#181818;stroke-width:1.0;"/></g><!--link hostL1_Rpc to hostL1_Rpc_http--><g id="link_hostL1_Rpc_hostL1_Rpc_http"><path d="M1300.81,916.7469 C1313.53,939.6169 1334.67,981.5669 1342.69,1020.5769 C1347.88,1045.8269 1352.34,1054.6769 1342.69,1078.5769 C1327.01,1117.3769 1285.12,1148.5669 1266.65,1160.8869 " fill="none" id="hostL1_Rpc-hostL1_Rpc_http" style="stroke:#181818;stroke-width:1.0;"/></g><!--link gatewayL2 to hostL1--><!--link coprocessorParty_hostL1Adapter_eventListener to hostL1_Rpc_ws--><g id="link_coprocessorParty_hostL1Adapter_eventListener_hostL1_Rpc_ws"><path d="M3465.1,451.8869 C3451.61,512.4869 3398,716.3469 3269.69,813.2769 C2925.81,1073.0769 2749.17,966.2269 2320.69,1012.5769 C2216.73,1023.8169 1483.25,1006.1769 1379.69,1020.5769 C1344.4,1025.4869 1309.668,1037.0121 1292.178,1043.2821 " fill="none" id="coprocessorParty_hostL1Adapter_eventListener-to-hostL1_Rpc_ws" style="stroke:#FF0000;stroke-width:1.0;stroke-dasharray:7.0,7.0;"/><polygon fill="#FF0000" points="1286.53,1045.3069,1296.3519,1046.0351,1291.2367,1043.6196,1293.6522,1038.5044,1286.53,1045.3069" style="stroke:#FF0000;stroke-width:1.0;"/></g><!--link coprocessorParty_gatewayL2Adapter_eventListener to gatewayL2_ws--><g id="link_coprocessorParty_gatewayL2Adapter_eventListener_gatewayL2_ws"><path d="M3352.14,308.7769 C3329.65,322.5469 3295.99,340.6369 3263.69,348.3869 C3242.35,353.5169 2492.21,344.6169 2473.69,356.3869 C2343.13,439.3569 2452.79,586.3069 2322.69,669.9869 C2304.88,681.4369 1962.05,672.1969 1941.69,677.9869 C1903.72,688.7769 1870.0035,713.4442 1853.1735,726.9942 " fill="none" id="coprocessorParty_gatewayL2Adapter_eventListener-to-gatewayL2_ws" style="stroke:#008000;stroke-width:1.0;stroke-dasharray:7.0,7.0;"/><polygon fill="#008000" points="1848.5,730.7569,1858.0188,728.2285,1852.3946,727.6213,1853.0018,721.9971,1848.5,730.7569" style="stroke:#008000;stroke-width:1.0;"/></g><!--link coprocessorParty_gatewayL2Adapter_txSender to gatewayL2_http--><g id="link_coprocessorParty_gatewayL2Adapter_txSender_gatewayL2_http"><path d="M3504.26,308.7969 C3492.91,322.1869 3475.39,339.7469 3455.69,348.3869 C3435.88,357.0769 3380.09,353.2869 3358.69,356.3869 C2998.77,408.6169 2854.14,313.0169 2557.69,523.6869 C2435.29,610.6669 2482.74,700.4369 2383.69,813.2769 C2352.84,848.4169 2310.9753,876.5767 2291.5953,888.7967 " fill="none" id="coprocessorParty_gatewayL2Adapter_txSender-to-gatewayL2_http" style="stroke:#008000;stroke-width:1.0;"/><polygon fill="#008000" points="2286.52,891.9969,2296.2664,890.5801,2290.7494,889.33,2291.9995,883.813,2286.52,891.9969" style="stroke:#008000;stroke-width:1.0;"/></g><!--link kmsConnector_gatewayL2Adapter_eventListener to gatewayL2_ws--><g id="link_kmsConnector_gatewayL2Adapter_eventListener_gatewayL2_ws"><path d="M2749.68,720.6469 C2735.23,706.8869 2713.79,688.6869 2691.69,677.9869 C2684.51,674.5069 2682.11,674.8769 2674.19,673.9869 C2634.71,669.5269 1998.66,669.5269 1959.19,673.9869 C1912.93,679.2069 1871.6306,711.0332 1852.9606,727.2432 " fill="none" id="kmsConnector_gatewayL2Adapter_eventListener-to-gatewayL2_ws" style="stroke:#008000;stroke-width:1.0;stroke-dasharray:7.0,7.0;"/><polygon fill="#008000" points="1848.43,731.1769,1857.8483,728.2968,1852.2055,727.8988,1852.6035,722.256,1848.43,731.1769" style="stroke:#008000;stroke-width:1.0;"/></g><!--link kmsConnector_gatewayL2Adapter_txSender to gatewayL2_http--><g id="link_kmsConnector_gatewayL2Adapter_txSender_gatewayL2_http"><path d="M2897.09,757.4969 C2886.59,774.6769 2868.11,800.2569 2844.69,813.2769 C2742.49,870.1069 2356.1212,893.1923 2292.4312,896.6423 " fill="none" id="kmsConnector_gatewayL2Adapter_txSender-to-gatewayL2_http" style="stroke:#008000;stroke-width:1.0;"/><polygon fill="#008000" points="2286.44,896.9669,2295.6432,900.4742,2291.4327,896.6964,2295.2105,892.4859,2286.44,896.9669" style="stroke:#008000;stroke-width:1.0;"/></g><!--link kmsConnector_gatewayL2Adapter_aclChecker to gatewayL2_http--><g id="link_kmsConnector_gatewayL2Adapter_aclChecker_gatewayL2_http"><path d="M2604.29,757.5269 C2585.36,773.7669 2555.19,797.7669 2525.69,813.2769 C2437.96,859.4169 2325.6531,886.6775 2292.5131,894.1475 " fill="none" id="kmsConnector_gatewayL2Adapter_aclChecker-to-gatewayL2_http" style="stroke:#008000;stroke-width:1.0;"/><polygon fill="#008000" points="2286.66,895.4669,2296.3193,897.39,2291.5376,894.3674,2294.5602,889.5858,2286.66,895.4669" style="stroke:#008000;stroke-width:1.0;"/></g><!--link walletManager_restApiForUser to restApiForUser_http--><g id="link_walletManager_restApiForUser_restApiForUser_http"><path d="M251.89,290.2369 C263.41,290.2369 274.93,290.2369 286.45,290.2369 " fill="none" id="walletManager_restApiForUser-restApiForUser_http" style="stroke:#181818;stroke-width:1.0;"/></g><!--link User to hostL1_Rpc_http--><g id="link_User_hostL1_Rpc_http"><path d="M279.2,83.4969 C236.94,87.8169 126.35,101.3969 101.69,127.0969 C6,226.7869 43.69,294.3569 43.69,432.5369 C43.69,432.5369 43.69,432.5369 43.69,899.4269 C43.69,1161.9069 1133.77,1166.7862 1242.95,1166.6162 " fill="none" id="User-to-hostL1_Rpc_http" style="stroke:#FF0000;stroke-width:1.0;"/><polygon fill="#FF0000" points="1248.95,1166.6069,1239.9438,1162.6209,1243.95,1166.6147,1239.9562,1170.6209,1248.95,1166.6069" style="stroke:#FF0000;stroke-width:1.0;"/></g><!--link relayerSdk_userAPI_restAPIForUser to relayerSdk_userAPI_http--><g id="link_relayerSdk_userAPI_restAPIForUser_relayerSdk_userAPI_http"><path d="M1033.89,290.2369 C1045.41,290.2369 1056.93,290.2369 1068.45,290.2369 " fill="none" id="relayerSdk_userAPI_restAPIForUser-relayerSdk_userAPI_http" style="stroke:#181818;stroke-width:1.0;"/></g><!--link User to relayerSdk_userAPI_http--><g id="link_User_relayerSdk_userAPI_http"><path d="M312.17,81.7269 C417.52,80.4769 993.95,76.0369 1050.69,127.0969 C1096.08,167.9469 1085.5482,247.9082 1080.5082,274.9782 " fill="none" id="User-to-relayerSdk_userAPI_http" style="stroke:#0000FF;stroke-width:1.0;"/><polygon fill="#0000FF" points="1079.41,280.8769,1084.9898,272.7611,1080.3252,275.9613,1077.1249,271.2968,1079.41,280.8769" style="stroke:#0000FF;stroke-width:1.0;"/></g><!--link User to restApiForUser_http--><g id="link_User_restApiForUser_http"><path d="M295.69,119.4869 C295.69,169.4169 295.69,248.4969 295.69,275.0669 " fill="none" id="User-to-restApiForUser_http" style="stroke:#0000FF;stroke-width:1.0;"/><polygon fill="#0000FF" points="295.69,281.0669,299.69,272.0669,295.69,276.0669,291.69,272.0669,295.69,281.0669" style="stroke:#0000FF;stroke-width:1.0;"/></g><!--link relayerSdk_gatewayL2Adapter to relayerSdk_hostL1Adapter--><!--link relayerSdk_hostL1Adapter_eventListener to hostL1_Rpc_ws--><g id="link_relayerSdk_hostL1Adapter_eventListener_hostL1_Rpc_ws"><path d="M1036.37,916.9469 C1070.17,940.4969 1133.23,982.8069 1190.69,1012.5769 C1218.26,1026.8669 1247.1784,1037.7622 1263.1684,1043.4622 " fill="none" id="relayerSdk_hostL1Adapter_eventListener-to-hostL1_Rpc_ws" style="stroke:#FF0000;stroke-width:1.0;stroke-dasharray:7.0,7.0;"/><polygon fill="#FF0000" points="1268.82,1045.4769,1261.6856,1038.6871,1264.1103,1043.798,1258.9994,1046.2227,1268.82,1045.4769" style="stroke:#FF0000;stroke-width:1.0;"/></g><!--link relayerSdk_hostL1Adapter_txSender to hostL1_Rpc_http--><g id="link_relayerSdk_hostL1Adapter_txSender_hostL1_Rpc_http"><path d="M712.94,916.8169 C721.21,941.3869 739.49,986.1969 769.69,1012.5769 C923.91,1147.2869 1190.0345,1164.0347 1242.7245,1166.0747 " fill="none" id="relayerSdk_hostL1Adapter_txSender-to-hostL1_Rpc_http" style="stroke:#FF0000;stroke-width:1.0;"/><polygon fill="#FF0000" points="1248.72,1166.3069,1239.8815,1161.9617,1243.7237,1166.1134,1239.572,1169.9557,1248.72,1166.3069" style="stroke:#FF0000;stroke-width:1.0;"/></g><!--link relayerSdk_hostL1Adapter_AccountReader to hostL1_Rpc_http--><g id="link_relayerSdk_hostL1Adapter_AccountReader_hostL1_Rpc_http"><path d="M861.64,916.8469 C874.82,941.0369 901.5,984.9469 934.69,1012.5769 C1041.63,1101.6169 1202.9483,1151.1075 1243.0483,1162.4975 " fill="none" id="relayerSdk_hostL1Adapter_AccountReader-to-hostL1_Rpc_http" style="stroke:#FF0000;stroke-width:1.0;"/><polygon fill="#FF0000" points="1248.82,1164.1369,1241.2554,1157.83,1244.0103,1162.7707,1239.0695,1165.5256,1248.82,1164.1369" style="stroke:#FF0000;stroke-width:1.0;"/></g><!--link relayerSdk_gatewayL2Adapter_eventListener to gatewayL2_ws--><g id="link_relayerSdk_gatewayL2Adapter_eventListener_gatewayL2_ws"><path d="M620.93,308.8669 C635.28,322.2869 656.96,339.8669 679.69,348.3869 C725.59,365.5969 741.75,346.1369 789.69,356.3869 C1240.17,452.7169 1753.1177,696.2662 1825.6877,731.3362 " fill="none" id="relayerSdk_gatewayL2Adapter_eventListener-to-gatewayL2_ws" style="stroke:#008000;stroke-width:1.0;stroke-dasharray:7.0,7.0;"/><polygon fill="#008000" points="1831.09,733.9469,1824.7271,726.4294,1826.5881,731.7713,1821.2462,733.6324,1831.09,733.9469" style="stroke:#008000;stroke-width:1.0;"/></g><!--link relayerSdk_gatewayL2Adapter_txSender to gatewayL2_http--><g id="link_relayerSdk_gatewayL2Adapter_txSender_gatewayL2_http"><path d="M482.14,308.8469 C494.19,320.6069 510.83,336.1069 526.69,348.3869 C635.02,432.3169 661.28,458.2169 785.69,515.6869 C1370.65,785.9169 2170.5603,884.9724 2262.9803,895.7424 " fill="none" id="relayerSdk_gatewayL2Adapter_txSender-to-gatewayL2_http" style="stroke:#008000;stroke-width:1.0;"/><polygon fill="#008000" points="2268.94,896.4369,2260.4635,891.422,2263.9736,895.8581,2259.5375,899.3682,2268.94,896.4369" style="stroke:#008000;stroke-width:1.0;"/></g><!--link relayerSdk_gatewayL2Adapter_accountReader to gatewayL2_http--><g id="link_relayerSdk_gatewayL2Adapter_accountReader_gatewayL2_http"><path d="M791.3,308.7869 C815.08,322.3569 850.3,340.1669 883.69,348.3869 C925.15,358.5969 1033.15,352.6569 1075.69,356.3869 C1354.21,380.8269 2138.6,313.2469 2322.69,523.6869 C2407.43,620.5569 2352.83,688.3969 2321.69,813.2769 C2314.11,843.6769 2297.0031,870.4072 2286.9031,884.6972 " fill="none" id="relayerSdk_gatewayL2Adapter_accountReader-to-gatewayL2_http" style="stroke:#008000;stroke-width:1.0;"/><polygon fill="#008000" points="2283.44,889.5969,2291.9011,884.556,2286.3259,885.5138,2285.3681,879.9386,2283.44,889.5969" style="stroke:#008000;stroke-width:1.0;"/></g><rect fill="#DDDDDD" height="79.1875" id="_legend" rx="7.5" ry="7.5" style="stroke:#000000;stroke-width:1.0;" width="198" x="2164.845" y="1237.5769"/><text fill="#000000" font-family="sans-serif" font-size="14" lengthAdjust="spacing" textLength="36" x="2177.845" y="1257.572">Color</text><text fill="#000000" font-family="sans-serif" font-size="14" lengthAdjust="spacing" textLength="112" x="2233.845" y="1257.572">Connection with</text><rect fill="#FF0000" height="16.2969" style="stroke:none;stroke-width:1.0;" width="52" x="2169.845" y="1260.8738"/><text fill="#000000" font-family="sans-serif" font-size="14" lengthAdjust="spacing" textLength="9" x="2169.845" y="1273.8689">&#160;</text><text fill="#000000" font-family="sans-serif" font-size="14" lengthAdjust="spacing" textLength="52" x="2233.845" y="1273.8689">Host L1</text><rect fill="#008000" height="16.2969" style="stroke:none;stroke-width:1.0;" width="52" x="2169.845" y="1277.1706"/><text fill="#000000" font-family="sans-serif" font-size="14" lengthAdjust="spacing" textLength="9" x="2169.845" y="1290.1657">&#160;</text><text fill="#000000" font-family="sans-serif" font-size="14" lengthAdjust="spacing" textLength="79" x="2233.845" y="1290.1657">Gateway L2</text><rect fill="#0000FF" height="16.2969" style="stroke:none;stroke-width:1.0;" width="52" x="2169.845" y="1293.4675"/><text fill="#000000" font-family="sans-serif" font-size="14" lengthAdjust="spacing" textLength="9" x="2169.845" y="1306.4626">&#160;</text><text fill="#000000" font-family="sans-serif" font-size="14" lengthAdjust="spacing" textLength="81" x="2233.845" y="1306.4626">User  - ZWS</text><line style="stroke:#000000;stroke-width:1.0;" x1="2169.845" x2="2357.845" y1="1244.5769" y2="1244.5769"/><line style="stroke:#000000;stroke-width:1.0;" x1="2169.845" x2="2357.845" y1="1260.8738" y2="1260.8738"/><line style="stroke:#000000;stroke-width:1.0;" x1="2169.845" x2="2357.845" y1="1277.1706" y2="1277.1706"/><line style="stroke:#000000;stroke-width:1.0;" x1="2169.845" x2="2357.845" y1="1293.4675" y2="1293.4675"/><line style="stroke:#000000;stroke-width:1.0;" x1="2169.845" x2="2357.845" y1="1309.7644" y2="1309.7644"/><line style="stroke:#000000;stroke-width:1.0;" x1="2169.845" x2="2169.845" y1="1244.5769" y2="1309.7644"/><line style="stroke:#000000;stroke-width:1.0;" x1="2221.845" x2="2221.845" y1="1244.5769" y2="1309.7644"/><line style="stroke:#000000;stroke-width:1.0;" x1="2357.845" x2="2357.845" y1="1244.5769" y2="1309.7644"/><!--SRC=[dLhTRzis47_NNt5B7ze2TeQaRq4N87NQfKY71acs0YqAWv5eMx0iQHGTn-twl-_u9P4IASdnYotTxuxtnUEHD4zvHk7eJyBfZkpFO5RaEOrvMkGLy0Be4wSi9nbK-uhJJNKKHTKwpKl2o0PkIBmcI_gkO0bbio8h6EnMAQSU27ujMR7D4mNBqkMABndTTw5tV8yACTI1vClCbZKhDcMHqvot8T5l2LsaEOKOXM_PV9VorLLHyKydy8BHn4VMzduwXHUe1iqTZ8ByNL46BzvbMnmWokYIvWd4E3fb4U3dFm1bY_XbkGq4hw0hrDkEJkS2Btu2wkT1rQf9e7u2rDJ6DYfAbDGLfl3ront2K5EbRnIz50PjDpcSdC4jpSYUiWbSn366WbT0qAIIx3TeLJMHGY9UB2bVeRIVKLIgYC2H4AkvuOwonpIcHq0g-B6hz6lz5fa0QhQQvV9Qmfb-_YaDgM765nS9AT6xDlGkMSzNqckQg7a1pTB904Vl7yNNfnGJDDViGVuv5M23xSgwVq83ysH0Ypb_KgYk0ErRT1SPbAAn2Yf5_OfSryYuNjnyRClPudjyxVF6BKLl2je2SrFW0hnpXa3y_b0m6NWbwDLhZCVz_Ks8QSLvwTNKojD079SchmyBPO-4PmUp8-YvyUm88fwGQcVLhlf2ieno-8la-CZy4sc-ao2DqQuQZBB3f09SfdQ0M-6rwIQqloBKbiGSvKgsNrOHEJs3bPgi4rZM0RThHdTQow5KtdVDk2HbAMedPpYYXPoZEqlplitq6LzY_VUnALA8yMBsoSk5F26M-mzNx-7z4ustmY4-vjioRZDzpCijXtyeInUfZem6fu9Y2A4nRszclW54xBxGXxiYNjEs1lDTrOslHQvZwoHYCsSblaxcRfmC4ZteGljyztLzKrmxQTwmIPecXVWlQSpsfLnJ_KAI6Z0WQLQKh8XfLM4C_QBY1Z6aLR4XQL0ZIHoGOEBRi8L3t61y4MwezkIjf-iRqSxLTatW-gyxqwY8nrbQugJbsEB1vGLIwNws4gR91mbbT08gYhei1QQw8qbg5jTlBaadcopu7Mg28Zeyy-P1GshhbyP__VZvaaclkhNNCbBAMDDzB9ulBpfQ8hHoz6kmM5f9WgMpgrCN4z1ZKqd_AgPD9Nw3JmLiuspCV2rVXQUA0sucIASKwfx288dN64tqMu0P4fjaQk3w1VmSrn_OFC_j47fb7DOZz8lgwH9mPR4wX7unecIkA4vnVyzdKYFi9nsN7Y_fVEYoQaANevrgXk6woRUseiwi3sjhJzCUbIrf2yhZbHRbuROaVb38GADb5Jybgtc-8OplsnkHG8wssJeH7PUcWs8EIzLXSKwwjeFdstHrH3hRbMTQERJzwcJLGD3ifTgRH_XpoobS4R4BxiYOnugkoLr-rRo5k6K35-GLPI34YRFUvkin6pucA2tb-q7x3T3lXwv0iSPNRQc6w1Ciy8Fg-eGgLTTY2HtGJJJOFWdYdQqIuaPfOngG7hTTae42v7GbDb-WBMdhu_HCVdL-hCjYhH4-RPG8PmzXioX-GxRhd-ZnNph7UEAa23kUXmpRIZX1uXzZFbAAK-7JN9y5netmgBy9WoaJ9ttJKRqQ3bYlVTwnh6O5fbEtFN7x8oIV1tinCKxJ1lg6YhgiCEsJPoSWBrf-iqsm-tbuU_pDT-xt_NYe5HOMsBry_vYZbb3fiR5HQezTXwqJhLRV0TDjAIBJYPpRRlXWEEv5bYvpSLY9lwVc4mqkX33zjaeJh6ZVasANJmUMg6XS3zW8HLMzBLF_F3mTEm_LJBHQ4-_KSFQImZdjlM4RuEuiSGJJ47Z5DqS9WjKzTt1eqywfGpXmpNc36o0Ze-q_4hEY4hSIUWig7Ld1oUH0NxOcgpwRScRC0KqCE9DO7V5_FpvlEGc7lVzy-VciFRYfAJXdvRwzku3QytDy1RBofTUm_XuKGWNgt4sVyRqeXjehSNhUJbXVdGbOTS06SAn5eul0I6l6xWWFye_AA7b788gmjQQzmanHswWqNxuEJy6-2lNca4x1NFLuguSOtdVbv4Vt7MBN_OJlx1g7CRxGfzIENCNlcQpJysxHQaIPIojRrE1j2ao3boUMQ7Ex0v9WwTVSxWdbHaZgt1yO7uSyq1x1uyrWqWJlvkmbKIm5FHSb0xMzCiNzTFBciE9k4Z6G1EFk1KVNzB3VSVohGyRtbvHmXewxL3mWtot71Shiw9kuiKLso87FqEFmoZpwDk-0qeo6vGMdQ4C9nG825t8lSTDslqehgBJfzAaiAbgTWIJzZZLyox8puGbPokLMMMof5LaUHSnnuKNNpsCkSOyaInDKHfRPYgkT5C8qY_YdW-p39RYYyHQjtuC-9fRtY83i1D7Ytmx2XhOjVSSvjK6PIOIOYEP5ZOvb7Pe3QP2iYeBRNbocOC6A3QWRlD4Ar6TSzTXDfeWHYvqQGXPolcKvO7anQj14qj1fMmeFfA8950gGvYbFIQQqGp4FkBENFkKhLcoNAsKGS4RoYgZ1p8H_DplkqLvsIdEXerVZHS5sX2LAPnav8TS-ySBbMHBbVsva55MKkLGFRMGfUbPXX2LnmJ3joY9FX8jNyWIgJq5vxX1Mq7MfLbVdc7WZsINP93KgNElwACuhzifv8a5nTO5NX7ES5w-rkQaIdj4bHc23gToZgvw3Stb_DqhX3LbJEsfIPqcqQerSUbHNBcxNatIne4mjWkAF9VzkKTrA7CWqsJo1Ucg9umC151sOC3B6nGotWuxF_mS0]--></g></svg>