<?xml version="1.0" encoding="us-ascii" standalone="no"?><svg xmlns="http://www.w3.org/2000/svg" xmlns:xlink="http://www.w3.org/1999/xlink" contentStyleType="text/css" height="1218px" preserveAspectRatio="none" style="width:905px;height:1218px;background:#FFFFFF;" version="1.1" viewBox="0 0 905 1218" width="905px" zoomAndPan="magnify"><defs/><g><ellipse cx="656.81" cy="16" fill="#222222" rx="10" ry="10" style="stroke:#222222;stroke-width:1.0;"/><g id="RequestListener"><rect fill="#E8E8E8" height="55.412" rx="12.5" ry="12.5" style="stroke:#181818;stroke-width:0.5;" width="129" x="592.31" y="105"/><line style="stroke:#181818;stroke-width:0.5;" x1="592.31" x2="721.31" y1="134.0679" y2="134.0679"/><text fill="#000000" font-family="sans-serif" font-size="14" lengthAdjust="spacing" textLength="109" x="602.31" y="124.9659">RequestListener</text><text fill="#000000" font-family="sans-serif" font-size="12" lengthAdjust="spacing" textLength="3" x="597.31" y="151.896">&#160;</text></g><g id="ReadPermission"><rect fill="#E8E8E8" height="55.412" rx="12.5" ry="12.5" style="stroke:#181818;stroke-width:0.5;" width="128" x="592.81" y="239"/><line style="stroke:#181818;stroke-width:0.5;" x1="592.81" x2="720.81" y1="268.0679" y2="268.0679"/><text fill="#000000" font-family="sans-serif" font-size="14" lengthAdjust="spacing" textLength="108" x="602.81" y="258.9659">ReadPermission</text><text fill="#000000" font-family="sans-serif" font-size="12" lengthAdjust="spacing" textLength="3" x="597.81" y="285.896">&#160;</text></g><g id="CheckPermission"><rect fill="#F1F1F1" height="50" rx="12.5" ry="12.5" style="stroke:#181818;stroke-width:0.5;" width="134" x="589.81" y="355"/><line style="stroke:#181818;stroke-width:0.5;" x1="589.81" x2="723.81" y1="384.0679" y2="384.0679"/><text fill="#000000" font-family="sans-serif" font-size="14" lengthAdjust="spacing" textLength="114" x="599.81" y="374.9659">CheckPermission</text></g><g id="PermissionGranted"><rect fill="#D0F0C0" height="55.412" rx="12.5" ry="12.5" style="stroke:#181818;stroke-width:0.5;" width="149" x="483.31" y="484"/><line style="stroke:#181818;stroke-width:0.5;" x1="483.31" x2="632.31" y1="513.0679" y2="513.0679"/><text fill="#000000" font-family="sans-serif" font-size="14" lengthAdjust="spacing" textLength="129" x="493.31" y="503.9659">PermissionGranted</text><text fill="#000000" font-family="sans-serif" font-size="12" lengthAdjust="spacing" textLength="3" x="488.31" y="530.896">&#160;</text></g><g id="PermissionDenied"><rect fill="#FFCCCB" height="55.412" rx="12.5" ry="12.5" style="stroke:#181818;stroke-width:0.5;" width="142" x="686.81" y="569"/><line style="stroke:#181818;stroke-width:0.5;" x1="686.81" x2="828.81" y1="598.0679" y2="598.0679"/><text fill="#000000" font-family="sans-serif" font-size="14" lengthAdjust="spacing" textLength="122" x="696.81" y="588.9659">PermissionDenied</text><text fill="#000000" font-family="sans-serif" font-size="12" lengthAdjust="spacing" textLength="3" x="691.81" y="615.896">&#160;</text></g><g id="SendKMSRequest"><rect fill="#E8E8E8" height="55.412" rx="12.5" ry="12.5" style="stroke:#181818;stroke-width:0.5;" width="139" x="450.31" y="654"/><line style="stroke:#181818;stroke-width:0.5;" x1="450.31" x2="589.31" y1="683.0679" y2="683.0679"/><text fill="#000000" font-family="sans-serif" font-size="14" lengthAdjust="spacing" textLength="119" x="460.31" y="673.9659">SendKMSRequest</text><text fill="#000000" font-family="sans-serif" font-size="12" lengthAdjust="spacing" textLength="3" x="455.31" y="700.896">&#160;</text></g><g id="ErrorResponse"><rect fill="#FFCCCB" height="55.412" rx="12.5" ry="12.5" style="stroke:#181818;stroke-width:0.5;" width="119" x="340.31" y="1056"/><line style="stroke:#181818;stroke-width:0.5;" x1="340.31" x2="459.31" y1="1085.0679" y2="1085.0679"/><text fill="#000000" font-family="sans-serif" font-size="14" lengthAdjust="spacing" textLength="99" x="350.31" y="1075.9659">ErrorResponse</text><text fill="#000000" font-family="sans-serif" font-size="12" lengthAdjust="spacing" textLength="3" x="345.31" y="1102.896">&#160;</text></g><g id="KMSRequestSent"><rect fill="#E8E8E8" height="55.412" rx="12.5" ry="12.5" style="stroke:#181818;stroke-width:0.5;" width="135" x="332.31" y="788"/><line style="stroke:#181818;stroke-width:0.5;" x1="332.31" x2="467.31" y1="817.0679" y2="817.0679"/><text fill="#000000" font-family="sans-serif" font-size="14" lengthAdjust="spacing" textLength="115" x="342.31" y="807.9659">KMSRequestSent</text><text fill="#000000" font-family="sans-serif" font-size="12" lengthAdjust="spacing" textLength="3" x="337.31" y="834.896">&#160;</text></g><g id="KMSResponseReceived"><rect fill="#D0F0C0" height="55.412" rx="12.5" ry="12.5" style="stroke:#181818;stroke-width:0.5;" width="175" x="109.31" y="922"/><line style="stroke:#181818;stroke-width:0.5;" x1="109.31" x2="284.31" y1="951.0679" y2="951.0679"/><text fill="#000000" font-family="sans-serif" font-size="14" lengthAdjust="spacing" textLength="155" x="119.31" y="941.9659">KMSResponseReceived</text><text fill="#000000" font-family="sans-serif" font-size="12" lengthAdjust="spacing" textLength="3" x="114.31" y="968.896">&#160;</text></g><g id="SuccessResponse"><rect fill="#D0F0C0" height="55.412" rx="12.5" ry="12.5" style="stroke:#181818;stroke-width:0.5;" width="138" x="61.81" y="1056"/><line style="stroke:#181818;stroke-width:0.5;" x1="61.81" x2="199.81" y1="1085.0679" y2="1085.0679"/><text fill="#000000" font-family="sans-serif" font-size="14" lengthAdjust="spacing" textLength="118" x="71.81" y="1075.9659">SuccessResponse</text><text fill="#000000" font-family="sans-serif" font-size="12" lengthAdjust="spacing" textLength="3" x="66.81" y="1102.896">&#160;</text></g><ellipse cx="211.81" cy="1201" fill="none" rx="11" ry="11" style="stroke:#222222;stroke-width:1.0;"/><ellipse cx="211.81" cy="1201" fill="#222222" rx="6" ry="6" style="stroke:#222222;stroke-width:1.0;"/><!--link *start* to RequestListener--><g id="link_*start*_RequestListener"><path d="M656.81,26.37 C656.81,43.35 656.81,73.8 656.81,98.97 " fill="none" id="*start*-to-RequestListener" style="stroke:#181818;stroke-width:1.0;"/><polygon fill="#181818" points="656.81,104.97,660.81,95.97,656.81,99.97,652.81,95.97,656.81,104.97" style="stroke:#181818;stroke-width:1.0;"/><text fill="#000000" font-family="sans-serif" font-size="13" lengthAdjust="spacing" textLength="29" x="657.81" y="70.897">Start</text></g><!--link RequestListener to ReadPermission--><g id="link_RequestListener_ReadPermission"><path d="M656.81,160.21 C656.81,183.11 656.81,209.94 656.81,232.83 " fill="none" id="RequestListener-to-ReadPermission" style="stroke:#181818;stroke-width:1.0;"/><polygon fill="#181818" points="656.81,238.83,660.81,229.83,656.81,233.83,652.81,229.83,656.81,238.83" style="stroke:#181818;stroke-width:1.0;"/><text fill="#000000" font-family="sans-serif" font-size="13" lengthAdjust="spacing" textLength="151" x="657.81" y="204.897">Event: CTReadPermission</text></g><!--link ReadPermission to CheckPermission--><g id="link_ReadPermission_CheckPermission"><path d="M656.81,294.21 C656.81,312.63 656.81,330.93 656.81,348.79 " fill="none" id="ReadPermission-to-CheckPermission" style="stroke:#181818;stroke-width:1.0;"/><polygon fill="#181818" points="656.81,354.79,660.81,345.79,656.81,349.79,652.81,345.79,656.81,354.79" style="stroke:#181818;stroke-width:1.0;"/></g><!--link CheckPermission to PermissionGranted--><g id="link_CheckPermission_PermissionGranted"><path d="M615.11,405.24 C603.71,413.49 592.2,423.56 583.81,435 C573.23,449.42 568.1723,462.6609 564.3123,478.0209 " fill="none" id="CheckPermission-to-PermissionGranted" style="stroke:#181818;stroke-width:1.0;"/><polygon fill="#181818" points="562.85,483.84,568.9229,476.0863,564.0686,478.9908,561.1641,474.1365,562.85,483.84" style="stroke:#181818;stroke-width:1.0;"/><text fill="#000000" font-family="sans-serif" font-size="13" lengthAdjust="spacing" textLength="119" x="584.81" y="449.897">[Permission == true]</text></g><!--link CheckPermission to PermissionDenied--><g id="link_CheckPermission_PermissionDenied"><path d="M684.66,405.02 C693.39,413.73 702.41,424.12 708.81,435 C734.2,478.2 746.5128,529.8975 752.5628,563.0475 " fill="none" id="CheckPermission-to-PermissionDenied" style="stroke:#181818;stroke-width:1.0;"/><polygon fill="#181818" points="753.64,568.95,755.9592,559.3781,752.7423,564.0312,748.0892,560.8144,753.64,568.95" style="stroke:#181818;stroke-width:1.0;"/><text fill="#000000" font-family="sans-serif" font-size="13" lengthAdjust="spacing" textLength="121" x="719.81" y="449.897">[Permission == false]</text></g><!--link PermissionGranted to SendKMSRequest--><g id="link_PermissionGranted_SendKMSRequest"><path d="M526.4,539.25 C518.48,547.85 511.03,558.02 506.81,569 C496.17,596.65 500.9921,625.0333 508.0921,648.2033 " fill="none" id="PermissionGranted-to-SendKMSRequest" style="stroke:#181818;stroke-width:1.0;"/><polygon fill="#181818" points="509.85,653.94,511.0376,644.163,508.3851,649.1594,503.3887,646.5069,509.85,653.94" style="stroke:#181818;stroke-width:1.0;"/><text fill="#000000" font-family="sans-serif" font-size="13" lengthAdjust="spacing" textLength="160" x="507.81" y="601.897">Event: CTSendKmsRequest</text></g><!--link PermissionDenied to ErrorResponse--><g id="link_PermissionDenied_ErrorResponse"><path d="M757.81,624.05 C757.81,654.03 757.81,704.27 757.81,747.5 C757.81,747.5 757.81,747.5 757.81,950.5 C757.81,1013.35 567.032,1054.5261 465.232,1072.1561 " fill="none" id="PermissionDenied-to-ErrorResponse" style="stroke:#181818;stroke-width:1.0;"/><polygon fill="#181818" points="459.32,1073.18,468.8706,1075.5855,464.2467,1072.3268,467.5054,1067.7029,459.32,1073.18" style="stroke:#181818;stroke-width:1.0;"/><text fill="#000000" font-family="sans-serif" font-size="13" lengthAdjust="spacing" textLength="139" x="758.81" y="820.897">Event: CTRequestFailed</text></g><!--link SendKMSRequest to KMSRequestSent--><g id="link_SendKMSRequest_KMSRequestSent"><path d="M450.15,704.36 C433.84,712.69 418.2,723.95 407.81,739 C398.07,753.1 395.9785,766.3527 396.4485,781.8827 " fill="none" id="SendKMSRequest-to-KMSRequestSent" style="stroke:#181818;stroke-width:1.0;"/><polygon fill="#181818" points="396.63,787.88,400.3559,778.7631,396.4787,782.8823,392.3596,779.0051,396.63,787.88" style="stroke:#181818;stroke-width:1.0;"/><text fill="#000000" font-family="sans-serif" font-size="13" lengthAdjust="spacing" textLength="158" x="408.81" y="753.897">Event: CTKMSRequestSent</text></g><!--link SendKMSRequest to ErrorResponse--><g id="link_SendKMSRequest_ErrorResponse"><path d="M551.82,709.15 C559.9,717.75 567.49,727.95 571.81,739 C577.77,754.29 610.07,872.37 548.81,977 C528.39,1011.87 496.6074,1035.2887 464.5674,1052.9087 " fill="none" id="SendKMSRequest-to-ErrorResponse" style="stroke:#181818;stroke-width:1.0;"/><polygon fill="#181818" points="459.31,1055.8,469.1237,1054.9681,463.6912,1053.3906,465.2686,1047.9582,459.31,1055.8" style="stroke:#181818;stroke-width:1.0;"/><text fill="#000000" font-family="sans-serif" font-size="13" lengthAdjust="spacing" textLength="139" x="584.81" y="887.897">Event: CTRequestFailed</text></g><!--link KMSRequestSent to KMSResponseReceived--><g id="link_KMSRequestSent_KMSResponseReceived"><path d="M332.04,826.12 C278.72,835.24 210.7,850.85 193.81,873 C183.39,886.66 183.1212,900.2523 186.6112,915.9923 " fill="none" id="KMSRequestSent-to-KMSResponseReceived" style="stroke:#181818;stroke-width:1.0;"/><polygon fill="#181818" points="187.91,921.85,189.8669,912.1975,186.8276,916.9686,182.0566,913.9293,187.91,921.85" style="stroke:#181818;stroke-width:1.0;"/><text fill="#000000" font-family="sans-serif" font-size="13" lengthAdjust="spacing" textLength="178" x="194.81" y="887.897">Event: KMSResponseReceived</text></g><!--link KMSRequestSent to ErrorResponse--><g id="link_KMSRequestSent_ErrorResponse"><path d="M399.81,843.47 C399.81,894.58 399.81,998.99 399.81,1049.85 " fill="none" id="KMSRequestSent-to-ErrorResponse" style="stroke:#181818;stroke-width:1.0;"/><polygon fill="#181818" points="399.81,1055.85,403.81,1046.85,399.81,1050.85,395.81,1046.85,399.81,1055.85" style="stroke:#181818;stroke-width:1.0;"/><text fill="#000000" font-family="sans-serif" font-size="13" lengthAdjust="spacing" textLength="139" x="400.81" y="954.897">Event: CTRequestFailed</text></g><!--link KMSResponseReceived to SuccessResponse--><g id="link_KMSResponseReceived_SuccessResponse"><path d="M108.89,957.7 C76.46,965.13 42.78,979.51 22.81,1007 C6,1030.13 25.8294,1046.3299 56.1794,1059.2499 " fill="none" id="KMSResponseReceived-to-SuccessResponse" style="stroke:#181818;stroke-width:1.0;"/><polygon fill="#181818" points="61.7,1061.6,54.9859,1054.3944,57.0995,1059.6416,51.8524,1061.7552,61.7,1061.6" style="stroke:#181818;stroke-width:1.0;"/><text fill="#000000" font-family="sans-serif" font-size="13" lengthAdjust="spacing" textLength="168" x="23.81" y="1021.897">Event: CTRequestSucceeded</text></g><!--link KMSResponseReceived to ErrorResponse--><g id="link_KMSResponseReceived_ErrorResponse"><path d="M203.75,977.16 C209.21,993.3 218.36,1013.18 232.81,1026 C262.68,1052.52 299.6254,1065.4127 334.4254,1072.9327 " fill="none" id="KMSResponseReceived-to-ErrorResponse" style="stroke:#181818;stroke-width:1.0;"/><polygon fill="#181818" points="340.29,1074.2,332.3379,1068.3893,335.4028,1073.1439,330.6482,1076.2088,340.29,1074.2" style="stroke:#181818;stroke-width:1.0;"/><text fill="#000000" font-family="sans-serif" font-size="13" lengthAdjust="spacing" textLength="139" x="233.81" y="1021.897">Event: CTRequestFailed</text></g><!--link SuccessResponse to *end*--><g id="link_SuccessResponse_*end*"><path d="M149.59,1111.29 C167.73,1137.14 190.6533,1169.8488 202.3733,1186.5488 " fill="none" id="SuccessResponse-to-*end*" style="stroke:#181818;stroke-width:1.0;"/><polygon fill="#181818" points="205.82,1191.46,203.9241,1181.7953,202.9478,1187.3673,197.3758,1186.3909,205.82,1191.46" style="stroke:#181818;stroke-width:1.0;"/><text fill="#000000" font-family="sans-serif" font-size="13" lengthAdjust="spacing" textLength="23" x="184.81" y="1155.897">End</text></g><!--link ErrorResponse to *end*--><g id="link_ErrorResponse_*end*"><path d="M356.2,1111.29 C311.3,1138.88 249.7114,1176.7078 225.8314,1191.3878 " fill="none" id="ErrorResponse-to-*end*" style="stroke:#181818;stroke-width:1.0;"/><polygon fill="#181818" points="220.72,1194.53,230.4819,1193.2243,224.9795,1191.9115,226.2923,1186.4091,220.72,1194.53" style="stroke:#181818;stroke-width:1.0;"/><text fill="#000000" font-family="sans-serif" font-size="13" lengthAdjust="spacing" textLength="23" x="306.81" y="1155.897">End</text></g><!--SRC=[dPJBQW8n58Rtvoa2tHK4bqNKXLEdYxPGj3jn4PBJ6XoJQP8HIkcxDnb7PtAXnUBAS_c_3qxKx8MigQO7OYorIBw0a0Lb-tUj6iaBLIazdUveNN_Ev-JcVboEYt5k1BLMse-KPL4KYzo8aC8AMlcXvPt_m3V0vdPBHgCvMU57WyO-2MDHeYOJihPKMu2JLjmUf46o2adfHA3y1VL162EKT83b4QMTaE8rxFJ8O3uaHb4Gbpoms27RfxbHsGMpdH8CNIx4FH_JVttGL5haZhSPpCncnEe6jtyitwCKkTqtMXcttCcbiClr8IUIxdMSouk0Z09aihpj6YL_V5vtrnkUgEqSJDT9C_tsqWDNQ6eb3ORtRRTAAYhaP-E8DJnleW5noUFwhwuPo8QTtEvrgX5fg9f8G5owg9vWAsGeZkqLEcYccSluXt94x5zItWUozVPTD8oXCR_GsmdaP_LCnfMl8oBsxgdBUISaz3-0c0n9XlVpVuJEIl9eFkpz0000]--></g></svg>