<?xml version="1.0" encoding="us-ascii" standalone="no"?><svg xmlns="http://www.w3.org/2000/svg" xmlns:xlink="http://www.w3.org/1999/xlink" contentStyleType="text/css" height="884px" preserveAspectRatio="none" style="width:358px;height:884px;background:#FFFFFF;" version="1.1" viewBox="0 0 358 884" width="358px" zoomAndPan="magnify"><defs/><g><ellipse cx="183.5" cy="16" fill="#222222" rx="10" ry="10" style="stroke:#222222;stroke-width:1.0;"/><g id="Received"><rect fill="#F1F1F1" height="50" rx="12.5" ry="12.5" style="stroke:#181818;stroke-width:0.5;" width="80" x="143.5" y="86"/><line style="stroke:#181818;stroke-width:0.5;" x1="143.5" x2="223.5" y1="115.0679" y2="115.0679"/><text fill="#000000" font-family="sans-serif" font-size="14" lengthAdjust="spacing" textLength="60" x="153.5" y="105.9659">Received</text></g><g id="InsufficientPermission"><rect fill="#F1F1F1" height="50" rx="12.5" ry="12.5" style="stroke:#181818;stroke-width:0.5;" width="171" x="7" y="306"/><line style="stroke:#181818;stroke-width:0.5;" x1="7" x2="178" y1="335.0679" y2="335.0679"/><text fill="#000000" font-family="sans-serif" font-size="14" lengthAdjust="spacing" textLength="151" x="17" y="325.9659">InsufficientPermission</text></g><g id="PermissionVerified"><rect fill="#F1F1F1" height="50" rx="12.5" ry="12.5" style="stroke:#181818;stroke-width:0.5;" width="146" x="187.5" y="196"/><line style="stroke:#181818;stroke-width:0.5;" x1="187.5" x2="333.5" y1="225.0679" y2="225.0679"/><text fill="#000000" font-family="sans-serif" font-size="14" lengthAdjust="spacing" textLength="126" x="197.5" y="215.9659">PermissionVerified</text></g><g id="SendingToKMS"><rect fill="#F1F1F1" height="50" rx="12.5" ry="12.5" style="stroke:#181818;stroke-width:0.5;" width="122" x="213.5" y="306"/><line style="stroke:#181818;stroke-width:0.5;" x1="213.5" x2="335.5" y1="335.0679" y2="335.0679"/><text fill="#000000" font-family="sans-serif" font-size="14" lengthAdjust="spacing" textLength="102" x="223.5" y="325.9659">SendingToKMS</text></g><g id="SentToKMS"><rect fill="#F1F1F1" height="50" rx="12.5" ry="12.5" style="stroke:#181818;stroke-width:0.5;" width="96" x="220.5" y="416"/><line style="stroke:#181818;stroke-width:0.5;" x1="220.5" x2="316.5" y1="445.0679" y2="445.0679"/><text fill="#000000" font-family="sans-serif" font-size="14" lengthAdjust="spacing" textLength="76" x="230.5" y="435.9659">SentToKMS</text></g><g id="KMSResponseReceived"><rect fill="#F1F1F1" height="50" rx="12.5" ry="12.5" style="stroke:#181818;stroke-width:0.5;" width="175" x="176" y="526"/><line style="stroke:#181818;stroke-width:0.5;" x1="176" x2="351" y1="555.0679" y2="555.0679"/><text fill="#000000" font-family="sans-serif" font-size="14" lengthAdjust="spacing" textLength="155" x="186" y="545.9659">KMSResponseReceived</text></g><g id="SendingResponse"><rect fill="#F1F1F1" height="50" rx="12.5" ry="12.5" style="stroke:#181818;stroke-width:0.5;" width="141" x="112" y="636"/><line style="stroke:#181818;stroke-width:0.5;" x1="112" x2="253" y1="665.0679" y2="665.0679"/><text fill="#000000" font-family="sans-serif" font-size="14" lengthAdjust="spacing" textLength="121" x="122" y="655.9659">SendingResponse</text></g><g id="SentResponse"><rect fill="#F1F1F1" height="50" rx="12.5" ry="12.5" style="stroke:#181818;stroke-width:0.5;" width="115" x="125" y="746"/><line style="stroke:#181818;stroke-width:0.5;" x1="125" x2="240" y1="775.0679" y2="775.0679"/><text fill="#000000" font-family="sans-serif" font-size="14" lengthAdjust="spacing" textLength="95" x="135" y="765.9659">SentResponse</text></g><ellipse cx="182.5" cy="867" fill="none" rx="11" ry="11" style="stroke:#222222;stroke-width:1.0;"/><ellipse cx="182.5" cy="867" fill="#222222" rx="6" ry="6" style="stroke:#222222;stroke-width:1.0;"/><!--link *start* to Received--><g id="link_*start*_Received"><path d="M183.5,26.26 C183.5,40.04 183.5,60.42 183.5,79.91 " fill="none" id="*start*-to-Received" style="stroke:#181818;stroke-width:1.0;"/><polygon fill="#181818" points="183.5,85.91,187.5,76.91,183.5,80.91,179.5,76.91,183.5,85.91" style="stroke:#181818;stroke-width:1.0;"/></g><!--link Received to InsufficientPermission--><g id="link_Received_InsufficientPermission"><path d="M173.41,136.16 C155.92,178.07 122.4609,258.2129 104.9409,300.1929 " fill="none" id="Received-to-InsufficientPermission" style="stroke:#181818;stroke-width:1.0;"/><polygon fill="#181818" points="102.63,305.73,109.7877,298.9649,104.5557,301.1157,102.4049,295.8837,102.63,305.73" style="stroke:#181818;stroke-width:1.0;"/></g><!--link Received to PermissionVerified--><g id="link_Received_PermissionVerified"><path d="M200.78,136.24 C213.46,154.02 227.1254,173.1956 239.7954,190.9556 " fill="none" id="Received-to-PermissionVerified" style="stroke:#181818;stroke-width:1.0;"/><polygon fill="#181818" points="243.28,195.84,241.3094,186.1903,240.3762,191.7696,234.7969,190.8364,243.28,195.84" style="stroke:#181818;stroke-width:1.0;"/></g><!--link PermissionVerified to SendingToKMS--><g id="link_PermissionVerified_SendingToKMS"><path d="M263.64,246.24 C265.95,264.02 268.2994,282.1297 270.5994,299.8897 " fill="none" id="PermissionVerified-to-SendingToKMS" style="stroke:#181818;stroke-width:1.0;"/><polygon fill="#181818" points="271.37,305.84,274.181,296.4008,270.7278,300.8814,266.2472,297.4283,271.37,305.84" style="stroke:#181818;stroke-width:1.0;"/></g><!--link SendingToKMS to SentToKMS--><g id="link_SendingToKMS_SentToKMS"><path d="M273.15,356.24 C272.17,374.02 271.1639,392.0893 270.1739,409.8493 " fill="none" id="SendingToKMS-to-SentToKMS" style="stroke:#181818;stroke-width:1.0;"/><polygon fill="#181818" points="269.84,415.84,274.3347,407.0766,270.1183,410.8478,266.3471,406.6313,269.84,415.84" style="stroke:#181818;stroke-width:1.0;"/></g><!--link SentToKMS to KMSResponseReceived--><g id="link_SentToKMS_KMSResponseReceived"><path d="M267.38,466.24 C266.55,484.02 265.7167,502.0864 264.8967,519.8464 " fill="none" id="SentToKMS-to-KMSResponseReceived" style="stroke:#181818;stroke-width:1.0;"/><polygon fill="#181818" points="264.62,525.84,269.0308,517.0341,264.8506,520.8453,261.0394,516.6651,264.62,525.84" style="stroke:#181818;stroke-width:1.0;"/></g><!--link KMSResponseReceived to SendingResponse--><g id="link_KMSResponseReceived_SendingResponse"><path d="M245.32,576.24 C231.98,594.02 217.54,613.28 204.22,631.04 " fill="none" id="KMSResponseReceived-to-SendingResponse" style="stroke:#181818;stroke-width:1.0;"/><polygon fill="#181818" points="200.62,635.84,209.22,631.04,203.62,631.84,202.82,626.24,200.62,635.84" style="stroke:#181818;stroke-width:1.0;"/></g><!--link InsufficientPermission to SendingResponse--><g id="link_InsufficientPermission_SendingResponse"><path d="M98.94,356.27 C110.63,400.17 136.16,495.67 158.5,576 C164.11,596.17 168.9753,613.2356 173.8153,629.9956 " fill="none" id="InsufficientPermission-to-SendingResponse" style="stroke:#181818;stroke-width:1.0;"/><polygon fill="#181818" points="175.48,635.76,176.826,626.0035,174.0928,630.9563,169.14,628.2231,175.48,635.76" style="stroke:#181818;stroke-width:1.0;"/></g><!--link SendingResponse to SentResponse--><g id="link_SendingResponse_SentResponse"><path d="M182.5,686.24 C182.5,704.02 182.5,722.08 182.5,739.84 " fill="none" id="SendingResponse-to-SentResponse" style="stroke:#181818;stroke-width:1.0;"/><polygon fill="#181818" points="182.5,745.84,186.5,736.84,182.5,740.84,178.5,736.84,182.5,745.84" style="stroke:#181818;stroke-width:1.0;"/></g><!--link SentResponse to *end*--><g id="link_SentResponse_*end*"><path d="M182.5,796.21 C182.5,815.57 182.5,835.75 182.5,849.9 " fill="none" id="SentResponse-to-*end*" style="stroke:#181818;stroke-width:1.0;"/><polygon fill="#181818" points="182.5,855.9,186.5,846.9,182.5,850.9,178.5,846.9,182.5,855.9" style="stroke:#181818;stroke-width:1.0;"/></g><!--SRC=[YzQALT3LjLC8IarEpInBJU62CS2Yddd5fMbfcScPgNab0Qb5kPd5nPdvUQXg4E9XgKMPQPb0Cp25m2g3K_DIClFIG_AzVOEva3amsHAuL0b274W7fHONvESLfy8TYKKCsGQO71TszsDLYiQ7EmbPGGcAh4AqLYmN0000]--></g></svg>