<?xml version="1.0" encoding="us-ascii" standalone="no"?><svg xmlns="http://www.w3.org/2000/svg" xmlns:xlink="http://www.w3.org/1999/xlink" contentStyleType="text/css" height="1161px" preserveAspectRatio="none" style="width:1122px;height:1161px;background:#FFFFFF;" version="1.1" viewBox="0 0 1122 1161" width="1122px" zoomAndPan="magnify"><defs/><g><rect fill="none" height="51.412" style="stroke:#000000;stroke-width:1.5;" width="733" x="24" y="541.3642"/><rect fill="none" height="398.7481" style="stroke:#000000;stroke-width:1.5;" width="1091.5" x="24" y="606.7762"/><line style="stroke:#181818;stroke-width:0.5;stroke-dasharray:5.0,5.0;" x1="52" x2="52" y1="84.0679" y2="1077.9363"/><line style="stroke:#181818;stroke-width:0.5;stroke-dasharray:5.0,5.0;" x1="192.5" x2="192.5" y1="84.0679" y2="1077.9363"/><line style="stroke:#181818;stroke-width:0.5;stroke-dasharray:5.0,5.0;" x1="446.5" x2="446.5" y1="84.0679" y2="1077.9363"/><line style="stroke:#181818;stroke-width:0.5;stroke-dasharray:5.0,5.0;" x1="667" x2="667" y1="84.0679" y2="1077.9363"/><line style="stroke:#181818;stroke-width:0.5;stroke-dasharray:5.0,5.0;" x1="896.5" x2="896.5" y1="84.0679" y2="1077.9363"/><text fill="#000000" font-family="sans-serif" font-size="14" lengthAdjust="spacing" textLength="31" x="34" y="79.9659">User</text><ellipse cx="52.5" cy="13.5" fill="#E2E2F0" rx="8" ry="8" style="stroke:#181818;stroke-width:0.5;"/><path d="M52.5,21.5 L52.5,48.5 M39.5,29.5 L65.5,29.5 M52.5,48.5 L39.5,63.5 M52.5,48.5 L65.5,63.5 " fill="none" style="stroke:#181818;stroke-width:0.5;"/><text fill="#000000" font-family="sans-serif" font-size="14" lengthAdjust="spacing" textLength="31" x="34" y="1091.9023">User</text><ellipse cx="52.5" cy="1104.5042" fill="#E2E2F0" rx="8" ry="8" style="stroke:#181818;stroke-width:0.5;"/><path d="M52.5,1112.5042 L52.5,1139.5042 M39.5,1120.5042 L65.5,1120.5042 M52.5,1139.5042 L39.5,1154.5042 M52.5,1139.5042 L65.5,1154.5042 " fill="none" style="stroke:#181818;stroke-width:0.5;"/><rect fill="#E2E2F0" height="33.0679" rx="2.5" ry="2.5" style="stroke:#181818;stroke-width:0.5;" width="86" x="149.5" y="50"/><text fill="#000000" font-family="sans-serif" font-size="14" lengthAdjust="spacing" textLength="72" x="156.5" y="71.9659">Sequencer</text><rect fill="#E2E2F0" height="33.0679" rx="2.5" ry="2.5" style="stroke:#181818;stroke-width:0.5;" width="86" x="149.5" y="1076.9363"/><text fill="#000000" font-family="sans-serif" font-size="14" lengthAdjust="spacing" textLength="72" x="156.5" y="1098.9023">Sequencer</text><rect fill="#E2E2F0" height="33.0679" rx="2.5" ry="2.5" style="stroke:#181818;stroke-width:0.5;" width="118" x="387.5" y="50"/><text fill="#000000" font-family="sans-serif" font-size="14" lengthAdjust="spacing" textLength="104" x="394.5" y="71.9659">Active Validator</text><rect fill="#E2E2F0" height="33.0679" rx="2.5" ry="2.5" style="stroke:#181818;stroke-width:0.5;" width="118" x="387.5" y="1076.9363"/><text fill="#000000" font-family="sans-serif" font-size="14" lengthAdjust="spacing" textLength="104" x="394.5" y="1098.9023">Active Validator</text><rect fill="#E2E2F0" height="33.0679" rx="2.5" ry="2.5" style="stroke:#181818;stroke-width:0.5;" width="159" x="588" y="50"/><text fill="#000000" font-family="sans-serif" font-size="14" lengthAdjust="spacing" textLength="145" x="595" y="71.9659">Validator (Non-Active)</text><rect fill="#E2E2F0" height="33.0679" rx="2.5" ry="2.5" style="stroke:#181818;stroke-width:0.5;" width="159" x="588" y="1076.9363"/><text fill="#000000" font-family="sans-serif" font-size="14" lengthAdjust="spacing" textLength="145" x="595" y="1098.9023">Validator (Non-Active)</text><rect fill="#E2E2F0" height="33.0679" rx="2.5" ry="2.5" style="stroke:#181818;stroke-width:0.5;" width="80" x="856.5" y="50"/><text fill="#000000" font-family="sans-serif" font-size="14" lengthAdjust="spacing" textLength="66" x="863.5" y="71.9659">Ethereum</text><rect fill="#E2E2F0" height="33.0679" rx="2.5" ry="2.5" style="stroke:#181818;stroke-width:0.5;" width="80" x="856.5" y="1076.9363"/><text fill="#000000" font-family="sans-serif" font-size="14" lengthAdjust="spacing" textLength="66" x="863.5" y="1098.9023">Ethereum</text><polygon fill="#181818" points="180.5,113.7739,190.5,117.7739,180.5,121.7739,184.5,117.7739" style="stroke:#181818;stroke-width:1.0;"/><line style="stroke:#181818;stroke-width:1.0;" x1="52.5" x2="186.5" y1="117.7739" y2="117.7739"/><text fill="#000000" font-family="sans-serif" font-size="13" lengthAdjust="spacing" textLength="116" x="64.5" y="111.9649">Submit Transaction</text><polygon fill="#181818" points="63.5,145.4799,53.5,149.4799,63.5,153.4799,59.5,149.4799" style="stroke:#181818;stroke-width:1.0;"/><line style="stroke:#181818;stroke-width:1.0;" x1="57.5" x2="191.5" y1="149.4799" y2="149.4799"/><text fill="#000000" font-family="sans-serif" font-size="13" lengthAdjust="spacing" textLength="88" x="78.5" y="143.6709">Return Receipt</text><path d="M5,162.4799 L5,242.4799 L240,242.4799 L240,172.4799 L230,162.4799 L5,162.4799 " fill="#FEFFDD" style="stroke:#181818;stroke-width:0.5;"/><path d="M230,162.4799 L230,172.4799 L240,172.4799 L230,162.4799 " fill="#FEFFDD" style="stroke:#181818;stroke-width:0.5;"/><text fill="#000000" font-family="sans-serif" font-size="13" font-weight="bold" lengthAdjust="spacing" textLength="78" x="11" y="181.377">Soft Finality</text><text fill="#000000" font-family="sans-serif" font-size="13" lengthAdjust="spacing" textLength="211" x="11" y="199.083">- Tx will be included in next L2 Block</text><text fill="#000000" font-family="sans-serif" font-size="13" lengthAdjust="spacing" textLength="214" x="11" y="216.789">- Tx will be eventually finalized on L2</text><text fill="#000000" font-family="sans-serif" font-size="13" lengthAdjust="spacing" textLength="214" x="11" y="234.495">- Tx will be eventually finalized on L1</text><polygon fill="#181818" points="655.5,268.01,665.5,272.01,655.5,276.01,659.5,272.01" style="stroke:#181818;stroke-width:1.0;"/><line style="stroke:#181818;stroke-width:1.0;" x1="192.5" x2="661.5" y1="272.01" y2="272.01"/><text fill="#000000" font-family="sans-serif" font-size="13" lengthAdjust="spacing" textLength="230" x="315" y="266.201">Broadcast L2 Block via Sequencer Feed</text><polygon fill="#181818" points="434.5,299.716,444.5,303.716,434.5,307.716,438.5,303.716" style="stroke:#181818;stroke-width:1.0;"/><line style="stroke:#181818;stroke-width:1.0;" x1="192.5" x2="440.5" y1="303.716" y2="303.716"/><text fill="#000000" font-family="sans-serif" font-size="13" lengthAdjust="spacing" textLength="230" x="204.5" y="297.907">Broadcast L2 Block via Sequencer Feed</text><line style="stroke:#181818;stroke-width:1.0;" x1="446.5" x2="488.5" y1="353.1281" y2="353.1281"/><line style="stroke:#181818;stroke-width:1.0;" x1="488.5" x2="488.5" y1="353.1281" y2="366.1281"/><line style="stroke:#181818;stroke-width:1.0;" x1="447.5" x2="488.5" y1="366.1281" y2="366.1281"/><polygon fill="#181818" points="457.5,362.1281,447.5,366.1281,457.5,370.1281,453.5,366.1281" style="stroke:#181818;stroke-width:1.0;"/><text fill="#000000" font-family="sans-serif" font-size="13" lengthAdjust="spacing" textLength="98" x="462.5" y="329.6131">Collect L2 Blocks</text><text fill="#000000" font-family="sans-serif" font-size="13" lengthAdjust="spacing" textLength="116" x="453.5" y="347.3191">and form an RBlock</text><polygon fill="#181818" points="884.5,393.8341,894.5,397.8341,884.5,401.8341,888.5,397.8341" style="stroke:#181818;stroke-width:1.0;"/><line style="stroke:#181818;stroke-width:1.0;" x1="446.5" x2="890.5" y1="397.8341" y2="397.8341"/><text fill="#000000" font-family="sans-serif" font-size="13" lengthAdjust="spacing" textLength="103" x="620" y="392.0251">Post RBlock to L1</text><path d="M25,410.8341 L25,455.8341 L922,455.8341 L922,420.8341 L912,410.8341 L25,410.8341 " fill="#FEFFDD" style="stroke:#181818;stroke-width:0.5;"/><path d="M912,410.8341 L912,420.8341 L922,420.8341 L912,410.8341 " fill="#FEFFDD" style="stroke:#181818;stroke-width:0.5;"/><text fill="#000000" font-family="sans-serif" font-size="13" font-weight="bold" lengthAdjust="spacing" textLength="69" x="312.25" y="429.7311">Confirmed</text><text fill="#000000" font-family="sans-serif" font-size="13" lengthAdjust="spacing" textLength="314" x="312.25" y="447.4371">- Txs in each L2 Block in the RBlock are finalized on L2</text><path d="M399,466.2461 L399,529.2461 L943,529.2461 L943,476.2461 L933,466.2461 L399,466.2461 " fill="#FEFFDD" style="stroke:#181818;stroke-width:0.5;"/><path d="M933,466.2461 L933,476.2461 L943,476.2461 L933,466.2461 " fill="#FEFFDD" style="stroke:#181818;stroke-width:0.5;"/><text fill="#000000" font-family="sans-serif" font-size="13" font-weight="bold" lengthAdjust="spacing" textLength="75" x="554" y="485.1431">Settlement</text><text fill="#000000" font-family="sans-serif" font-size="13" lengthAdjust="spacing" textLength="159" x="554" y="502.8492">- RBlock is registered on L1</text><text fill="#000000" font-family="sans-serif" font-size="13" lengthAdjust="spacing" textLength="225" x="554" y="520.5552">- Fraud proof challenge window starts</text><path d="M24,541.3642 L91,541.3642 L91,551.0702 L81,561.0702 L24,561.0702 L24,541.3642 " fill="#EEEEEE" style="stroke:#000000;stroke-width:1.5;"/><rect fill="none" height="51.412" style="stroke:#000000;stroke-width:1.5;" width="733" x="24" y="541.3642"/><text fill="#000000" font-family="sans-serif" font-size="13" font-weight="bold" lengthAdjust="spacing" textLength="22" x="39" y="556.2612">opt</text><text fill="#000000" font-family="sans-serif" font-size="11" font-weight="bold" lengthAdjust="spacing" textLength="136" x="106" y="555.1231">[Check for Tx confirmed]</text><polygon fill="#181818" points="655.5,580.7762,665.5,584.7762,655.5,588.7762,659.5,584.7762" style="stroke:#181818;stroke-width:1.0;"/><line style="stroke:#181818;stroke-width:1.0;" x1="52.5" x2="661.5" y1="584.7762" y2="584.7762"/><text fill="#000000" font-family="sans-serif" font-size="13" lengthAdjust="spacing" textLength="157" x="281.5" y="578.9672">Reads that Tx is confirmed</text><path d="M24,606.7762 L87,606.7762 L87,616.4822 L77,626.4822 L24,626.4822 L24,606.7762 " fill="#EEEEEE" style="stroke:#000000;stroke-width:1.5;"/><rect fill="none" height="398.7481" style="stroke:#000000;stroke-width:1.5;" width="1091.5" x="24" y="606.7762"/><text fill="#000000" font-family="sans-serif" font-size="13" font-weight="bold" lengthAdjust="spacing" textLength="18" x="39" y="621.6732">alt</text><text fill="#000000" font-family="sans-serif" font-size="11" font-weight="bold" lengthAdjust="spacing" textLength="147" x="102" y="620.5351">[Fraud detected in Rblock]</text><polygon fill="#181818" points="884.5,646.1882,894.5,650.1882,884.5,654.1882,888.5,650.1882" style="stroke:#181818;stroke-width:1.0;"/><line style="stroke:#181818;stroke-width:1.0;" x1="667.5" x2="890.5" y1="650.1882" y2="650.1882"/><text fill="#000000" font-family="sans-serif" font-size="13" lengthAdjust="spacing" textLength="114" x="725" y="644.3792">Submit fraud proof</text><path d="M399,663.1882 L399,690.1882 L943,690.1882 L943,673.1882 L933,663.1882 L399,663.1882 " fill="#FEFFDD" style="stroke:#181818;stroke-width:0.5;"/><path d="M933,663.1882 L933,673.1882 L943,673.1882 L933,663.1882 " fill="#FEFFDD" style="stroke:#181818;stroke-width:0.5;"/><text fill="#000000" font-family="sans-serif" font-size="13" lengthAdjust="spacing" textLength="199" x="567" y="682.0853">Interactive fraud proof resolution</text><polygon fill="#181818" points="457.5,715.6003,447.5,719.6003,457.5,723.6003,453.5,719.6003" style="stroke:#181818;stroke-width:1.0;"/><line style="stroke:#181818;stroke-width:1.0;" x1="451.5" x2="895.5" y1="719.6003" y2="719.6003"/><text fill="#000000" font-family="sans-serif" font-size="13" lengthAdjust="spacing" textLength="121" x="611" y="713.7913">Slash bond for fraud</text><line style="stroke:#181818;stroke-width:1.0;" x1="896.5" x2="938.5" y1="751.3063" y2="751.3063"/><line style="stroke:#181818;stroke-width:1.0;" x1="938.5" x2="938.5" y1="751.3063" y2="764.3063"/><line style="stroke:#181818;stroke-width:1.0;" x1="897.5" x2="938.5" y1="764.3063" y2="764.3063"/><polygon fill="#181818" points="907.5,760.3063,897.5,764.3063,907.5,768.3063,903.5,764.3063" style="stroke:#181818;stroke-width:1.0;"/><text fill="#000000" font-family="sans-serif" font-size="13" lengthAdjust="spacing" textLength="200" x="903.5" y="745.4973">Fraudulent L2 Blocks are reverted</text><polygon fill="#181818" points="884.5,792.0123,894.5,796.0123,884.5,800.0123,888.5,796.0123" style="stroke:#181818;stroke-width:1.0;"/><line style="stroke:#181818;stroke-width:1.0;" x1="667.5" x2="890.5" y1="796.0123" y2="796.0123"/><text fill="#000000" font-family="sans-serif" font-size="13" lengthAdjust="spacing" textLength="205" x="679.5" y="790.2033">Reads the last unreverted L2 Block</text><polygon fill="#181818" points="884.5,823.7183,894.5,827.7183,884.5,831.7183,888.5,827.7183" style="stroke:#181818;stroke-width:1.0;"/><line style="stroke:#181818;stroke-width:1.0;" x1="446.5" x2="890.5" y1="827.7183" y2="827.7183"/><text fill="#000000" font-family="sans-serif" font-size="13" lengthAdjust="spacing" textLength="205" x="569" y="821.9093">Reads the last unreverted L2 Block</text><line style="stroke:#181818;stroke-width:1.0;" x1="667.5" x2="709.5" y1="859.4243" y2="859.4243"/><line style="stroke:#181818;stroke-width:1.0;" x1="709.5" x2="709.5" y1="859.4243" y2="872.4243"/><line style="stroke:#181818;stroke-width:1.0;" x1="668.5" x2="709.5" y1="872.4243" y2="872.4243"/><polygon fill="#181818" points="678.5,868.4243,668.5,872.4243,678.5,876.4243,674.5,872.4243" style="stroke:#181818;stroke-width:1.0;"/><text fill="#000000" font-family="sans-serif" font-size="13" lengthAdjust="spacing" textLength="207" x="674.5" y="853.6153">Resets the L2 chain to this L2 Block</text><line style="stroke:#181818;stroke-width:1.0;" x1="446.5" x2="488.5" y1="904.1304" y2="904.1304"/><line style="stroke:#181818;stroke-width:1.0;" x1="488.5" x2="488.5" y1="904.1304" y2="917.1304"/><line style="stroke:#181818;stroke-width:1.0;" x1="447.5" x2="488.5" y1="917.1304" y2="917.1304"/><polygon fill="#181818" points="457.5,913.1304,447.5,917.1304,457.5,921.1304,453.5,917.1304" style="stroke:#181818;stroke-width:1.0;"/><text fill="#000000" font-family="sans-serif" font-size="13" lengthAdjust="spacing" textLength="207" x="453.5" y="898.3214">Resets the L2 chain to this L2 Block</text><polygon fill="#181818" points="655.5,944.8364,665.5,948.8364,655.5,952.8364,659.5,948.8364" style="stroke:#181818;stroke-width:1.0;"/><line style="stroke:#181818;stroke-width:1.0;" x1="52.5" x2="661.5" y1="948.8364" y2="948.8364"/><text fill="#000000" font-family="sans-serif" font-size="13" lengthAdjust="spacing" textLength="161" x="279.5" y="943.0274">Reads that Tx was reverted</text><line style="stroke:#000000;stroke-width:1.0;stroke-dasharray:2.0,2.0;" x1="24" x2="1115.5" y1="957.8364" y2="957.8364"/><text fill="#000000" font-family="sans-serif" font-size="11" font-weight="bold" lengthAdjust="spacing" textLength="147" x="29" y="969.5953">[Challenge period expired]</text><polygon fill="#181818" points="678.5,993.5243,668.5,997.5243,678.5,1001.5243,674.5,997.5243" style="stroke:#181818;stroke-width:1.0;"/><line style="stroke:#181818;stroke-width:1.0;" x1="672.5" x2="895.5" y1="997.5243" y2="997.5243"/><text fill="#000000" font-family="sans-serif" font-size="13" lengthAdjust="spacing" textLength="87" x="738.5" y="991.7153">Finalize RBlock</text><path d="M25,1017.5243 L25,1062.5243 L922,1062.5243 L922,1027.5243 L912,1017.5243 L25,1017.5243 " fill="#FEFFDD" style="stroke:#181818;stroke-width:0.5;"/><path d="M912,1017.5243 L912,1027.5243 L922,1027.5243 L912,1017.5243 " fill="#FEFFDD" style="stroke:#181818;stroke-width:0.5;"/><text fill="#000000" font-family="sans-serif" font-size="13" font-weight="bold" lengthAdjust="spacing" textLength="82" x="408.75" y="1036.4213">Hard finality</text><text fill="#000000" font-family="sans-serif" font-size="13" lengthAdjust="spacing" textLength="121" x="408.75" y="1054.1273">- Tx is finalized on L1</text><!--SRC=[fLHDZzCm4BtdLups0aJq0CSUa7OhAf00eNRXj9UfFMcjTUnWEssNNyyutqa_jXAzf77clVbuR-oVbIdGOGwU_fHa17qdxt5Bzrfj3GWoWHma2OfW7Vpov18E3qge0as0TGCQdzxTYw3s1BzHAuaCl0FqK1zsPsD4TmnlVrWpgsFVLRWBYCzXHuxAl8ffNv8abWYpJtrbSrYNcrm5U7HeFFUXh4cwhp4qGkQmeb0wmmz1gWY9iO70xgbk-lsGBqtNDWkmL8Oh2ozf-cHcy7Y4Wz8QDWJA25rAalm731q3VFi83zgAvqaSxNcw9Mhz0bd5zPSnrd3uhO4Vad4dtQZcyE0iIe6-pmvxXNqRi2IIO_H4e5ivacG2FCkri5gJw9dyaq4Z8RCk1-InLuVdc5ffv_3JSYLr80GRkv-ArCUcwSAQJBcSPAkFZteGYbtV3HymekL4HrCX1XacfOsJhIa4JJdBL6Th69K7HrlbUOTQnUBNfSDIGk6ipK3iM5SoMsArZRG7y85TxfF45W4MEs8Mdb5qWsWRwZm-6E-AK7fk1aCCvRnzD9ce4UhGv9KKM8ZQdgjDDNRWtuMXDykJzILNqJVDvMkyFB2-2mO4F1DlTLajOkHwSutjVuXRm5b3hZNw7MniRSAQvWJLfwncLx9I0mjNZd6ydOx7UMs8hJe4EcvJQLfGnrMXhxh_HeuHUcGGJw76SpoxBdhVyZjxvRKYJcPtCzchJZsWxoT8sXDxlbs8Wfoo4kXOA4UdsWmubytMjdjNU_xYxP2cNz39PjS75pXNFxbV_m40]--></g></svg>