<?xml version="1.0" encoding="us-ascii" standalone="no"?><svg xmlns="http://www.w3.org/2000/svg" xmlns:xlink="http://www.w3.org/1999/xlink" contentStyleType="text/css" height="1550px" preserveAspectRatio="none" style="width:1254px;height:1550px;background:#FFFFFF;" version="1.1" viewBox="0 0 1254 1550" width="1254px" zoomAndPan="magnify"><defs/><g><rect fill="#D3D3D3" height="1538.9483" style="stroke:#181818;stroke-width:0.5;" width="839" x="290.5" y="6"/><text fill="#000000" font-family="sans-serif" font-size="13" font-weight="bold" lengthAdjust="spacing" textLength="50" x="683.5" y="19.897">Relayer</text><rect fill="#90EE90" height="190.924" style="stroke:#000000;stroke-width:1.5;" width="409.5" x="828" y="681.3742"/><rect fill="#FFB6C1" height="90.0999" style="stroke:none;stroke-width:1.0;" width="409.5" x="828" y="782.1983"/><rect fill="#90EE90" height="255.63" style="stroke:#000000;stroke-width:1.5;" width="575" x="560.5" y="935.7103"/><rect fill="#FFFFFF" height="61.6879" style="stroke:none;stroke-width:1.0;" width="575" x="560.5" y="1129.6524"/><line style="stroke:#181818;stroke-width:0.5;stroke-dasharray:5.0,5.0;" x1="160" x2="160" y1="80.8419" y2="1488.8125"/><line style="stroke:#181818;stroke-width:0.5;stroke-dasharray:5.0,5.0;" x1="347.5" x2="347.5" y1="80.8419" y2="1488.8125"/><line style="stroke:#181818;stroke-width:0.5;stroke-dasharray:5.0,5.0;" x1="506.5" x2="506.5" y1="80.8419" y2="1488.8125"/><line style="stroke:#181818;stroke-width:0.5;stroke-dasharray:5.0,5.0;" x1="624.5" x2="624.5" y1="80.8419" y2="1488.8125"/><line style="stroke:#181818;stroke-width:0.5;stroke-dasharray:5.0,5.0;" x1="892" x2="892" y1="80.8419" y2="1488.8125"/><line style="stroke:#181818;stroke-width:0.5;stroke-dasharray:5.0,5.0;" x1="1075.5" x2="1075.5" y1="80.8419" y2="1488.8125"/><line style="stroke:#181818;stroke-width:0.5;stroke-dasharray:5.0,5.0;" x1="1180.5" x2="1180.5" y1="80.8419" y2="1488.8125"/><rect fill="#E2E2F0" height="33.0679" rx="2.5" ry="2.5" style="stroke:#181818;stroke-width:0.5;" width="45" x="138" y="46.7739"/><text fill="#000000" font-family="sans-serif" font-size="14" lengthAdjust="spacing" textLength="31" x="145" y="68.7399">User</text><rect fill="#E2E2F0" height="33.0679" rx="2.5" ry="2.5" style="stroke:#181818;stroke-width:0.5;" width="45" x="138" y="1487.8125"/><text fill="#000000" font-family="sans-serif" font-size="14" lengthAdjust="spacing" textLength="31" x="145" y="1509.7784">User</text><rect fill="#E2E2F0" height="33.0679" rx="2.5" ry="2.5" style="stroke:#181818;stroke-width:0.5;" width="106" x="294.5" y="46.7739"/><text fill="#000000" font-family="sans-serif" font-size="14" lengthAdjust="spacing" textLength="92" x="301.5" y="68.7399">HTTP Listener</text><rect fill="#E2E2F0" height="33.0679" rx="2.5" ry="2.5" style="stroke:#181818;stroke-width:0.5;" width="106" x="294.5" y="1487.8125"/><text fill="#000000" font-family="sans-serif" font-size="14" lengthAdjust="spacing" textLength="92" x="301.5" y="1509.7784">HTTP Listener</text><rect fill="#E2E2F0" height="52.1358" rx="2.5" ry="2.5" style="stroke:#181818;stroke-width:0.5;" width="108" x="452.5" y="27.706"/><text fill="#000000" font-family="sans-serif" font-size="14" lengthAdjust="spacing" textLength="94" x="459.5" y="49.672">Input handler</text><text fill="#000000" font-family="sans-serif" font-size="14" lengthAdjust="spacing" textLength="57" x="478" y="68.7399">User API</text><rect fill="#E2E2F0" height="52.1358" rx="2.5" ry="2.5" style="stroke:#181818;stroke-width:0.5;" width="108" x="452.5" y="1487.8125"/><text fill="#000000" font-family="sans-serif" font-size="14" lengthAdjust="spacing" textLength="94" x="459.5" y="1509.7784">Input handler</text><text fill="#000000" font-family="sans-serif" font-size="14" lengthAdjust="spacing" textLength="57" x="478" y="1528.8463">User API</text><rect fill="#E2E2F0" height="52.1358" rx="2.5" ry="2.5" style="stroke:#181818;stroke-width:0.5;" width="108" x="570.5" y="27.706"/><text fill="#000000" font-family="sans-serif" font-size="14" lengthAdjust="spacing" textLength="94" x="577.5" y="49.672">Input handler</text><text fill="#000000" font-family="sans-serif" font-size="14" lengthAdjust="spacing" textLength="57" x="596" y="68.7399">Gateway</text><rect fill="#E2E2F0" height="52.1358" rx="2.5" ry="2.5" style="stroke:#181818;stroke-width:0.5;" width="108" x="570.5" y="1487.8125"/><text fill="#000000" font-family="sans-serif" font-size="14" lengthAdjust="spacing" textLength="94" x="577.5" y="1509.7784">Input handler</text><text fill="#000000" font-family="sans-serif" font-size="14" lengthAdjust="spacing" textLength="57" x="596" y="1528.8463">Gateway</text><rect fill="#E2E2F0" height="52.1358" rx="2.5" ry="2.5" style="stroke:#181818;stroke-width:0.5;" width="109" x="838" y="27.706"/><text fill="#000000" font-family="sans-serif" font-size="14" lengthAdjust="spacing" textLength="76" x="854.5" y="49.672">Gateway L2</text><text fill="#000000" font-family="sans-serif" font-size="14" lengthAdjust="spacing" textLength="95" x="845" y="68.7399">Event Listener</text><rect fill="#E2E2F0" height="52.1358" rx="2.5" ry="2.5" style="stroke:#181818;stroke-width:0.5;" width="109" x="838" y="1487.8125"/><text fill="#000000" font-family="sans-serif" font-size="14" lengthAdjust="spacing" textLength="76" x="854.5" y="1509.7784">Gateway L2</text><text fill="#000000" font-family="sans-serif" font-size="14" lengthAdjust="spacing" textLength="95" x="845" y="1528.8463">Event Listener</text><rect fill="#E2E2F0" height="33.0679" rx="2.5" ry="2.5" style="stroke:#181818;stroke-width:0.5;" width="100" x="1025.5" y="46.7739"/><text fill="#000000" font-family="sans-serif" font-size="14" lengthAdjust="spacing" textLength="86" x="1032.5" y="68.7399">Orchestrator</text><rect fill="#E2E2F0" height="33.0679" rx="2.5" ry="2.5" style="stroke:#181818;stroke-width:0.5;" width="100" x="1025.5" y="1487.8125"/><text fill="#000000" font-family="sans-serif" font-size="14" lengthAdjust="spacing" textLength="86" x="1032.5" y="1509.7784">Orchestrator</text><rect fill="#E2E2F0" height="33.0679" rx="2.5" ry="2.5" style="stroke:#181818;stroke-width:0.5;" width="90" x="1135.5" y="46.7739"/><text fill="#000000" font-family="sans-serif" font-size="14" lengthAdjust="spacing" textLength="76" x="1142.5" y="68.7399">Gateway L2</text><rect fill="#E2E2F0" height="33.0679" rx="2.5" ry="2.5" style="stroke:#181818;stroke-width:0.5;" width="90" x="1135.5" y="1487.8125"/><text fill="#000000" font-family="sans-serif" font-size="14" lengthAdjust="spacing" textLength="76" x="1142.5" y="1509.7784">Gateway L2</text><polygon fill="#181818" points="335.5,128.2539,345.5,132.2539,335.5,136.2539,339.5,132.2539" style="stroke:#181818;stroke-width:1.0;"/><line style="stroke:#181818;stroke-width:1.0;" x1="160.5" x2="341.5" y1="132.2539" y2="132.2539"/><text fill="#000000" font-family="sans-serif" font-size="13" lengthAdjust="spacing" textLength="163" x="167.5" y="108.7389">Send HTTP Post Request to</text><text fill="#000000" font-family="sans-serif" font-size="13" lengthAdjust="spacing" textLength="148" x="167.5" y="126.4449">"/input-proofs" endpoint</text><line style="stroke:#181818;stroke-width:1.0;" x1="347.5" x2="389.5" y1="181.6659" y2="181.6659"/><line style="stroke:#181818;stroke-width:1.0;" x1="389.5" x2="389.5" y1="181.6659" y2="194.6659"/><line style="stroke:#181818;stroke-width:1.0;" x1="348.5" x2="389.5" y1="194.6659" y2="194.6659"/><polygon fill="#181818" points="358.5,190.6659,348.5,194.6659,358.5,198.6659,354.5,194.6659" style="stroke:#181818;stroke-width:1.0;"/><text fill="#000000" font-family="sans-serif" font-size="13" lengthAdjust="spacing" textLength="55" x="354.5" y="158.1509">Generate</text><text fill="#000000" font-family="sans-serif" font-size="13" lengthAdjust="spacing" textLength="145" x="354.5" y="175.8569">Orchestrator Request ID</text><polygon fill="#181818" points="1063.5,240.0779,1073.5,244.0779,1063.5,248.0779,1067.5,244.0779" style="stroke:#181818;stroke-width:1.0;"/><line style="stroke:#181818;stroke-width:1.0;" x1="347.5" x2="1069.5" y1="244.0779" y2="244.0779"/><text fill="#000000" font-family="sans-serif" font-size="13" lengthAdjust="spacing" textLength="327" x="354.5" y="220.5629">Register once handlers for the Orchestrator Request ID</text><text fill="#000000" font-family="sans-serif" font-size="13" lengthAdjust="spacing" textLength="299" x="354.5" y="238.2689">and for events Input:ResultFromGwL2, Input:Error</text><polygon fill="#181818" points="1063.5,289.49,1073.5,293.49,1063.5,297.49,1067.5,293.49" style="stroke:#181818;stroke-width:1.0;"/><line style="stroke:#181818;stroke-width:1.0;" x1="347.5" x2="1069.5" y1="293.49" y2="293.49"/><text fill="#000000" font-family="sans-serif" font-size="13" lengthAdjust="spacing" textLength="52" x="354.5" y="269.975">Dispatch</text><text fill="#000000" font-family="sans-serif" font-size="13" lengthAdjust="spacing" textLength="214" x="354.5" y="287.681">Input:HTTPRequestFromUser event</text><polygon fill="#181818" points="517.5,338.902,507.5,342.902,517.5,346.902,513.5,342.902" style="stroke:#181818;stroke-width:1.0;"/><line style="stroke:#181818;stroke-width:1.0;" x1="511.5" x2="1074.5" y1="342.902" y2="342.902"/><text fill="#000000" font-family="sans-serif" font-size="13" lengthAdjust="spacing" textLength="43" x="523.5" y="319.387">Handle</text><text fill="#000000" font-family="sans-serif" font-size="13" lengthAdjust="spacing" textLength="214" x="523.5" y="337.093">Input:HTTPRequestFromUser event</text><polygon fill="#181818" points="1063.5,388.314,1073.5,392.314,1063.5,396.314,1067.5,392.314" style="stroke:#181818;stroke-width:1.0;"/><line style="stroke:#181818;stroke-width:1.0;" x1="506.5" x2="1069.5" y1="392.314" y2="392.314"/><text fill="#000000" font-family="sans-serif" font-size="13" lengthAdjust="spacing" textLength="52" x="513.5" y="368.799">Dispatch</text><text fill="#000000" font-family="sans-serif" font-size="13" lengthAdjust="spacing" textLength="182" x="513.5" y="386.505">Input:RequestFromUser event</text><polygon fill="#181818" points="635.5,437.7261,625.5,441.7261,635.5,445.7261,631.5,441.7261" style="stroke:#181818;stroke-width:1.0;"/><line style="stroke:#181818;stroke-width:1.0;" x1="629.5" x2="1074.5" y1="441.7261" y2="441.7261"/><text fill="#000000" font-family="sans-serif" font-size="13" lengthAdjust="spacing" textLength="43" x="641.5" y="418.2111">Handle</text><text fill="#000000" font-family="sans-serif" font-size="13" lengthAdjust="spacing" textLength="182" x="641.5" y="435.9171">Input:RequestFromUser event</text><polygon fill="#181818" points="1168.5,487.1381,1178.5,491.1381,1168.5,495.1381,1172.5,491.1381" style="stroke:#181818;stroke-width:1.0;"/><line style="stroke:#181818;stroke-width:1.0;" x1="624.5" x2="1174.5" y1="491.1381" y2="491.1381"/><text fill="#000000" font-family="sans-serif" font-size="13" lengthAdjust="spacing" textLength="246" x="631.5" y="467.6231">Send "VerifyProofRequest" transaction to</text><text fill="#000000" font-family="sans-serif" font-size="13" lengthAdjust="spacing" textLength="148" x="631.5" y="485.3291">ZkPoK Manager contract</text><polygon fill="#181818" points="635.5,536.5501,625.5,540.5501,635.5,544.5501,631.5,540.5501" style="stroke:#181818;stroke-width:1.0;"/><line style="stroke:#181818;stroke-width:1.0;" x1="629.5" x2="1179.5" y1="540.5501" y2="540.5501"/><text fill="#000000" font-family="sans-serif" font-size="13" lengthAdjust="spacing" textLength="162" x="641.5" y="517.0351">Receive Transaction receipt</text><text fill="#000000" font-family="sans-serif" font-size="13" lengthAdjust="spacing" textLength="133" x="641.5" y="534.7411">containing ZkProof ID.</text><line style="stroke:#181818;stroke-width:1.0;" x1="624.5" x2="666.5" y1="589.9622" y2="589.9622"/><line style="stroke:#181818;stroke-width:1.0;" x1="666.5" x2="666.5" y1="589.9622" y2="602.9622"/><line style="stroke:#181818;stroke-width:1.0;" x1="625.5" x2="666.5" y1="602.9622" y2="602.9622"/><polygon fill="#181818" points="635.5,598.9622,625.5,602.9622,635.5,606.9622,631.5,602.9622" style="stroke:#181818;stroke-width:1.0;"/><text fill="#000000" font-family="sans-serif" font-size="13" lengthAdjust="spacing" textLength="254" x="631.5" y="566.4472">Store (ZkProof ID,Orchestrator Request ID)</text><text fill="#000000" font-family="sans-serif" font-size="13" lengthAdjust="spacing" textLength="150" x="631.5" y="584.1532">mapping in context data.</text><rect fill="#EEEEEE" height="3" style="stroke:#EEEEEE;stroke-width:1.0;" width="1247.5" x="0" y="641.6682"/><line style="stroke:#000000;stroke-width:1.0;" x1="0" x2="1247.5" y1="641.6682" y2="641.6682"/><line style="stroke:#000000;stroke-width:1.0;" x1="0" x2="1247.5" y1="644.6682" y2="644.6682"/><rect fill="#EEEEEE" height="43.412" style="stroke:#000000;stroke-width:2.0;" width="595" x="326.25" y="620.9622"/><text fill="#000000" font-family="sans-serif" font-size="13" font-weight="bold" lengthAdjust="spacing" textLength="581" x="332.25" y="638.8592">Wait until request is picked up by "k" coprocessors (threshold defined in ZkPoK Manager),</text><text fill="#000000" font-family="sans-serif" font-size="13" font-weight="bold" lengthAdjust="spacing" textLength="233" x="332.25" y="656.5652">processed and result is posted back.</text><path d="M828,681.3742 L895,681.3742 L895,691.0802 L885,701.0802 L828,701.0802 L828,681.3742 " fill="#EEEEEE" style="stroke:#000000;stroke-width:1.5;"/><rect fill="none" height="190.924" style="stroke:#000000;stroke-width:1.5;" width="409.5" x="828" y="681.3742"/><text fill="#000000" font-family="sans-serif" font-size="13" font-weight="bold" lengthAdjust="spacing" textLength="22" x="843" y="696.2712">opt</text><polygon fill="#181818" points="903.5,720.7862,893.5,724.7862,903.5,728.7862,899.5,724.7862" style="stroke:#181818;stroke-width:1.0;"/><line style="stroke:#181818;stroke-width:1.0;" x1="897.5" x2="1179.5" y1="724.7862" y2="724.7862"/><text fill="#000000" font-family="sans-serif" font-size="13" lengthAdjust="spacing" textLength="127" x="909.5" y="718.9772">Send Result (Success)</text><polygon fill="#181818" points="1063.5,770.1983,1073.5,774.1983,1063.5,778.1983,1067.5,774.1983" style="stroke:#181818;stroke-width:1.0;"/><line style="stroke:#181818;stroke-width:1.0;" x1="892.5" x2="1069.5" y1="774.1983" y2="774.1983"/><text fill="#000000" font-family="sans-serif" font-size="13" lengthAdjust="spacing" textLength="52" x="899.5" y="750.6833">Dispatch</text><text fill="#000000" font-family="sans-serif" font-size="13" lengthAdjust="spacing" textLength="159" x="899.5" y="768.3893">EventLogFromGwL2 event</text><line style="stroke:#000000;stroke-width:1.0;stroke-dasharray:2.0,2.0;" x1="828" x2="1237.5" y1="783.1983" y2="783.1983"/><text fill="#000000" font-family="sans-serif" font-size="11" font-weight="bold" lengthAdjust="spacing" textLength="225" x="833" y="794.9572">[Result not availble within HTTP timeout]</text><path d="M845,804.1802 L845,867.1802 L1227,867.1802 L1227,814.1802 L1217,804.1802 L845,804.1802 " fill="#FEFFDD" style="stroke:#181818;stroke-width:0.5;"/><path d="M1217,804.1802 L1217,814.1802 L1227,814.1802 L1217,804.1802 " fill="#FEFFDD" style="stroke:#181818;stroke-width:0.5;"/><text fill="#000000" font-family="sans-serif" font-size="13" lengthAdjust="spacing" textLength="243" x="906.75" y="823.0772">Yet to define how this should be handled</text><text fill="#000000" font-family="sans-serif" font-size="13" lengthAdjust="spacing" textLength="250" x="906.75" y="840.7832">Maybe do nothing and HTTP server sends</text><text fill="#000000" font-family="sans-serif" font-size="13" lengthAdjust="spacing" textLength="150" x="906.75" y="858.4892">"timed out" error to user.</text><polygon fill="#181818" points="635.5,916.7103,625.5,920.7103,635.5,924.7103,631.5,920.7103" style="stroke:#181818;stroke-width:1.0;"/><line style="stroke:#181818;stroke-width:1.0;" x1="629.5" x2="1074.5" y1="920.7103" y2="920.7103"/><text fill="#000000" font-family="sans-serif" font-size="13" lengthAdjust="spacing" textLength="43" x="641.5" y="897.1952">Handle</text><text fill="#000000" font-family="sans-serif" font-size="13" lengthAdjust="spacing" textLength="159" x="641.5" y="914.9012">EventLogFromGwL2 event</text><path d="M560.5,935.7103 L627.5,935.7103 L627.5,945.4163 L617.5,955.4163 L560.5,955.4163 L560.5,935.7103 " fill="#EEEEEE" style="stroke:#000000;stroke-width:1.5;"/><rect fill="none" height="255.63" style="stroke:#000000;stroke-width:1.5;" width="575" x="560.5" y="935.7103"/><text fill="#000000" font-family="sans-serif" font-size="13" font-weight="bold" lengthAdjust="spacing" textLength="22" x="575.5" y="950.6073">opt</text><text fill="#000000" font-family="sans-serif" font-size="11" font-weight="bold" lengthAdjust="spacing" textLength="238" x="642.5" y="949.4692">[topic matches VerifyProofResponse Event]</text><line style="stroke:#181818;stroke-width:1.0;" x1="624.5" x2="666.5" y1="979.1223" y2="979.1223"/><line style="stroke:#181818;stroke-width:1.0;" x1="666.5" x2="666.5" y1="979.1223" y2="992.1223"/><line style="stroke:#181818;stroke-width:1.0;" x1="625.5" x2="666.5" y1="992.1223" y2="992.1223"/><polygon fill="#181818" points="635.5,988.1223,625.5,992.1223,635.5,996.1223,631.5,992.1223" style="stroke:#181818;stroke-width:1.0;"/><text fill="#000000" font-family="sans-serif" font-size="13" lengthAdjust="spacing" textLength="112" x="631.5" y="973.3133">Decode event data</text><line style="stroke:#181818;stroke-width:1.0;" x1="624.5" x2="666.5" y1="1059.2403" y2="1059.2403"/><line style="stroke:#181818;stroke-width:1.0;" x1="666.5" x2="666.5" y1="1059.2403" y2="1072.2403"/><line style="stroke:#181818;stroke-width:1.0;" x1="625.5" x2="666.5" y1="1072.2403" y2="1072.2403"/><polygon fill="#181818" points="635.5,1068.2403,625.5,1072.2403,635.5,1076.2403,631.5,1072.2403" style="stroke:#181818;stroke-width:1.0;"/><text fill="#000000" font-family="sans-serif" font-size="13" lengthAdjust="spacing" textLength="157" x="631.5" y="1018.0193">Retreive the request ID for</text><text fill="#000000" font-family="sans-serif" font-size="13" lengthAdjust="spacing" textLength="137" x="631.5" y="1035.7253">ZkProofID in Event Log</text><text fill="#000000" font-family="sans-serif" font-size="13" lengthAdjust="spacing" textLength="108" x="631.5" y="1053.4313">from context data</text><polygon fill="#181818" points="1063.5,1117.6524,1073.5,1121.6524,1063.5,1125.6524,1067.5,1121.6524" style="stroke:#181818;stroke-width:1.0;"/><line style="stroke:#181818;stroke-width:1.0;" x1="624.5" x2="1069.5" y1="1121.6524" y2="1121.6524"/><text fill="#000000" font-family="sans-serif" font-size="13" lengthAdjust="spacing" textLength="52" x="631.5" y="1098.1373">Dispatch</text><text fill="#000000" font-family="sans-serif" font-size="13" lengthAdjust="spacing" textLength="138" x="631.5" y="1115.8434">Input:ResultFromGwL2</text><line style="stroke:#000000;stroke-width:1.0;stroke-dasharray:2.0,2.0;" x1="560.5" x2="1135.5" y1="1130.6524" y2="1130.6524"/><text fill="#000000" font-family="sans-serif" font-size="11" font-weight="bold" lengthAdjust="spacing" textLength="126" x="565.5" y="1142.4113">[topic does not match]</text><line style="stroke:#181818;stroke-width:1.0;" x1="624.5" x2="666.5" y1="1170.3403" y2="1170.3403"/><line style="stroke:#181818;stroke-width:1.0;" x1="666.5" x2="666.5" y1="1170.3403" y2="1183.3403"/><line style="stroke:#181818;stroke-width:1.0;" x1="625.5" x2="666.5" y1="1183.3403" y2="1183.3403"/><polygon fill="#181818" points="635.5,1179.3403,625.5,1183.3403,635.5,1187.3403,631.5,1183.3403" style="stroke:#181818;stroke-width:1.0;"/><text fill="#000000" font-family="sans-serif" font-size="13" lengthAdjust="spacing" textLength="122" x="631.5" y="1164.5313">Ignore the event log</text><polygon fill="#181818" points="517.5,1235.7523,507.5,1239.7523,517.5,1243.7523,513.5,1239.7523" style="stroke:#181818;stroke-width:1.0;"/><line style="stroke:#181818;stroke-width:1.0;" x1="511.5" x2="1074.5" y1="1239.7523" y2="1239.7523"/><text fill="#000000" font-family="sans-serif" font-size="13" lengthAdjust="spacing" textLength="184" x="523.5" y="1216.2373">Handle Input:ResultFromGwL2</text><text fill="#000000" font-family="sans-serif" font-size="13" lengthAdjust="spacing" textLength="154" x="523.5" y="1233.9433">for the specific Request ID</text><polygon fill="#181818" points="171.5,1285.1643,161.5,1289.1643,171.5,1293.1643,167.5,1289.1643" style="stroke:#181818;stroke-width:1.0;"/><line style="stroke:#181818;stroke-width:1.0;" x1="165.5" x2="505.5" y1="1289.1643" y2="1289.1643"/><text fill="#000000" font-family="sans-serif" font-size="13" lengthAdjust="spacing" textLength="183" x="177.5" y="1265.6493">Send ZkPoK ID and Attestation</text><text fill="#000000" font-family="sans-serif" font-size="13" lengthAdjust="spacing" textLength="137" x="177.5" y="1283.3553">in HTTP Post Response</text><path d="M5,1302.1643 L5,1382.1643 L317,1382.1643 L317,1312.1643 L307,1302.1643 L5,1302.1643 " fill="#FEFFDD" style="stroke:#181818;stroke-width:0.5;"/><path d="M307,1302.1643 L307,1312.1643 L317,1312.1643 L307,1302.1643 " fill="#FEFFDD" style="stroke:#181818;stroke-width:0.5;"/><text fill="#000000" font-family="sans-serif" font-size="13" lengthAdjust="spacing" textLength="256" x="11" y="1321.0614">If the user wants to retreive the attestation</text><text fill="#000000" font-family="sans-serif" font-size="13" lengthAdjust="spacing" textLength="274" x="11" y="1338.7674">for same ZkPoK at later time, they would need</text><text fill="#000000" font-family="sans-serif" font-size="13" lengthAdjust="spacing" textLength="291" x="11" y="1356.4734">the ZkPoK ID. As ZkPoK ID is not deterministically</text><text fill="#000000" font-family="sans-serif" font-size="13" lengthAdjust="spacing" textLength="173" x="11" y="1374.1794">derived from the ZkPok data.</text><path d="M350,1392.9884 L350,1472.9884 L662,1472.9884 L662,1402.9884 L652,1392.9884 L350,1392.9884 " fill="#FEFFDD" style="stroke:#181818;stroke-width:0.5;"/><path d="M652,1392.9884 L652,1402.9884 L662,1402.9884 L652,1392.9884 " fill="#FEFFDD" style="stroke:#181818;stroke-width:0.5;"/><text fill="#000000" font-family="sans-serif" font-size="13" lengthAdjust="spacing" textLength="103" x="356" y="1411.8854">Potential feature:</text><text fill="#000000" font-family="sans-serif" font-size="13" lengthAdjust="spacing" textLength="291" x="356" y="1429.5914">Maybe the relayer could derive a deterministic ID</text><text fill="#000000" font-family="sans-serif" font-size="13" lengthAdjust="spacing" textLength="280" x="356" y="1447.2974">from ZkPoK, map to ZkPoK ID from Gateway L2</text><text fill="#000000" font-family="sans-serif" font-size="13" lengthAdjust="spacing" textLength="154" x="356" y="1465.0035">and provide a cache layer.</text><!--SRC=[bLPDR-Cs4BthLmoqbmHmN217eoaG8BjPerxKID8kMWWeQ6bi4PP9bgJizR_l34dPqgwLR4w9oVbuV7ppA2EibwKqGdduqw45uI3dV_8iM-bly8IDEDBoXuNSrFxHYcDcUYcVNrwM2-aygfJA2z2jv8FOkJAj_onKrQ3zbrlS6nbomWRKSQTG0SRzSlvAzgFmU137IzbfQvYS5XUt7_Ue_01mLsfnMwYmUqOFWnf_sB96vwtmEcRs5_8CLGL4M7QvxtUjYDmi7FFcjm65CtZcEe74fNQUwF-lfHxWTQ7oNoGVzSPOhTSk1ueqMYgV3IxXXugF_8Sw5sfmWgxo_E67_7xSZ08tl6T1gn8xdXsigOQl4KQA5ee2Gn0ogIxUt-m9NTluJrRl7W-BsqbQ_MYjjc_0U93E25_MXOev79tQSRd0PcYL3H1HdKkwcyNVRnUxADetmLskzJgof8uP3A7z1AnELrJn9BYafFmlj79zNB9aKgKS281oelHIgo2iVxPB_Jjy4Kfig46f5GMK8pr-lUdtUC8IvHxXfLVHyfhnXU92GYgfDa0T607fOZeA_J8PpqGLmjMvm6H4SDU5sWbZk9jKuH3upKCbl9XcsTqTV1NIGwkyR0XXJ98EZ2otM45hO7M4V9jJ8erNYSvfqlYLhoswMZSLLBYMYYAfze2kwqcXKWRjikPja7WeJXDCYojHRgTmTqSphuq_EIcYoix-qB-xWKcbYuo30rVFRSczhhCHItj5cZ5GRxhfIrB2nc42jPHgstLIseFO2zci6eI3z3MTFFYIbplKhSye047lgUS9ocJq37yZUrXY4Mfz8EyWXeZRbiXTTRvI5UgBEDBFIZE0cczJT8P8wkTkZkXmv8QCem92Gax8_i7rMugXwwQ8xBtJDiBEzrT6NKWpi6DAqS5Wl9pHYhYChyWxTVw0fQumDWsgVM-19_Gsp2ARiZsD1Ljmc726I3_f5jChfpU5MjDX1xCoslGjl-lRUfBKrrgIGY9VbIQoM5A1k7SURRvHR09yiCXFepVnZd_AwjCLNto1Y8BqZZc3fLmJrDx3E6R-_6-QosW6H2pBzDvxoXHiWuNgvYMzur4SMMziOfNvEhHdvS91y4j9EhRzonJzgWpNYHscneB84FmuypHCEFm8Xp1J2dcQEB-3E8LxTyOhutrKIDaxScb77osYQOw5gaZJUngj88wkmBQpqZF-osGlQPzSLZImHk5RYxDkfgCmu-Ta6J36JY26ACBNGsWUm4v8CuP9EK4FU_tlDkQUJ7WlAovM2X85X3xJx7y0]--></g></svg>