<?xml version="1.0" encoding="us-ascii" standalone="no"?><svg xmlns="http://www.w3.org/2000/svg" xmlns:xlink="http://www.w3.org/1999/xlink" contentStyleType="text/css" height="1368px" preserveAspectRatio="none" style="width:558px;height:1368px;background:#FFFFFF;" version="1.1" viewBox="0 0 558 1368" width="558px" zoomAndPan="magnify"><defs/><g><ellipse cx="189.5" cy="16" fill="#222222" rx="10" ry="10" style="stroke:#222222;stroke-width:1.0;"/><g id="Received"><rect fill="#F1F1F1" height="50" rx="12.5" ry="12.5" style="stroke:#181818;stroke-width:0.5;" width="80" x="149.5" y="87"/><line style="stroke:#181818;stroke-width:0.5;" x1="149.5" x2="229.5" y1="116.0679" y2="116.0679"/><text fill="#000000" font-family="sans-serif" font-size="14" lengthAdjust="spacing" textLength="60" x="159.5" y="106.9659">Received</text></g><g id="elem_has_permission"><polygon fill="#F1F1F1" points="189.5,216,201.5,228,189.5,240,177.5,228,189.5,216" style="stroke:#181818;stroke-width:0.5;"/></g><g id="InsufficientPermission"><rect fill="#F1F1F1" height="50" rx="12.5" ry="12.5" style="stroke:#181818;stroke-width:0.5;" width="171" x="7" y="319"/><line style="stroke:#181818;stroke-width:0.5;" x1="7" x2="178" y1="348.0679" y2="348.0679"/><text fill="#000000" font-family="sans-serif" font-size="14" lengthAdjust="spacing" textLength="151" x="17" y="338.9659">InsufficientPermission</text></g><g id="PermissionVerified"><rect fill="#F1F1F1" height="50" rx="12.5" ry="12.5" style="stroke:#181818;stroke-width:0.5;" width="146" x="213.5" y="319"/><line style="stroke:#181818;stroke-width:0.5;" x1="213.5" x2="359.5" y1="348.0679" y2="348.0679"/><text fill="#000000" font-family="sans-serif" font-size="14" lengthAdjust="spacing" textLength="126" x="223.5" y="338.9659">PermissionVerified</text></g><g id="SendingToKMS"><rect fill="#F1F1F1" height="50" rx="12.5" ry="12.5" style="stroke:#181818;stroke-width:0.5;" width="122" x="225.5" y="448"/><line style="stroke:#181818;stroke-width:0.5;" x1="225.5" x2="347.5" y1="477.0679" y2="477.0679"/><text fill="#000000" font-family="sans-serif" font-size="14" lengthAdjust="spacing" textLength="102" x="235.5" y="467.9659">SendingToKMS</text></g><g id="elem_send_to_kms"><polygon fill="#F1F1F1" points="286.5,577,298.5,589,286.5,601,274.5,589,286.5,577" style="stroke:#181818;stroke-width:0.5;"/></g><g id="SentToKMS"><rect fill="#F1F1F1" height="50" rx="12.5" ry="12.5" style="stroke:#181818;stroke-width:0.5;" width="96" x="238.5" y="795"/><line style="stroke:#181818;stroke-width:0.5;" x1="238.5" x2="334.5" y1="824.0679" y2="824.0679"/><text fill="#000000" font-family="sans-serif" font-size="14" lengthAdjust="spacing" textLength="76" x="248.5" y="814.9659">SentToKMS</text></g><g id="elem_wait"><polygon fill="#F1F1F1" points="286.5,906,298.5,918,286.5,930,274.5,918,286.5,906" style="stroke:#181818;stroke-width:0.5;"/></g><g id="KMSResponseReceived"><rect fill="#F1F1F1" height="50" rx="12.5" ry="12.5" style="stroke:#181818;stroke-width:0.5;" width="175" x="199" y="1027"/><line style="stroke:#181818;stroke-width:0.5;" x1="199" x2="374" y1="1056.0679" y2="1056.0679"/><text fill="#000000" font-family="sans-serif" font-size="14" lengthAdjust="spacing" textLength="155" x="209" y="1046.9659">KMSResponseReceived</text></g><g id="elem_sent_response"><polygon fill="#F1F1F1" points="286.5,1156,298.5,1168,286.5,1180,274.5,1168,286.5,1156" style="stroke:#181818;stroke-width:0.5;"/></g><g id="SentResponse"><rect fill="#F1F1F1" height="50" rx="12.5" ry="12.5" style="stroke:#181818;stroke-width:0.5;" width="115" x="148" y="1312"/><line style="stroke:#181818;stroke-width:0.5;" x1="148" x2="263" y1="1341.0679" y2="1341.0679"/><text fill="#000000" font-family="sans-serif" font-size="14" lengthAdjust="spacing" textLength="95" x="158" y="1331.9659">SentResponse</text></g><g id="SendingResponse"><rect fill="#F1F1F1" height="50" rx="12.5" ry="12.5" style="stroke:#181818;stroke-width:0.5;" width="141" x="298" y="1312"/><line style="stroke:#181818;stroke-width:0.5;" x1="298" x2="439" y1="1341.0679" y2="1341.0679"/><text fill="#000000" font-family="sans-serif" font-size="14" lengthAdjust="spacing" textLength="121" x="308" y="1331.9659">SendingResponse</text></g><!--link *start* to Received--><g id="link_*start*_Received"><path d="M189.5,26.01 C189.5,39.89 189.5,60.97 189.5,80.84 " fill="none" id="*start*-to-Received" style="stroke:#181818;stroke-width:1.0;"/><polygon fill="#181818" points="189.5,86.84,193.5,77.84,189.5,81.84,185.5,77.84,189.5,86.84" style="stroke:#181818;stroke-width:1.0;"/></g><!--link Received to has_permission--><g id="link_Received_has_permission"><path d="M189.5,137.18 C189.5,161.49 189.5,191.89 189.5,209.98 " fill="none" id="Received-to-has_permission" style="stroke:#181818;stroke-width:1.0;"/><polygon fill="#181818" points="189.5,215.98,193.5,206.98,189.5,210.98,185.5,206.98,189.5,215.98" style="stroke:#181818;stroke-width:1.0;"/><text fill="#000000" font-family="sans-serif" font-size="13" lengthAdjust="spacing" textLength="195" x="190.5" y="181.897">Host_Blockchain:has_permission</text></g><!--link has_permission to InsufficientPermission--><g id="link_has_permission_InsufficientPermission"><path d="M184.28,235.13 C171.14,250.58 139.9786,287.2006 117.1886,313.9806 " fill="none" id="has_permission-to-InsufficientPermission" style="stroke:#181818;stroke-width:1.0;"/><polygon fill="#181818" points="113.3,318.55,122.1791,314.2883,116.5405,314.7422,116.0866,309.1036,113.3,318.55" style="stroke:#181818;stroke-width:1.0;"/><text fill="#000000" font-family="sans-serif" font-size="13" lengthAdjust="spacing" textLength="16" x="154.5" y="284.897">no</text></g><!--link has_permission to PermissionVerified--><g id="link_has_permission_PermissionVerified"><path d="M194.72,235.13 C207.86,250.58 239.0214,287.2006 261.8114,313.9806 " fill="none" id="has_permission-to-PermissionVerified" style="stroke:#181818;stroke-width:1.0;"/><polygon fill="#181818" points="265.7,318.55,262.9134,309.1036,262.4595,314.7422,256.8209,314.2883,265.7,318.55" style="stroke:#181818;stroke-width:1.0;"/><text fill="#000000" font-family="sans-serif" font-size="13" lengthAdjust="spacing" textLength="20" x="239.5" y="284.897">yes</text></g><!--link InsufficientPermission to PermissionVerified--><!--link PermissionVerified to SendingToKMS--><g id="link_PermissionVerified_SendingToKMS"><path d="M286.5,369.19 C286.5,391.78 286.5,419.33 286.5,441.9 " fill="none" id="PermissionVerified-to-SendingToKMS" style="stroke:#181818;stroke-width:1.0;"/><polygon fill="#181818" points="286.5,447.9,290.5,438.9,286.5,442.9,282.5,438.9,286.5,447.9" style="stroke:#181818;stroke-width:1.0;"/><text fill="#000000" font-family="sans-serif" font-size="13" lengthAdjust="spacing" textLength="130" x="287.5" y="413.897">prepare_kms_request</text></g><!--link SendingToKMS to send_to_kms--><g id="link_SendingToKMS_send_to_kms"><path d="M286.5,498.18 C286.5,522.49 286.5,552.89 286.5,570.98 " fill="none" id="SendingToKMS-to-send_to_kms" style="stroke:#181818;stroke-width:1.0;"/><polygon fill="#181818" points="286.5,576.98,290.5,567.98,286.5,571.98,282.5,567.98,286.5,576.98" style="stroke:#181818;stroke-width:1.0;"/><text fill="#000000" font-family="sans-serif" font-size="13" lengthAdjust="spacing" textLength="169" x="287.5" y="542.897">KMS:check_if_request_exists</text></g><!--link send_to_kms to SentToKMS--><g id="link_send_to_kms_SentToKMS"><path d="M280.67,595.67 C269.49,607 245.32,633.83 236.5,662 C226.94,692.54 228.09,703.12 236.5,734 C242.57,756.3 252.6843,773.8221 264.1543,790.0321 " fill="none" id="send_to_kms-to-SentToKMS" style="stroke:#181818;stroke-width:1.0;"/><polygon fill="#181818" points="267.62,794.93,265.6867,785.2727,264.7319,790.8484,259.1562,789.8936,267.62,794.93" style="stroke:#181818;stroke-width:1.0;"/><text fill="#000000" font-family="sans-serif" font-size="13" lengthAdjust="spacing" textLength="20" x="269" y="676.897">yes</text><text fill="#000000" font-family="sans-serif" font-size="13" lengthAdjust="spacing" textLength="67" x="245.5" y="694.603">do nothing</text><text fill="#000000" font-family="sans-serif" font-size="13" lengthAdjust="spacing" textLength="23" x="267.5" y="712.309">and</text><text fill="#000000" font-family="sans-serif" font-size="13" lengthAdjust="spacing" textLength="83" x="237.5" y="730.0151">update status</text></g><!--link send_to_kms to SentToKMS--><g id="link_send_to_kms_SentToKMS"><path d="M291.34,596.29 C300.21,608.27 318.79,635.54 325.5,662 C333.36,693.02 332.33,702.74 325.5,734 C320.79,755.57 312.9445,772.9434 303.9445,789.4334 " fill="none" id="send_to_kms-to-SentToKMS-1" style="stroke:#181818;stroke-width:1.0;"/><polygon fill="#181818" points="301.07,794.7,308.8928,788.7163,303.4654,790.3111,301.8706,784.8837,301.07,794.7" style="stroke:#181818;stroke-width:1.0;"/><text fill="#000000" font-family="sans-serif" font-size="13" lengthAdjust="spacing" textLength="16" x="389.5" y="676.897">no</text><text fill="#000000" font-family="sans-serif" font-size="13" lengthAdjust="spacing" textLength="130" x="332.5" y="694.603">prepare_kms_request</text><text fill="#000000" font-family="sans-serif" font-size="13" lengthAdjust="spacing" textLength="23" x="386" y="712.309">and</text><text fill="#000000" font-family="sans-serif" font-size="13" lengthAdjust="spacing" textLength="111" x="342" y="730.0151">KMS:send_request</text></g><!--link SentToKMS to wait--><g id="link_SentToKMS_wait"><path d="M286.5,845.22 C286.5,864.67 286.5,885.07 286.5,899.83 " fill="none" id="SentToKMS-to-wait" style="stroke:#181818;stroke-width:1.0;"/><polygon fill="#181818" points="286.5,905.83,290.5,896.83,286.5,900.83,282.5,896.83,286.5,905.83" style="stroke:#181818;stroke-width:1.0;"/></g><!--link wait to KMSResponseReceived--><g id="link_wait_KMSResponseReceived"><path d="M286.5,930.25 C286.5,951.58 286.5,992.29 286.5,1020.96 " fill="none" id="wait-to-KMSResponseReceived" style="stroke:#181818;stroke-width:1.0;"/><polygon fill="#181818" points="286.5,1026.96,290.5,1017.96,286.5,1021.96,282.5,1017.96,286.5,1026.96" style="stroke:#181818;stroke-width:1.0;"/><text fill="#000000" font-family="sans-serif" font-size="13" lengthAdjust="spacing" textLength="67" x="343.5" y="974.897">do nothing</text><text fill="#000000" font-family="sans-serif" font-size="13" lengthAdjust="spacing" textLength="179" x="287.5" y="992.603">(listener  will handle response)</text></g><!--link KMSResponseReceived to sent_response--><g id="link_KMSResponseReceived_sent_response"><path d="M286.5,1077.18 C286.5,1101.49 286.5,1131.89 286.5,1149.98 " fill="none" id="KMSResponseReceived-to-sent_response" style="stroke:#181818;stroke-width:1.0;"/><polygon fill="#181818" points="286.5,1155.98,290.5,1146.98,286.5,1150.98,282.5,1146.98,286.5,1155.98" style="stroke:#181818;stroke-width:1.0;"/><text fill="#000000" font-family="sans-serif" font-size="13" lengthAdjust="spacing" textLength="242" x="287.5" y="1121.897">Host_Blockchain:check_if_response_sent</text></g><!--link sent_response to SentResponse--><g id="link_sent_response_SentResponse"><path d="M279.44,1173.37 C269.28,1180.02 250.68,1193.65 240.5,1210 C220.7,1241.8 212.7179,1279.0088 208.9579,1305.6688 " fill="none" id="sent_response-to-SentResponse" style="stroke:#181818;stroke-width:1.0;"/><polygon fill="#181818" points="208.12,1311.61,213.3377,1303.2568,208.8183,1306.659,205.4161,1302.1396,208.12,1311.61" style="stroke:#181818;stroke-width:1.0;"/><text fill="#000000" font-family="sans-serif" font-size="13" lengthAdjust="spacing" textLength="20" x="273" y="1224.897">yes</text><text fill="#000000" font-family="sans-serif" font-size="13" lengthAdjust="spacing" textLength="67" x="249.5" y="1242.603">do nothing</text><text fill="#000000" font-family="sans-serif" font-size="13" lengthAdjust="spacing" textLength="23" x="271.5" y="1260.309">and</text><text fill="#000000" font-family="sans-serif" font-size="13" lengthAdjust="spacing" textLength="83" x="241.5" y="1278.0151">update status</text></g><!--link sent_response to SendingResponse--><g id="link_sent_response_SendingResponse"><path d="M293.03,1173.52 C302.44,1180.36 319.72,1194.22 329.5,1210 C349.4,1242.12 358.7589,1279.28 363.6689,1305.83 " fill="none" id="sent_response-to-SendingResponse" style="stroke:#181818;stroke-width:1.0;"/><polygon fill="#181818" points="364.76,1311.73,367.0566,1302.1527,363.8507,1306.8134,359.19,1303.6075,364.76,1311.73" style="stroke:#181818;stroke-width:1.0;"/><text fill="#000000" font-family="sans-serif" font-size="13" lengthAdjust="spacing" textLength="16" x="446.5" y="1224.897">no</text><text fill="#000000" font-family="sans-serif" font-size="13" lengthAdjust="spacing" textLength="108" x="400.5" y="1242.603">prepare_response</text><text fill="#000000" font-family="sans-serif" font-size="13" lengthAdjust="spacing" textLength="23" x="443" y="1260.309">and</text><text fill="#000000" font-family="sans-serif" font-size="13" lengthAdjust="spacing" textLength="192" x="358.5" y="1278.0151">Host_Blockchain:send_response</text></g><!--SRC=[ZP91JiCm44NtFeMNW9GBH5KMh4082RM8JLDPaJrfHat7mNOet1uxZOcJTC7Iu__Vp7nx_t3WMLRmBKZ0Br2CMLSvu4rbHGVcZDQY9hxPo4QZXA9WKJdOvhASFsdhn6EhvKas5L8-lsSBQY0ya-th6YK2kRU4HFgMUb9yWC4QGUNy1ooxJU7Pla6bW0u6ZutBYhMTiNLjwBG3KaZ7T_tokijvPw2h38ZJsGe3dprO5vEoNYYS3bTfJAb_02Qwd0UeR42U1DOHAE0RhREUcn37KTmuXz-r9ALzEgxnz98gKYNrdHecyVFqTc6V-qcNT6ENaHCaWtknugL2jzZDJOk5MpP8mibNjs0xJHRYJybvEl5TwxS40iFv1TlMVo5IBN0pckwJN9s8rRJxZGunuCcm_ef9t5U920OsRnFZslvX_fducX5UVyAamKVbo5eEEhx0LSD-0G00]--></g></svg>