<svg width="14" height="12" viewBox="0 0 14 12" fill="none" xmlns="http://www.w3.org/2000/svg">
<path d="M13.1267 8.3599C13.0018 8.23573 12.8328 8.16604 12.6567 8.16604C12.4805 8.16604 12.3116 8.23573 12.1867 8.3599L11.4067 9.14657L10.9333 8.66657L11.7133 7.8799C11.8375 7.75499 11.9072 7.58603 11.9072 7.4099C11.9072 7.23378 11.8375 7.06481 11.7133 6.9399C11.5884 6.81573 11.4195 6.74604 11.2433 6.74604C11.0672 6.74604 10.8982 6.81573 10.7733 6.9399L9.99334 7.73324L7.23334 4.97324C7.62902 4.27205 7.75755 3.45135 7.59517 2.66277C7.43279 1.8742 6.99048 1.17104 6.34997 0.683221C5.70946 0.195404 4.91403 -0.0441005 4.11065 0.00895963C3.30728 0.0620197 2.55026 0.404059 1.97947 0.971878C1.40868 1.5397 1.06269 2.29492 1.00544 3.098C0.948183 3.90109 1.18353 4.69776 1.668 5.34081C2.15246 5.98386 2.8533 6.42983 3.64102 6.59633C4.42874 6.76282 5.2501 6.63858 5.95334 6.24657L10.62 10.9132C10.7431 11.0388 10.9108 11.1107 11.0867 11.1132C11.2164 11.1035 11.3404 11.056 11.4435 10.9766C11.5465 10.8973 11.6241 10.7895 11.6667 10.6666C11.7423 10.6373 11.8106 10.5918 11.8667 10.5332L13.1267 9.33323C13.1933 9.27087 13.2464 9.19551 13.2827 9.11179C13.319 9.02808 13.3377 8.93781 13.3377 8.84657C13.3377 8.75533 13.319 8.66505 13.2827 8.58134C13.2464 8.49763 13.1933 8.42226 13.1267 8.3599ZM5.90001 4.5799C5.83641 4.65804 5.76735 4.73156 5.69334 4.7999L5.59334 4.88657C5.24092 5.17246 4.80176 5.33 4.34798 5.33332C3.89419 5.33665 3.45277 5.18555 3.09621 4.90485C2.73965 4.62414 2.48915 4.23053 2.38585 3.78865C2.28255 3.34677 2.33259 2.88289 2.52776 2.47321C2.72293 2.06353 3.05162 1.7324 3.45985 1.53421C3.86808 1.33601 4.33157 1.28254 4.7742 1.38257C5.21684 1.4826 5.61229 1.73019 5.89562 2.08467C6.17895 2.43915 6.33331 2.87944 6.33334 3.33324C6.33412 3.78585 6.18135 4.22535 5.90001 4.5799Z" fill="#D2DADE"/>
<path d="M11.8733 10.5532L11.54 10.8866C11.5959 10.822 11.6389 10.7473 11.6667 10.6666C11.7429 10.6441 11.8134 10.6054 11.8733 10.5532Z" fill="#D2DADE"/>
</svg>
