<svg xmlns="http://www.w3.org/2000/svg" width="64" height="64" fill="none" viewBox="0 0 64 64">
  <path fill="#AAB4BD" d="M51.152.012a1.003 1.003 0 0 0-1.14.836l-.73 4.738-14.56-1.61a3.984 3.984 0 0 0-3.269 1.149L3.484 33.094a4.01 4.01 0 0 0 0 5.66L24.7 59.969a3.97 3.97 0 0 0 2.828 1.168c1.067 0 2.07-.414 2.828-1.168l27.973-27.977a3.997 3.997 0 0 0 1.145-3.27l-1.586-14.355 5.183-.371a.999.999 0 0 0 .926-1.07c-.039-.547-.508-.95-1.066-.926l-5.262.379-.309-2.754a3.974 3.974 0 0 0-3.535-3.535l-2.554-.285.718-4.653a.998.998 0 0 0-.836-1.14Zm-16.87 5.941c.074 0 .148.004.222.012l19.102 2.113a1.994 1.994 0 0 1 1.769 1.766l.297 2.676-3.004.214a4.055 4.055 0 0 0-.773-1.11 4.006 4.006 0 0 0-5.657 0 4.006 4.006 0 0 0 0 5.657 3.987 3.987 0 0 0 2.828 1.172c1.028 0 2.051-.39 2.828-1.172a3.934 3.934 0 0 0 1.149-2.562l2.848-.203 1.593 14.433c.07.602-.14 1.2-.574 1.63L28.938 58.55a2 2 0 0 1-2.829 0L4.9 37.34a2.003 2.003 0 0 1 0-2.828L32.87 6.539a1.987 1.987 0 0 1 1.41-.586Zm14.784 6.348c.555 0 1.106.21 1.524.633.406.406.629.945.629 1.52a2.153 2.153 0 0 1-3.672 1.52 2.148 2.148 0 0 1 0-3.04 2.132 2.132 0 0 1 1.52-.633Zm-6.363 7.515a1 1 0 0 0-.707.293l-2.121 2.125-.707-.707a5.005 5.005 0 0 0-7.07 0l-1.414 1.41a5.01 5.01 0 0 0 0 7.075l1.414 1.41v.004l1.414 1.414a3.006 3.006 0 0 1 0 4.242l-1.418 1.414a2.998 2.998 0 0 1-4.239 0l-.71-.707 4.246-4.242a1 1 0 0 0 0-1.414 1.004 1.004 0 0 0-1.418 0l-4.239 4.242-.71-.707a3.01 3.01 0 0 1 0-4.246.995.995 0 0 0 0-1.41.992.992 0 0 0-1.415 0 5 5 0 0 0 0 7.066l.707.711-2.12 2.121a1 1 0 1 0 1.413 1.414l2.125-2.12.703.706a4.983 4.983 0 0 0 3.536 1.461 5.001 5.001 0 0 0 3.539-1.46l1.414-1.415a5.005 5.005 0 0 0 0-7.07l-.707-.707 4.242-4.242a1 1 0 1 0-1.414-1.415L32.8 29.305l-.707-.707a3.006 3.006 0 0 1 0-4.243l1.418-1.418a3.006 3.006 0 0 1 4.242 0l2.824 2.832a2.999 2.999 0 0 1 0 4.243 1 1 0 0 0 0 1.414c.395.39 1.024.39 1.418 0a5.005 5.005 0 0 0 0-7.07l-.71-.708 2.124-2.12a1.004 1.004 0 0 0-.707-1.712ZM8.47 32.84a.993.993 0 0 0-.707.293l-1.414 1.414a1 1 0 1 0 1.414 1.414l1.414-1.414a1 1 0 0 0-.707-1.707Zm3.535 3.535a.993.993 0 0 0-.707.293l-1.414 1.414a1 1 0 1 0 1.414 1.414l1.414-1.418a.995.995 0 0 0 0-1.41.993.993 0 0 0-.707-.293Zm3.535 3.535a1 1 0 0 0-.707.293l-1.414 1.414a1 1 0 1 0 1.414 1.414l1.414-1.414a1 1 0 0 0-.707-1.707Zm3.54 3.535a.987.987 0 0 0-.708.293l-1.418 1.414a1 1 0 1 0 1.414 1.414l1.414-1.414a.993.993 0 0 0 0-1.414.991.991 0 0 0-.703-.293Zm3.53 3.535a.985.985 0 0 0-.703.293l-1.418 1.414a1 1 0 0 0 .711 1.708 1 1 0 0 0 .707-.294l1.41-1.414a.993.993 0 0 0 0-1.414.993.993 0 0 0-.707-.293Zm3.535 3.536a1 1 0 0 0-.706.293l-1.41 1.414a1.003 1.003 0 0 0 .707 1.71 1 1 0 0 0 .703-.292l1.418-1.418a1 1 0 0 0-.712-1.707Zm3.54 3.535a.999.999 0 0 0-.711.293l-1.41 1.418a.988.988 0 0 0 0 1.41.989.989 0 0 0 1.41 0l1.418-1.41a1.004 1.004 0 0 0-.707-1.711Z"/>
</svg>
