<svg xmlns="http://www.w3.org/2000/svg" viewBox="0 0 24 24"><defs><style></style></defs><path class="a" d="M10.5,22.25A.74.74,0,0,1,10,22L2,14A.75.75,0,0,1,2,13l10.5-10.5A.75.75,0,0,1,13,2.25h6a.75.75,0,0,1,.53.22l2,2a.75.75,0,0,1,.22.53v6a.75.75,0,0,1-.22.53L11,22A.74.74,0,0,1,10.5,22.25ZM3.56,13.5l6.94,6.94,9.75-9.75V5.31L18.69,3.75H13.31Z"/><circle class="a" cx="17.5" cy="6.5" r="1.5"/><path class="a" d="M11.5,16.25h-3a.76.76,0,0,1-.75-.75v-3a.75.75,0,0,1,1.5,0v2.25H11.5a.75.75,0,0,1,0,1.5Z"/><path class="a" d="M14.5,13.25a.76.76,0,0,1-.75-.75V10.25H11.5a.75.75,0,0,1,0-1.5h3a.76.76,0,0,1,.75.75v3A.76.76,0,0,1,14.5,13.25Z"/></svg>