<?xml version="1.0" encoding="us-ascii" standalone="no"?><svg xmlns="http://www.w3.org/2000/svg" xmlns:xlink="http://www.w3.org/1999/xlink" contentStyleType="text/css" height="1323px" preserveAspectRatio="none" style="width:1105px;height:1323px;background:#FFFFFF;" version="1.1" viewBox="0 0 1105 1323" width="1105px" zoomAndPan="magnify"><defs/><g><text fill="#000000" font-family="sans-serif" font-size="14" font-weight="bold" lengthAdjust="spacing" textLength="528" x="290" y="27.9951">Gateway Interactions: Decrypt, Rencrypt, Verify Proven Ciphertext</text><rect fill="none" height="1148.4609" style="stroke:#000000;stroke-width:1.5;" width="1063" x="36" y="106.8906"/><rect fill="#FA8072" height="731.2656" style="stroke:#000000;stroke-width:1.5;" width="1043" x="46" y="263.8203"/><rect fill="#7FFFD4" height="679" style="stroke:none;stroke-width:1.0;" width="1043" x="46" y="316.0859"/><rect fill="#FA8072" height="473.1328" style="stroke:#000000;stroke-width:1.5;" width="1023" x="56" y="514.9531"/><rect fill="#7FFFD4" height="376.6016" style="stroke:none;stroke-width:1.0;" width="1023" x="56" y="611.4844"/><rect fill="#FA8072" height="244.1328" style="stroke:#000000;stroke-width:1.5;" width="568" x="501" y="736.9531"/><rect fill="#7FFFD4" height="147.6016" style="stroke:none;stroke-width:1.0;" width="568" x="501" y="833.4844"/><rect fill="#FA8072" height="239.2656" style="stroke:#000000;stroke-width:1.5;" width="626" x="56" y="1009.0859"/><rect fill="#7FFFD4" height="163.8672" style="stroke:none;stroke-width:1.0;" width="626" x="56" y="1084.4844"/><line style="stroke:#181818;stroke-width:0.5;stroke-dasharray:5.0,5.0;" x1="30" x2="30" y1="89.8906" y2="1272.3516"/><line style="stroke:#181818;stroke-width:0.5;stroke-dasharray:5.0,5.0;" x1="137" x2="137" y1="89.8906" y2="1272.3516"/><line style="stroke:#181818;stroke-width:0.5;stroke-dasharray:5.0,5.0;" x1="284" x2="284" y1="89.8906" y2="1272.3516"/><line style="stroke:#181818;stroke-width:0.5;stroke-dasharray:5.0,5.0;" x1="396" x2="396" y1="89.8906" y2="1272.3516"/><line style="stroke:#181818;stroke-width:0.5;stroke-dasharray:5.0,5.0;" x1="491" x2="491" y1="89.8906" y2="1272.3516"/><line style="stroke:#181818;stroke-width:0.5;stroke-dasharray:5.0,5.0;" x1="610" x2="610" y1="89.8906" y2="1272.3516"/><line style="stroke:#181818;stroke-width:0.5;stroke-dasharray:5.0,5.0;" x1="814" x2="814" y1="89.8906" y2="1272.3516"/><line style="stroke:#181818;stroke-width:0.5;stroke-dasharray:5.0,5.0;" x1="1018" x2="1018" y1="89.8906" y2="1272.3516"/><rect fill="#E2E2F0" height="30.2969" rx="2.5" ry="2.5" style="stroke:#181818;stroke-width:0.5;" width="51" x="5" y="58.5938"/><text fill="#000000" font-family="sans-serif" font-size="14" lengthAdjust="spacing" textLength="37" x="12" y="78.5889">Dapp</text><rect fill="#E2E2F0" height="30.2969" rx="2.5" ry="2.5" style="stroke:#181818;stroke-width:0.5;" width="51" x="5" y="1271.3516"/><text fill="#000000" font-family="sans-serif" font-size="14" lengthAdjust="spacing" textLength="37" x="12" y="1291.3467">Dapp</text><rect fill="#E2E2F0" height="30.2969" rx="2.5" ry="2.5" style="stroke:#181818;stroke-width:0.5;" width="142" x="66" y="58.5938"/><text fill="#000000" font-family="sans-serif" font-size="14" lengthAdjust="spacing" textLength="128" x="73" y="78.5889">FHE Enabled Node</text><rect fill="#E2E2F0" height="30.2969" rx="2.5" ry="2.5" style="stroke:#181818;stroke-width:0.5;" width="142" x="66" y="1271.3516"/><text fill="#000000" font-family="sans-serif" font-size="14" lengthAdjust="spacing" textLength="128" x="73" y="1291.3467">FHE Enabled Node</text><rect fill="#E2E2F0" height="46.5938" rx="2.5" ry="2.5" style="stroke:#181818;stroke-width:0.5;" width="132" x="218" y="42.2969"/><text fill="#000000" font-family="sans-serif" font-size="14" lengthAdjust="spacing" textLength="110" x="229" y="62.292">ZK Proof Verifier</text><text fill="#000000" font-family="sans-serif" font-size="14" lengthAdjust="spacing" textLength="118" x="225" y="78.5889">(Trusted Service)</text><rect fill="#E2E2F0" height="46.5938" rx="2.5" ry="2.5" style="stroke:#181818;stroke-width:0.5;" width="132" x="218" y="1271.3516"/><text fill="#000000" font-family="sans-serif" font-size="14" lengthAdjust="spacing" textLength="110" x="229" y="1291.3467">ZK Proof Verifier</text><text fill="#000000" font-family="sans-serif" font-size="14" lengthAdjust="spacing" textLength="118" x="225" y="1307.6436">(Trusted Service)</text><rect fill="#E2E2F0" height="30.2969" rx="2.5" ry="2.5" style="stroke:#181818;stroke-width:0.5;" width="73" x="360" y="58.5938"/><text fill="#000000" font-family="sans-serif" font-size="14" lengthAdjust="spacing" textLength="59" x="367" y="78.5889">Gateway</text><rect fill="#E2E2F0" height="30.2969" rx="2.5" ry="2.5" style="stroke:#181818;stroke-width:0.5;" width="73" x="360" y="1271.3516"/><text fill="#000000" font-family="sans-serif" font-size="14" lengthAdjust="spacing" textLength="59" x="367" y="1291.3467">Gateway</text><rect fill="#E2E2F0" height="30.2969" rx="2.5" ry="2.5" style="stroke:#181818;stroke-width:0.5;" width="96" x="443" y="58.5938"/><text fill="#000000" font-family="sans-serif" font-size="14" lengthAdjust="spacing" textLength="82" x="450" y="78.5889">Persistence</text><rect fill="#E2E2F0" height="30.2969" rx="2.5" ry="2.5" style="stroke:#181818;stroke-width:0.5;" width="96" x="443" y="1271.3516"/><text fill="#000000" font-family="sans-serif" font-size="14" lengthAdjust="spacing" textLength="82" x="450" y="1291.3467">Persistence</text><rect fill="#E2E2F0" height="30.2969" rx="2.5" ry="2.5" style="stroke:#181818;stroke-width:0.5;" width="123" x="549" y="58.5938"/><text fill="#000000" font-family="sans-serif" font-size="14" lengthAdjust="spacing" textLength="109" x="556" y="78.5889">KMS Blockchain</text><rect fill="#E2E2F0" height="30.2969" rx="2.5" ry="2.5" style="stroke:#181818;stroke-width:0.5;" width="123" x="549" y="1271.3516"/><text fill="#000000" font-family="sans-serif" font-size="14" lengthAdjust="spacing" textLength="109" x="556" y="1291.3467">KMS Blockchain</text><rect fill="#E2E2F0" height="30.2969" rx="2.5" ry="2.5" style="stroke:#181818;stroke-width:0.5;" width="121" x="754" y="58.5938"/><text fill="#000000" font-family="sans-serif" font-size="14" lengthAdjust="spacing" textLength="107" x="761" y="78.5889">KMS Connector</text><rect fill="#E2E2F0" height="30.2969" rx="2.5" ry="2.5" style="stroke:#181818;stroke-width:0.5;" width="121" x="754" y="1271.3516"/><text fill="#000000" font-family="sans-serif" font-size="14" lengthAdjust="spacing" textLength="107" x="761" y="1291.3467">KMS Connector</text><rect fill="#E2E2F0" height="30.2969" rx="2.5" ry="2.5" style="stroke:#181818;stroke-width:0.5;" width="81" x="978" y="58.5938"/><text fill="#000000" font-family="sans-serif" font-size="14" lengthAdjust="spacing" textLength="67" x="985" y="78.5889">KMS Core</text><rect fill="#E2E2F0" height="30.2969" rx="2.5" ry="2.5" style="stroke:#181818;stroke-width:0.5;" width="81" x="978" y="1271.3516"/><text fill="#000000" font-family="sans-serif" font-size="14" lengthAdjust="spacing" textLength="67" x="985" y="1291.3467">KMS Core</text><path d="M36,106.8906 L139,106.8906 L139,114.0234 L129,124.0234 L36,124.0234 L36,106.8906 " fill="#EEEEEE" style="stroke:#000000;stroke-width:1.5;"/><rect fill="none" height="1148.4609" style="stroke:#000000;stroke-width:1.5;" width="1063" x="36" y="106.8906"/><text fill="#000000" font-family="sans-serif" font-size="13" font-weight="bold" lengthAdjust="spacing" textLength="58" x="51" y="119.9575">Decrypt</text><polygon fill="#181818" points="384.5,156.2891,394.5,160.2891,384.5,164.2891,388.5,160.2891" style="stroke:#181818;stroke-width:1.0;"/><line style="stroke:#181818;stroke-width:1.0;" x1="137" x2="390.5" y1="160.2891" y2="160.2891"/><text fill="#000000" font-family="sans-serif" font-size="13" lengthAdjust="spacing" textLength="50" x="241.75" y="140.0903">Decrypt</text><text fill="#000000" font-family="sans-serif" font-size="13" lengthAdjust="spacing" textLength="157" x="188.25" y="155.2231">(ct_handle, block height)</text><polygon fill="#181818" points="148,200.5547,138,204.5547,148,208.5547,144,204.5547" style="stroke:#181818;stroke-width:1.0;"/><line style="stroke:#181818;stroke-width:1.0;" x1="142" x2="395.5" y1="204.5547" y2="204.5547"/><text fill="#000000" font-family="sans-serif" font-size="13" lengthAdjust="spacing" textLength="106" x="213.75" y="184.356">Read permission</text><text fill="#000000" font-family="sans-serif" font-size="13" lengthAdjust="spacing" textLength="232" x="150.75" y="199.4888">(ct_handle, block height, decryption)</text><polygon fill="#181818" points="384.5,244.8203,394.5,248.8203,384.5,252.8203,388.5,248.8203" style="stroke:#181818;stroke-width:1.0;"/><line style="stroke:#181818;stroke-width:1.0;" x1="137" x2="390.5" y1="248.8203" y2="248.8203"/><text fill="#000000" font-family="sans-serif" font-size="13" lengthAdjust="spacing" textLength="176" x="178.75" y="228.6216">Permission value: true/false</text><text fill="#000000" font-family="sans-serif" font-size="13" lengthAdjust="spacing" textLength="157" x="188.25" y="243.7544">(ct_handle, block height)</text><path d="M46,263.8203 L110,263.8203 L110,270.9531 L100,280.9531 L46,280.9531 L46,263.8203 " fill="#EEEEEE" style="stroke:#000000;stroke-width:1.5;"/><rect fill="none" height="731.2656" style="stroke:#000000;stroke-width:1.5;" width="1043" x="46" y="263.8203"/><text fill="#000000" font-family="sans-serif" font-size="13" font-weight="bold" lengthAdjust="spacing" textLength="19" x="61" y="276.8872">alt</text><text fill="#000000" font-family="sans-serif" font-size="11" font-weight="bold" lengthAdjust="spacing" textLength="138" x="125" y="276.0308">[Permission == false]</text><path d="M257,285.9531 L257,310.9531 L535,310.9531 L535,295.9531 L525,285.9531 L257,285.9531 " fill="#FEFFDD" style="stroke:#181818;stroke-width:0.5;"/><path d="M525,285.9531 L525,295.9531 L535,295.9531 L525,285.9531 " fill="#FEFFDD" style="stroke:#181818;stroke-width:0.5;"/><text fill="#000000" font-family="sans-serif" font-size="13" lengthAdjust="spacing" textLength="257" x="263" y="303.02">How do we notify the Dapp in this case ?</text><line style="stroke:#000000;stroke-width:1.0;stroke-dasharray:2.0,2.0;" x1="46" x2="1089" y1="317.0859" y2="317.0859"/><text fill="#000000" font-family="sans-serif" font-size="11" font-weight="bold" lengthAdjust="spacing" textLength="132" x="51" y="327.2964">[Permission == true]</text><polygon fill="#181818" points="598.5,363.1563,608.5,367.1563,598.5,371.1563,602.5,367.1563" style="stroke:#181818;stroke-width:1.0;"/><line style="stroke:#181818;stroke-width:1.0;" x1="396.5" x2="604.5" y1="367.1563" y2="367.1563"/><text fill="#000000" font-family="sans-serif" font-size="13" lengthAdjust="spacing" textLength="50" x="478.5" y="346.9575">Decrypt</text><text fill="#000000" font-family="sans-serif" font-size="13" lengthAdjust="spacing" textLength="157" x="425" y="362.0903">(ct_handle, block height)</text><polygon fill="#181818" points="802.5,407.4219,812.5,411.4219,802.5,415.4219,806.5,411.4219" style="stroke:#181818;stroke-width:1.0;"/><line style="stroke:#181818;stroke-width:1.0;" x1="610.5" x2="808.5" y1="411.4219" y2="411.4219"/><text fill="#000000" font-family="sans-serif" font-size="13" lengthAdjust="spacing" textLength="50" x="687.5" y="391.2231">Decrypt</text><text fill="#000000" font-family="sans-serif" font-size="13" lengthAdjust="spacing" textLength="157" x="634" y="406.356">(ct_handle, block height)</text><polygon fill="#181818" points="148,451.6875,138,455.6875,148,459.6875,144,455.6875" style="stroke:#181818;stroke-width:1.0;"/><line style="stroke:#181818;stroke-width:1.0;" x1="142" x2="813.5" y1="455.6875" y2="455.6875"/><text fill="#000000" font-family="sans-serif" font-size="13" lengthAdjust="spacing" textLength="106" x="422.75" y="435.4888">Read permission</text><text fill="#000000" font-family="sans-serif" font-size="13" lengthAdjust="spacing" textLength="232" x="359.75" y="450.6216">(ct_handle, block height, decryption)</text><polygon fill="#181818" points="802.5,495.9531,812.5,499.9531,802.5,503.9531,806.5,499.9531" style="stroke:#181818;stroke-width:1.0;"/><line style="stroke:#181818;stroke-width:1.0;" x1="137" x2="808.5" y1="499.9531" y2="499.9531"/><text fill="#000000" font-family="sans-serif" font-size="13" lengthAdjust="spacing" textLength="176" x="387.75" y="479.7544">Permission value: true/false</text><text fill="#000000" font-family="sans-serif" font-size="13" lengthAdjust="spacing" textLength="157" x="397.25" y="494.8872">(ct_handle, block height)</text><path d="M56,514.9531 L120,514.9531 L120,522.0859 L110,532.0859 L56,532.0859 L56,514.9531 " fill="#EEEEEE" style="stroke:#000000;stroke-width:1.5;"/><rect fill="none" height="473.1328" style="stroke:#000000;stroke-width:1.5;" width="1023" x="56" y="514.9531"/><text fill="#000000" font-family="sans-serif" font-size="13" font-weight="bold" lengthAdjust="spacing" textLength="19" x="71" y="528.02">alt</text><text fill="#000000" font-family="sans-serif" font-size="11" font-weight="bold" lengthAdjust="spacing" textLength="138" x="135" y="527.1636">[Permission == false]</text><polygon fill="#181818" points="621.5,549.2188,611.5,553.2188,621.5,557.2188,617.5,553.2188" style="stroke:#181818;stroke-width:1.0;"/><line style="stroke:#181818;stroke-width:1.0;" x1="615.5" x2="813.5" y1="553.2188" y2="553.2188"/><text fill="#000000" font-family="sans-serif" font-size="13" lengthAdjust="spacing" textLength="142" x="641.5" y="548.1528">Insufficient permission</text><path d="M535,566.2188 L535,606.2188 L889,606.2188 L889,576.2188 L879,566.2188 L535,566.2188 " fill="#FEFFDD" style="stroke:#181818;stroke-width:0.5;"/><path d="M879,566.2188 L879,576.2188 L889,576.2188 L879,566.2188 " fill="#FEFFDD" style="stroke:#181818;stroke-width:0.5;"/><text fill="#000000" font-family="sans-serif" font-size="13" lengthAdjust="spacing" textLength="333" x="541" y="583.2856">This can only happen if gateway was being malicious</text><text fill="#000000" font-family="sans-serif" font-size="13" lengthAdjust="spacing" textLength="169" x="541" y="598.4185">while checking permission.</text><line style="stroke:#000000;stroke-width:1.0;stroke-dasharray:2.0,2.0;" x1="56" x2="1079" y1="612.4844" y2="612.4844"/><text fill="#000000" font-family="sans-serif" font-size="11" font-weight="bold" lengthAdjust="spacing" textLength="132" x="61" y="622.6948">[Permission == true]</text><polygon fill="#181818" points="148,658.5547,138,662.5547,148,666.5547,144,662.5547" style="stroke:#181818;stroke-width:1.0;"/><line style="stroke:#181818;stroke-width:1.0;" x1="142" x2="813.5" y1="662.5547" y2="662.5547"/><text fill="#000000" font-family="sans-serif" font-size="13" lengthAdjust="spacing" textLength="103" x="424.25" y="642.356">Fetch ciphertext</text><text fill="#000000" font-family="sans-serif" font-size="13" lengthAdjust="spacing" textLength="72" x="439.75" y="657.4888">(ct_handle)</text><polygon fill="#181818" points="802.5,717.9531,812.5,721.9531,802.5,725.9531,806.5,721.9531" style="stroke:#181818;stroke-width:1.0;"/><line style="stroke:#181818;stroke-width:1.0;" x1="137" x2="808.5" y1="721.9531" y2="721.9531"/><text fill="#000000" font-family="sans-serif" font-size="13" lengthAdjust="spacing" textLength="104" x="423.75" y="686.6216">Ciphertext value</text><text fill="#000000" font-family="sans-serif" font-size="13" lengthAdjust="spacing" textLength="13" x="469.25" y="701.7544">or</text><text fill="#000000" font-family="sans-serif" font-size="13" lengthAdjust="spacing" textLength="170" x="390.75" y="716.8872">Error: Ciphertext not found</text><path d="M501,736.9531 L565,736.9531 L565,744.0859 L555,754.0859 L501,754.0859 L501,736.9531 " fill="#EEEEEE" style="stroke:#000000;stroke-width:1.5;"/><rect fill="none" height="244.1328" style="stroke:#000000;stroke-width:1.5;" width="568" x="501" y="736.9531"/><text fill="#000000" font-family="sans-serif" font-size="13" font-weight="bold" lengthAdjust="spacing" textLength="19" x="516" y="750.02">alt</text><text fill="#000000" font-family="sans-serif" font-size="11" font-weight="bold" lengthAdjust="spacing" textLength="153" x="580" y="749.1636">[ct_handle is not found]</text><polygon fill="#181818" points="621.5,771.2188,611.5,775.2188,621.5,779.2188,617.5,775.2188" style="stroke:#181818;stroke-width:1.0;"/><line style="stroke:#181818;stroke-width:1.0;" x1="615.5" x2="813.5" y1="775.2188" y2="775.2188"/><text fill="#000000" font-family="sans-serif" font-size="13" lengthAdjust="spacing" textLength="170" x="627.5" y="770.1528">Error: Ciphertext not found</text><path d="M511,788.2188 L511,828.2188 L914,828.2188 L914,798.2188 L904,788.2188 L511,788.2188 " fill="#FEFFDD" style="stroke:#181818;stroke-width:0.5;"/><path d="M904,788.2188 L904,798.2188 L914,798.2188 L904,788.2188 " fill="#FEFFDD" style="stroke:#181818;stroke-width:0.5;"/><text fill="#000000" font-family="sans-serif" font-size="13" lengthAdjust="spacing" textLength="382" x="517" y="805.2856">Should we check if ct_handle is valid in the gateway to avoid</text><text fill="#000000" font-family="sans-serif" font-size="13" lengthAdjust="spacing" textLength="309" x="517" y="820.4185">reaching this point unless gateway is malicious ?</text><line style="stroke:#000000;stroke-width:1.0;stroke-dasharray:2.0,2.0;" x1="501" x2="1069" y1="834.4844" y2="834.4844"/><text fill="#000000" font-family="sans-serif" font-size="11" font-weight="bold" lengthAdjust="spacing" textLength="128" x="506" y="844.6948">[ct_handle is found]</text><polygon fill="#181818" points="1006.5,880.5547,1016.5,884.5547,1006.5,888.5547,1010.5,884.5547" style="stroke:#181818;stroke-width:1.0;"/><line style="stroke:#181818;stroke-width:1.0;" x1="814.5" x2="1012.5" y1="884.5547" y2="884.5547"/><text fill="#000000" font-family="sans-serif" font-size="13" lengthAdjust="spacing" textLength="50" x="891.5" y="864.356">Decrypt</text><text fill="#000000" font-family="sans-serif" font-size="13" lengthAdjust="spacing" textLength="74" x="879.5" y="879.4888">(ciphertext)</text><polygon fill="#181818" points="825.5,924.8203,815.5,928.8203,825.5,932.8203,821.5,928.8203" style="stroke:#181818;stroke-width:1.0;"/><line style="stroke:#181818;stroke-width:1.0;" x1="819.5" x2="1017.5" y1="928.8203" y2="928.8203"/><text fill="#000000" font-family="sans-serif" font-size="13" lengthAdjust="spacing" textLength="116" x="858.5" y="908.6216">Decrypt Response</text><text fill="#000000" font-family="sans-serif" font-size="13" lengthAdjust="spacing" textLength="180" x="826.5" y="923.7544">(plaintext, eip712 signature)</text><polygon fill="#181818" points="621.5,969.0859,611.5,973.0859,621.5,977.0859,617.5,973.0859" style="stroke:#181818;stroke-width:1.0;"/><line style="stroke:#181818;stroke-width:1.0;" x1="615.5" x2="813.5" y1="973.0859" y2="973.0859"/><text fill="#000000" font-family="sans-serif" font-size="13" lengthAdjust="spacing" textLength="116" x="652.5" y="952.8872">Decrypt Response</text><text fill="#000000" font-family="sans-serif" font-size="13" lengthAdjust="spacing" textLength="180" x="622.5" y="968.02">(plaintext, eip712 signature)</text><path d="M56,1009.0859 L120,1009.0859 L120,1016.2188 L110,1026.2188 L56,1026.2188 L56,1009.0859 " fill="#EEEEEE" style="stroke:#000000;stroke-width:1.5;"/><rect fill="none" height="239.2656" style="stroke:#000000;stroke-width:1.5;" width="626" x="56" y="1009.0859"/><text fill="#000000" font-family="sans-serif" font-size="13" font-weight="bold" lengthAdjust="spacing" textLength="19" x="71" y="1022.1528">alt</text><text fill="#000000" font-family="sans-serif" font-size="11" font-weight="bold" lengthAdjust="spacing" textLength="81" x="135" y="1021.2964">[if any error]</text><polygon fill="#181818" points="407.5,1043.3516,397.5,1047.3516,407.5,1051.3516,403.5,1047.3516" style="stroke:#181818;stroke-width:1.0;"/><line style="stroke:#181818;stroke-width:1.0;" x1="401.5" x2="609.5" y1="1047.3516" y2="1047.3516"/><text fill="#000000" font-family="sans-serif" font-size="13" lengthAdjust="spacing" textLength="127" x="440" y="1042.2856">Error: Decrypt failed</text><polygon fill="#181818" points="148,1072.4844,138,1076.4844,148,1080.4844,144,1076.4844" style="stroke:#181818;stroke-width:1.0;"/><line style="stroke:#181818;stroke-width:1.0;" x1="142" x2="395.5" y1="1076.4844" y2="1076.4844"/><text fill="#000000" font-family="sans-serif" font-size="13" lengthAdjust="spacing" textLength="127" x="203.25" y="1071.4185">Error: Decrypt failed</text><line style="stroke:#000000;stroke-width:1.0;stroke-dasharray:2.0,2.0;" x1="56" x2="682" y1="1085.4844" y2="1085.4844"/><text fill="#000000" font-family="sans-serif" font-size="11" font-weight="bold" lengthAdjust="spacing" textLength="74" x="61" y="1095.6948">[if no error]</text><polygon fill="#181818" points="407.5,1161.8203,397.5,1165.8203,407.5,1169.8203,403.5,1165.8203" style="stroke:#181818;stroke-width:1.0;"/><line style="stroke:#181818;stroke-width:1.0;" x1="401.5" x2="609.5" y1="1165.8203" y2="1165.8203"/><text fill="#000000" font-family="sans-serif" font-size="13" lengthAdjust="spacing" textLength="116" x="443.5" y="1115.356">Decrypt Response</text><text fill="#000000" font-family="sans-serif" font-size="13" lengthAdjust="spacing" textLength="180" x="413.5" y="1130.4888">(plaintext, eip712 signature)</text><text fill="#000000" font-family="sans-serif" font-size="13" lengthAdjust="spacing" textLength="13" x="497" y="1145.6216">or</text><text fill="#000000" font-family="sans-serif" font-size="13" lengthAdjust="spacing" textLength="79" x="464" y="1160.7544">Error (if any)</text><polygon fill="#181818" points="148,1236.3516,138,1240.3516,148,1244.3516,144,1240.3516" style="stroke:#181818;stroke-width:1.0;"/><line style="stroke:#181818;stroke-width:1.0;" x1="142" x2="395.5" y1="1240.3516" y2="1240.3516"/><text fill="#000000" font-family="sans-serif" font-size="13" lengthAdjust="spacing" textLength="116" x="206.75" y="1189.8872">Decrypt Response</text><text fill="#000000" font-family="sans-serif" font-size="13" lengthAdjust="spacing" textLength="180" x="176.75" y="1205.02">(plaintext, eip712 signature)</text><text fill="#000000" font-family="sans-serif" font-size="13" lengthAdjust="spacing" textLength="13" x="260.25" y="1220.1528">or</text><text fill="#000000" font-family="sans-serif" font-size="13" lengthAdjust="spacing" textLength="79" x="227.25" y="1235.2856">Error (if any)</text><!--SRC=[hLNRQjmm47tNLmpEInQsBUrB8P2MD9ScX9JG3NqeWQALnhPOhUH8yhhRh-_8zdhjNUVI4ZyO8v-vdJCpyWjb2kxu4Zm-b6W4tg3tFCCJhJ830ar0nrXGGICaNtd0Yg_XAfvo4PGr_WZEKBXr4QRmdUoRhn_eLBg6MsTNQE1K5JcwWBz3mXX52qgeWfi0yKdEU54aC7Yu1qcd-zYBotCuDtokKS8tAp5fmFbSZ3Z-UHqJi6cJZK9tRmxlNEa36S_GhPJ0IHBD_onMBMBVowRadVIoQZ_UBJglo3kHc6oHnVOKHfAylfd15st5GkHScQGrMYmzbJGAFhN6e0ZM9R052pfy3Eum6QHUmnqoUZ9dosAZ7sD48xpvHBLrcX9Z8lpAkP4Qfp2FUKAEAil3X6LL19FD4GdFPInqgRodddZSQWgoSKoeIJ_URMSCAwvBF8BWIdoNSktngIGOrm4EPbmloRBdvFWOQbjcR42WBdHHiajRWRHG8T1nRD2G8yJ-0sNeMtaGt2DyPcXaX213yW479mybNtAd3Ex4Y4csHDIIlOWuLaDRcwZSYwnQx2jntaN-R-AVPRwNSClDbV5bcbABqbRffTxJgBMPjWDmrqXYm1gzXfo4ecsYKiZQeQoedUUeJ0PBhiclBJshSaMhIkGe5l77DipRJbLuaQoxX5zW43c8RfVrsTddTRlp6bxlZQNzS-wSTOEVb0-ajZHoI6Zd6OY13WCZf3xfyb5cPxajjOoJK3CLIHs4f9oLRAO2Exg31RwoIZA7NEIHtNfc2gj8pz9ekZawB9rtclG7Qf_wGTmcxs6LSLiDHgGhjPqAXsF3H1FY2xgWOXiNcfPhj9W2gkBZ-m_WwNhZeNGu6U5qrmCyvuBAgqjiNWCbYLbkre1HfktanvtNAhS9bd9gNDbVg-E0FG8fWh5Z0VwrZ5wFmc6Jzs3Dlug_I5NpOdy1]--></g></svg>