<?xml version="1.0" encoding="us-ascii" standalone="no"?><svg xmlns="http://www.w3.org/2000/svg" xmlns:xlink="http://www.w3.org/1999/xlink" contentStyleType="text/css" height="1381px" preserveAspectRatio="none" style="width:1264px;height:1381px;background:#FFFFFF;" version="1.1" viewBox="0 0 1264 1381" width="1264px" zoomAndPan="magnify"><defs/><g><rect fill="none" height="229.9421" style="stroke:#000000;stroke-width:1.5;" width="1059.5" x="15" y="350.4221"/><rect fill="none" height="51.412" style="stroke:#000000;stroke-width:1.5;" width="733" x="24" y="594.3642"/><rect fill="none" height="398.7481" style="stroke:#000000;stroke-width:1.5;" width="1233.5" x="24" y="827.0123"/><line style="stroke:#181818;stroke-width:0.5;stroke-dasharray:5.0,5.0;" x1="52" x2="52" y1="84.0679" y2="1298.1724"/><line style="stroke:#181818;stroke-width:0.5;stroke-dasharray:5.0,5.0;" x1="192.5" x2="192.5" y1="84.0679" y2="1298.1724"/><line style="stroke:#181818;stroke-width:0.5;stroke-dasharray:5.0,5.0;" x1="446.5" x2="446.5" y1="84.0679" y2="1298.1724"/><line style="stroke:#181818;stroke-width:0.5;stroke-dasharray:5.0,5.0;" x1="667" x2="667" y1="84.0679" y2="1298.1724"/><line style="stroke:#181818;stroke-width:0.5;stroke-dasharray:5.0,5.0;" x1="901.5" x2="901.5" y1="84.0679" y2="1298.1724"/><line style="stroke:#181818;stroke-width:0.5;stroke-dasharray:5.0,5.0;" x1="1038.5" x2="1038.5" y1="84.0679" y2="1298.1724"/><text fill="#000000" font-family="sans-serif" font-size="14" lengthAdjust="spacing" textLength="31" x="34" y="79.9659">User</text><ellipse cx="52.5" cy="13.5" fill="#E2E2F0" rx="8" ry="8" style="stroke:#181818;stroke-width:0.5;"/><path d="M52.5,21.5 L52.5,48.5 M39.5,29.5 L65.5,29.5 M52.5,48.5 L39.5,63.5 M52.5,48.5 L65.5,63.5 " fill="none" style="stroke:#181818;stroke-width:0.5;"/><text fill="#000000" font-family="sans-serif" font-size="14" lengthAdjust="spacing" textLength="31" x="34" y="1312.1384">User</text><ellipse cx="52.5" cy="1324.7403" fill="#E2E2F0" rx="8" ry="8" style="stroke:#181818;stroke-width:0.5;"/><path d="M52.5,1332.7403 L52.5,1359.7403 M39.5,1340.7403 L65.5,1340.7403 M52.5,1359.7403 L39.5,1374.7403 M52.5,1359.7403 L65.5,1374.7403 " fill="none" style="stroke:#181818;stroke-width:0.5;"/><rect fill="#E2E2F0" height="33.0679" rx="2.5" ry="2.5" style="stroke:#181818;stroke-width:0.5;" width="86" x="149.5" y="50"/><text fill="#000000" font-family="sans-serif" font-size="14" lengthAdjust="spacing" textLength="72" x="156.5" y="71.9659">Sequencer</text><rect fill="#E2E2F0" height="33.0679" rx="2.5" ry="2.5" style="stroke:#181818;stroke-width:0.5;" width="86" x="149.5" y="1297.1724"/><text fill="#000000" font-family="sans-serif" font-size="14" lengthAdjust="spacing" textLength="72" x="156.5" y="1319.1384">Sequencer</text><rect fill="#E2E2F0" height="33.0679" rx="2.5" ry="2.5" style="stroke:#181818;stroke-width:0.5;" width="118" x="387.5" y="50"/><text fill="#000000" font-family="sans-serif" font-size="14" lengthAdjust="spacing" textLength="104" x="394.5" y="71.9659">Active Validator</text><rect fill="#E2E2F0" height="33.0679" rx="2.5" ry="2.5" style="stroke:#181818;stroke-width:0.5;" width="118" x="387.5" y="1297.1724"/><text fill="#000000" font-family="sans-serif" font-size="14" lengthAdjust="spacing" textLength="104" x="394.5" y="1319.1384">Active Validator</text><rect fill="#E2E2F0" height="33.0679" rx="2.5" ry="2.5" style="stroke:#181818;stroke-width:0.5;" width="159" x="588" y="50"/><text fill="#000000" font-family="sans-serif" font-size="14" lengthAdjust="spacing" textLength="145" x="595" y="71.9659">Validator (Non-Active)</text><rect fill="#E2E2F0" height="33.0679" rx="2.5" ry="2.5" style="stroke:#181818;stroke-width:0.5;" width="159" x="588" y="1297.1724"/><text fill="#000000" font-family="sans-serif" font-size="14" lengthAdjust="spacing" textLength="145" x="595" y="1319.1384">Validator (Non-Active)</text><rect fill="#E2E2F0" height="33.0679" rx="2.5" ry="2.5" style="stroke:#181818;stroke-width:0.5;" width="174" x="814.5" y="50"/><text fill="#000000" font-family="sans-serif" font-size="14" lengthAdjust="spacing" textLength="160" x="821.5" y="71.9659">AnyTrust DAC Members</text><rect fill="#E2E2F0" height="33.0679" rx="2.5" ry="2.5" style="stroke:#181818;stroke-width:0.5;" width="174" x="814.5" y="1297.1724"/><text fill="#000000" font-family="sans-serif" font-size="14" lengthAdjust="spacing" textLength="160" x="821.5" y="1319.1384">AnyTrust DAC Members</text><rect fill="#E2E2F0" height="33.0679" rx="2.5" ry="2.5" style="stroke:#181818;stroke-width:0.5;" width="80" x="998.5" y="50"/><text fill="#000000" font-family="sans-serif" font-size="14" lengthAdjust="spacing" textLength="66" x="1005.5" y="71.9659">Ethereum</text><rect fill="#E2E2F0" height="33.0679" rx="2.5" ry="2.5" style="stroke:#181818;stroke-width:0.5;" width="80" x="998.5" y="1297.1724"/><text fill="#000000" font-family="sans-serif" font-size="14" lengthAdjust="spacing" textLength="66" x="1005.5" y="1319.1384">Ethereum</text><polygon fill="#181818" points="180.5,113.7739,190.5,117.7739,180.5,121.7739,184.5,117.7739" style="stroke:#181818;stroke-width:1.0;"/><line style="stroke:#181818;stroke-width:1.0;" x1="52.5" x2="186.5" y1="117.7739" y2="117.7739"/><text fill="#000000" font-family="sans-serif" font-size="13" lengthAdjust="spacing" textLength="116" x="64.5" y="111.9649">Submit Transaction</text><polygon fill="#181818" points="63.5,145.4799,53.5,149.4799,63.5,153.4799,59.5,149.4799" style="stroke:#181818;stroke-width:1.0;"/><line style="stroke:#181818;stroke-width:1.0;" x1="57.5" x2="191.5" y1="149.4799" y2="149.4799"/><text fill="#000000" font-family="sans-serif" font-size="13" lengthAdjust="spacing" textLength="88" x="78.5" y="143.6709">Return Receipt</text><path d="M5,162.4799 L5,242.4799 L240,242.4799 L240,172.4799 L230,162.4799 L5,162.4799 " fill="#FEFFDD" style="stroke:#181818;stroke-width:0.5;"/><path d="M230,162.4799 L230,172.4799 L240,172.4799 L230,162.4799 " fill="#FEFFDD" style="stroke:#181818;stroke-width:0.5;"/><text fill="#000000" font-family="sans-serif" font-size="13" font-weight="bold" lengthAdjust="spacing" textLength="78" x="11" y="181.377">Soft Finality</text><text fill="#000000" font-family="sans-serif" font-size="13" lengthAdjust="spacing" textLength="211" x="11" y="199.083">- Tx will be included in next L2 Block</text><text fill="#000000" font-family="sans-serif" font-size="13" lengthAdjust="spacing" textLength="214" x="11" y="216.789">- Tx will be eventually finalized on L2</text><text fill="#000000" font-family="sans-serif" font-size="13" lengthAdjust="spacing" textLength="214" x="11" y="234.495">- Tx will be eventually finalized on L1</text><polygon fill="#181818" points="655.5,268.01,665.5,272.01,655.5,276.01,659.5,272.01" style="stroke:#181818;stroke-width:1.0;"/><line style="stroke:#181818;stroke-width:1.0;" x1="192.5" x2="661.5" y1="272.01" y2="272.01"/><text fill="#000000" font-family="sans-serif" font-size="13" lengthAdjust="spacing" textLength="230" x="315" y="266.201">Broadcast L2 Block via Sequencer Feed</text><polygon fill="#181818" points="434.5,299.716,444.5,303.716,434.5,307.716,438.5,303.716" style="stroke:#181818;stroke-width:1.0;"/><line style="stroke:#181818;stroke-width:1.0;" x1="192.5" x2="440.5" y1="303.716" y2="303.716"/><text fill="#000000" font-family="sans-serif" font-size="13" lengthAdjust="spacing" textLength="230" x="204.5" y="297.907">Broadcast L2 Block via Sequencer Feed</text><polygon fill="#181818" points="889.5,331.4221,899.5,335.4221,889.5,339.4221,893.5,335.4221" style="stroke:#181818;stroke-width:1.0;"/><line style="stroke:#181818;stroke-width:1.0;" x1="667.5" x2="895.5" y1="335.4221" y2="335.4221"/><text fill="#000000" font-family="sans-serif" font-size="13" lengthAdjust="spacing" textLength="176" x="696.5" y="329.6131">Is data for L2 Block available ?</text><path d="M15,350.4221 L78,350.4221 L78,360.1281 L68,370.1281 L15,370.1281 L15,350.4221 " fill="#EEEEEE" style="stroke:#000000;stroke-width:1.5;"/><rect fill="none" height="229.9421" style="stroke:#000000;stroke-width:1.5;" width="1059.5" x="15" y="350.4221"/><text fill="#000000" font-family="sans-serif" font-size="13" font-weight="bold" lengthAdjust="spacing" textLength="18" x="30" y="365.3191">alt</text><polygon fill="#181818" points="678.5,389.8341,668.5,393.8341,678.5,397.8341,674.5,393.8341" style="stroke:#181818;stroke-width:1.0;"/><line style="stroke:#181818;stroke-width:1.0;" x1="672.5" x2="900.5" y1="393.8341" y2="393.8341"/><text fill="#000000" font-family="sans-serif" font-size="13" lengthAdjust="spacing" textLength="20" x="774.5" y="388.0251">Yes</text><line style="stroke:#181818;stroke-width:1.0;" x1="667.5" x2="709.5" y1="425.5401" y2="425.5401"/><line style="stroke:#181818;stroke-width:1.0;" x1="709.5" x2="709.5" y1="425.5401" y2="438.5401"/><line style="stroke:#181818;stroke-width:1.0;" x1="668.5" x2="709.5" y1="438.5401" y2="438.5401"/><polygon fill="#181818" points="678.5,434.5401,668.5,438.5401,678.5,442.5401,674.5,438.5401" style="stroke:#181818;stroke-width:1.0;"/><text fill="#000000" font-family="sans-serif" font-size="13" lengthAdjust="spacing" textLength="100" x="674.5" y="419.7311">Confirm L2 Block</text><path d="M25,451.5401 L25,496.5401 L1064,496.5401 L1064,461.5401 L1054,451.5401 L25,451.5401 " fill="#FEFFDD" style="stroke:#181818;stroke-width:0.5;"/><path d="M1054,451.5401 L1054,461.5401 L1064,461.5401 L1054,451.5401 " fill="#FEFFDD" style="stroke:#181818;stroke-width:0.5;"/><text fill="#000000" font-family="sans-serif" font-size="13" font-weight="bold" lengthAdjust="spacing" textLength="69" x="427.25" y="470.4371">Confirmed</text><text fill="#000000" font-family="sans-serif" font-size="13" lengthAdjust="spacing" textLength="226" x="427.25" y="488.1431">- Txs in the L2 Block are finalized on L2</text><line style="stroke:#000000;stroke-width:1.0;stroke-dasharray:2.0,2.0;" x1="15" x2="1074.5" y1="502.9521" y2="502.9521"/><polygon fill="#181818" points="678.5,523.6582,668.5,527.6582,678.5,531.6582,674.5,527.6582" style="stroke:#181818;stroke-width:1.0;"/><line style="stroke:#181818;stroke-width:1.0;" x1="672.5" x2="900.5" y1="527.6582" y2="527.6582"/><text fill="#000000" font-family="sans-serif" font-size="13" lengthAdjust="spacing" textLength="18" x="775.5" y="521.8492">No</text><line style="stroke:#181818;stroke-width:1.0;" x1="667.5" x2="709.5" y1="559.3642" y2="559.3642"/><line style="stroke:#181818;stroke-width:1.0;" x1="709.5" x2="709.5" y1="559.3642" y2="572.3642"/><line style="stroke:#181818;stroke-width:1.0;" x1="668.5" x2="709.5" y1="572.3642" y2="572.3642"/><polygon fill="#181818" points="678.5,568.3642,668.5,572.3642,678.5,576.3642,674.5,572.3642" style="stroke:#181818;stroke-width:1.0;"/><text fill="#000000" font-family="sans-serif" font-size="13" lengthAdjust="spacing" textLength="220" x="674.5" y="553.5552">L2 chain is halted until Yes is received</text><path d="M24,594.3642 L91,594.3642 L91,604.0702 L81,614.0702 L24,614.0702 L24,594.3642 " fill="#EEEEEE" style="stroke:#000000;stroke-width:1.5;"/><rect fill="none" height="51.412" style="stroke:#000000;stroke-width:1.5;" width="733" x="24" y="594.3642"/><text fill="#000000" font-family="sans-serif" font-size="13" font-weight="bold" lengthAdjust="spacing" textLength="22" x="39" y="609.2612">opt</text><text fill="#000000" font-family="sans-serif" font-size="11" font-weight="bold" lengthAdjust="spacing" textLength="136" x="106" y="608.1231">[Check for Tx confirmed]</text><polygon fill="#181818" points="655.5,633.7762,665.5,637.7762,655.5,641.7762,659.5,637.7762" style="stroke:#181818;stroke-width:1.0;"/><line style="stroke:#181818;stroke-width:1.0;" x1="52.5" x2="661.5" y1="637.7762" y2="637.7762"/><text fill="#000000" font-family="sans-serif" font-size="13" lengthAdjust="spacing" textLength="157" x="281.5" y="631.9672">Reads that Tx is confirmed</text><line style="stroke:#181818;stroke-width:1.0;" x1="446.5" x2="488.5" y1="694.1882" y2="694.1882"/><line style="stroke:#181818;stroke-width:1.0;" x1="488.5" x2="488.5" y1="694.1882" y2="707.1882"/><line style="stroke:#181818;stroke-width:1.0;" x1="447.5" x2="488.5" y1="707.1882" y2="707.1882"/><polygon fill="#181818" points="457.5,703.1882,447.5,707.1882,457.5,711.1882,453.5,707.1882" style="stroke:#181818;stroke-width:1.0;"/><text fill="#000000" font-family="sans-serif" font-size="13" lengthAdjust="spacing" textLength="98" x="462.5" y="670.6732">Collect L2 Blocks</text><text fill="#000000" font-family="sans-serif" font-size="13" lengthAdjust="spacing" textLength="116" x="453.5" y="688.3792">and form an RBlock</text><polygon fill="#181818" points="1026.5,734.8943,1036.5,738.8943,1026.5,742.8943,1030.5,738.8943" style="stroke:#181818;stroke-width:1.0;"/><line style="stroke:#181818;stroke-width:1.0;" x1="446.5" x2="1032.5" y1="738.8943" y2="738.8943"/><text fill="#000000" font-family="sans-serif" font-size="13" lengthAdjust="spacing" textLength="103" x="691" y="733.0853">Post RBlock to L1</text><path d="M399,751.8943 L399,814.8943 L1085,814.8943 L1085,761.8943 L1075,751.8943 L399,751.8943 " fill="#FEFFDD" style="stroke:#181818;stroke-width:0.5;"/><path d="M1075,751.8943 L1075,761.8943 L1085,761.8943 L1075,751.8943 " fill="#FEFFDD" style="stroke:#181818;stroke-width:0.5;"/><text fill="#000000" font-family="sans-serif" font-size="13" font-weight="bold" lengthAdjust="spacing" textLength="75" x="625" y="770.7913">Settlement</text><text fill="#000000" font-family="sans-serif" font-size="13" lengthAdjust="spacing" textLength="159" x="625" y="788.4973">- RBlock is registered on L1</text><text fill="#000000" font-family="sans-serif" font-size="13" lengthAdjust="spacing" textLength="225" x="625" y="806.2033">- Fraud proof challenge window starts</text><path d="M24,827.0123 L87,827.0123 L87,836.7183 L77,846.7183 L24,846.7183 L24,827.0123 " fill="#EEEEEE" style="stroke:#000000;stroke-width:1.5;"/><rect fill="none" height="398.7481" style="stroke:#000000;stroke-width:1.5;" width="1233.5" x="24" y="827.0123"/><text fill="#000000" font-family="sans-serif" font-size="13" font-weight="bold" lengthAdjust="spacing" textLength="18" x="39" y="841.9093">alt</text><text fill="#000000" font-family="sans-serif" font-size="11" font-weight="bold" lengthAdjust="spacing" textLength="147" x="102" y="840.7712">[Fraud detected in Rblock]</text><polygon fill="#181818" points="1026.5,866.4243,1036.5,870.4243,1026.5,874.4243,1030.5,870.4243" style="stroke:#181818;stroke-width:1.0;"/><line style="stroke:#181818;stroke-width:1.0;" x1="667.5" x2="1032.5" y1="870.4243" y2="870.4243"/><text fill="#000000" font-family="sans-serif" font-size="13" lengthAdjust="spacing" textLength="114" x="796" y="864.6153">Submit fraud proof</text><path d="M399,883.4243 L399,910.4243 L1085,910.4243 L1085,893.4243 L1075,883.4243 L399,883.4243 " fill="#FEFFDD" style="stroke:#181818;stroke-width:0.5;"/><path d="M1075,883.4243 L1075,893.4243 L1085,893.4243 L1075,883.4243 " fill="#FEFFDD" style="stroke:#181818;stroke-width:0.5;"/><text fill="#000000" font-family="sans-serif" font-size="13" lengthAdjust="spacing" textLength="199" x="638" y="902.3214">Interactive fraud proof resolution</text><polygon fill="#181818" points="457.5,935.8364,447.5,939.8364,457.5,943.8364,453.5,939.8364" style="stroke:#181818;stroke-width:1.0;"/><line style="stroke:#181818;stroke-width:1.0;" x1="451.5" x2="1037.5" y1="939.8364" y2="939.8364"/><text fill="#000000" font-family="sans-serif" font-size="13" lengthAdjust="spacing" textLength="121" x="682" y="934.0274">Slash bond for fraud</text><line style="stroke:#181818;stroke-width:1.0;" x1="1038.5" x2="1080.5" y1="971.5424" y2="971.5424"/><line style="stroke:#181818;stroke-width:1.0;" x1="1080.5" x2="1080.5" y1="971.5424" y2="984.5424"/><line style="stroke:#181818;stroke-width:1.0;" x1="1039.5" x2="1080.5" y1="984.5424" y2="984.5424"/><polygon fill="#181818" points="1049.5,980.5424,1039.5,984.5424,1049.5,988.5424,1045.5,984.5424" style="stroke:#181818;stroke-width:1.0;"/><text fill="#000000" font-family="sans-serif" font-size="13" lengthAdjust="spacing" textLength="200" x="1045.5" y="965.7334">Fraudulent L2 Blocks are reverted</text><polygon fill="#181818" points="1026.5,1012.2484,1036.5,1016.2484,1026.5,1020.2484,1030.5,1016.2484" style="stroke:#181818;stroke-width:1.0;"/><line style="stroke:#181818;stroke-width:1.0;" x1="667.5" x2="1032.5" y1="1016.2484" y2="1016.2484"/><text fill="#000000" font-family="sans-serif" font-size="13" lengthAdjust="spacing" textLength="205" x="750.5" y="1010.4394">Reads the last unreverted L2 Block</text><polygon fill="#181818" points="1026.5,1043.9544,1036.5,1047.9544,1026.5,1051.9544,1030.5,1047.9544" style="stroke:#181818;stroke-width:1.0;"/><line style="stroke:#181818;stroke-width:1.0;" x1="446.5" x2="1032.5" y1="1047.9544" y2="1047.9544"/><text fill="#000000" font-family="sans-serif" font-size="13" lengthAdjust="spacing" textLength="205" x="640" y="1042.1454">Reads the last unreverted L2 Block</text><line style="stroke:#181818;stroke-width:1.0;" x1="667.5" x2="709.5" y1="1079.6604" y2="1079.6604"/><line style="stroke:#181818;stroke-width:1.0;" x1="709.5" x2="709.5" y1="1079.6604" y2="1092.6604"/><line style="stroke:#181818;stroke-width:1.0;" x1="668.5" x2="709.5" y1="1092.6604" y2="1092.6604"/><polygon fill="#181818" points="678.5,1088.6604,668.5,1092.6604,678.5,1096.6604,674.5,1092.6604" style="stroke:#181818;stroke-width:1.0;"/><text fill="#000000" font-family="sans-serif" font-size="13" lengthAdjust="spacing" textLength="207" x="674.5" y="1073.8514">Resets the L2 chain to this L2 Block</text><line style="stroke:#181818;stroke-width:1.0;" x1="446.5" x2="488.5" y1="1124.3665" y2="1124.3665"/><line style="stroke:#181818;stroke-width:1.0;" x1="488.5" x2="488.5" y1="1124.3665" y2="1137.3665"/><line style="stroke:#181818;stroke-width:1.0;" x1="447.5" x2="488.5" y1="1137.3665" y2="1137.3665"/><polygon fill="#181818" points="457.5,1133.3665,447.5,1137.3665,457.5,1141.3665,453.5,1137.3665" style="stroke:#181818;stroke-width:1.0;"/><text fill="#000000" font-family="sans-serif" font-size="13" lengthAdjust="spacing" textLength="207" x="453.5" y="1118.5575">Resets the L2 chain to this L2 Block</text><polygon fill="#181818" points="655.5,1165.0725,665.5,1169.0725,655.5,1173.0725,659.5,1169.0725" style="stroke:#181818;stroke-width:1.0;"/><line style="stroke:#181818;stroke-width:1.0;" x1="52.5" x2="661.5" y1="1169.0725" y2="1169.0725"/><text fill="#000000" font-family="sans-serif" font-size="13" lengthAdjust="spacing" textLength="161" x="279.5" y="1163.2635">Reads that Tx was reverted</text><line style="stroke:#000000;stroke-width:1.0;stroke-dasharray:2.0,2.0;" x1="24" x2="1257.5" y1="1178.0725" y2="1178.0725"/><text fill="#000000" font-family="sans-serif" font-size="11" font-weight="bold" lengthAdjust="spacing" textLength="147" x="29" y="1189.8314">[Challenge period expired]</text><polygon fill="#181818" points="678.5,1213.7604,668.5,1217.7604,678.5,1221.7604,674.5,1217.7604" style="stroke:#181818;stroke-width:1.0;"/><line style="stroke:#181818;stroke-width:1.0;" x1="672.5" x2="1037.5" y1="1217.7604" y2="1217.7604"/><text fill="#000000" font-family="sans-serif" font-size="13" lengthAdjust="spacing" textLength="87" x="809.5" y="1211.9514">Finalize RBlock</text><path d="M25,1237.7604 L25,1282.7604 L1064,1282.7604 L1064,1247.7604 L1054,1237.7604 L25,1237.7604 " fill="#FEFFDD" style="stroke:#181818;stroke-width:0.5;"/><path d="M1054,1237.7604 L1054,1247.7604 L1064,1247.7604 L1054,1237.7604 " fill="#FEFFDD" style="stroke:#181818;stroke-width:0.5;"/><text fill="#000000" font-family="sans-serif" font-size="13" font-weight="bold" lengthAdjust="spacing" textLength="82" x="479.75" y="1256.6574">Hard finality</text><text fill="#000000" font-family="sans-serif" font-size="13" lengthAdjust="spacing" textLength="121" x="479.75" y="1274.3634">- Tx is finalized on L1</text><!--SRC=[fLLDRnCn4BtxLunw0I9wW6CEe3GGKObMA2b8IBrCrfF4gjTUR6-IykiPh_Sp7sqaScbgltcUUMzcuf-KAT1X3fx-b6GokYFlSKqJhTO6CZA170Y1MR0EVdfoWk51PQf04s1H1mrFhoPPK5k2NwYLH0wy0lIG3jkpOKHx36_lhRbEs7TLt9c8YNb-SAKFy6KoXJlAb-HyUgU-6CA_XWqvAlCAqlmZHAm8hZzrXOnXKIvp5U31eV5Sjh96jBSH6aF6CATGEiD_Cb954CO60hkbfD7xFjzejB2h03Dbk93mF1ezccjusCDEQGrB0cKoNKgI_0KCxGDy_mWtscPF1pZQiXabQlqCguhhByTOm_1BWH_4i99MsJ7SE8ioGz-z3bk5NHam8vB3w0C_B-KGdTMHf3Ph3BSU-1HXnHTjF6vHQLngWiy2TH2jwSFiVvCVqlRkfjQibCjRpYEhccQ8JjLWaerBFhh2W5vAZWxr5wGzmRdaxktPt9Wqso2_e3nik3ucB4rGEXOKprpihYsBHaOAMmIOReXJY1AntrcJRDl5FUeveVISEOO8PQuE7Sc4EB3lfADJgpLbdP_-qQ2HyVqSa9i_2Ng2gTFqXsL14X22hNgmvy11wD2C1OMWAUTcJcxKB9KkQ-LvCJLz7Mzd3ai9XRDs5KNbnCsQU2QCj3lmWNU15x67Qg2am9MbgPilgpg0FsUgg7V2gdkZGbzKo6rSePWsOe-0Y_1MbzL-YLnlNcBx7-8cuAJ32ur-0qkRN4qqHr7TavLs9KlRwubg8Xml7STolYHYqv84EYw9qZH1tMp6w1VRwKAESmCt9q_1DmETPe-xCcougLvBuaYxYybU7SyT-ax1QfbCsmuko2ahWVQ5SdJiJOzpLc-bPb3Ie9zTTwFHDtIotcMztoNE_k1duny0]--></g></svg>