<?xml version="1.0" encoding="us-ascii" standalone="no"?><svg xmlns="http://www.w3.org/2000/svg" xmlns:xlink="http://www.w3.org/1999/xlink" contentStyleType="text/css" height="1930px" preserveAspectRatio="none" style="width:1359px;height:1930px;background:#FFFFFF;" version="1.1" viewBox="0 0 1359 1930" width="1359px" zoomAndPan="magnify"><defs/><g><rect fill="#D3D3D3" height="1918.9722" style="stroke:#181818;stroke-width:0.5;" width="973.5" x="228.5" y="6"/><text fill="#000000" font-family="sans-serif" font-size="13" font-weight="bold" lengthAdjust="spacing" textLength="50" x="688.75" y="19.897">Relayer</text><rect fill="#90EE90" height="255.63" style="stroke:#000000;stroke-width:1.5;" width="844.5" x="363.5" y="308.49"/><rect fill="#FFFFFF" height="61.6879" style="stroke:none;stroke-width:1.0;" width="844.5" x="363.5" y="502.4321"/><rect fill="#90EE90" height="190.924" style="stroke:#000000;stroke-width:1.5;" width="446" x="896" y="919.2982"/><rect fill="#FFB6C1" height="90.0999" style="stroke:none;stroke-width:1.0;" width="446" x="896" y="1020.1223"/><rect fill="#90EE90" height="255.63" style="stroke:#000000;stroke-width:1.5;" width="654.5" x="553.5" y="1173.6343"/><rect fill="#FFFFFF" height="61.6879" style="stroke:none;stroke-width:1.0;" width="654.5" x="553.5" y="1367.5764"/><rect fill="#90EE90" height="197.924" style="stroke:#000000;stroke-width:1.5;" width="1198" x="10" y="1653.9124"/><rect fill="#FFB6C1" height="66.3939" style="stroke:none;stroke-width:1.0;" width="1198" x="10" y="1785.4425"/><line style="stroke:#181818;stroke-width:0.5;stroke-dasharray:5.0,5.0;" x1="64" x2="64" y1="80.8419" y2="1868.8364"/><line style="stroke:#181818;stroke-width:0.5;stroke-dasharray:5.0,5.0;" x1="286.5" x2="286.5" y1="80.8419" y2="1868.8364"/><line style="stroke:#181818;stroke-width:0.5;stroke-dasharray:5.0,5.0;" x1="445.5" x2="445.5" y1="80.8419" y2="1868.8364"/><line style="stroke:#181818;stroke-width:0.5;stroke-dasharray:5.0,5.0;" x1="635.5" x2="635.5" y1="80.8419" y2="1868.8364"/><line style="stroke:#181818;stroke-width:0.5;stroke-dasharray:5.0,5.0;" x1="965" x2="965" y1="80.8419" y2="1868.8364"/><line style="stroke:#181818;stroke-width:0.5;stroke-dasharray:5.0,5.0;" x1="1148" x2="1148" y1="80.8419" y2="1868.8364"/><line style="stroke:#181818;stroke-width:0.5;stroke-dasharray:5.0,5.0;" x1="1253" x2="1253" y1="80.8419" y2="1868.8364"/><rect fill="#E2E2F0" height="52.1358" rx="2.5" ry="2.5" style="stroke:#181818;stroke-width:0.5;" width="88" x="20" y="27.706"/><text fill="#000000" font-family="sans-serif" font-size="14" lengthAdjust="spacing" textLength="49" x="39.5" y="49.672">Host L1</text><text fill="#000000" font-family="sans-serif" font-size="14" lengthAdjust="spacing" textLength="74" x="27" y="68.7399">(Ethereum)</text><rect fill="#E2E2F0" height="52.1358" rx="2.5" ry="2.5" style="stroke:#181818;stroke-width:0.5;" width="88" x="20" y="1867.8364"/><text fill="#000000" font-family="sans-serif" font-size="14" lengthAdjust="spacing" textLength="49" x="39.5" y="1889.8023">Host L1</text><text fill="#000000" font-family="sans-serif" font-size="14" lengthAdjust="spacing" textLength="74" x="27" y="1908.8703">(Ethereum)</text><rect fill="#E2E2F0" height="52.1358" rx="2.5" ry="2.5" style="stroke:#181818;stroke-width:0.5;" width="109" x="232.5" y="27.706"/><text fill="#000000" font-family="sans-serif" font-size="14" lengthAdjust="spacing" textLength="95" x="239.5" y="49.672">Event Listener</text><text fill="#000000" font-family="sans-serif" font-size="14" lengthAdjust="spacing" textLength="49" x="262.5" y="68.7399">Host L1</text><rect fill="#E2E2F0" height="52.1358" rx="2.5" ry="2.5" style="stroke:#181818;stroke-width:0.5;" width="109" x="232.5" y="1867.8364"/><text fill="#000000" font-family="sans-serif" font-size="14" lengthAdjust="spacing" textLength="95" x="239.5" y="1889.8023">Event Listener</text><text fill="#000000" font-family="sans-serif" font-size="14" lengthAdjust="spacing" textLength="49" x="262.5" y="1908.8703">Host L1</text><rect fill="#E2E2F0" height="52.1358" rx="2.5" ry="2.5" style="stroke:#181818;stroke-width:0.5;" width="145" x="373.5" y="27.706"/><text fill="#000000" font-family="sans-serif" font-size="14" lengthAdjust="spacing" textLength="131" x="380.5" y="49.672">Decryption Handler</text><text fill="#000000" font-family="sans-serif" font-size="14" lengthAdjust="spacing" textLength="49" x="421.5" y="68.7399">Host L1</text><rect fill="#E2E2F0" height="52.1358" rx="2.5" ry="2.5" style="stroke:#181818;stroke-width:0.5;" width="145" x="373.5" y="1867.8364"/><text fill="#000000" font-family="sans-serif" font-size="14" lengthAdjust="spacing" textLength="131" x="380.5" y="1889.8023">Decryption Handler</text><text fill="#000000" font-family="sans-serif" font-size="14" lengthAdjust="spacing" textLength="49" x="421.5" y="1908.8703">Host L1</text><rect fill="#E2E2F0" height="52.1358" rx="2.5" ry="2.5" style="stroke:#181818;stroke-width:0.5;" width="145" x="563.5" y="27.706"/><text fill="#000000" font-family="sans-serif" font-size="14" lengthAdjust="spacing" textLength="131" x="570.5" y="49.672">Decryption Handler</text><text fill="#000000" font-family="sans-serif" font-size="14" lengthAdjust="spacing" textLength="76" x="598" y="68.7399">Gateway L2</text><rect fill="#E2E2F0" height="52.1358" rx="2.5" ry="2.5" style="stroke:#181818;stroke-width:0.5;" width="145" x="563.5" y="1867.8364"/><text fill="#000000" font-family="sans-serif" font-size="14" lengthAdjust="spacing" textLength="131" x="570.5" y="1889.8023">Decryption Handler</text><text fill="#000000" font-family="sans-serif" font-size="14" lengthAdjust="spacing" textLength="76" x="598" y="1908.8703">Gateway L2</text><rect fill="#E2E2F0" height="52.1358" rx="2.5" ry="2.5" style="stroke:#181818;stroke-width:0.5;" width="118" x="906" y="27.706"/><text fill="#000000" font-family="sans-serif" font-size="14" lengthAdjust="spacing" textLength="104" x="913" y="49.672">Event Listenern</text><text fill="#000000" font-family="sans-serif" font-size="14" lengthAdjust="spacing" textLength="76" x="927" y="68.7399">Gateway L2</text><rect fill="#E2E2F0" height="52.1358" rx="2.5" ry="2.5" style="stroke:#181818;stroke-width:0.5;" width="118" x="906" y="1867.8364"/><text fill="#000000" font-family="sans-serif" font-size="14" lengthAdjust="spacing" textLength="104" x="913" y="1889.8023">Event Listenern</text><text fill="#000000" font-family="sans-serif" font-size="14" lengthAdjust="spacing" textLength="76" x="927" y="1908.8703">Gateway L2</text><rect fill="#E2E2F0" height="33.0679" rx="2.5" ry="2.5" style="stroke:#181818;stroke-width:0.5;" width="100" x="1098" y="46.7739"/><text fill="#000000" font-family="sans-serif" font-size="14" lengthAdjust="spacing" textLength="86" x="1105" y="68.7399">Orchestrator</text><rect fill="#E2E2F0" height="33.0679" rx="2.5" ry="2.5" style="stroke:#181818;stroke-width:0.5;" width="100" x="1098" y="1867.8364"/><text fill="#000000" font-family="sans-serif" font-size="14" lengthAdjust="spacing" textLength="86" x="1105" y="1889.8023">Orchestrator</text><rect fill="#E2E2F0" height="52.1358" rx="2.5" ry="2.5" style="stroke:#181818;stroke-width:0.5;" width="90" x="1208" y="27.706"/><text fill="#000000" font-family="sans-serif" font-size="14" lengthAdjust="spacing" textLength="76" x="1215" y="49.672">Gateway L2</text><text fill="#000000" font-family="sans-serif" font-size="14" lengthAdjust="spacing" textLength="69" x="1218.5" y="68.7399">(Arbitrum)</text><rect fill="#E2E2F0" height="52.1358" rx="2.5" ry="2.5" style="stroke:#181818;stroke-width:0.5;" width="90" x="1208" y="1867.8364"/><text fill="#000000" font-family="sans-serif" font-size="14" lengthAdjust="spacing" textLength="76" x="1215" y="1889.8023">Gateway L2</text><text fill="#000000" font-family="sans-serif" font-size="14" lengthAdjust="spacing" textLength="69" x="1218.5" y="1908.8703">(Arbitrum)</text><polygon fill="#181818" points="275,128.2539,285,132.2539,275,136.2539,279,132.2539" style="stroke:#181818;stroke-width:1.0;"/><line style="stroke:#181818;stroke-width:1.0;" x1="64" x2="281" y1="132.2539" y2="132.2539"/><text fill="#000000" font-family="sans-serif" font-size="13" lengthAdjust="spacing" textLength="27" x="71" y="108.7389">Emit</text><text fill="#000000" font-family="sans-serif" font-size="13" lengthAdjust="spacing" textLength="162" x="71" y="126.4449">"DecryptionRequest" Event</text><line style="stroke:#181818;stroke-width:1.0;" x1="287" x2="329" y1="181.6659" y2="181.6659"/><line style="stroke:#181818;stroke-width:1.0;" x1="329" x2="329" y1="181.6659" y2="194.6659"/><line style="stroke:#181818;stroke-width:1.0;" x1="288" x2="329" y1="194.6659" y2="194.6659"/><polygon fill="#181818" points="298,190.6659,288,194.6659,298,198.6659,294,194.6659" style="stroke:#181818;stroke-width:1.0;"/><text fill="#000000" font-family="sans-serif" font-size="13" lengthAdjust="spacing" textLength="55" x="294" y="158.1509">Generate</text><text fill="#000000" font-family="sans-serif" font-size="13" lengthAdjust="spacing" textLength="145" x="294" y="175.8569">Orchestrator Request ID</text><polygon fill="#181818" points="1136,240.0779,1146,244.0779,1136,248.0779,1140,244.0779" style="stroke:#181818;stroke-width:1.0;"/><line style="stroke:#181818;stroke-width:1.0;" x1="287" x2="1142" y1="244.0779" y2="244.0779"/><text fill="#000000" font-family="sans-serif" font-size="13" lengthAdjust="spacing" textLength="52" x="294" y="220.5629">Dispatch</text><text fill="#000000" font-family="sans-serif" font-size="13" lengthAdjust="spacing" textLength="169" x="294" y="238.2689">EventLogFromHostL1 event</text><polygon fill="#181818" points="457,289.49,447,293.49,457,297.49,453,293.49" style="stroke:#181818;stroke-width:1.0;"/><line style="stroke:#181818;stroke-width:1.0;" x1="451" x2="1147" y1="293.49" y2="293.49"/><text fill="#000000" font-family="sans-serif" font-size="13" lengthAdjust="spacing" textLength="43" x="463" y="269.975">Handle</text><text fill="#000000" font-family="sans-serif" font-size="13" lengthAdjust="spacing" textLength="169" x="463" y="287.681">EventLogFromHostL1 event</text><path d="M363.5,308.49 L430.5,308.49 L430.5,318.196 L420.5,328.196 L363.5,328.196 L363.5,308.49 " fill="#EEEEEE" style="stroke:#000000;stroke-width:1.5;"/><rect fill="none" height="255.63" style="stroke:#000000;stroke-width:1.5;" width="844.5" x="363.5" y="308.49"/><text fill="#000000" font-family="sans-serif" font-size="13" font-weight="bold" lengthAdjust="spacing" textLength="22" x="378.5" y="323.387">opt</text><text fill="#000000" font-family="sans-serif" font-size="11" font-weight="bold" lengthAdjust="spacing" textLength="230" x="445.5" y="322.2489">[topic matches DecryptionRequest Event]</text><line style="stroke:#181818;stroke-width:1.0;" x1="446" x2="488" y1="351.902" y2="351.902"/><line style="stroke:#181818;stroke-width:1.0;" x1="488" x2="488" y1="351.902" y2="364.902"/><line style="stroke:#181818;stroke-width:1.0;" x1="447" x2="488" y1="364.902" y2="364.902"/><polygon fill="#181818" points="457,360.902,447,364.902,457,368.902,453,364.902" style="stroke:#181818;stroke-width:1.0;"/><text fill="#000000" font-family="sans-serif" font-size="13" lengthAdjust="spacing" textLength="82" x="453" y="346.093">Decode event</text><line style="stroke:#181818;stroke-width:1.0;" x1="446" x2="488" y1="432.0201" y2="432.0201"/><line style="stroke:#181818;stroke-width:1.0;" x1="488" x2="488" y1="432.0201" y2="445.0201"/><line style="stroke:#181818;stroke-width:1.0;" x1="447" x2="488" y1="445.0201" y2="445.0201"/><polygon fill="#181818" points="457,441.0201,447,445.0201,457,449.0201,453,445.0201" style="stroke:#181818;stroke-width:1.0;"/><text fill="#000000" font-family="sans-serif" font-size="13" lengthAdjust="spacing" textLength="127" x="453" y="390.799">Store to context data</text><text fill="#000000" font-family="sans-serif" font-size="13" lengthAdjust="spacing" textLength="152" x="453" y="408.505">(Orchestrator Request ID,</text><text fill="#000000" font-family="sans-serif" font-size="13" lengthAdjust="spacing" textLength="156" x="453" y="426.2111">Callback selector, address)</text><polygon fill="#181818" points="1136,490.4321,1146,494.4321,1136,498.4321,1140,494.4321" style="stroke:#181818;stroke-width:1.0;"/><line style="stroke:#181818;stroke-width:1.0;" x1="446" x2="1142" y1="494.4321" y2="494.4321"/><text fill="#000000" font-family="sans-serif" font-size="13" lengthAdjust="spacing" textLength="52" x="453" y="470.9171">Dispatch</text><text fill="#000000" font-family="sans-serif" font-size="13" lengthAdjust="spacing" textLength="238" x="453" y="488.6231">DecryptionRequestEventLogRcvd event</text><line style="stroke:#000000;stroke-width:1.0;stroke-dasharray:2.0,2.0;" x1="363.5" x2="1208" y1="503.4321" y2="503.4321"/><text fill="#000000" font-family="sans-serif" font-size="11" font-weight="bold" lengthAdjust="spacing" textLength="126" x="368.5" y="515.191">[topic does not match]</text><line style="stroke:#181818;stroke-width:1.0;" x1="446" x2="488" y1="543.12" y2="543.12"/><line style="stroke:#181818;stroke-width:1.0;" x1="488" x2="488" y1="543.12" y2="556.12"/><line style="stroke:#181818;stroke-width:1.0;" x1="447" x2="488" y1="556.12" y2="556.12"/><polygon fill="#181818" points="457,552.12,447,556.12,457,560.12,453,556.12" style="stroke:#181818;stroke-width:1.0;"/><text fill="#000000" font-family="sans-serif" font-size="13" lengthAdjust="spacing" textLength="122" x="453" y="537.311">Ignore the event log</text><polygon fill="#181818" points="647,608.532,637,612.532,647,616.532,643,612.532" style="stroke:#181818;stroke-width:1.0;"/><line style="stroke:#181818;stroke-width:1.0;" x1="641" x2="1147" y1="612.532" y2="612.532"/><text fill="#000000" font-family="sans-serif" font-size="13" lengthAdjust="spacing" textLength="43" x="653" y="589.017">Handle</text><text fill="#000000" font-family="sans-serif" font-size="13" lengthAdjust="spacing" textLength="162" x="653" y="606.723">DecryptRequestRcvd event</text><polygon fill="#181818" points="1241,657.9441,1251,661.9441,1241,665.9441,1245,661.9441" style="stroke:#181818;stroke-width:1.0;"/><line style="stroke:#181818;stroke-width:1.0;" x1="636" x2="1247" y1="661.9441" y2="661.9441"/><text fill="#000000" font-family="sans-serif" font-size="13" lengthAdjust="spacing" textLength="281" x="643" y="638.429">Send "PublicDecryptionRequest" transaction to</text><text fill="#000000" font-family="sans-serif" font-size="13" lengthAdjust="spacing" textLength="176" x="643" y="656.1351">Decryption Manager contract</text><polygon fill="#181818" points="647,707.3561,637,711.3561,647,715.3561,643,711.3561" style="stroke:#181818;stroke-width:1.0;"/><line style="stroke:#181818;stroke-width:1.0;" x1="641" x2="1252" y1="711.3561" y2="711.3561"/><text fill="#000000" font-family="sans-serif" font-size="13" lengthAdjust="spacing" textLength="162" x="653" y="687.8411">Receive Transaction receipt</text><text fill="#000000" font-family="sans-serif" font-size="13" lengthAdjust="spacing" textLength="188" x="653" y="705.5471">containing Public Decryption ID</text><line style="stroke:#181818;stroke-width:1.0;" x1="636" x2="678" y1="760.7681" y2="760.7681"/><line style="stroke:#181818;stroke-width:1.0;" x1="678" x2="678" y1="760.7681" y2="773.7681"/><line style="stroke:#181818;stroke-width:1.0;" x1="637" x2="678" y1="773.7681" y2="773.7681"/><polygon fill="#181818" points="647,769.7681,637,773.7681,647,777.7681,643,773.7681" style="stroke:#181818;stroke-width:1.0;"/><text fill="#000000" font-family="sans-serif" font-size="13" lengthAdjust="spacing" textLength="315" x="643" y="737.2531">Store (Public Decryption ID, Orchestrator Request ID)</text><text fill="#000000" font-family="sans-serif" font-size="13" lengthAdjust="spacing" textLength="147" x="643" y="754.9591">mapping in context data</text><polygon fill="#181818" points="1136,836.8862,1146,840.8862,1136,844.8862,1140,840.8862" style="stroke:#181818;stroke-width:1.0;"/><line style="stroke:#181818;stroke-width:1.0;" x1="636" x2="1142" y1="840.8862" y2="840.8862"/><text fill="#000000" font-family="sans-serif" font-size="13" lengthAdjust="spacing" textLength="52" x="643" y="799.6651">Dispatch</text><text fill="#000000" font-family="sans-serif" font-size="13" lengthAdjust="spacing" textLength="201" x="643" y="817.3712">DecryptionReqToGwL2Sent event</text><text fill="#000000" font-family="sans-serif" font-size="13" lengthAdjust="spacing" textLength="111" x="643" y="835.0772">(for status update)</text><rect fill="#EEEEEE" height="3" style="stroke:#EEEEEE;stroke-width:1.0;" width="1352" x="0" y="879.5922"/><line style="stroke:#000000;stroke-width:1.0;" x1="0" x2="1352" y1="879.5922" y2="879.5922"/><line style="stroke:#000000;stroke-width:1.0;" x1="0" x2="1352" y1="882.5922" y2="882.5922"/><rect fill="#EEEEEE" height="43.412" style="stroke:#000000;stroke-width:2.0;" width="620" x="366" y="858.8862"/><text fill="#000000" font-family="sans-serif" font-size="13" font-weight="bold" lengthAdjust="spacing" textLength="606" x="372" y="876.7832">Wait until request is picked up by "k" KMS Parties (threshold defined in Decryption Manager),</text><text fill="#000000" font-family="sans-serif" font-size="13" font-weight="bold" lengthAdjust="spacing" textLength="233" x="372" y="894.4892">processed and result is posted back.</text><path d="M896,919.2982 L963,919.2982 L963,929.0042 L953,939.0042 L896,939.0042 L896,919.2982 " fill="#EEEEEE" style="stroke:#000000;stroke-width:1.5;"/><rect fill="none" height="190.924" style="stroke:#000000;stroke-width:1.5;" width="446" x="896" y="919.2982"/><text fill="#000000" font-family="sans-serif" font-size="13" font-weight="bold" lengthAdjust="spacing" textLength="22" x="911" y="934.1952">opt</text><polygon fill="#181818" points="976,958.7103,966,962.7103,976,966.7103,972,962.7103" style="stroke:#181818;stroke-width:1.0;"/><line style="stroke:#181818;stroke-width:1.0;" x1="970" x2="1252" y1="962.7103" y2="962.7103"/><text fill="#000000" font-family="sans-serif" font-size="13" lengthAdjust="spacing" textLength="127" x="982" y="956.9012">Send Result (Success)</text><polygon fill="#181818" points="1136,1008.1223,1146,1012.1223,1136,1016.1223,1140,1012.1223" style="stroke:#181818;stroke-width:1.0;"/><line style="stroke:#181818;stroke-width:1.0;" x1="965" x2="1142" y1="1012.1223" y2="1012.1223"/><text fill="#000000" font-family="sans-serif" font-size="13" lengthAdjust="spacing" textLength="52" x="972" y="988.6073">Dispatch</text><text fill="#000000" font-family="sans-serif" font-size="13" lengthAdjust="spacing" textLength="159" x="972" y="1006.3133">EventLogFromGwL2 event</text><line style="stroke:#000000;stroke-width:1.0;stroke-dasharray:2.0,2.0;" x1="896" x2="1342" y1="1021.1223" y2="1021.1223"/><text fill="#000000" font-family="sans-serif" font-size="11" font-weight="bold" lengthAdjust="spacing" textLength="202" x="901" y="1032.8812">[Result not available within timeout]</text><path d="M1068,1042.1042 L1068,1105.1042 L1332,1105.1042 L1332,1052.1042 L1322,1042.1042 L1068,1042.1042 " fill="#FEFFDD" style="stroke:#181818;stroke-width:0.5;"/><path d="M1322,1042.1042 L1322,1052.1042 L1332,1052.1042 L1322,1042.1042 " fill="#FEFFDD" style="stroke:#181818;stroke-width:0.5;"/><text fill="#000000" font-family="sans-serif" font-size="13" lengthAdjust="spacing" textLength="243" x="1074" y="1061.0012">Yet to define how this should be handled</text><text fill="#000000" font-family="sans-serif" font-size="13" lengthAdjust="spacing" textLength="237" x="1074" y="1078.7072">Maybe do nothing and Ethereum sends</text><text fill="#000000" font-family="sans-serif" font-size="13" lengthAdjust="spacing" textLength="150" x="1074" y="1096.4132">"timed out" error to user.</text><polygon fill="#181818" points="647,1154.6343,637,1158.6343,647,1162.6343,643,1158.6343" style="stroke:#181818;stroke-width:1.0;"/><line style="stroke:#181818;stroke-width:1.0;" x1="641" x2="1147" y1="1158.6343" y2="1158.6343"/><text fill="#000000" font-family="sans-serif" font-size="13" lengthAdjust="spacing" textLength="43" x="653" y="1135.1192">Handle</text><text fill="#000000" font-family="sans-serif" font-size="13" lengthAdjust="spacing" textLength="159" x="653" y="1152.8253">EventLogFromGwL2 event</text><path d="M553.5,1173.6343 L620.5,1173.6343 L620.5,1183.3403 L610.5,1193.3403 L553.5,1193.3403 L553.5,1173.6343 " fill="#EEEEEE" style="stroke:#000000;stroke-width:1.5;"/><rect fill="none" height="255.63" style="stroke:#000000;stroke-width:1.5;" width="654.5" x="553.5" y="1173.6343"/><text fill="#000000" font-family="sans-serif" font-size="13" font-weight="bold" lengthAdjust="spacing" textLength="22" x="568.5" y="1188.5313">opt</text><text fill="#000000" font-family="sans-serif" font-size="11" font-weight="bold" lengthAdjust="spacing" textLength="270" x="635.5" y="1187.3932">[topic matches PublicDecryptionResponse Event]</text><line style="stroke:#181818;stroke-width:1.0;" x1="636" x2="678" y1="1217.0463" y2="1217.0463"/><line style="stroke:#181818;stroke-width:1.0;" x1="678" x2="678" y1="1217.0463" y2="1230.0463"/><line style="stroke:#181818;stroke-width:1.0;" x1="637" x2="678" y1="1230.0463" y2="1230.0463"/><polygon fill="#181818" points="647,1226.0463,637,1230.0463,647,1234.0463,643,1230.0463" style="stroke:#181818;stroke-width:1.0;"/><text fill="#000000" font-family="sans-serif" font-size="13" lengthAdjust="spacing" textLength="82" x="643" y="1211.2373">Decode event</text><line style="stroke:#181818;stroke-width:1.0;" x1="636" x2="678" y1="1297.1643" y2="1297.1643"/><line style="stroke:#181818;stroke-width:1.0;" x1="678" x2="678" y1="1297.1643" y2="1310.1643"/><line style="stroke:#181818;stroke-width:1.0;" x1="637" x2="678" y1="1310.1643" y2="1310.1643"/><polygon fill="#181818" points="647,1306.1643,637,1310.1643,647,1314.1643,643,1310.1643" style="stroke:#181818;stroke-width:1.0;"/><text fill="#000000" font-family="sans-serif" font-size="13" lengthAdjust="spacing" textLength="160" x="643" y="1255.9433">Retreive from context data</text><text fill="#000000" font-family="sans-serif" font-size="13" lengthAdjust="spacing" textLength="169" x="643" y="1273.6493">(Orchestrator Request ID for</text><text fill="#000000" font-family="sans-serif" font-size="13" lengthAdjust="spacing" textLength="202" x="643" y="1291.3553">Public Decryption ID in Event Log)</text><polygon fill="#181818" points="1136,1355.5764,1146,1359.5764,1136,1363.5764,1140,1359.5764" style="stroke:#181818;stroke-width:1.0;"/><line style="stroke:#181818;stroke-width:1.0;" x1="636" x2="1142" y1="1359.5764" y2="1359.5764"/><text fill="#000000" font-family="sans-serif" font-size="13" lengthAdjust="spacing" textLength="52" x="643" y="1336.0614">Dispatch</text><text fill="#000000" font-family="sans-serif" font-size="13" lengthAdjust="spacing" textLength="255" x="643" y="1353.7674">DecryptionResponseRcvdFromGwL2 event</text><line style="stroke:#000000;stroke-width:1.0;stroke-dasharray:2.0,2.0;" x1="553.5" x2="1208" y1="1368.5764" y2="1368.5764"/><text fill="#000000" font-family="sans-serif" font-size="11" font-weight="bold" lengthAdjust="spacing" textLength="126" x="558.5" y="1380.3353">[topic does not match]</text><line style="stroke:#181818;stroke-width:1.0;" x1="636" x2="678" y1="1408.2643" y2="1408.2643"/><line style="stroke:#181818;stroke-width:1.0;" x1="678" x2="678" y1="1408.2643" y2="1421.2643"/><line style="stroke:#181818;stroke-width:1.0;" x1="637" x2="678" y1="1421.2643" y2="1421.2643"/><polygon fill="#181818" points="647,1417.2643,637,1421.2643,647,1425.2643,643,1421.2643" style="stroke:#181818;stroke-width:1.0;"/><text fill="#000000" font-family="sans-serif" font-size="13" lengthAdjust="spacing" textLength="122" x="643" y="1402.4553">Ignore the event log</text><polygon fill="#181818" points="457,1473.6763,447,1477.6763,457,1481.6763,453,1477.6763" style="stroke:#181818;stroke-width:1.0;"/><line style="stroke:#181818;stroke-width:1.0;" x1="451" x2="1147" y1="1477.6763" y2="1477.6763"/><text fill="#000000" font-family="sans-serif" font-size="13" lengthAdjust="spacing" textLength="43" x="463" y="1454.1613">Handle</text><text fill="#000000" font-family="sans-serif" font-size="13" lengthAdjust="spacing" textLength="255" x="463" y="1471.8673">DecryptionResponseRcvdFromGwL2 event</text><line style="stroke:#181818;stroke-width:1.0;" x1="446" x2="488" y1="1544.7944" y2="1544.7944"/><line style="stroke:#181818;stroke-width:1.0;" x1="488" x2="488" y1="1544.7944" y2="1557.7944"/><line style="stroke:#181818;stroke-width:1.0;" x1="447" x2="488" y1="1557.7944" y2="1557.7944"/><polygon fill="#181818" points="457,1553.7944,447,1557.7944,457,1561.7944,453,1557.7944" style="stroke:#181818;stroke-width:1.0;"/><text fill="#000000" font-family="sans-serif" font-size="13" lengthAdjust="spacing" textLength="160" x="453" y="1503.5733">Retrieve from context data</text><text fill="#000000" font-family="sans-serif" font-size="13" lengthAdjust="spacing" textLength="176" x="453" y="1521.2793">(Callback selector, address for</text><text fill="#000000" font-family="sans-serif" font-size="13" lengthAdjust="spacing" textLength="149" x="453" y="1538.9854">Orchestrator Request ID)</text><polygon fill="#181818" points="75,1603.2064,65,1607.2064,75,1611.2064,71,1607.2064" style="stroke:#181818;stroke-width:1.0;"/><line style="stroke:#181818;stroke-width:1.0;" x1="69" x2="445" y1="1607.2064" y2="1607.2064"/><text fill="#000000" font-family="sans-serif" font-size="13" lengthAdjust="spacing" textLength="163" x="81" y="1583.6914">Send "Callback transaction"</text><text fill="#000000" font-family="sans-serif" font-size="13" lengthAdjust="spacing" textLength="174" x="81" y="1601.3974">to the Dapp contract address</text><polygon fill="#181818" points="434,1634.9124,444,1638.9124,434,1642.9124,438,1638.9124" style="stroke:#181818;stroke-width:1.0;"/><line style="stroke:#181818;stroke-width:1.0;" x1="64" x2="440" y1="1638.9124" y2="1638.9124"/><text fill="#000000" font-family="sans-serif" font-size="13" lengthAdjust="spacing" textLength="107" x="71" y="1633.1034">Transaction result</text><path d="M10,1653.9124 L77,1653.9124 L77,1663.6184 L67,1673.6184 L10,1673.6184 L10,1653.9124 " fill="#EEEEEE" style="stroke:#000000;stroke-width:1.5;"/><rect fill="none" height="197.924" style="stroke:#000000;stroke-width:1.5;" width="1198" x="10" y="1653.9124"/><text fill="#000000" font-family="sans-serif" font-size="13" font-weight="bold" lengthAdjust="spacing" textLength="22" x="25" y="1668.8094">opt</text><text fill="#000000" font-family="sans-serif" font-size="11" font-weight="bold" lengthAdjust="spacing" textLength="136" x="92" y="1667.6713">[Transaction Succeeded]</text><polygon fill="#181818" points="1136,1711.0305,1146,1715.0305,1136,1719.0305,1140,1715.0305" style="stroke:#181818;stroke-width:1.0;"/><line style="stroke:#181818;stroke-width:1.0;" x1="446" x2="1142" y1="1715.0305" y2="1715.0305"/><text fill="#000000" font-family="sans-serif" font-size="13" lengthAdjust="spacing" textLength="30" x="453" y="1691.5154">Send</text><text fill="#000000" font-family="sans-serif" font-size="13" lengthAdjust="spacing" textLength="227" x="453" y="1709.2215">DecryptResponseSentToHostL1 event</text><line style="stroke:#181818;stroke-width:1.0;" x1="64" x2="106" y1="1764.4425" y2="1764.4425"/><line style="stroke:#181818;stroke-width:1.0;" x1="106" x2="106" y1="1764.4425" y2="1777.4425"/><line style="stroke:#181818;stroke-width:1.0;" x1="65" x2="106" y1="1777.4425" y2="1777.4425"/><polygon fill="#181818" points="75,1773.4425,65,1777.4425,75,1781.4425,71,1777.4425" style="stroke:#181818;stroke-width:1.0;"/><text fill="#000000" font-family="sans-serif" font-size="13" lengthAdjust="spacing" textLength="96" x="71" y="1740.9275">Process callback</text><text fill="#000000" font-family="sans-serif" font-size="13" lengthAdjust="spacing" textLength="209" x="71" y="1758.6335">(Read plaintext &amp; verify signatures)</text><line style="stroke:#000000;stroke-width:1.0;stroke-dasharray:2.0,2.0;" x1="10" x2="1208" y1="1786.4425" y2="1786.4425"/><text fill="#000000" font-family="sans-serif" font-size="11" font-weight="bold" lengthAdjust="spacing" textLength="107" x="15" y="1798.2014">[Transaction failed]</text><polygon fill="#181818" points="1136,1839.8364,1146,1843.8364,1136,1847.8364,1140,1843.8364" style="stroke:#181818;stroke-width:1.0;"/><line style="stroke:#181818;stroke-width:1.0;" x1="446" x2="1142" y1="1843.8364" y2="1843.8364"/><text fill="#000000" font-family="sans-serif" font-size="13" lengthAdjust="spacing" textLength="30" x="453" y="1820.3214">Send</text><text fill="#000000" font-family="sans-serif" font-size="13" lengthAdjust="spacing" textLength="138" x="453" y="1838.0274">DecryptionFailed event</text><!--SRC=[fLPHQzim47xthpXS60rqXVInqC5OshJCPIKjb85V5EiIYpYI9ydfykztifN6gkqswPv2REcxxxwx-yubqrPaecJIGdohZ8LadChJQvkZncezYe4PsFrBnb4qLtzXXWNReeQJH2npEzLi6vLjdEiDqayYZ4M9EfKUDyJoRyER4ypqjhH2IRXbaXT3jzspPEoFV0mnPHPVs1QIYnhbkvuBgwlrz2MvwCK84v0TW9agYghiJU6Npd8qLZEhj3iQjn_44KeE964Knjl3a_OxTgE0Qt8HHViwmDTl7IKluNejR2fR2ipmJqMnOwWJQW7uA_qmK_T3Z58P9EF1u6xIYzC-UmaJOKfcipoLTUX4BM-qycK3RDW4w2qcGN4lVHNV0rAbVUr5H0bMbIA3jOkF1ZfoU3Lwmxt3Wt0KHn_psCkFb2CICSYKjFZN0cUMKR4753vBvGzM57EMhS1WWHczFWF6kKPZHiFHXuhGqM0dvYpRS9yI5WRXv3aN5hs2N95yKjb6ogDplblAEkdSYmQ5Mhe1w5Q-Po3tTVVSFV4MuPvRRR3aWcHtynO_LFD2P3rZGGoaOLbj5bQrPO9x9jcI05szD1s9eZtk8EKPPYWs24yjNEsUbJIN3ea9AUGI6aAjpdH3zL4-GQIcdqxxWCvWeAb6gLopidG4X0mQSIZqGUtqfDojHrVWkYxKrGkAQoopbO6gf00uYgAhgsScB5JIYe94QKW90zHeA-Hq3kPRY5Sn_Bn_X0VdZjHyfpQdZizLmO7ZGaWwIDIxPHhHm9HQPJGTT8GIe0YcAfe0r9NqqCtI-TLLrotU53RqTjz2imRjzB7Aide2mrE7-fyJAfYsciQ3aAjT13TjRCD4mUO5mekmEULhnHfLPIDwYQ0s56zF-UnDuDzedSqqQa6kNcZ-I0JIi28Hv_IeBYzFvJtRqb-kNCpSDOMJRJVAv3gI6recBZO7YXu3Qarr9V3Ae3x_n2GFIF6-VNU7rvHAadZNXvX0m2Dmy6Ckpj3gUh0NnFn02mSQWbJs3QXhOV-5ePQZ_vczHWbdYRtTzOwN7vFzuJx-mGO_YFhHQyOLH-10SOQtQ5EV8Qlyc4KotgsNrnYjTHAdaWR5IJOXottT8hlW0vzoRp8BruZpXwvxjS_KxeGS-Q4V28v_Qy4sDN5E_gI2Bwo13qzIuA4nNSYy1YJv31c7ig1LLnVY2v1XYSKMZ5XAMWcKoAZZVkqi5kH-dqo1hj_KjtTZu9hq7m00]--></g></svg>