<?xml version="1.0" encoding="us-ascii" standalone="no"?><svg xmlns="http://www.w3.org/2000/svg" xmlns:xlink="http://www.w3.org/1999/xlink" contentStyleType="text/css" height="1070px" preserveAspectRatio="none" style="width:1131px;height:1070px;background:#FFFFFF;" version="1.1" viewBox="0 0 1131 1070" width="1131px" zoomAndPan="magnify"><defs/><g><text fill="#000000" font-family="sans-serif" font-size="14" font-weight="bold" lengthAdjust="spacing" textLength="528" x="300.5" y="27.9951">Gateway Interactions: Decrypt, Rencrypt, Verify Proven Ciphertext</text><rect fill="none" height="894.5313" style="stroke:#000000;stroke-width:1.5;" width="937.5" x="10" y="106.8906"/><rect fill="#FA8072" height="732.7344" style="stroke:#000000;stroke-width:1.5;" width="917.5" x="20" y="261.6875"/><rect fill="#7FFFD4" height="657.3359" style="stroke:none;stroke-width:1.0;" width="917.5" x="20" y="337.0859"/><rect fill="#FA8072" height="497.8672" style="stroke:#000000;stroke-width:1.5;" width="897.5" x="30" y="489.5547"/><rect fill="#7FFFD4" height="422.4688" style="stroke:none;stroke-width:1.0;" width="897.5" x="30" y="564.9531"/><rect fill="#FA8072" height="134.4688" style="stroke:#000000;stroke-width:1.5;" width="873" x="40" y="759.5547"/><rect fill="#7FFFD4" height="59.0703" style="stroke:none;stroke-width:1.0;" width="873" x="40" y="834.9531"/><line style="stroke:#181818;stroke-width:0.5;stroke-dasharray:5.0,5.0;" x1="75" x2="75" y1="89.8906" y2="1018.4219"/><line style="stroke:#181818;stroke-width:0.5;stroke-dasharray:5.0,5.0;" x1="182" x2="182" y1="89.8906" y2="1018.4219"/><line style="stroke:#181818;stroke-width:0.5;stroke-dasharray:5.0,5.0;" x1="329" x2="329" y1="89.8906" y2="1018.4219"/><line style="stroke:#181818;stroke-width:0.5;stroke-dasharray:5.0,5.0;" x1="441" x2="441" y1="89.8906" y2="1018.4219"/><line style="stroke:#181818;stroke-width:0.5;stroke-dasharray:5.0,5.0;" x1="635.5" x2="635.5" y1="89.8906" y2="1018.4219"/><line style="stroke:#181818;stroke-width:0.5;stroke-dasharray:5.0,5.0;" x1="841" x2="841" y1="89.8906" y2="1018.4219"/><line style="stroke:#181818;stroke-width:0.5;stroke-dasharray:5.0,5.0;" x1="973" x2="973" y1="89.8906" y2="1018.4219"/><line style="stroke:#181818;stroke-width:0.5;stroke-dasharray:5.0,5.0;" x1="1084" x2="1084" y1="89.8906" y2="1018.4219"/><rect fill="#E2E2F0" height="30.2969" rx="2.5" ry="2.5" style="stroke:#181818;stroke-width:0.5;" width="51" x="50" y="58.5938"/><text fill="#000000" font-family="sans-serif" font-size="14" lengthAdjust="spacing" textLength="37" x="57" y="78.5889">Dapp</text><rect fill="#E2E2F0" height="30.2969" rx="2.5" ry="2.5" style="stroke:#181818;stroke-width:0.5;" width="51" x="50" y="1017.4219"/><text fill="#000000" font-family="sans-serif" font-size="14" lengthAdjust="spacing" textLength="37" x="57" y="1037.417">Dapp</text><rect fill="#E2E2F0" height="30.2969" rx="2.5" ry="2.5" style="stroke:#181818;stroke-width:0.5;" width="142" x="111" y="58.5938"/><text fill="#000000" font-family="sans-serif" font-size="14" lengthAdjust="spacing" textLength="128" x="118" y="78.5889">FHE Enabled Node</text><rect fill="#E2E2F0" height="30.2969" rx="2.5" ry="2.5" style="stroke:#181818;stroke-width:0.5;" width="142" x="111" y="1017.4219"/><text fill="#000000" font-family="sans-serif" font-size="14" lengthAdjust="spacing" textLength="128" x="118" y="1037.417">FHE Enabled Node</text><rect fill="#E2E2F0" height="46.5938" rx="2.5" ry="2.5" style="stroke:#181818;stroke-width:0.5;" width="132" x="263" y="42.2969"/><text fill="#000000" font-family="sans-serif" font-size="14" lengthAdjust="spacing" textLength="110" x="274" y="62.292">ZK Proof Verifier</text><text fill="#000000" font-family="sans-serif" font-size="14" lengthAdjust="spacing" textLength="118" x="270" y="78.5889">(Trusted Service)</text><rect fill="#E2E2F0" height="46.5938" rx="2.5" ry="2.5" style="stroke:#181818;stroke-width:0.5;" width="132" x="263" y="1017.4219"/><text fill="#000000" font-family="sans-serif" font-size="14" lengthAdjust="spacing" textLength="110" x="274" y="1037.417">ZK Proof Verifier</text><text fill="#000000" font-family="sans-serif" font-size="14" lengthAdjust="spacing" textLength="118" x="270" y="1053.7139">(Trusted Service)</text><rect fill="#E2E2F0" height="30.2969" rx="2.5" ry="2.5" style="stroke:#181818;stroke-width:0.5;" width="73" x="405" y="58.5938"/><text fill="#000000" font-family="sans-serif" font-size="14" lengthAdjust="spacing" textLength="59" x="412" y="78.5889">Gateway</text><rect fill="#E2E2F0" height="30.2969" rx="2.5" ry="2.5" style="stroke:#181818;stroke-width:0.5;" width="73" x="405" y="1017.4219"/><text fill="#000000" font-family="sans-serif" font-size="14" lengthAdjust="spacing" textLength="59" x="412" y="1037.417">Gateway</text><rect fill="#E2E2F0" height="30.2969" rx="2.5" ry="2.5" style="stroke:#181818;stroke-width:0.5;" width="96" x="587.5" y="58.5938"/><text fill="#000000" font-family="sans-serif" font-size="14" lengthAdjust="spacing" textLength="82" x="594.5" y="78.5889">Persistence</text><rect fill="#E2E2F0" height="30.2969" rx="2.5" ry="2.5" style="stroke:#181818;stroke-width:0.5;" width="96" x="587.5" y="1017.4219"/><text fill="#000000" font-family="sans-serif" font-size="14" lengthAdjust="spacing" textLength="82" x="594.5" y="1037.417">Persistence</text><rect fill="#E2E2F0" height="30.2969" rx="2.5" ry="2.5" style="stroke:#181818;stroke-width:0.5;" width="123" x="780" y="58.5938"/><text fill="#000000" font-family="sans-serif" font-size="14" lengthAdjust="spacing" textLength="109" x="787" y="78.5889">KMS Blockchain</text><rect fill="#E2E2F0" height="30.2969" rx="2.5" ry="2.5" style="stroke:#181818;stroke-width:0.5;" width="123" x="780" y="1017.4219"/><text fill="#000000" font-family="sans-serif" font-size="14" lengthAdjust="spacing" textLength="109" x="787" y="1037.417">KMS Blockchain</text><rect fill="#E2E2F0" height="30.2969" rx="2.5" ry="2.5" style="stroke:#181818;stroke-width:0.5;" width="121" x="913" y="58.5938"/><text fill="#000000" font-family="sans-serif" font-size="14" lengthAdjust="spacing" textLength="107" x="920" y="78.5889">KMS Connector</text><rect fill="#E2E2F0" height="30.2969" rx="2.5" ry="2.5" style="stroke:#181818;stroke-width:0.5;" width="121" x="913" y="1017.4219"/><text fill="#000000" font-family="sans-serif" font-size="14" lengthAdjust="spacing" textLength="107" x="920" y="1037.417">KMS Connector</text><rect fill="#E2E2F0" height="30.2969" rx="2.5" ry="2.5" style="stroke:#181818;stroke-width:0.5;" width="81" x="1044" y="58.5938"/><text fill="#000000" font-family="sans-serif" font-size="14" lengthAdjust="spacing" textLength="67" x="1051" y="78.5889">KMS Core</text><rect fill="#E2E2F0" height="30.2969" rx="2.5" ry="2.5" style="stroke:#181818;stroke-width:0.5;" width="81" x="1044" y="1017.4219"/><text fill="#000000" font-family="sans-serif" font-size="14" lengthAdjust="spacing" textLength="67" x="1051" y="1037.417">KMS Core</text><path d="M10,106.8906 L276,106.8906 L276,114.0234 L266,124.0234 L10,124.0234 L10,106.8906 " fill="#EEEEEE" style="stroke:#000000;stroke-width:1.5;"/><rect fill="none" height="894.5313" style="stroke:#000000;stroke-width:1.5;" width="937.5" x="10" y="106.8906"/><text fill="#000000" font-family="sans-serif" font-size="13" font-weight="bold" lengthAdjust="spacing" textLength="221" x="25" y="119.9575">Retrieve FHE keys aka /keyurl</text><polygon fill="#181818" points="429.5,156.2891,439.5,160.2891,429.5,164.2891,433.5,160.2891" style="stroke:#181818;stroke-width:1.0;"/><line style="stroke:#181818;stroke-width:1.0;" x1="75.5" x2="435.5" y1="160.2891" y2="160.2891"/><text fill="#000000" font-family="sans-serif" font-size="13" lengthAdjust="spacing" textLength="174" x="171.5" y="140.0903">Get public key material info</text><text fill="#000000" font-family="sans-serif" font-size="13" lengthAdjust="spacing" textLength="10" x="253.5" y="155.2231">()</text><polygon fill="#181818" points="829.5,200.5547,839.5,204.5547,829.5,208.5547,833.5,204.5547" style="stroke:#181818;stroke-width:1.0;"/><line style="stroke:#181818;stroke-width:1.0;" x1="441.5" x2="835.5" y1="204.5547" y2="204.5547"/><text fill="#000000" font-family="sans-serif" font-size="13" lengthAdjust="spacing" textLength="100" x="591.5" y="184.356">Get keygen info</text><text fill="#000000" font-family="sans-serif" font-size="13" lengthAdjust="spacing" textLength="50" x="616.5" y="199.4888">(key_id)</text><line style="stroke:#181818;stroke-width:1.0;" x1="841.5" x2="883.5" y1="233.6875" y2="233.6875"/><line style="stroke:#181818;stroke-width:1.0;" x1="883.5" x2="883.5" y1="233.6875" y2="246.6875"/><line style="stroke:#181818;stroke-width:1.0;" x1="842.5" x2="883.5" y1="246.6875" y2="246.6875"/><polygon fill="#181818" points="852.5,242.6875,842.5,246.6875,852.5,250.6875,848.5,246.6875" style="stroke:#181818;stroke-width:1.0;"/><text fill="#000000" font-family="sans-serif" font-size="13" lengthAdjust="spacing" textLength="67" x="848.5" y="228.6216">ASC query</text><path d="M20,261.6875 L84,261.6875 L84,268.8203 L74,278.8203 L20,278.8203 L20,261.6875 " fill="#EEEEEE" style="stroke:#000000;stroke-width:1.5;"/><rect fill="none" height="732.7344" style="stroke:#000000;stroke-width:1.5;" width="917.5" x="20" y="261.6875"/><text fill="#000000" font-family="sans-serif" font-size="13" font-weight="bold" lengthAdjust="spacing" textLength="19" x="35" y="274.7544">alt</text><text fill="#000000" font-family="sans-serif" font-size="11" font-weight="bold" lengthAdjust="spacing" textLength="236" x="99" y="273.8979">[if keygenResponse is invalid/empty]</text><polygon fill="#181818" points="452.5,295.9531,442.5,299.9531,452.5,303.9531,448.5,299.9531" style="stroke:#181818;stroke-width:1.0;"/><line style="stroke:#181818;stroke-width:1.0;" x1="446.5" x2="840.5" y1="299.9531" y2="299.9531"/><text fill="#000000" font-family="sans-serif" font-size="13" lengthAdjust="spacing" textLength="376" x="453.5" y="294.8872">Error: No key response values found associated with key ID</text><polygon fill="#181818" points="86.5,325.0859,76.5,329.0859,86.5,333.0859,82.5,329.0859" style="stroke:#181818;stroke-width:1.0;"/><line style="stroke:#181818;stroke-width:1.0;" x1="80.5" x2="440.5" y1="329.0859" y2="329.0859"/><text fill="#000000" font-family="sans-serif" font-size="13" lengthAdjust="spacing" textLength="237" x="140" y="324.02">Error: Fail to fetch public key material</text><line style="stroke:#000000;stroke-width:1.0;stroke-dasharray:2.0,2.0;" x1="20" x2="937.5" y1="338.0859" y2="338.0859"/><text fill="#000000" font-family="sans-serif" font-size="11" font-weight="bold" lengthAdjust="spacing" textLength="181" x="25" y="348.2964">[if keygenResponse is valid]</text><polygon fill="#181818" points="452.5,384.1563,442.5,388.1563,452.5,392.1563,448.5,388.1563" style="stroke:#181818;stroke-width:1.0;"/><line style="stroke:#181818;stroke-width:1.0;" x1="446.5" x2="840.5" y1="388.1563" y2="388.1563"/><text fill="#000000" font-family="sans-serif" font-size="13" lengthAdjust="spacing" textLength="121" x="581" y="367.9575">KeyGenResponse[]</text><text fill="#000000" font-family="sans-serif" font-size="13" lengthAdjust="spacing" textLength="262" x="510.5" y="383.0903">(pks_digest, pks_sig, sks_digest, sks_sig)</text><polygon fill="#181818" points="829.5,428.4219,839.5,432.4219,829.5,436.4219,833.5,432.4219" style="stroke:#181818;stroke-width:1.0;"/><line style="stroke:#181818;stroke-width:1.0;" x1="441.5" x2="835.5" y1="432.4219" y2="432.4219"/><text fill="#000000" font-family="sans-serif" font-size="13" lengthAdjust="spacing" textLength="140" x="571.5" y="412.2231">Get storage base URL</text><text fill="#000000" font-family="sans-serif" font-size="13" lengthAdjust="spacing" textLength="10" x="636.5" y="427.356">()</text><line style="stroke:#181818;stroke-width:1.0;" x1="841.5" x2="883.5" y1="461.5547" y2="461.5547"/><line style="stroke:#181818;stroke-width:1.0;" x1="883.5" x2="883.5" y1="461.5547" y2="474.5547"/><line style="stroke:#181818;stroke-width:1.0;" x1="842.5" x2="883.5" y1="474.5547" y2="474.5547"/><polygon fill="#181818" points="852.5,470.5547,842.5,474.5547,852.5,478.5547,848.5,474.5547" style="stroke:#181818;stroke-width:1.0;"/><text fill="#000000" font-family="sans-serif" font-size="13" lengthAdjust="spacing" textLength="67" x="848.5" y="456.4888">CSC query</text><path d="M30,489.5547 L94,489.5547 L94,496.6875 L84,506.6875 L30,506.6875 L30,489.5547 " fill="#EEEEEE" style="stroke:#000000;stroke-width:1.5;"/><rect fill="none" height="497.8672" style="stroke:#000000;stroke-width:1.5;" width="897.5" x="30" y="489.5547"/><text fill="#000000" font-family="sans-serif" font-size="13" font-weight="bold" lengthAdjust="spacing" textLength="19" x="45" y="502.6216">alt</text><text fill="#000000" font-family="sans-serif" font-size="11" font-weight="bold" lengthAdjust="spacing" textLength="240" x="109" y="501.7651">[if storage base URL is invalid/empty]</text><polygon fill="#181818" points="452.5,523.8203,442.5,527.8203,452.5,531.8203,448.5,527.8203" style="stroke:#181818;stroke-width:1.0;"/><line style="stroke:#181818;stroke-width:1.0;" x1="446.5" x2="840.5" y1="527.8203" y2="527.8203"/><text fill="#000000" font-family="sans-serif" font-size="13" lengthAdjust="spacing" textLength="260" x="511.5" y="522.7544">Error: No storage base URL found in CSC</text><polygon fill="#181818" points="86.5,552.9531,76.5,556.9531,86.5,560.9531,82.5,556.9531" style="stroke:#181818;stroke-width:1.0;"/><line style="stroke:#181818;stroke-width:1.0;" x1="80.5" x2="440.5" y1="556.9531" y2="556.9531"/><text fill="#000000" font-family="sans-serif" font-size="13" lengthAdjust="spacing" textLength="237" x="140" y="551.8872">Error: Fail to fetch public key material</text><line style="stroke:#000000;stroke-width:1.0;stroke-dasharray:2.0,2.0;" x1="30" x2="927.5" y1="565.9531" y2="565.9531"/><text fill="#000000" font-family="sans-serif" font-size="11" font-weight="bold" lengthAdjust="spacing" textLength="185" x="35" y="576.1636">[if storage base URL is valid]</text><polygon fill="#181818" points="452.5,612.0234,442.5,616.0234,452.5,620.0234,448.5,616.0234" style="stroke:#181818;stroke-width:1.0;"/><line style="stroke:#181818;stroke-width:1.0;" x1="446.5" x2="840.5" y1="616.0234" y2="616.0234"/><text fill="#000000" font-family="sans-serif" font-size="13" lengthAdjust="spacing" textLength="71" x="606" y="595.8247">Return URL</text><text fill="#000000" font-family="sans-serif" font-size="13" lengthAdjust="spacing" textLength="120" x="581.5" y="610.9575">(storage_base_url)</text><line style="stroke:#181818;stroke-width:1.0;" x1="441.5" x2="483.5" y1="645.1563" y2="645.1563"/><line style="stroke:#181818;stroke-width:1.0;" x1="483.5" x2="483.5" y1="645.1563" y2="658.1563"/><line style="stroke:#181818;stroke-width:1.0;" x1="442.5" x2="483.5" y1="658.1563" y2="658.1563"/><polygon fill="#181818" points="452.5,654.1563,442.5,658.1563,452.5,662.1563,448.5,658.1563" style="stroke:#181818;stroke-width:1.0;"/><text fill="#000000" font-family="sans-serif" font-size="13" lengthAdjust="spacing" textLength="134" x="448.5" y="640.0903">Prepare FHE key Urls</text><polygon fill="#181818" points="829.5,698.4219,839.5,702.4219,829.5,706.4219,833.5,702.4219" style="stroke:#181818;stroke-width:1.0;"/><line style="stroke:#181818;stroke-width:1.0;" x1="441.5" x2="835.5" y1="702.4219" y2="702.4219"/><text fill="#000000" font-family="sans-serif" font-size="13" lengthAdjust="spacing" textLength="97" x="593" y="682.2231">Get crsgen info</text><text fill="#000000" font-family="sans-serif" font-size="13" lengthAdjust="spacing" textLength="47" x="618" y="697.356">(crs_id)</text><line style="stroke:#181818;stroke-width:1.0;" x1="841.5" x2="883.5" y1="731.5547" y2="731.5547"/><line style="stroke:#181818;stroke-width:1.0;" x1="883.5" x2="883.5" y1="731.5547" y2="744.5547"/><line style="stroke:#181818;stroke-width:1.0;" x1="842.5" x2="883.5" y1="744.5547" y2="744.5547"/><polygon fill="#181818" points="852.5,740.5547,842.5,744.5547,852.5,748.5547,848.5,744.5547" style="stroke:#181818;stroke-width:1.0;"/><text fill="#000000" font-family="sans-serif" font-size="13" lengthAdjust="spacing" textLength="67" x="848.5" y="726.4888">ASC query</text><path d="M40,759.5547 L104,759.5547 L104,766.6875 L94,776.6875 L40,776.6875 L40,759.5547 " fill="#EEEEEE" style="stroke:#000000;stroke-width:1.5;"/><rect fill="none" height="134.4688" style="stroke:#000000;stroke-width:1.5;" width="873" x="40" y="759.5547"/><text fill="#000000" font-family="sans-serif" font-size="13" font-weight="bold" lengthAdjust="spacing" textLength="19" x="55" y="772.6216">alt</text><text fill="#000000" font-family="sans-serif" font-size="11" font-weight="bold" lengthAdjust="spacing" textLength="233" x="119" y="771.7651">[if crsgenResponse is invalid/empty]</text><polygon fill="#181818" points="452.5,793.8203,442.5,797.8203,452.5,801.8203,448.5,797.8203" style="stroke:#181818;stroke-width:1.0;"/><line style="stroke:#181818;stroke-width:1.0;" x1="446.5" x2="840.5" y1="797.8203" y2="797.8203"/><text fill="#000000" font-family="sans-serif" font-size="13" lengthAdjust="spacing" textLength="370" x="456.5" y="792.7544">Error: No crs response values found associated with crs ID</text><polygon fill="#181818" points="86.5,822.9531,76.5,826.9531,86.5,830.9531,82.5,826.9531" style="stroke:#181818;stroke-width:1.0;"/><line style="stroke:#181818;stroke-width:1.0;" x1="80.5" x2="440.5" y1="826.9531" y2="826.9531"/><text fill="#000000" font-family="sans-serif" font-size="13" lengthAdjust="spacing" textLength="237" x="140" y="821.8872">Error: Fail to fetch public key material</text><line style="stroke:#000000;stroke-width:1.0;stroke-dasharray:2.0,2.0;" x1="40" x2="913" y1="835.9531" y2="835.9531"/><text fill="#000000" font-family="sans-serif" font-size="11" font-weight="bold" lengthAdjust="spacing" textLength="178" x="45" y="846.1636">[if crsgenResponse is valid]</text><polygon fill="#181818" points="452.5,882.0234,442.5,886.0234,452.5,890.0234,448.5,886.0234" style="stroke:#181818;stroke-width:1.0;"/><line style="stroke:#181818;stroke-width:1.0;" x1="446.5" x2="840.5" y1="886.0234" y2="886.0234"/><text fill="#000000" font-family="sans-serif" font-size="13" lengthAdjust="spacing" textLength="117" x="583" y="865.8247">crsGenResponse[]</text><text fill="#000000" font-family="sans-serif" font-size="13" lengthAdjust="spacing" textLength="189" x="547" y="880.9575">(req_id, sig, max_num_bits...)</text><line style="stroke:#181818;stroke-width:1.0;" x1="441.5" x2="483.5" y1="922.1563" y2="922.1563"/><line style="stroke:#181818;stroke-width:1.0;" x1="483.5" x2="483.5" y1="922.1563" y2="935.1563"/><line style="stroke:#181818;stroke-width:1.0;" x1="442.5" x2="483.5" y1="935.1563" y2="935.1563"/><polygon fill="#181818" points="452.5,931.1563,442.5,935.1563,452.5,939.1563,448.5,935.1563" style="stroke:#181818;stroke-width:1.0;"/><text fill="#000000" font-family="sans-serif" font-size="13" lengthAdjust="spacing" textLength="180" x="448.5" y="917.0903">Prepare KeyUrlInfoResponse</text><polygon fill="#181818" points="86.5,975.4219,76.5,979.4219,86.5,983.4219,82.5,979.4219" style="stroke:#181818;stroke-width:1.0;"/><line style="stroke:#181818;stroke-width:1.0;" x1="80.5" x2="440.5" y1="979.4219" y2="979.4219"/><text fill="#000000" font-family="sans-serif" font-size="13" lengthAdjust="spacing" textLength="126" x="195.5" y="959.2231">KeyUrlInfoResponse</text><text fill="#000000" font-family="sans-serif" font-size="13" lengthAdjust="spacing" textLength="289" x="114" y="974.356">(fhe_Key_Info[], CRS_Info[], verf_public_key[])</text><!--SRC=[hLJBRjim4BppAnRAfGRIv9v3WTHvD4XJ17RRGzD0eAcLJ4WYbILbH_twBYKvVaW14Y0y6DHgPZax6jhbsbIIP0aEdseq2k_GEPdXUQ4p0mgDHnB2QryWHDVIuresS1EgKdbjZJk32rJKLFuOPiplTh-HTDh0FTaL6fZgQedayTb7Gl1fNYjTIUCXhEX2LbK4UqiwIBWwn5vzkuHB8nS59l339XXruEL2ZJJ-Sni4sBHJev7-cay_gNQUoNEabLOuYGBzNxxg4SCkcv4Fv6NhuNdtI4vpTpOnsYAhRHL6HDxUpU5hOLMkbbARg2VbfUEHHi5JQmmgRoc2BLXnyJKuORGdlOKJ2buPsRhYp-P9umeXk9jZuq3c4avvLrCXHFWIyFaBZtm6r-YXgXU5LW489Pj3MXQWJMhPtOd8rW7Qok_G3Ciu0Zs0dsATJ4GBs46UpwV0yQD6oCB3qLmMfMLIsjDdw2gE6e9st6ab2vsSObdvPjiegBiaidJ6mMZ5qOR4-1eTfBOs2HlWhD8oP62j_R95tbn0BppC-jBdIke2l8KKlLgEZIsmuFP7vq-rB2LfW-EAMxtxIc-nkTw27XxPcYftSQ8pT7nzmjxfx1ZSJj5rnH6F7QU1homi91_uQ_Qz_HA75azVi_YG_MQJ1yJEOMt2MHzdw9Y-4KivnJMPVloU4mTEp2dUc1Q0zuHyKrxI3h-eS69egYAt4rn-UbzmE_gxWykqDmOt83yqk4F58oupw32uX4zi3USp1BQKpx6fotYXlJivEPa8DCc8zvn_jls6lTsqsfjZ-9hFIPSOyuiub1yUZs4wcx_i-VyxZRj1OnxquN4YsfDtVlu3]--></g></svg>